<?xml version="1.0" encoding="UTF-8" standalone="no"?>
<!-- Created with Inkscape (http://www.inkscape.org/) -->

<svg
   xmlns:dc="http://purl.org/dc/elements/1.1/"
   xmlns:cc="http://creativecommons.org/ns#"
   xmlns:rdf="http://www.w3.org/1999/02/22-rdf-syntax-ns#"
   xmlns:svg="http://www.w3.org/2000/svg"
   xmlns="http://www.w3.org/2000/svg"
   xmlns:sodipodi="http://sodipodi.sourceforge.net/DTD/sodipodi-0.dtd"
   xmlns:inkscape="http://www.inkscape.org/namespaces/inkscape"
   width="210mm"
   height="297mm"
   id="svg3099"
   version="1.1"
   inkscape:version="0.48.1 r9760"
   sodipodi:docname="New document 4">
  <defs
     id="defs3" />
  <sodipodi:namedview
     inkscape:document-units="mm"
     id="base"
     pagecolor="#ffffff"
     bordercolor="#666666"
     borderopacity="1.0"
     inkscape:pageopacity="0.0"
     inkscape:pageshadow="2"
     inkscape:zoom="0.7"
     inkscape:cx="401.45758"
     inkscape:cy="659.76956"
     inkscape:current-layer="layer1"
     showgrid="false"
     inkscape:window-width="1366"
     inkscape:window-height="721"
     inkscape:window-x="-2"
     inkscape:window-y="-3"
     inkscape:window-maximized="1" />
  <metadata
     id="metadata4">
    <rdf:RDF>
      <cc:Work
         rdf:about="">
        <dc:format>image/svg+xml</dc:format>
        <dc:type
           rdf:resource="http://purl.org/dc/dcmitype/StillImage" />
        <dc:title></dc:title>
      </cc:Work>
    </rdf:RDF>
  </metadata>
  <g
     inkscape:label="Layer 1"
     inkscape:groupmode="layer"
     id="layer1">
    <path
       inkscape:connector-curvature="0"
       style="fill:#000000;fill-opacity:1;fill-rule:nonzero;stroke:none"
       d="m 173.0132,90.516356 c -0.6223,1.604325 -1.40715,2.561341 -2.09678,2.561341 -5.53626,0 -19.19033,0.01731 -24.60252,0.02408 l 0,-21.11976 24.60252,7.7e-4 c 1.39657,0 3.34427,4.012735 3.34427,10.547376 0,3.036482 -0.4559,5.947928 -1.24749,7.986036 m 4.2128,-17.61006 c -1.8419,-4.736028 -4.74276,-5.443931 -6.30958,-5.443931 l -24.60252,-0.0015 0,-9.853901 -4.52058,0 0,40.021552 2.26413,-0.0031 c 0,0 19.87901,-0.02786 26.85897,-0.02786 1.56682,0 4.46768,-0.70598 6.30958,-5.442007 1.00318,-2.578654 1.55431,-5.996019 1.55431,-9.624986 0,-3.628005 -0.55113,-7.046332 -1.55431,-9.624024"
       id="path10" />
    <path
       inkscape:connector-curvature="0"
       style="fill:#000000;fill-opacity:1;fill-rule:nonzero;stroke:none"
       d="m 366.07078,90.516356 c -0.6223,1.604325 -1.40715,2.561341 -2.09486,2.561341 -5.53819,0 -19.1913,0.01731 -24.60445,0.02408 l 0,-21.11976 24.60445,7.7e-4 c 1.39561,0 3.34331,4.012735 3.34331,10.547376 0,3.036482 -0.45591,5.947928 -1.24845,7.986036 m 4.21376,-17.61006 c -1.8419,-4.736028 -4.74373,-5.443931 -6.30862,-5.443931 l -24.60445,-0.0015 0,-9.853901 -4.51962,0 0,40.021552 2.26318,-0.0031 c 0,0 19.87997,-0.02786 26.86089,-0.02786 1.56489,0 4.46672,-0.70598 6.30862,-5.442007 1.00318,-2.578654 1.55431,-5.996019 1.55431,-9.624986 0,-3.628005 -0.55113,-7.046332 -1.55431,-9.624024"
       id="path12" />
    <path
       inkscape:connector-curvature="0"
       style="fill:#000000;fill-opacity:1;fill-rule:nonzero;stroke:none"
       d="m 298.58912,71.981983 c -0.68963,0 -1.47256,0.957016 -2.09678,2.561341 -0.79255,2.038107 -1.24749,4.948591 -1.24749,7.986035 0,6.534641 1.9477,10.547376 3.34427,10.547376 5.53722,0 19.19033,0.01731 24.60349,0.02408 l 0,-21.118798 -24.60349,0 z m 29.1231,25.645148 -2.26221,-0.0031 c 0,0 -19.87997,-0.02693 -26.86089,-0.02693 -1.56586,0 -4.46768,-0.706942 -6.30958,-5.442969 -1.00222,-2.578654 -1.55431,-5.996019 -1.55431,-9.624986 0,-3.628005 0.55209,-7.046333 1.55431,-9.624024 1.8419,-4.736028 4.74372,-5.443932 6.30958,-5.443932 l 26.86378,0 2.24666,0.0046 0.0127,30.161303 z"
       id="path14"
       sodipodi:nodetypes="cssscccccssssccc" />
    <path
       inkscape:connector-curvature="0"
       style="fill:#000000;fill-opacity:1;fill-rule:nonzero;stroke:none"
       d="m 279.77581,97.624245 4.51981,0 0,-40.017703 -4.51981,0 0,40.017703 z"
       id="path16" />
    <path
       inkscape:connector-curvature="0"
       style="fill:#000000;fill-opacity:1;fill-rule:nonzero;stroke:none"
       d="m 213.43872,71.385651 c -0.77523,-1.132068 -2.12948,-2.292992 -4.45614,-3.198069 -2.57769,-1.002222 -5.99698,-1.55431 -9.62498,-1.55431 -3.62801,0 -7.0473,0.552088 -9.62403,1.55431 -4.73602,1.841895 -5.44296,4.74276 -5.44296,6.308612 0,7.601305 -0.0135,23.121319 -0.0135,23.121319 l 4.51962,0.0038 c 0,0 0.0135,-15.522899 0.0135,-23.125166 0,-1.395608 4.01178,-3.343305 10.54738,-3.343305 3.03744,0 5.94793,0.453982 7.98603,1.247488 1.22248,0.475141 2.06793,1.042618 2.40264,1.590859 l 3.69245,-2.605585 z"
       id="path18" />
    <path
       inkscape:connector-curvature="0"
       style="fill:#000000;fill-opacity:1;fill-rule:nonzero;stroke:none"
       d="m 246.95833,74.501965 c 0,-1.39657 4.03198,-3.343305 10.56758,-3.343305 3.0384,0 5.94793,0.453982 7.98603,1.246526 1.60433,0.624224 2.56134,1.408112 2.56134,2.096779 0,6.980928 0.0145,23.125166 0.0145,23.125166 l 4.51862,-0.0031 c 0,-7.69e-4 -0.0135,-16.142314 -0.0135,-23.12228 0,-1.565852 -0.70598,-4.466717 -5.44201,-6.309574 -2.57865,-1.002222 -5.99602,-1.553348 -9.62498,-1.553348 -3.62897,0 -7.0473,0.551126 -9.62499,1.553348 -1.3831,0.538622 -2.43438,1.158999 -3.21249,1.817849 -0.77716,-0.652117 -1.8217,-1.284036 -3.19326,-1.817849 -2.57673,-1.002222 -5.99506,-1.553348 -9.62499,-1.553348 -3.62801,0 -7.04537,0.551126 -9.62306,1.553348 -4.73699,1.842857 -5.44393,4.743722 -5.44393,6.309574 0,7.600343 -0.0126,23.121318 -0.0126,23.121318 l 4.51962,0.0038 c 0,0 0.0135,-15.522899 0.0135,-23.125166 0,-1.396571 4.01273,-3.343305 10.54641,-3.343305 3.03841,0 5.94889,0.453981 7.987,1.246525 1.60336,0.624225 2.56134,1.408113 2.56134,2.09678 0,6.980928 0.0135,23.128051 0.0135,23.128051 l 4.51961,-0.0038 c 0,0 0.007,-16.144238 0.007,-23.124204"
       id="path20" />
    <path
       inkscape:connector-curvature="0"
       style="fill:#000000;fill-opacity:1;fill-rule:nonzero;stroke:none"
       d="m 100.83399,60.141913 c -15.388245,0 -27.906402,12.52008 -27.906402,27.908323 0,7.454146 2.902789,14.462004 8.173592,19.732804 5.271764,5.27081 12.278662,8.1736 19.73281,8.1736 15.38824,0 27.90832,-12.51912 27.90832,-27.906404 -7.7e-4,-15.389205 -12.52008,-27.908323 -27.90832,-27.908323 m 0,59.948647 c -8.557362,0 -16.604954,-3.33272 -22.655797,-9.38453 -6.051805,-6.0518 -9.38453,-14.097472 -9.38453,-22.655794 0,-17.667769 14.373517,-32.041286 32.040327,-32.042248 17.66777,0 32.04128,14.373517 32.04128,32.042248 0,17.666804 -14.37351,32.040324 -32.04128,32.040324"
       id="path22" />
    <path
       inkscape:connector-curvature="0"
       style="fill:#000000;fill-opacity:1;fill-rule:nonzero;stroke:none"
       d="m 89.209367,106.83853 c 3.466418,2.13814 7.441642,3.26348 11.553443,3.26348 4.11181,0 8.08799,-1.12534 11.55441,-3.26348 -1.14072,-2.04195 -0.82044,-4.62445 0.89354,-6.33843 1.00414,-1.004143 2.33916,-1.557192 3.75881,-1.557192 0.90604,0 1.7938,0.232762 2.57673,0.665583 5.3237,-8.630458 4.04159,-19.915555 -3.19038,-27.148481 -2.90471,-2.904713 -6.51251,-4.918775 -10.47908,-5.85944 -0.63769,2.24971 -2.69023,3.849225 -5.11307,3.849225 -2.422834,0 -4.475369,-1.599515 -5.113059,-3.849225 -3.966567,0.940665 -7.575336,2.955689 -10.479087,5.860402 -7.233888,7.232926 -8.516001,18.517061 -3.19326,27.147519 0.783888,-0.432821 1.672615,-0.665583 2.577692,-0.665583 1.420616,0 2.754668,0.553049 3.759775,1.557192 1.714935,1.71398 2.035223,4.29648 0.893536,6.33843 m 11.552483,5.00246 c -4.752378,0 -9.337399,-1.39465 -13.259723,-4.03294 l -0.798315,-0.53573 0.611721,-0.73965 c 1.178236,-1.42831 1.079168,-3.49142 -0.2318,-4.80239 -0.675201,-0.6752 -1.573546,-1.04743 -2.528639,-1.04743 -0.829093,0 -1.636065,0.28951 -2.272793,0.81467 l -0.740605,0.61076 -0.535737,-0.7964 c -6.325925,-9.404724 -5.092865,-22.056574 2.933567,-30.082045 3.35677,-3.358694 7.585916,-5.614174 12.229609,-6.524061 l 0.942589,-0.183708 0.09233,0.955092 c 0.176014,1.841896 1.706278,3.230771 3.558756,3.230771 1.85247,0 3.38274,-1.388875 3.55971,-3.230771 l 0.0923,-0.955092 0.94163,0.183708 c 4.64177,0.909887 8.87188,3.165367 12.22961,6.522138 8.02547,8.026432 9.25949,20.679244 2.9326,30.083968 l -0.53573,0.7964 -0.73965,-0.61173 c -0.63865,-0.52515 -1.44466,-0.8137 -2.27471,-0.8137 -0.95509,0 -1.85248,0.37126 -2.52864,1.04647 -1.31001,1.31096 -1.40908,3.37504 -0.2318,4.80335 l 0.61076,0.73965 -0.79639,0.53573 c -3.92233,2.63829 -8.50831,4.03294 -13.26069,4.03294"
       id="path24" />
    <path
       inkscape:connector-curvature="0"
       style="fill:#000000;fill-opacity:1;fill-rule:nonzero;stroke:none"
       d="m 89.017002,76.666072 c -0.903154,0 -1.637989,0.734834 -1.637989,1.63895 0,0.903154 0.734835,1.637989 1.637989,1.637989 0.902192,0 1.637988,-0.734835 1.637988,-1.637989 0,-0.904116 -0.735796,-1.63895 -1.637988,-1.63895 m 0,5.016881 c -1.864018,0 -3.379854,-1.515837 -3.379854,-3.378893 0,-1.863055 1.515836,-3.379854 3.379854,-3.379854 1.863056,0 3.378892,1.516799 3.378892,3.379854 0,1.863056 -1.515836,3.378893 -3.378892,3.378893"
       id="path26" />
    <path
       inkscape:connector-curvature="0"
       style="fill:#000000;fill-opacity:1;fill-rule:nonzero;stroke:none"
       d="m 86.046885,88.419577 c -0.903154,0 -1.637988,0.734835 -1.637988,1.638951 0,0.904115 0.734834,1.637988 1.637988,1.637988 0.903154,0 1.638951,-0.733873 1.638951,-1.637988 0,-0.904116 -0.735797,-1.638951 -1.638951,-1.638951 m 0,5.017843 c -1.864017,0 -3.378892,-1.515837 -3.378892,-3.378892 0,-1.863056 1.514875,-3.379855 3.378892,-3.379855 1.864018,0 3.379855,1.516799 3.379855,3.379855 0,1.863055 -1.515837,3.378892 -3.379855,3.378892"
       id="path28" />
    <path
       inkscape:connector-curvature="0"
       style="fill:#000000;fill-opacity:1;fill-rule:nonzero;stroke:none"
       d="m 115.47682,88.419577 c -0.9022,0 -1.63895,0.734835 -1.63895,1.638951 0,0.904115 0.73675,1.637988 1.63895,1.637988 0.90315,0 1.63895,-0.733873 1.63895,-1.637988 0,-0.904116 -0.7358,-1.638951 -1.63895,-1.638951 m 0,5.017843 c -1.86306,0 -3.37986,-1.515837 -3.37986,-3.378892 0,-1.863056 1.5168,-3.379855 3.37986,-3.379855 1.86401,0 3.37985,1.516799 3.37985,3.379855 0,1.863055 -1.51584,3.378892 -3.37985,3.378892"
       id="path30" />
    <path
       inkscape:connector-curvature="0"
       style="fill:#000000;fill-opacity:1;fill-rule:nonzero;stroke:none"
       d="m 94.773526,100.10576 c -0.903154,0 -1.637026,0.73483 -1.637026,1.63895 0,0.90315 0.733872,1.63798 1.637026,1.63798 0.903154,0 1.638951,-0.73483 1.638951,-1.63798 0,-0.90412 -0.735797,-1.63895 -1.638951,-1.63895 m 0,5.01784 c -1.863055,0 -3.37793,-1.51584 -3.37793,-3.37889 0,-1.863061 1.514875,-3.379859 3.37793,-3.379859 1.864018,0 3.379855,1.516798 3.379855,3.379859 0,1.86305 -1.515837,3.37889 -3.379855,3.37889"
       id="path32" />
    <path
       inkscape:connector-curvature="0"
       style="fill:#000000;fill-opacity:1;fill-rule:nonzero;stroke:none"
       d="m 112.50478,76.666072 c -0.90316,0 -1.63895,0.734834 -1.63895,1.63895 0,0.903154 0.73579,1.637989 1.63895,1.637989 0.90315,0 1.63702,-0.734835 1.63702,-1.637989 0,-0.904116 -0.73387,-1.63895 -1.63702,-1.63895 m 0,5.016881 c -1.86402,0 -3.37986,-1.515837 -3.37986,-3.378893 0,-1.863055 1.51584,-3.379854 3.37986,-3.379854 1.86305,0 3.37793,1.516799 3.37793,3.379854 0,1.863056 -1.51488,3.378893 -3.37793,3.378893"
       id="path34" />
    <path
       inkscape:connector-curvature="0"
       style="fill:#000000;fill-opacity:1;fill-rule:nonzero;stroke:none"
       d="m 106.75306,100.10576 c -0.90315,0 -1.63895,0.73579 -1.63895,1.63895 0,0.90315 0.7358,1.63798 1.63895,1.63798 0.90219,0 1.63799,-0.73483 1.63799,-1.63798 0,-0.90316 -0.7358,-1.63895 -1.63799,-1.63895 m 0,5.01784 c -1.86402,0 -3.37985,-1.51584 -3.37985,-3.37889 0,-1.863061 1.51583,-3.379859 3.37985,-3.379859 1.86306,0 3.37889,1.516798 3.37889,3.379859 0,1.86305 -1.51583,3.37889 -3.37889,3.37889"
       id="path36" />
    <path
       inkscape:connector-curvature="0"
       style="fill:#000000;fill-opacity:1;fill-rule:nonzero;stroke:none"
       d="m 100.77051,76.666072 c -0.903157,0 -1.638953,0.734834 -1.638953,1.63895 0,0.903154 0.735796,1.637989 1.638953,1.637989 0.90219,0 1.63799,-0.734835 1.63799,-1.637989 0,-0.904116 -0.7358,-1.63895 -1.63799,-1.63895 m 0,5.016881 c -1.86402,0 -3.379857,-1.515837 -3.379857,-3.378893 0,-1.863055 1.515837,-3.379854 3.379857,-3.379854 1.86305,0 3.37889,1.516799 3.37889,3.379854 0,1.863056 -1.51584,3.378893 -3.37889,3.378893"
       id="path38" />
    <path
       inkscape:connector-curvature="0"
       style="fill:#000000;fill-opacity:1;fill-rule:nonzero;stroke:none"
       d="m 96.122967,90.035444 9.293153,0 0,-3.905011 -9.293153,0 0,3.905011 z m 11.034063,1.740904 -12.774005,0 0,-7.385857 12.774005,0 0,7.385857 z"
       id="path40" />
    <path
       inkscape:connector-curvature="0"
       style="fill:#000000;fill-opacity:1;fill-rule:nonzero;stroke:none"
       d="m 141.90777,105.819 2.09774,0 0,4.71775 c 0.87623,-1.06859 1.96405,-1.6024 3.26155,-1.6024 0.70791,0 1.34175,0.17698 1.90346,0.53093 0.55978,0.35299 0.97721,0.84063 1.25037,1.4639 0.27316,0.62133 0.40877,1.54853 0.40877,2.77775 l 0,6.04026 -2.09774,0 0,-6.55869 c 0,-0.77619 -0.19044,-1.40138 -0.57036,-1.87363 -0.38088,-0.47226 -0.88199,-0.70887 -1.50429,-0.70887 -0.46072,0 -0.89546,0.11927 -1.30328,0.3578 -0.40781,0.23757 -0.85698,0.63384 -1.34848,1.18689 l 0,7.5965 -2.09774,0 0,-13.92819 z"
       id="path42" />
    <path
       inkscape:connector-curvature="0"
       style="fill:#000000;fill-opacity:1;fill-rule:nonzero;stroke:none"
       d="m 160.49024,117.64945 0,-3.14613 -1.40619,0.54151 c -0.71464,0.28374 -1.21959,0.57036 -1.51584,0.85891 -0.29624,0.28758 -0.44436,0.64731 -0.44436,1.07724 0,0.43763 0.14043,0.79543 0.42032,1.07244 0.28085,0.27604 0.64442,0.41454 1.08975,0.41454 0.66943,0 1.28692,-0.27315 1.85632,-0.81851 m 2.06408,-4.27724 0,4.50808 c 0,0.36165 0.12215,0.54151 0.36837,0.54151 0.25393,0 0.64924,-0.18852 1.18786,-0.56459 l 0,1.27922 c -0.4761,0.30779 -0.85891,0.5165 -1.14842,0.62904 -0.28759,0.11061 -0.5896,0.16639 -0.90412,0.16639 -0.8993,0 -1.42927,-0.35299 -1.59086,-1.05993 -0.89161,0.69059 -1.84093,1.03685 -2.847,1.03685 -0.73772,0 -1.35329,-0.24334 -1.84382,-0.73195 -0.49245,-0.48765 -0.73868,-1.10129 -0.73868,-1.83805 0,-0.66943 0.24046,-1.26672 0.72137,-1.79284 0.47995,-0.52612 1.16188,-0.94355 2.0458,-1.25037 l 2.68542,-0.92336 0,-0.56459 c 0,-1.27538 -0.63769,-1.91307 -1.91307,-1.91307 -1.1465,0 -2.25933,0.59152 -3.34331,1.77553 l 0,-2.29492 c 0.81467,-0.96086 1.98713,-1.44081 3.51547,-1.44081 1.14554,0 2.06408,0.29913 2.75563,0.89931 0.23084,0.19236 0.4386,0.44821 0.6223,0.76657 0.18564,0.31933 0.30202,0.63769 0.35107,0.95702 0.05,0.31932 0.076,0.92431 0.076,1.81496"
       id="path44" />
    <path
       inkscape:connector-curvature="0"
       style="fill:#000000;fill-opacity:1;fill-rule:nonzero;stroke:none"
       d="m 176.04295,117.26472 0,2.07562 c -1.0532,0.39146 -2.08331,0.58768 -3.08938,0.58768 -1.66011,0 -2.98262,-0.49246 -3.97138,-1.47544 -0.98683,-0.98395 -1.48121,-2.30261 -1.48121,-3.95407 0,-1.66781 0.47995,-3.01244 1.44082,-4.03486 0.9599,-1.02242 2.22566,-1.53315 3.79344,-1.53315 0.54439,0 1.03588,0.0519 1.46967,0.15486 0.43378,0.10387 0.96952,0.29816 1.60817,0.58286 l 0,2.23625 c -1.0609,-0.67617 -2.04484,-1.01377 -2.95184,-1.01377 -0.94452,0 -1.72167,0.33183 -2.32858,0.99645 -0.60692,0.66559 -0.91085,1.51199 -0.91085,2.54211 0,1.08302 0.32894,1.94385 0.98683,2.58154 0.65597,0.63865 1.54181,0.95702 2.6556,0.95702 0.80793,0 1.73321,-0.23373 2.77871,-0.7031"
       id="path46" />
    <path
       inkscape:connector-curvature="0"
       style="fill:#000000;fill-opacity:1;fill-rule:nonzero;stroke:none"
       d="m 187.45982,109.13729 2.49113,0 -4.52443,5.18809 5.44682,5.41796 -2.81526,0 -5.3112,-5.41315 4.71294,-5.1929 z m -6.90398,-3.3231 2.0987,0 0,13.92819 -2.0987,0 0,-13.92819 z"
       id="path48" />
    <path
       inkscape:connector-curvature="0"
       style="fill:#000000;fill-opacity:1;fill-rule:nonzero;stroke:none"
       d="m 195.6161,113.36933 5.33717,0 c -0.0539,-0.83775 -0.30394,-1.48314 -0.74926,-1.93616 -0.44533,-0.45302 -1.04455,-0.68097 -1.79862,-0.68097 -0.75311,0 -1.36964,0.22795 -1.84959,0.68097 -0.47995,0.45302 -0.79447,1.09841 -0.9397,1.93616 m -0.0472,1.2571 c 0.0539,1.01377 0.39339,1.82074 1.0205,2.42092 0.62615,0.59922 1.43504,0.89834 2.42572,0.89834 1.38407,0 2.65945,-0.42993 3.82807,-1.29077 l 0,2.05158 c -0.64539,0.43089 -1.28597,0.73868 -1.91885,0.92239 -0.63576,0.18467 -1.37829,0.277 -2.23143,0.277 -1.16862,0 -2.11313,-0.24238 -2.83546,-0.72617 -0.72329,-0.4838 -1.30135,-1.13592 -1.7361,-1.95347 -0.43378,-0.81948 -0.65019,-1.76591 -0.65019,-2.8422 0,-1.61394 0.45687,-2.92587 1.37156,-3.93675 0.91374,-1.01088 2.10159,-1.51584 3.56164,-1.51584 1.40619,0 2.52768,0.49246 3.36639,1.47544 0.83775,0.98395 1.25185,2.56698 1.25185,4.2194 l -7.4537,1.3e-4 z"
       id="path50"
       sodipodi:nodetypes="ccsssccssccssssssssc" />
    <path
       inkscape:connector-curvature="0"
       style="fill:#000000;fill-opacity:1;fill-rule:nonzero;stroke:none"
       d="m 209.66837,109.13729 0,2.43246 0.11638,-0.18467 c 1.01472,-1.63703 2.02752,-2.45458 3.04225,-2.45458 0.79158,0 1.61779,0.39916 2.47862,1.19844 l -1.10609,1.84478 c -0.73099,-0.69252 -1.40716,-1.03781 -2.02946,-1.03781 -0.67616,0 -1.26191,0.32317 -1.75821,0.96759 -0.49438,0.64635 -0.74349,1.411 -0.74349,2.29492 l 0,5.54492 -2.10832,0 0,-10.60605 2.10832,0 z"
       id="path52" />
    <path
       inkscape:connector-curvature="0"
       style="fill:#000000;fill-opacity:1;fill-rule:nonzero;stroke:none"
       d="m 218.37289,118.98639 0,-2.25933 c 0.59056,0.41455 1.19554,0.75119 1.81496,1.00799 0.61845,0.25777 1.1388,0.38666 1.562,0.38666 0.4386,0 0.81467,-0.10773 1.13015,-0.32318 0.31452,-0.21448 0.47225,-0.47225 0.47225,-0.77234 0,-0.30682 -0.10195,-0.56267 -0.30586,-0.76561 -0.20294,-0.20391 -0.64346,-0.49823 -1.31962,-0.882 -1.35233,-0.75407 -2.23817,-1.39753 -2.65656,-1.93135 -0.41936,-0.53381 -0.62904,-1.11571 -0.62904,-1.74667 0,-0.8137 0.31741,-1.47929 0.95221,-1.99386 0.63384,-0.51554 1.44947,-0.77235 2.44881,-0.77235 1.03781,0 2.10159,0.29239 3.19422,0.87526 l 0,2.07562 c -1.24556,-0.75311 -2.2651,-1.13014 -3.05572,-1.13014 -0.40781,0 -0.73579,0.0866 -0.98587,0.25969 -0.25007,0.17409 -0.37415,0.40204 -0.37415,0.68674 0,0.24719 0.11253,0.48091 0.33856,0.70406 0.22699,0.22314 0.62423,0.49245 1.19363,0.80697 l 0.74926,0.42609 c 1.76784,0.99934 2.65175,2.10544 2.65175,3.32022 0,0.86757 -0.34048,1.58028 -1.02049,2.13718 -0.67905,0.55689 -1.55335,0.83486 -2.62194,0.83486 -0.63096,0 -1.19266,-0.0663 -1.68319,-0.20102 -0.4915,-0.13466 -1.11091,-0.38281 -1.85536,-0.74349"
       id="path54" />
    <path
       inkscape:connector-curvature="0"
       style="fill:#000000;fill-opacity:1;fill-rule:nonzero;stroke:none"
       d="m 233.58896,111.09942 -1.48409,0 0,6.52502 c 0.64442,0.32991 1.31866,0.49534 2.0256,0.49534 0.98106,0 1.78419,-0.34241 2.40841,-1.02626 0.62615,-0.68386 0.93778,-1.56393 0.93778,-2.63925 0,-0.69156 -0.14716,-1.30232 -0.44244,-1.83228 -0.29528,-0.53093 -0.69829,-0.91758 -1.20805,-1.159 -0.50977,-0.24238 -1.25518,-0.36357 -2.23721,-0.36357 m -3.62704,12.74707 0,-14.70727 3.67225,0 c 1.88037,0 3.34426,0.46937 4.39169,1.40715 1.04839,0.93778 1.57259,2.24778 1.57259,3.93098 0,1.59086 -0.49438,2.89702 -1.47929,3.91848 -0.98587,1.02242 -2.24298,1.53411 -3.76939,1.53411 -0.67521,0 -1.42254,-0.15101 -2.2449,-0.45014 l 0,4.36669 -2.14295,0 z"
       id="path56" />
    <path
       inkscape:connector-curvature="0"
       style="fill:#000000;fill-opacity:1;fill-rule:nonzero;stroke:none"
       d="m 248.63191,117.64945 0,-3.14613 -1.40523,0.54151 c -0.71463,0.28374 -1.21959,0.57036 -1.51583,0.85891 -0.29625,0.28758 -0.44437,0.64731 -0.44437,1.07724 0,0.43763 0.14043,0.79543 0.42032,1.07244 0.28085,0.27604 0.64346,0.41454 1.08975,0.41454 0.66943,0 1.28788,-0.27315 1.85536,-0.81851 m 2.06408,-4.27724 0,4.50808 c 0,0.36165 0.12215,0.54151 0.36934,0.54151 0.25392,0 0.64923,-0.18852 1.18785,-0.56459 l 0,1.27922 c -0.4761,0.30779 -0.85987,0.5165 -1.14842,0.62904 -0.28855,0.11061 -0.5896,0.16639 -0.90411,0.16639 -0.89931,0 -1.42928,-0.35299 -1.59086,-1.05993 -0.89161,0.69059 -1.84094,1.03685 -2.84701,1.03685 -0.73772,0 -1.35328,-0.24334 -1.84381,-0.73195 -0.49246,-0.48765 -0.73869,-1.10129 -0.73869,-1.83805 0,-0.66943 0.24046,-1.26672 0.72137,-1.79284 0.47995,-0.52612 1.16189,-0.94355 2.04581,-1.25037 l 2.68445,-0.92336 0,-0.56459 c 0,-1.27538 -0.63673,-1.91307 -1.91211,-1.91307 -1.1465,0 -2.26029,0.59152 -3.34427,1.77553 l 0,-2.29492 c 0.81563,-0.96086 1.9881,-1.44081 3.51644,-1.44081 1.14553,0 2.06311,0.29913 2.75563,0.89931 0.23084,0.19236 0.43859,0.44821 0.6223,0.76657 0.18563,0.31933 0.30201,0.63769 0.35106,0.95702 0.05,0.31932 0.075,0.92431 0.075,1.81496"
       id="path58" />
    <path
       inkscape:connector-curvature="0"
       style="fill:#000000;fill-opacity:1;fill-rule:nonzero;stroke:none"
       d="m 264.18462,117.26472 0,2.07562 c -1.05319,0.39146 -2.08331,0.58768 -3.08938,0.58768 -1.66011,0 -2.98262,-0.49246 -3.97137,-1.47544 -0.98684,-0.98395 -1.48122,-2.30261 -1.48122,-3.95407 0,-1.66781 0.47995,-3.01244 1.44082,-4.03486 0.9599,-1.02242 2.22566,-1.53315 3.79344,-1.53315 0.54535,0 1.03588,0.0519 1.46967,0.15486 0.43378,0.10387 0.96952,0.29816 1.60817,0.58286 l 0,2.23625 c -1.06186,-0.67617 -2.04484,-1.01377 -2.95184,-1.01377 -0.94452,0 -1.72167,0.33183 -2.32858,0.99645 -0.60691,0.66559 -0.91085,1.51199 -0.91085,2.54211 0,1.08302 0.32894,1.94385 0.98683,2.58154 0.65597,0.63865 1.54181,0.95702 2.6556,0.95702 0.80793,0 1.73321,-0.23373 2.77871,-0.7031"
       id="path60" />
    <path
       inkscape:connector-curvature="0"
       style="fill:#000000;fill-opacity:1;fill-rule:nonzero;stroke:none"
       d="m 270.32107,113.36933 5.33717,0 c -0.0539,-0.83775 -0.30394,-1.48314 -0.7483,-1.93616 -0.44629,-0.45302 -1.04551,-0.68097 -1.79958,-0.68097 -0.75311,0 -1.36867,0.22795 -1.84959,0.68097 -0.47995,0.45302 -0.7935,1.09841 -0.9397,1.93616 m -0.0462,1.2571 c 0.0539,1.01377 0.39435,1.82074 1.0205,2.42092 0.62615,0.59922 1.43504,0.89834 2.42668,0.89834 1.38407,0 2.65945,-0.42993 3.82711,-1.29077 l 0,2.05158 c -0.64443,0.43089 -1.285,0.73868 -1.91884,0.92239 -0.63481,0.18467 -1.37734,0.277 -2.23144,0.277 -1.16862,0 -2.11313,-0.24238 -2.83546,-0.72617 -0.72329,-0.4838 -1.30135,-1.13592 -1.73609,-1.95347 -0.43283,-0.81948 -0.6502,-1.76591 -0.6502,-2.8422 0,-1.61394 0.45687,-2.92587 1.37156,-3.93675 0.9147,-1.01088 2.10255,-1.51584 3.56164,-1.51584 1.40715,0 2.52864,0.49246 3.36639,1.47544 0.83775,0.98395 1.26312,2.57216 1.26312,4.22458 l -7.46497,-0.005 z"
       id="path62"
       sodipodi:nodetypes="ccsssccssccssssssssc" />
    <path
       inkscape:connector-curvature="0"
       style="fill:#000000;fill-opacity:1;fill-rule:nonzero;stroke:none"
       d="m 294.29938,111.09942 -1.4841,0 0,6.52502 c 0.64442,0.32991 1.31866,0.49534 2.0256,0.49534 0.98106,0 1.78419,-0.34241 2.40841,-1.02626 0.62519,-0.68386 0.93874,-1.56393 0.93874,-2.63925 0,-0.69156 -0.14812,-1.30232 -0.4434,-1.83228 -0.29624,-0.53093 -0.69828,-0.91758 -1.20805,-1.159 -0.50977,-0.24238 -1.25518,-0.36357 -2.2372,-0.36357 m -3.62705,12.74707 0,-14.70727 3.67225,0 c 1.88037,0 3.34427,0.46937 4.3917,1.40715 1.04838,0.93778 1.57162,2.24778 1.57162,3.93098 0,1.59086 -0.49342,2.89702 -1.47833,3.91848 -0.98587,1.02242 -2.24201,1.53411 -3.76939,1.53411 -0.6752,0 -1.4235,-0.15101 -2.2449,-0.45014 l 0,4.36669 -2.14295,0 z"
       id="path64" />
    <path
       inkscape:connector-curvature="0"
       style="fill:#000000;fill-opacity:1;fill-rule:nonzero;stroke:none"
       d="m 306.98585,109.13729 0,2.43246 0.11542,-0.18467 c 1.01473,-1.63703 2.02849,-2.45458 3.04322,-2.45458 0.79062,0 1.61779,0.39916 2.47862,1.19844 l -1.10706,1.84478 c -0.73003,-0.69252 -1.40523,-1.03781 -2.02849,-1.03781 -0.67616,0 -1.26192,0.32317 -1.75918,0.96759 -0.49438,0.64635 -0.74253,1.411 -0.74253,2.29492 l 0,5.54492 -2.10832,0 0,-10.60605 2.10832,0 z"
       id="path66" />
    <path
       inkscape:connector-curvature="0"
       style="fill:#000000;fill-opacity:1;fill-rule:nonzero;stroke:none"
       d="m 320.8169,117.64945 0,-3.14613 -1.40523,0.54151 c -0.7156,0.28374 -1.22055,0.57036 -1.5168,0.85891 -0.29624,0.28758 -0.44436,0.64731 -0.44436,1.07724 0,0.43763 0.14043,0.79543 0.42032,1.07244 0.28085,0.27604 0.64442,0.41454 1.09071,0.41454 0.66847,0 1.28692,-0.27315 1.85536,-0.81851 m 2.06311,-4.27724 0,4.50808 c 0,0.36165 0.12216,0.54151 0.36838,0.54151 0.25393,0 0.6502,-0.18852 1.18786,-0.56459 l 0,1.27922 c -0.47611,0.30779 -0.85891,0.5165 -1.14746,0.62904 -0.28855,0.11061 -0.59056,0.16639 -0.90508,0.16639 -0.8993,0 -1.42831,-0.35299 -1.58989,-1.05993 -0.89258,0.69059 -1.8419,1.03685 -2.84701,1.03685 -0.73868,0 -1.35425,-0.24334 -1.84478,-0.73195 -0.49149,-0.48765 -0.73772,-1.10129 -0.73772,-1.83805 0,-0.66943 0.2395,-1.26672 0.72041,-1.79284 0.47995,-0.52612 1.16188,-0.94355 2.0458,-1.25037 l 2.68542,-0.92336 0,-0.56459 c 0,-1.27538 -0.63769,-1.91307 -1.91307,-1.91307 -1.14554,0 -2.25933,0.59152 -3.34331,1.77553 l 0,-2.29492 c 0.81467,-0.96086 1.98713,-1.44081 3.51547,-1.44081 1.14554,0 2.06408,0.29913 2.75563,0.89931 0.23084,0.19236 0.4386,0.44821 0.62327,0.76657 0.18467,0.31933 0.30105,0.63769 0.3501,0.95702 0.05,0.31932 0.076,0.92431 0.076,1.81496"
       id="path68" />
    <path
       inkscape:connector-curvature="0"
       style="fill:#000000;fill-opacity:1;fill-rule:nonzero;stroke:none"
       d="m 331.82018,110.95514 c -0.56844,0 -1.05224,0.19237 -1.45236,0.57614 -0.39915,0.38473 -0.59921,0.84544 -0.59921,1.3831 0,0.54632 0.19525,0.99742 0.58863,1.35426 0.39147,0.35779 0.88681,0.53669 1.48602,0.53669 0.59249,0 1.0859,-0.18274 1.48122,-0.54727 0.39627,-0.3655 0.5944,-0.82044 0.5944,-1.3658 0,-0.55401 -0.20006,-1.01472 -0.59921,-1.38407 -0.39916,-0.36934 -0.89931,-0.55305 -1.49949,-0.55305 m -0.49534,9.2797 c -0.70694,0 -1.285,0.15004 -1.73417,0.44917 -0.44917,0.30009 -0.6752,0.68386 -0.6752,1.15323 0,1.09071 0.98395,1.63703 2.95184,1.63703 0.93008,0 1.65049,-0.13658 2.16026,-0.40974 0.51169,-0.2722 0.76754,-0.65885 0.76754,-1.15804 0,-0.49245 -0.32222,-0.89354 -0.96856,-1.20517 -0.64539,-0.31067 -1.47929,-0.46648 -2.50171,-0.46648 m -3.44718,-7.43588 c 0,-1.12918 0.41358,-2.02271 1.23979,-2.67964 0.82621,-0.65693 1.95443,-0.98587 3.3837,-0.98587 l 4.36861,0 0,1.63702 -2.14391,0 c 0.41455,0.42321 0.7031,0.80698 0.86469,1.15227 0.16158,0.34626 0.24238,0.74253 0.24238,1.18786 0,0.55304 -0.15774,1.09744 -0.47322,1.63125 -0.31452,0.53382 -0.71945,0.94259 -1.21671,1.22729 -0.49534,0.2847 -1.30808,0.51169 -2.43727,0.68001 -0.79158,0.11638 -1.18785,0.38858 -1.18785,0.81852 0,0.24622 0.14812,0.44821 0.4434,0.60595 0.29624,0.15677 0.83294,0.32028 1.60817,0.48957 1.29943,0.2847 2.13429,0.50784 2.50844,0.66846 0.37223,0.16159 0.70791,0.39243 1.00896,0.69156 0.50688,0.50784 0.7608,1.14553 0.7608,1.91403 0,1.00607 -0.44821,1.80919 -1.34367,2.40937 -0.89642,0.59922 -2.09293,0.89835 -3.59049,0.89835 -1.51584,0 -2.72293,-0.30106 -3.62512,-0.90412 -0.90316,-0.60403 -1.35521,-1.41196 -1.35521,-2.42669 0,-1.43696 0.88776,-2.3632 2.66233,-2.77871 -0.70694,-0.45302 -1.05993,-0.90315 -1.05993,-1.34848 0,-0.3376 0.151,-0.64538 0.4559,-0.92143 0.30298,-0.277 0.71175,-0.48091 1.22633,-0.61172 -1.55912,-0.69059 -2.34012,-1.81015 -2.34012,-3.35485"
       id="path70" />
    <path
       inkscape:connector-curvature="0"
       style="fill:#000000;fill-opacity:1;fill-rule:nonzero;stroke:none"
       d="m 347.3729,119.74623 0,-1.36098 c -0.44533,0.4886 -0.95414,0.86756 -1.52642,1.1388 -0.57325,0.27123 -1.14265,0.40589 -1.71205,0.40589 -0.66943,0 -1.285,-0.1664 -1.85055,-0.50111 -0.56556,-0.33472 -0.99164,-0.78774 -1.27923,-1.36002 -0.28855,-0.57229 -0.43186,-1.52353 -0.43186,-2.85278 l 0,-6.07585 2.09678,0 0,6.04411 c 0,1.1138 0.15966,1.89095 0.47803,2.33243 0.31932,0.44052 0.87911,0.66174 1.67934,0.66174 0.99838,0 1.84671,-0.48861 2.54596,-1.46486 l 0,-7.57342 2.0987,0 0,10.60605 -2.0987,0 z"
       id="path72" />
    <path
       inkscape:connector-curvature="0"
       style="fill:#000000;fill-opacity:1;fill-rule:nonzero;stroke:none"
       d="m 356.1736,113.36933 5.33813,0 c -0.0558,-0.83775 -0.3049,-1.48314 -0.75023,-1.93616 -0.44628,-0.45302 -1.0455,-0.68097 -1.79957,-0.68097 -0.75215,0 -1.36868,0.22795 -1.84959,0.68097 -0.47995,0.45302 -0.79351,1.09841 -0.93874,1.93616 m -0.0462,1.2571 c 0.0539,1.01377 0.39339,1.82074 1.0205,2.42092 0.62614,0.59922 1.43504,0.89834 2.42572,0.89834 1.38407,0 2.65945,-0.42993 3.82806,-1.29077 l 0,2.05158 c -0.64538,0.43089 -1.28596,0.73868 -1.9198,0.92239 -0.6348,0.18467 -1.37733,0.277 -2.23047,0.277 -1.16958,0 -2.11313,-0.24238 -2.83642,-0.72617 -0.72137,-0.4838 -1.30039,-1.13592 -1.73514,-1.95347 -0.43282,-0.81948 -0.65019,-1.76591 -0.65019,-2.8422 0,-1.61394 0.45687,-2.92587 1.3706,-3.93675 0.9147,-1.01088 2.10255,-1.51584 3.56164,-1.51584 1.40715,0 2.52864,0.49246 3.36639,1.47544 0.83871,0.98395 1.25409,2.57216 1.25409,4.22458 l -7.45498,-0.005 z"
       id="path74"
       sodipodi:nodetypes="ccsssccssccssssssssc" />
    <flowRoot
       xml:space="preserve"
       id="flowRoot3262"
       style="font-size:36px;font-style:normal;font-weight:normal;line-height:125%;letter-spacing:0px;word-spacing:0px;fill:#000000;fill-opacity:1;stroke:none;font-family:Sans"
       transform="translate(112.14286,29.285714)"><flowRegion
         id="flowRegion3264"><rect
           id="rect3266"
           width="357.85715"
           height="81.428574"
           x="367.14285"
           y="25.219324" /></flowRegion><flowPara
         id="flowPara3268"
         style="font-size:56px;font-style:normal;font-variant:normal;font-weight:normal;font-stretch:normal;font-family:Droid Sans Mono;-inkscape-font-specification:Droid Sans Mono">LEDBar</flowPara></flowRoot>    <flowRoot
       xml:space="preserve"
       id="flowRoot3270"
       style="font-size:36px;font-style:normal;font-weight:normal;line-height:125%;letter-spacing:0px;word-spacing:0px;fill:#000000;fill-opacity:1;stroke:none;font-family:Sans"
       transform="translate(54.285714,60)"><flowRegion
         id="flowRegion3272"><rect
           id="rect3274"
           width="674.28571"
           height="260.71429"
           x="42.142857"
           y="128.79076" /></flowRegion><flowPara
         id="flowPara3276"
         style="font-size:20px;font-style:normal;font-variant:normal;font-weight:normal;font-stretch:normal;font-family:Droid Sans Mono;-inkscape-font-specification:Droid Sans Mono">HOWTO:</flowPara><flowPara
         style="font-size:20px;font-style:normal;font-variant:normal;font-weight:normal;font-stretch:normal;font-family:Droid Sans Mono;-inkscape-font-specification:Droid Sans Mono"
         id="flowPara3298">Connect usb cable to your computer</flowPara><flowPara
         style="font-size:20px;font-style:normal;font-variant:normal;font-weight:normal;font-stretch:normal;font-family:Droid Sans Mono;-inkscape-font-specification:Droid Sans Mono"
         id="flowPara3296" /><flowPara
         id="flowPara3278"
         style="font-size:20px;font-style:normal;font-variant:normal;font-weight:normal;font-stretch:normal;font-family:Droid Sans Mono;-inkscape-font-specification:Droid Sans Mono">git clone git://github.com/brmlab/ledbar.git</flowPara><flowPara
         style="font-size:20px;font-style:normal;font-variant:normal;font-weight:normal;font-stretch:normal;font-family:Droid Sans Mono;-inkscape-font-specification:Droid Sans Mono"
         id="flowPara3288">cd ledbar/host</flowPara><flowPara
         style="font-size:20px;font-style:normal;font-variant:normal;font-weight:normal;font-stretch:normal;font-family:Droid Sans Mono;-inkscape-font-specification:Droid Sans Mono"
         id="flowPara3290">make</flowPara><flowPara
         style="font-size:20px;font-style:normal;font-variant:normal;font-weight:normal;font-stretch:normal;font-family:Droid Sans Mono;-inkscape-font-specification:Droid Sans Mono"
         id="flowPara3328" /><flowPara
         style="font-size:20px;font-style:normal;font-variant:normal;font-weight:normal;font-stretch:normal;font-family:Droid Sans Mono;-inkscape-font-specification:Droid Sans Mono"
         id="flowPara3330">Turn ATX PSU on</flowPara><flowPara
         style="font-size:20px;font-style:normal;font-variant:normal;font-weight:normal;font-stretch:normal;font-family:Droid Sans Mono;-inkscape-font-specification:Droid Sans Mono"
         id="flowPara3336" /><flowPara
         style="font-size:20px;font-style:normal;font-variant:normal;font-weight:normal;font-stretch:normal;font-family:Droid Sans Mono;-inkscape-font-specification:Droid Sans Mono"
         id="flowPara3332">./ledbar /dev/ttyUSB0</flowPara></flowRoot>    <flowRoot
       xml:space="preserve"
       id="flowRoot3280"
       style="fill:black;stroke:none;stroke-opacity:1;stroke-width:1px;stroke-linejoin:miter;stroke-linecap:butt;fill-opacity:1;font-family:Sans;font-style:normal;font-weight:normal;font-size:36px;line-height:125%;letter-spacing:0px;word-spacing:0px"><flowRegion
         id="flowRegion3282"><rect
           id="rect3284"
           width="103.57143"
           height="49.285713"
           x="115"
           y="188.79076" /></flowRegion><flowPara
         id="flowPara3286"></flowPara></flowRoot>  </g>
</svg>
