G75*
G70*
%OFA0B0*%
%FSLAX24Y24*%
%IPPOS*%
%LPD*%
%AMOC8*
5,1,8,0,0,1.08239X$1,22.5*
%
%ADD10C,0.0000*%
%ADD11C,0.0030*%
%ADD12C,0.0050*%
%ADD13C,0.0060*%
%ADD14R,0.0300X0.0150*%
%ADD15R,0.0200X0.0150*%
%ADD16R,0.0700X0.0150*%
%ADD17R,0.0150X0.0300*%
%ADD18R,0.0150X0.0200*%
%ADD19R,0.0150X0.0700*%
%ADD20R,0.0690X0.0290*%
%ADD21C,0.0040*%
%ADD22C,0.0020*%
%ADD23R,0.0330X0.0080*%
%ADD24R,0.0290X0.0690*%
%ADD25R,0.0295X0.0669*%
%ADD26R,0.1000X0.0200*%
%ADD27C,0.0080*%
%ADD28C,0.0004*%
%ADD29R,0.0450X0.0364*%
%ADD30R,0.0200X0.0200*%
%ADD31C,0.0100*%
%ADD32R,0.0197X0.0049*%
%ADD33R,0.0089X0.0128*%
%ADD34R,0.0049X0.0089*%
%ADD35R,0.0167X0.0049*%
%ADD36R,0.0197X0.0138*%
%ADD37R,0.0236X0.0049*%
%ADD38R,0.0669X0.0118*%
%ADD39R,0.0669X0.0276*%
%ADD40R,0.0128X0.0167*%
%ADD41R,0.0138X0.0138*%
D10*
X000180Y000680D02*
X000180Y020176D01*
X019675Y020176D01*
X019675Y000680D01*
X000180Y000680D01*
X016869Y008805D02*
X016871Y008855D01*
X016877Y008905D01*
X016887Y008954D01*
X016900Y009003D01*
X016918Y009050D01*
X016939Y009096D01*
X016963Y009139D01*
X016991Y009181D01*
X017022Y009221D01*
X017056Y009258D01*
X017093Y009292D01*
X017133Y009323D01*
X017175Y009351D01*
X017218Y009375D01*
X017264Y009396D01*
X017311Y009414D01*
X017360Y009427D01*
X017409Y009437D01*
X017459Y009443D01*
X017509Y009445D01*
X017559Y009443D01*
X017609Y009437D01*
X017658Y009427D01*
X017707Y009414D01*
X017754Y009396D01*
X017800Y009375D01*
X017843Y009351D01*
X017885Y009323D01*
X017925Y009292D01*
X017962Y009258D01*
X017996Y009221D01*
X018027Y009181D01*
X018055Y009139D01*
X018079Y009096D01*
X018100Y009050D01*
X018118Y009003D01*
X018131Y008954D01*
X018141Y008905D01*
X018147Y008855D01*
X018149Y008805D01*
X018147Y008755D01*
X018141Y008705D01*
X018131Y008656D01*
X018118Y008607D01*
X018100Y008560D01*
X018079Y008514D01*
X018055Y008471D01*
X018027Y008429D01*
X017996Y008389D01*
X017962Y008352D01*
X017925Y008318D01*
X017885Y008287D01*
X017843Y008259D01*
X017800Y008235D01*
X017754Y008214D01*
X017707Y008196D01*
X017658Y008183D01*
X017609Y008173D01*
X017559Y008167D01*
X017509Y008165D01*
X017459Y008167D01*
X017409Y008173D01*
X017360Y008183D01*
X017311Y008196D01*
X017264Y008214D01*
X017218Y008235D01*
X017175Y008259D01*
X017133Y008287D01*
X017093Y008318D01*
X017056Y008352D01*
X017022Y008389D01*
X016991Y008429D01*
X016963Y008471D01*
X016939Y008514D01*
X016918Y008560D01*
X016900Y008607D01*
X016887Y008656D01*
X016877Y008705D01*
X016871Y008755D01*
X016869Y008805D01*
X016869Y012805D02*
X016871Y012855D01*
X016877Y012905D01*
X016887Y012954D01*
X016900Y013003D01*
X016918Y013050D01*
X016939Y013096D01*
X016963Y013139D01*
X016991Y013181D01*
X017022Y013221D01*
X017056Y013258D01*
X017093Y013292D01*
X017133Y013323D01*
X017175Y013351D01*
X017218Y013375D01*
X017264Y013396D01*
X017311Y013414D01*
X017360Y013427D01*
X017409Y013437D01*
X017459Y013443D01*
X017509Y013445D01*
X017559Y013443D01*
X017609Y013437D01*
X017658Y013427D01*
X017707Y013414D01*
X017754Y013396D01*
X017800Y013375D01*
X017843Y013351D01*
X017885Y013323D01*
X017925Y013292D01*
X017962Y013258D01*
X017996Y013221D01*
X018027Y013181D01*
X018055Y013139D01*
X018079Y013096D01*
X018100Y013050D01*
X018118Y013003D01*
X018131Y012954D01*
X018141Y012905D01*
X018147Y012855D01*
X018149Y012805D01*
X018147Y012755D01*
X018141Y012705D01*
X018131Y012656D01*
X018118Y012607D01*
X018100Y012560D01*
X018079Y012514D01*
X018055Y012471D01*
X018027Y012429D01*
X017996Y012389D01*
X017962Y012352D01*
X017925Y012318D01*
X017885Y012287D01*
X017843Y012259D01*
X017800Y012235D01*
X017754Y012214D01*
X017707Y012196D01*
X017658Y012183D01*
X017609Y012173D01*
X017559Y012167D01*
X017509Y012165D01*
X017459Y012167D01*
X017409Y012173D01*
X017360Y012183D01*
X017311Y012196D01*
X017264Y012214D01*
X017218Y012235D01*
X017175Y012259D01*
X017133Y012287D01*
X017093Y012318D01*
X017056Y012352D01*
X017022Y012389D01*
X016991Y012429D01*
X016963Y012471D01*
X016939Y012514D01*
X016918Y012560D01*
X016900Y012607D01*
X016887Y012656D01*
X016877Y012705D01*
X016871Y012755D01*
X016869Y012805D01*
X016869Y015055D02*
X016871Y015105D01*
X016877Y015155D01*
X016887Y015204D01*
X016900Y015253D01*
X016918Y015300D01*
X016939Y015346D01*
X016963Y015389D01*
X016991Y015431D01*
X017022Y015471D01*
X017056Y015508D01*
X017093Y015542D01*
X017133Y015573D01*
X017175Y015601D01*
X017218Y015625D01*
X017264Y015646D01*
X017311Y015664D01*
X017360Y015677D01*
X017409Y015687D01*
X017459Y015693D01*
X017509Y015695D01*
X017559Y015693D01*
X017609Y015687D01*
X017658Y015677D01*
X017707Y015664D01*
X017754Y015646D01*
X017800Y015625D01*
X017843Y015601D01*
X017885Y015573D01*
X017925Y015542D01*
X017962Y015508D01*
X017996Y015471D01*
X018027Y015431D01*
X018055Y015389D01*
X018079Y015346D01*
X018100Y015300D01*
X018118Y015253D01*
X018131Y015204D01*
X018141Y015155D01*
X018147Y015105D01*
X018149Y015055D01*
X018147Y015005D01*
X018141Y014955D01*
X018131Y014906D01*
X018118Y014857D01*
X018100Y014810D01*
X018079Y014764D01*
X018055Y014721D01*
X018027Y014679D01*
X017996Y014639D01*
X017962Y014602D01*
X017925Y014568D01*
X017885Y014537D01*
X017843Y014509D01*
X017800Y014485D01*
X017754Y014464D01*
X017707Y014446D01*
X017658Y014433D01*
X017609Y014423D01*
X017559Y014417D01*
X017509Y014415D01*
X017459Y014417D01*
X017409Y014423D01*
X017360Y014433D01*
X017311Y014446D01*
X017264Y014464D01*
X017218Y014485D01*
X017175Y014509D01*
X017133Y014537D01*
X017093Y014568D01*
X017056Y014602D01*
X017022Y014639D01*
X016991Y014679D01*
X016963Y014721D01*
X016939Y014764D01*
X016918Y014810D01*
X016900Y014857D01*
X016887Y014906D01*
X016877Y014955D01*
X016871Y015005D01*
X016869Y015055D01*
X016869Y019055D02*
X016871Y019105D01*
X016877Y019155D01*
X016887Y019204D01*
X016900Y019253D01*
X016918Y019300D01*
X016939Y019346D01*
X016963Y019389D01*
X016991Y019431D01*
X017022Y019471D01*
X017056Y019508D01*
X017093Y019542D01*
X017133Y019573D01*
X017175Y019601D01*
X017218Y019625D01*
X017264Y019646D01*
X017311Y019664D01*
X017360Y019677D01*
X017409Y019687D01*
X017459Y019693D01*
X017509Y019695D01*
X017559Y019693D01*
X017609Y019687D01*
X017658Y019677D01*
X017707Y019664D01*
X017754Y019646D01*
X017800Y019625D01*
X017843Y019601D01*
X017885Y019573D01*
X017925Y019542D01*
X017962Y019508D01*
X017996Y019471D01*
X018027Y019431D01*
X018055Y019389D01*
X018079Y019346D01*
X018100Y019300D01*
X018118Y019253D01*
X018131Y019204D01*
X018141Y019155D01*
X018147Y019105D01*
X018149Y019055D01*
X018147Y019005D01*
X018141Y018955D01*
X018131Y018906D01*
X018118Y018857D01*
X018100Y018810D01*
X018079Y018764D01*
X018055Y018721D01*
X018027Y018679D01*
X017996Y018639D01*
X017962Y018602D01*
X017925Y018568D01*
X017885Y018537D01*
X017843Y018509D01*
X017800Y018485D01*
X017754Y018464D01*
X017707Y018446D01*
X017658Y018433D01*
X017609Y018423D01*
X017559Y018417D01*
X017509Y018415D01*
X017459Y018417D01*
X017409Y018423D01*
X017360Y018433D01*
X017311Y018446D01*
X017264Y018464D01*
X017218Y018485D01*
X017175Y018509D01*
X017133Y018537D01*
X017093Y018568D01*
X017056Y018602D01*
X017022Y018639D01*
X016991Y018679D01*
X016963Y018721D01*
X016939Y018764D01*
X016918Y018810D01*
X016900Y018857D01*
X016887Y018906D01*
X016877Y018955D01*
X016871Y019005D01*
X016869Y019055D01*
D11*
X008388Y019062D02*
X008388Y019013D01*
X008340Y018965D01*
X008388Y018917D01*
X008388Y018868D01*
X008340Y018820D01*
X008243Y018820D01*
X008195Y018868D01*
X008292Y018965D02*
X008340Y018965D01*
X008388Y019062D02*
X008340Y019110D01*
X008243Y019110D01*
X008195Y019062D01*
X008243Y018110D02*
X008195Y018062D01*
X008243Y018110D02*
X008340Y018110D01*
X008388Y018062D01*
X008388Y018013D01*
X008195Y017820D01*
X008388Y017820D01*
X008292Y017110D02*
X008292Y016820D01*
X008388Y016820D02*
X008195Y016820D01*
X008195Y017013D02*
X008292Y017110D01*
X008243Y016110D02*
X008340Y016110D01*
X008388Y016062D01*
X008195Y015868D01*
X008243Y015820D01*
X008340Y015820D01*
X008388Y015868D01*
X008388Y016062D01*
X008243Y016110D02*
X008195Y016062D01*
X008195Y015868D01*
X001469Y015500D02*
X001275Y015500D01*
X001372Y015500D02*
X001372Y015790D01*
X001275Y015693D01*
X001174Y015790D02*
X000981Y015790D01*
X001077Y015790D02*
X001077Y015500D01*
X000880Y015548D02*
X000880Y015790D01*
X000686Y015790D02*
X000686Y015548D01*
X000734Y015500D01*
X000831Y015500D01*
X000880Y015548D01*
X000585Y015548D02*
X000585Y015742D01*
X000537Y015790D01*
X000440Y015790D01*
X000391Y015742D01*
X000391Y015548D01*
X000440Y015500D01*
X000537Y015500D01*
X000585Y015548D01*
X000537Y010040D02*
X000585Y009992D01*
X000585Y009798D01*
X000537Y009750D01*
X000440Y009750D01*
X000391Y009798D01*
X000391Y009992D01*
X000440Y010040D01*
X000537Y010040D01*
X000686Y010040D02*
X000686Y009798D01*
X000734Y009750D01*
X000831Y009750D01*
X000880Y009798D01*
X000880Y010040D01*
X000981Y010040D02*
X001174Y010040D01*
X001077Y010040D02*
X001077Y009750D01*
X001275Y009750D02*
X001469Y009943D01*
X001469Y009992D01*
X001420Y010040D01*
X001324Y010040D01*
X001275Y009992D01*
X001275Y009750D02*
X001469Y009750D01*
X001420Y004540D02*
X001469Y004492D01*
X001469Y004443D01*
X001420Y004395D01*
X001469Y004347D01*
X001469Y004298D01*
X001420Y004250D01*
X001324Y004250D01*
X001275Y004298D01*
X001372Y004395D02*
X001420Y004395D01*
X001420Y004540D02*
X001324Y004540D01*
X001275Y004492D01*
X001174Y004540D02*
X000981Y004540D01*
X001077Y004540D02*
X001077Y004250D01*
X000880Y004298D02*
X000880Y004540D01*
X000686Y004540D02*
X000686Y004298D01*
X000734Y004250D01*
X000831Y004250D01*
X000880Y004298D01*
X000585Y004298D02*
X000585Y004492D01*
X000537Y004540D01*
X000440Y004540D01*
X000391Y004492D01*
X000391Y004298D01*
X000440Y004250D01*
X000537Y004250D01*
X000585Y004298D01*
X012070Y001920D02*
X012215Y001775D01*
X012215Y001969D01*
X012360Y001920D02*
X012070Y001920D01*
X012070Y001674D02*
X012070Y001481D01*
X012070Y001577D02*
X012360Y001577D01*
X012312Y001380D02*
X012070Y001380D01*
X012070Y001186D02*
X012312Y001186D01*
X012360Y001234D01*
X012360Y001331D01*
X012312Y001380D01*
X012312Y001085D02*
X012118Y001085D01*
X012070Y001037D01*
X012070Y000940D01*
X012118Y000891D01*
X012312Y000891D01*
X012360Y000940D01*
X012360Y001037D01*
X012312Y001085D01*
X019070Y001037D02*
X019070Y000940D01*
X019118Y000891D01*
X019312Y000891D01*
X019360Y000940D01*
X019360Y001037D01*
X019312Y001085D01*
X019118Y001085D01*
X019070Y001037D01*
X019070Y001186D02*
X019312Y001186D01*
X019360Y001234D01*
X019360Y001331D01*
X019312Y001380D01*
X019070Y001380D01*
X019070Y001481D02*
X019070Y001674D01*
X019070Y001577D02*
X019360Y001577D01*
X019312Y001775D02*
X019360Y001824D01*
X019360Y001920D01*
X019312Y001969D01*
X019215Y001969D01*
X019167Y001920D01*
X019167Y001872D01*
X019215Y001775D01*
X019070Y001775D01*
X019070Y001969D01*
D12*
X018495Y006895D02*
X018495Y007195D01*
X018495Y007045D02*
X018945Y007045D01*
X018945Y007355D02*
X018945Y007656D01*
X018945Y007506D02*
X018495Y007506D01*
X018645Y007355D01*
X018570Y007816D02*
X018495Y007891D01*
X018495Y008041D01*
X018570Y008116D01*
X018870Y007816D01*
X018945Y007891D01*
X018945Y008041D01*
X018870Y008116D01*
X018570Y008116D01*
X018570Y007816D02*
X018870Y007816D01*
X017445Y007816D02*
X017445Y008116D01*
X017445Y007966D02*
X016995Y007966D01*
X017145Y007816D01*
X016995Y007506D02*
X017445Y007506D01*
X017445Y007656D02*
X017445Y007355D01*
X017445Y007045D02*
X016995Y007045D01*
X016995Y006895D02*
X016995Y007195D01*
X017145Y007355D02*
X016995Y007506D01*
X015945Y007443D02*
X015495Y007443D01*
X015645Y007293D01*
X015495Y007133D02*
X015495Y006833D01*
X015495Y006983D02*
X015945Y006983D01*
X015945Y007293D02*
X015945Y007593D01*
X015945Y007753D02*
X015645Y008054D01*
X015570Y008054D01*
X015495Y007978D01*
X015495Y007828D01*
X015570Y007753D01*
X015945Y007753D02*
X015945Y008054D01*
X011945Y007355D02*
X011870Y007355D01*
X011570Y007656D01*
X011495Y007656D01*
X011495Y007355D01*
X011495Y007195D02*
X011495Y006895D01*
X011495Y007045D02*
X011945Y007045D01*
X010445Y007045D02*
X009995Y007045D01*
X009995Y006895D02*
X009995Y007195D01*
X010070Y007355D02*
X010145Y007355D01*
X010220Y007430D01*
X010220Y007581D01*
X010295Y007656D01*
X010370Y007656D01*
X010445Y007581D01*
X010445Y007430D01*
X010370Y007355D01*
X010295Y007355D01*
X010220Y007430D01*
X010220Y007581D02*
X010145Y007656D01*
X010070Y007656D01*
X009995Y007581D01*
X009995Y007430D01*
X010070Y007355D01*
X008945Y007430D02*
X008945Y007581D01*
X008870Y007656D01*
X008570Y007656D01*
X008495Y007581D01*
X008495Y007430D01*
X008570Y007355D01*
X008645Y007355D01*
X008720Y007430D01*
X008720Y007656D01*
X008945Y007430D02*
X008870Y007355D01*
X008945Y007045D02*
X008495Y007045D01*
X008495Y006895D02*
X008495Y007195D01*
X007156Y007740D02*
X007156Y007815D01*
X007081Y007890D01*
X006855Y007890D01*
X006855Y007740D01*
X006930Y007665D01*
X007081Y007665D01*
X007156Y007740D01*
X007006Y008040D02*
X006855Y007890D01*
X007006Y008040D02*
X007156Y008115D01*
X006695Y008115D02*
X006395Y008115D01*
X006545Y008115D02*
X006545Y007665D01*
X006545Y006615D02*
X006545Y006165D01*
X006855Y006240D02*
X006930Y006165D01*
X007081Y006165D01*
X007156Y006240D01*
X007156Y006390D01*
X007081Y006465D01*
X007006Y006465D01*
X006855Y006390D01*
X006855Y006615D01*
X007156Y006615D01*
X006695Y006615D02*
X006395Y006615D01*
X006395Y005115D02*
X006695Y005115D01*
X006545Y005115D02*
X006545Y004665D01*
X006855Y004890D02*
X007156Y004890D01*
X007081Y004665D02*
X007081Y005115D01*
X006855Y004890D01*
X004383Y004188D02*
X004383Y000645D01*
X000446Y000645D01*
X000446Y004188D01*
X004383Y004188D01*
X007205Y001466D02*
X007205Y001315D01*
X007280Y001240D01*
X007280Y001080D02*
X007205Y001005D01*
X007205Y000855D01*
X007280Y000780D01*
X007580Y000780D01*
X007655Y000855D01*
X007655Y001005D01*
X007580Y001080D01*
X007655Y001240D02*
X007355Y001541D01*
X007280Y001541D01*
X007205Y001466D01*
X007655Y001541D02*
X007655Y001240D01*
X007541Y010165D02*
X007391Y010165D01*
X007316Y010240D01*
X007156Y010165D02*
X006855Y010165D01*
X007006Y010165D02*
X007006Y010615D01*
X006855Y010465D01*
X006695Y010615D02*
X006395Y010615D01*
X006545Y010615D02*
X006545Y010165D01*
X007316Y010540D02*
X007391Y010615D01*
X007541Y010615D01*
X007616Y010540D01*
X007616Y010465D01*
X007541Y010390D01*
X007616Y010315D01*
X007616Y010240D01*
X007541Y010165D01*
X007541Y010390D02*
X007466Y010390D01*
X007541Y011665D02*
X007541Y012115D01*
X007316Y011890D01*
X007616Y011890D01*
X007156Y011665D02*
X006855Y011665D01*
X007006Y011665D02*
X007006Y012115D01*
X006855Y011965D01*
X006695Y012115D02*
X006395Y012115D01*
X006545Y012115D02*
X006545Y011665D01*
X006545Y013165D02*
X006545Y013615D01*
X006395Y013615D02*
X006695Y013615D01*
X006855Y013465D02*
X007006Y013615D01*
X007006Y013165D01*
X007156Y013165D02*
X006855Y013165D01*
X007316Y013240D02*
X007391Y013165D01*
X007541Y013165D01*
X007616Y013240D01*
X007616Y013390D01*
X007541Y013465D01*
X007466Y013465D01*
X007316Y013390D01*
X007316Y013615D01*
X007616Y013615D01*
X007930Y015305D02*
X007930Y016430D01*
X009305Y016430D01*
X009180Y017430D02*
X007930Y017430D01*
X007930Y018430D01*
X009180Y018430D01*
X007930Y018430D02*
X007930Y019555D01*
X011055Y019555D01*
X011055Y015305D01*
X007930Y015305D01*
X007156Y015915D02*
X006855Y015915D01*
X007006Y015915D02*
X007006Y016365D01*
X006855Y016215D01*
X006695Y016365D02*
X006395Y016365D01*
X006545Y016365D02*
X006545Y015915D01*
X007930Y016430D02*
X007930Y017430D01*
X007156Y017415D02*
X006855Y017415D01*
X007156Y017715D01*
X007156Y017790D01*
X007081Y017865D01*
X006930Y017865D01*
X006855Y017790D01*
X006695Y017865D02*
X006395Y017865D01*
X006545Y017865D02*
X006545Y017415D01*
X006545Y018915D02*
X006545Y019365D01*
X006395Y019365D02*
X006695Y019365D01*
X006855Y019290D02*
X006930Y019365D01*
X007081Y019365D01*
X007156Y019290D01*
X007156Y019215D01*
X007081Y019140D01*
X007156Y019065D01*
X007156Y018990D01*
X007081Y018915D01*
X006930Y018915D01*
X006855Y018990D01*
X007006Y019140D02*
X007081Y019140D01*
D13*
X006230Y019430D02*
X006230Y019880D01*
X006230Y019430D02*
X006130Y018830D01*
X005780Y018830D01*
X005380Y018830D01*
X004880Y018830D01*
X004480Y018830D01*
X003980Y018830D01*
X003580Y018830D01*
X003230Y018830D01*
X003130Y019430D01*
X003130Y019880D01*
X003270Y019080D02*
X003272Y019105D01*
X003278Y019129D01*
X003287Y019153D01*
X003301Y019174D01*
X003317Y019193D01*
X003336Y019209D01*
X003357Y019223D01*
X003381Y019232D01*
X003405Y019238D01*
X003430Y019240D01*
X003455Y019238D01*
X003479Y019232D01*
X003503Y019223D01*
X003524Y019209D01*
X003543Y019193D01*
X003559Y019174D01*
X003573Y019153D01*
X003582Y019129D01*
X003588Y019105D01*
X003590Y019080D01*
X003588Y019055D01*
X003582Y019031D01*
X003573Y019007D01*
X003559Y018986D01*
X003543Y018967D01*
X003524Y018951D01*
X003503Y018937D01*
X003479Y018928D01*
X003455Y018922D01*
X003430Y018920D01*
X003405Y018922D01*
X003381Y018928D01*
X003357Y018937D01*
X003336Y018951D01*
X003317Y018967D01*
X003301Y018986D01*
X003287Y019007D01*
X003278Y019031D01*
X003272Y019055D01*
X003270Y019080D01*
X003130Y018380D02*
X003130Y017930D01*
X003230Y017330D01*
X003580Y017330D01*
X003980Y017330D01*
X004480Y017330D01*
X004880Y017330D01*
X005380Y017330D01*
X005780Y017330D01*
X006130Y017330D01*
X006230Y017930D01*
X006230Y018380D01*
X006230Y016880D02*
X006230Y016430D01*
X006130Y015830D01*
X005780Y015830D01*
X005380Y015830D01*
X004880Y015830D01*
X004480Y015830D01*
X003980Y015830D01*
X003580Y015830D01*
X003230Y015830D01*
X003130Y016430D01*
X003130Y016880D01*
X003270Y016080D02*
X003272Y016105D01*
X003278Y016129D01*
X003287Y016153D01*
X003301Y016174D01*
X003317Y016193D01*
X003336Y016209D01*
X003357Y016223D01*
X003381Y016232D01*
X003405Y016238D01*
X003430Y016240D01*
X003455Y016238D01*
X003479Y016232D01*
X003503Y016223D01*
X003524Y016209D01*
X003543Y016193D01*
X003559Y016174D01*
X003573Y016153D01*
X003582Y016129D01*
X003588Y016105D01*
X003590Y016080D01*
X003588Y016055D01*
X003582Y016031D01*
X003573Y016007D01*
X003559Y015986D01*
X003543Y015967D01*
X003524Y015951D01*
X003503Y015937D01*
X003479Y015928D01*
X003455Y015922D01*
X003430Y015920D01*
X003405Y015922D01*
X003381Y015928D01*
X003357Y015937D01*
X003336Y015951D01*
X003317Y015967D01*
X003301Y015986D01*
X003287Y016007D01*
X003278Y016031D01*
X003272Y016055D01*
X003270Y016080D01*
X003270Y017580D02*
X003272Y017605D01*
X003278Y017629D01*
X003287Y017653D01*
X003301Y017674D01*
X003317Y017693D01*
X003336Y017709D01*
X003357Y017723D01*
X003381Y017732D01*
X003405Y017738D01*
X003430Y017740D01*
X003455Y017738D01*
X003479Y017732D01*
X003503Y017723D01*
X003524Y017709D01*
X003543Y017693D01*
X003559Y017674D01*
X003573Y017653D01*
X003582Y017629D01*
X003588Y017605D01*
X003590Y017580D01*
X003588Y017555D01*
X003582Y017531D01*
X003573Y017507D01*
X003559Y017486D01*
X003543Y017467D01*
X003524Y017451D01*
X003503Y017437D01*
X003479Y017428D01*
X003455Y017422D01*
X003430Y017420D01*
X003405Y017422D01*
X003381Y017428D01*
X003357Y017437D01*
X003336Y017451D01*
X003317Y017467D01*
X003301Y017486D01*
X003287Y017507D01*
X003278Y017531D01*
X003272Y017555D01*
X003270Y017580D01*
X003130Y014130D02*
X003130Y013680D01*
X003230Y013080D01*
X003580Y013080D01*
X003980Y013080D01*
X004480Y013080D01*
X004880Y013080D01*
X005380Y013080D01*
X005780Y013080D01*
X006130Y013080D01*
X006230Y013680D01*
X006230Y014130D01*
X006230Y012630D02*
X006230Y012180D01*
X006130Y011580D01*
X005780Y011580D01*
X005380Y011580D01*
X004880Y011580D01*
X004480Y011580D01*
X003980Y011580D01*
X003580Y011580D01*
X003230Y011580D01*
X003130Y012180D01*
X003130Y012630D01*
X003270Y013330D02*
X003272Y013355D01*
X003278Y013379D01*
X003287Y013403D01*
X003301Y013424D01*
X003317Y013443D01*
X003336Y013459D01*
X003357Y013473D01*
X003381Y013482D01*
X003405Y013488D01*
X003430Y013490D01*
X003455Y013488D01*
X003479Y013482D01*
X003503Y013473D01*
X003524Y013459D01*
X003543Y013443D01*
X003559Y013424D01*
X003573Y013403D01*
X003582Y013379D01*
X003588Y013355D01*
X003590Y013330D01*
X003588Y013305D01*
X003582Y013281D01*
X003573Y013257D01*
X003559Y013236D01*
X003543Y013217D01*
X003524Y013201D01*
X003503Y013187D01*
X003479Y013178D01*
X003455Y013172D01*
X003430Y013170D01*
X003405Y013172D01*
X003381Y013178D01*
X003357Y013187D01*
X003336Y013201D01*
X003317Y013217D01*
X003301Y013236D01*
X003287Y013257D01*
X003278Y013281D01*
X003272Y013305D01*
X003270Y013330D01*
X003270Y011830D02*
X003272Y011855D01*
X003278Y011879D01*
X003287Y011903D01*
X003301Y011924D01*
X003317Y011943D01*
X003336Y011959D01*
X003357Y011973D01*
X003381Y011982D01*
X003405Y011988D01*
X003430Y011990D01*
X003455Y011988D01*
X003479Y011982D01*
X003503Y011973D01*
X003524Y011959D01*
X003543Y011943D01*
X003559Y011924D01*
X003573Y011903D01*
X003582Y011879D01*
X003588Y011855D01*
X003590Y011830D01*
X003588Y011805D01*
X003582Y011781D01*
X003573Y011757D01*
X003559Y011736D01*
X003543Y011717D01*
X003524Y011701D01*
X003503Y011687D01*
X003479Y011678D01*
X003455Y011672D01*
X003430Y011670D01*
X003405Y011672D01*
X003381Y011678D01*
X003357Y011687D01*
X003336Y011701D01*
X003317Y011717D01*
X003301Y011736D01*
X003287Y011757D01*
X003278Y011781D01*
X003272Y011805D01*
X003270Y011830D01*
X003130Y011130D02*
X003130Y010680D01*
X003230Y010080D01*
X003580Y010080D01*
X003980Y010080D01*
X004480Y010080D01*
X004880Y010080D01*
X005380Y010080D01*
X005780Y010080D01*
X006130Y010080D01*
X006230Y010680D01*
X006230Y011130D01*
X008110Y013680D02*
X008110Y014435D01*
X008750Y014435D02*
X008750Y013680D01*
X009031Y013066D02*
X010829Y013066D01*
X010829Y009294D01*
X009031Y009294D01*
X009031Y013066D01*
X009270Y012588D02*
X009272Y012614D01*
X009278Y012640D01*
X009287Y012664D01*
X009300Y012687D01*
X009316Y012708D01*
X009335Y012726D01*
X009356Y012742D01*
X009380Y012754D01*
X009404Y012762D01*
X009430Y012767D01*
X009457Y012768D01*
X009483Y012765D01*
X009508Y012758D01*
X009532Y012748D01*
X009555Y012734D01*
X009575Y012718D01*
X009592Y012698D01*
X009607Y012676D01*
X009618Y012652D01*
X009626Y012627D01*
X009630Y012601D01*
X009630Y012575D01*
X009626Y012549D01*
X009618Y012524D01*
X009607Y012500D01*
X009592Y012478D01*
X009575Y012458D01*
X009555Y012442D01*
X009532Y012428D01*
X009508Y012418D01*
X009483Y012411D01*
X009457Y012408D01*
X009430Y012409D01*
X009404Y012414D01*
X009380Y012422D01*
X009356Y012434D01*
X009335Y012450D01*
X009316Y012468D01*
X009300Y012489D01*
X009287Y012512D01*
X009278Y012536D01*
X009272Y012562D01*
X009270Y012588D01*
X010050Y013360D02*
X010805Y013360D01*
X010805Y014000D02*
X010050Y014000D01*
X010680Y015430D02*
X009180Y015430D01*
X008930Y015680D01*
X008930Y016180D01*
X009180Y016430D01*
X010680Y016430D01*
X010930Y016680D01*
X010930Y017180D01*
X010680Y017430D01*
X009180Y017430D01*
X008930Y017680D01*
X008930Y018180D01*
X009180Y018430D01*
X008930Y018680D01*
X008930Y019180D01*
X009180Y019430D01*
X010680Y019430D01*
X010930Y019180D01*
X010930Y018680D01*
X010680Y018430D01*
X009180Y018430D01*
X009180Y017430D02*
X008930Y017180D01*
X008930Y016680D01*
X009180Y016430D01*
X010680Y016430D02*
X010930Y016180D01*
X010930Y015680D01*
X010680Y015430D01*
X011360Y015680D02*
X011360Y016435D01*
X012000Y016435D02*
X012000Y015680D01*
X010680Y017430D02*
X010930Y017680D01*
X010930Y018180D01*
X010680Y018430D01*
X011360Y018300D02*
X011360Y019055D01*
X012000Y019055D02*
X012000Y018300D01*
X003270Y010330D02*
X003272Y010355D01*
X003278Y010379D01*
X003287Y010403D01*
X003301Y010424D01*
X003317Y010443D01*
X003336Y010459D01*
X003357Y010473D01*
X003381Y010482D01*
X003405Y010488D01*
X003430Y010490D01*
X003455Y010488D01*
X003479Y010482D01*
X003503Y010473D01*
X003524Y010459D01*
X003543Y010443D01*
X003559Y010424D01*
X003573Y010403D01*
X003582Y010379D01*
X003588Y010355D01*
X003590Y010330D01*
X003588Y010305D01*
X003582Y010281D01*
X003573Y010257D01*
X003559Y010236D01*
X003543Y010217D01*
X003524Y010201D01*
X003503Y010187D01*
X003479Y010178D01*
X003455Y010172D01*
X003430Y010170D01*
X003405Y010172D01*
X003381Y010178D01*
X003357Y010187D01*
X003336Y010201D01*
X003317Y010217D01*
X003301Y010236D01*
X003287Y010257D01*
X003278Y010281D01*
X003272Y010305D01*
X003270Y010330D01*
X003130Y008630D02*
X003130Y008180D01*
X003230Y007580D01*
X003580Y007580D01*
X003980Y007580D01*
X004480Y007580D01*
X004880Y007580D01*
X005380Y007580D01*
X005780Y007580D01*
X006130Y007580D01*
X006230Y008180D01*
X006230Y008630D01*
X006230Y007130D02*
X006230Y006680D01*
X006130Y006080D01*
X005780Y006080D01*
X005380Y006080D01*
X004880Y006080D01*
X004480Y006080D01*
X003980Y006080D01*
X003580Y006080D01*
X003230Y006080D01*
X003130Y006680D01*
X003130Y007130D01*
X003270Y007830D02*
X003272Y007855D01*
X003278Y007879D01*
X003287Y007903D01*
X003301Y007924D01*
X003317Y007943D01*
X003336Y007959D01*
X003357Y007973D01*
X003381Y007982D01*
X003405Y007988D01*
X003430Y007990D01*
X003455Y007988D01*
X003479Y007982D01*
X003503Y007973D01*
X003524Y007959D01*
X003543Y007943D01*
X003559Y007924D01*
X003573Y007903D01*
X003582Y007879D01*
X003588Y007855D01*
X003590Y007830D01*
X003588Y007805D01*
X003582Y007781D01*
X003573Y007757D01*
X003559Y007736D01*
X003543Y007717D01*
X003524Y007701D01*
X003503Y007687D01*
X003479Y007678D01*
X003455Y007672D01*
X003430Y007670D01*
X003405Y007672D01*
X003381Y007678D01*
X003357Y007687D01*
X003336Y007701D01*
X003317Y007717D01*
X003301Y007736D01*
X003287Y007757D01*
X003278Y007781D01*
X003272Y007805D01*
X003270Y007830D01*
X003270Y006330D02*
X003272Y006355D01*
X003278Y006379D01*
X003287Y006403D01*
X003301Y006424D01*
X003317Y006443D01*
X003336Y006459D01*
X003357Y006473D01*
X003381Y006482D01*
X003405Y006488D01*
X003430Y006490D01*
X003455Y006488D01*
X003479Y006482D01*
X003503Y006473D01*
X003524Y006459D01*
X003543Y006443D01*
X003559Y006424D01*
X003573Y006403D01*
X003582Y006379D01*
X003588Y006355D01*
X003590Y006330D01*
X003588Y006305D01*
X003582Y006281D01*
X003573Y006257D01*
X003559Y006236D01*
X003543Y006217D01*
X003524Y006201D01*
X003503Y006187D01*
X003479Y006178D01*
X003455Y006172D01*
X003430Y006170D01*
X003405Y006172D01*
X003381Y006178D01*
X003357Y006187D01*
X003336Y006201D01*
X003317Y006217D01*
X003301Y006236D01*
X003287Y006257D01*
X003278Y006281D01*
X003272Y006305D01*
X003270Y006330D01*
X003130Y005630D02*
X003130Y005180D01*
X003230Y004580D01*
X003580Y004580D01*
X003980Y004580D01*
X004480Y004580D01*
X004880Y004580D01*
X005380Y004580D01*
X005780Y004580D01*
X006130Y004580D01*
X006230Y005180D01*
X006230Y005630D01*
X007980Y006730D02*
X008430Y006730D01*
X009030Y006630D01*
X009030Y006280D01*
X009030Y005880D01*
X009030Y005380D01*
X009030Y004980D01*
X009030Y004480D01*
X009030Y004080D01*
X009030Y003730D01*
X008430Y003630D01*
X007980Y003630D01*
X008620Y003930D02*
X008622Y003955D01*
X008628Y003979D01*
X008637Y004003D01*
X008651Y004024D01*
X008667Y004043D01*
X008686Y004059D01*
X008707Y004073D01*
X008731Y004082D01*
X008755Y004088D01*
X008780Y004090D01*
X008805Y004088D01*
X008829Y004082D01*
X008853Y004073D01*
X008874Y004059D01*
X008893Y004043D01*
X008909Y004024D01*
X008923Y004003D01*
X008932Y003979D01*
X008938Y003955D01*
X008940Y003930D01*
X008938Y003905D01*
X008932Y003881D01*
X008923Y003857D01*
X008909Y003836D01*
X008893Y003817D01*
X008874Y003801D01*
X008853Y003787D01*
X008829Y003778D01*
X008805Y003772D01*
X008780Y003770D01*
X008755Y003772D01*
X008731Y003778D01*
X008707Y003787D01*
X008686Y003801D01*
X008667Y003817D01*
X008651Y003836D01*
X008637Y003857D01*
X008628Y003881D01*
X008622Y003905D01*
X008620Y003930D01*
X009480Y003630D02*
X009930Y003630D01*
X010530Y003730D01*
X010530Y004080D01*
X010530Y004480D01*
X010530Y004980D01*
X010530Y005380D01*
X010530Y005880D01*
X010530Y006280D01*
X010530Y006630D01*
X009930Y006730D01*
X009480Y006730D01*
X010980Y006730D02*
X011430Y006730D01*
X012030Y006630D01*
X012030Y006280D01*
X012030Y005880D01*
X012030Y005380D01*
X012030Y004980D01*
X012030Y004480D01*
X012030Y004080D01*
X012030Y003730D01*
X011430Y003630D01*
X010980Y003630D01*
X011620Y003930D02*
X011622Y003955D01*
X011628Y003979D01*
X011637Y004003D01*
X011651Y004024D01*
X011667Y004043D01*
X011686Y004059D01*
X011707Y004073D01*
X011731Y004082D01*
X011755Y004088D01*
X011780Y004090D01*
X011805Y004088D01*
X011829Y004082D01*
X011853Y004073D01*
X011874Y004059D01*
X011893Y004043D01*
X011909Y004024D01*
X011923Y004003D01*
X011932Y003979D01*
X011938Y003955D01*
X011940Y003930D01*
X011938Y003905D01*
X011932Y003881D01*
X011923Y003857D01*
X011909Y003836D01*
X011893Y003817D01*
X011874Y003801D01*
X011853Y003787D01*
X011829Y003778D01*
X011805Y003772D01*
X011780Y003770D01*
X011755Y003772D01*
X011731Y003778D01*
X011707Y003787D01*
X011686Y003801D01*
X011667Y003817D01*
X011651Y003836D01*
X011637Y003857D01*
X011628Y003881D01*
X011622Y003905D01*
X011620Y003930D01*
X012610Y003555D02*
X012610Y002800D01*
X013250Y002800D02*
X013250Y003555D01*
X014980Y003630D02*
X015430Y003630D01*
X016030Y003730D01*
X016030Y004080D01*
X016030Y004480D01*
X016030Y004980D01*
X016030Y005380D01*
X016030Y005880D01*
X016030Y006280D01*
X016030Y006630D01*
X015430Y006730D01*
X014980Y006730D01*
X016480Y006730D02*
X016930Y006730D01*
X017530Y006630D01*
X017530Y006280D01*
X017530Y005880D01*
X017530Y005380D01*
X017530Y004980D01*
X017530Y004480D01*
X017530Y004080D01*
X017530Y003730D01*
X016930Y003630D01*
X016480Y003630D01*
X015620Y003930D02*
X015622Y003955D01*
X015628Y003979D01*
X015637Y004003D01*
X015651Y004024D01*
X015667Y004043D01*
X015686Y004059D01*
X015707Y004073D01*
X015731Y004082D01*
X015755Y004088D01*
X015780Y004090D01*
X015805Y004088D01*
X015829Y004082D01*
X015853Y004073D01*
X015874Y004059D01*
X015893Y004043D01*
X015909Y004024D01*
X015923Y004003D01*
X015932Y003979D01*
X015938Y003955D01*
X015940Y003930D01*
X015938Y003905D01*
X015932Y003881D01*
X015923Y003857D01*
X015909Y003836D01*
X015893Y003817D01*
X015874Y003801D01*
X015853Y003787D01*
X015829Y003778D01*
X015805Y003772D01*
X015780Y003770D01*
X015755Y003772D01*
X015731Y003778D01*
X015707Y003787D01*
X015686Y003801D01*
X015667Y003817D01*
X015651Y003836D01*
X015637Y003857D01*
X015628Y003881D01*
X015622Y003905D01*
X015620Y003930D01*
X017120Y003930D02*
X017122Y003955D01*
X017128Y003979D01*
X017137Y004003D01*
X017151Y004024D01*
X017167Y004043D01*
X017186Y004059D01*
X017207Y004073D01*
X017231Y004082D01*
X017255Y004088D01*
X017280Y004090D01*
X017305Y004088D01*
X017329Y004082D01*
X017353Y004073D01*
X017374Y004059D01*
X017393Y004043D01*
X017409Y004024D01*
X017423Y004003D01*
X017432Y003979D01*
X017438Y003955D01*
X017440Y003930D01*
X017438Y003905D01*
X017432Y003881D01*
X017423Y003857D01*
X017409Y003836D01*
X017393Y003817D01*
X017374Y003801D01*
X017353Y003787D01*
X017329Y003778D01*
X017305Y003772D01*
X017280Y003770D01*
X017255Y003772D01*
X017231Y003778D01*
X017207Y003787D01*
X017186Y003801D01*
X017167Y003817D01*
X017151Y003836D01*
X017137Y003857D01*
X017128Y003881D01*
X017122Y003905D01*
X017120Y003930D01*
X017980Y003630D02*
X018430Y003630D01*
X019030Y003730D01*
X019030Y004080D01*
X019030Y004480D01*
X019030Y004980D01*
X019030Y005380D01*
X019030Y005880D01*
X019030Y006280D01*
X019030Y006630D01*
X018430Y006730D01*
X017980Y006730D01*
X018620Y003930D02*
X018622Y003955D01*
X018628Y003979D01*
X018637Y004003D01*
X018651Y004024D01*
X018667Y004043D01*
X018686Y004059D01*
X018707Y004073D01*
X018731Y004082D01*
X018755Y004088D01*
X018780Y004090D01*
X018805Y004088D01*
X018829Y004082D01*
X018853Y004073D01*
X018874Y004059D01*
X018893Y004043D01*
X018909Y004024D01*
X018923Y004003D01*
X018932Y003979D01*
X018938Y003955D01*
X018940Y003930D01*
X018938Y003905D01*
X018932Y003881D01*
X018923Y003857D01*
X018909Y003836D01*
X018893Y003817D01*
X018874Y003801D01*
X018853Y003787D01*
X018829Y003778D01*
X018805Y003772D01*
X018780Y003770D01*
X018755Y003772D01*
X018731Y003778D01*
X018707Y003787D01*
X018686Y003801D01*
X018667Y003817D01*
X018651Y003836D01*
X018637Y003857D01*
X018628Y003881D01*
X018622Y003905D01*
X018620Y003930D01*
X010120Y003930D02*
X010122Y003955D01*
X010128Y003979D01*
X010137Y004003D01*
X010151Y004024D01*
X010167Y004043D01*
X010186Y004059D01*
X010207Y004073D01*
X010231Y004082D01*
X010255Y004088D01*
X010280Y004090D01*
X010305Y004088D01*
X010329Y004082D01*
X010353Y004073D01*
X010374Y004059D01*
X010393Y004043D01*
X010409Y004024D01*
X010423Y004003D01*
X010432Y003979D01*
X010438Y003955D01*
X010440Y003930D01*
X010438Y003905D01*
X010432Y003881D01*
X010423Y003857D01*
X010409Y003836D01*
X010393Y003817D01*
X010374Y003801D01*
X010353Y003787D01*
X010329Y003778D01*
X010305Y003772D01*
X010280Y003770D01*
X010255Y003772D01*
X010231Y003778D01*
X010207Y003787D01*
X010186Y003801D01*
X010167Y003817D01*
X010151Y003836D01*
X010137Y003857D01*
X010128Y003881D01*
X010122Y003905D01*
X010120Y003930D01*
X006680Y001830D02*
X006680Y001630D01*
X006180Y001630D01*
X005680Y001630D01*
X005680Y001830D01*
X006680Y001830D01*
X005180Y001930D02*
X005182Y001993D01*
X005188Y002055D01*
X005198Y002117D01*
X005211Y002179D01*
X005229Y002239D01*
X005250Y002298D01*
X005275Y002356D01*
X005304Y002412D01*
X005336Y002466D01*
X005371Y002518D01*
X005409Y002567D01*
X005451Y002615D01*
X005495Y002659D01*
X005543Y002701D01*
X005592Y002739D01*
X005644Y002774D01*
X005698Y002806D01*
X005754Y002835D01*
X005812Y002860D01*
X005871Y002881D01*
X005931Y002899D01*
X005993Y002912D01*
X006055Y002922D01*
X006117Y002928D01*
X006180Y002930D01*
X006243Y002928D01*
X006305Y002922D01*
X006367Y002912D01*
X006429Y002899D01*
X006489Y002881D01*
X006548Y002860D01*
X006606Y002835D01*
X006662Y002806D01*
X006716Y002774D01*
X006768Y002739D01*
X006817Y002701D01*
X006865Y002659D01*
X006909Y002615D01*
X006951Y002567D01*
X006989Y002518D01*
X007024Y002466D01*
X007056Y002412D01*
X007085Y002356D01*
X007110Y002298D01*
X007131Y002239D01*
X007149Y002179D01*
X007162Y002117D01*
X007172Y002055D01*
X007178Y001993D01*
X007180Y001930D01*
X007178Y001867D01*
X007172Y001805D01*
X007162Y001743D01*
X007149Y001681D01*
X007131Y001621D01*
X007110Y001562D01*
X007085Y001504D01*
X007056Y001448D01*
X007024Y001394D01*
X006989Y001342D01*
X006951Y001293D01*
X006909Y001245D01*
X006865Y001201D01*
X006817Y001159D01*
X006768Y001121D01*
X006716Y001086D01*
X006662Y001054D01*
X006606Y001025D01*
X006548Y001000D01*
X006489Y000979D01*
X006429Y000961D01*
X006367Y000948D01*
X006305Y000938D01*
X006243Y000932D01*
X006180Y000930D01*
X006117Y000932D01*
X006055Y000938D01*
X005993Y000948D01*
X005931Y000961D01*
X005871Y000979D01*
X005812Y001000D01*
X005754Y001025D01*
X005698Y001054D01*
X005644Y001086D01*
X005592Y001121D01*
X005543Y001159D01*
X005495Y001201D01*
X005451Y001245D01*
X005409Y001293D01*
X005371Y001342D01*
X005336Y001394D01*
X005304Y001448D01*
X005275Y001504D01*
X005250Y001562D01*
X005229Y001621D01*
X005211Y001681D01*
X005198Y001743D01*
X005188Y001805D01*
X005182Y001867D01*
X005180Y001930D01*
X005680Y001480D02*
X005680Y001380D01*
X005580Y001380D01*
X005680Y001380D02*
X005780Y001380D01*
X005680Y001380D02*
X005680Y001280D01*
X006180Y001280D02*
X006180Y001630D01*
X006180Y002180D02*
X006180Y002580D01*
X003270Y004830D02*
X003272Y004855D01*
X003278Y004879D01*
X003287Y004903D01*
X003301Y004924D01*
X003317Y004943D01*
X003336Y004959D01*
X003357Y004973D01*
X003381Y004982D01*
X003405Y004988D01*
X003430Y004990D01*
X003455Y004988D01*
X003479Y004982D01*
X003503Y004973D01*
X003524Y004959D01*
X003543Y004943D01*
X003559Y004924D01*
X003573Y004903D01*
X003582Y004879D01*
X003588Y004855D01*
X003590Y004830D01*
X003588Y004805D01*
X003582Y004781D01*
X003573Y004757D01*
X003559Y004736D01*
X003543Y004717D01*
X003524Y004701D01*
X003503Y004687D01*
X003479Y004678D01*
X003455Y004672D01*
X003430Y004670D01*
X003405Y004672D01*
X003381Y004678D01*
X003357Y004687D01*
X003336Y004701D01*
X003317Y004717D01*
X003301Y004736D01*
X003287Y004757D01*
X003278Y004781D01*
X003272Y004805D01*
X003270Y004830D01*
D14*
X003280Y005605D03*
X003280Y007105D03*
X003280Y008605D03*
X003280Y011105D03*
X003280Y012605D03*
X003280Y014105D03*
X003280Y016855D03*
X003280Y018355D03*
X003280Y019855D03*
X006080Y019855D03*
X006080Y018355D03*
X006080Y016855D03*
X006080Y014105D03*
X006080Y012605D03*
X006080Y011105D03*
X006080Y008605D03*
X006080Y007105D03*
X006080Y005605D03*
D15*
X005130Y005605D03*
X004230Y005605D03*
X004230Y007105D03*
X005130Y007105D03*
X005130Y008605D03*
X004230Y008605D03*
X004230Y011105D03*
X005130Y011105D03*
X005130Y012605D03*
X004230Y012605D03*
X004230Y014105D03*
X005130Y014105D03*
X005130Y016855D03*
X004230Y016855D03*
X004230Y018355D03*
X005130Y018355D03*
X005130Y019855D03*
X004230Y019855D03*
D16*
X003780Y019855D03*
X004680Y019855D03*
X005580Y019855D03*
X005580Y018355D03*
X004680Y018355D03*
X003780Y018355D03*
X003780Y016855D03*
X004680Y016855D03*
X005580Y016855D03*
X005580Y014105D03*
X004680Y014105D03*
X003780Y014105D03*
X003780Y012605D03*
X004680Y012605D03*
X005580Y012605D03*
X005580Y011105D03*
X004680Y011105D03*
X003780Y011105D03*
X003780Y008605D03*
X004680Y008605D03*
X005580Y008605D03*
X005580Y007105D03*
X004680Y007105D03*
X003780Y007105D03*
X003780Y005605D03*
X004680Y005605D03*
X005580Y005605D03*
D17*
X008005Y006580D03*
X009505Y006580D03*
X011005Y006580D03*
X011005Y003780D03*
X009505Y003780D03*
X008005Y003780D03*
X015005Y003780D03*
X016505Y003780D03*
X018005Y003780D03*
X018005Y006580D03*
X016505Y006580D03*
X015005Y006580D03*
D18*
X015005Y005630D03*
X015005Y004730D03*
X016505Y004730D03*
X016505Y005630D03*
X018005Y005630D03*
X018005Y004730D03*
X011005Y004730D03*
X011005Y005630D03*
X009505Y005630D03*
X009505Y004730D03*
X008005Y004730D03*
X008005Y005630D03*
D19*
X008005Y005180D03*
X008005Y006080D03*
X009505Y006080D03*
X009505Y005180D03*
X009505Y004280D03*
X008005Y004280D03*
X011005Y004280D03*
X011005Y005180D03*
X011005Y006080D03*
X015005Y006080D03*
X015005Y005180D03*
X015005Y004280D03*
X016505Y004280D03*
X016505Y005180D03*
X016505Y006080D03*
X018005Y006080D03*
X018005Y005180D03*
X018005Y004280D03*
D20*
X012930Y003700D03*
X012930Y002660D03*
X008430Y013535D03*
X008430Y014575D03*
X011680Y015535D03*
X011680Y016575D03*
X011680Y018160D03*
X011680Y019200D03*
D21*
X012226Y018534D02*
X012150Y018457D01*
X012150Y018304D01*
X012226Y018227D01*
X012226Y018074D02*
X012150Y017997D01*
X012150Y017767D01*
X012610Y017767D01*
X012457Y017767D02*
X012457Y017997D01*
X012380Y018074D01*
X012226Y018074D01*
X012457Y017920D02*
X012610Y018074D01*
X012533Y018227D02*
X012610Y018304D01*
X012610Y018457D01*
X012533Y018534D01*
X012457Y018534D01*
X012380Y018457D01*
X012380Y018381D01*
X012380Y018457D02*
X012303Y018534D01*
X012226Y018534D01*
X012226Y015909D02*
X012150Y015832D01*
X012150Y015679D01*
X012226Y015602D01*
X012226Y015449D02*
X012150Y015372D01*
X012150Y015142D01*
X012610Y015142D01*
X012457Y015142D02*
X012457Y015372D01*
X012380Y015449D01*
X012226Y015449D01*
X012457Y015295D02*
X012610Y015449D01*
X012610Y015602D02*
X012303Y015909D01*
X012226Y015909D01*
X012610Y015909D02*
X012610Y015602D01*
X012206Y014710D02*
X012206Y014250D01*
X012359Y014250D02*
X012052Y014250D01*
X011899Y014327D02*
X011822Y014250D01*
X011668Y014250D01*
X011592Y014327D01*
X011592Y014634D01*
X011668Y014710D01*
X011822Y014710D01*
X011899Y014634D01*
X012052Y014557D02*
X012206Y014710D01*
X012278Y013860D02*
X012048Y013630D01*
X012355Y013630D01*
X012278Y013400D02*
X012278Y013860D01*
X011894Y013784D02*
X011894Y013630D01*
X011818Y013553D01*
X011588Y013553D01*
X011741Y013553D02*
X011894Y013400D01*
X011894Y013784D02*
X011818Y013860D01*
X011588Y013860D01*
X011588Y013400D01*
X010810Y014245D02*
X010050Y014245D01*
X010050Y014865D02*
X010810Y014865D01*
X007860Y014847D02*
X007860Y014540D01*
X007860Y014693D02*
X007400Y014693D01*
X007553Y014540D01*
X007476Y014386D02*
X007400Y014309D01*
X007400Y014079D01*
X007860Y014079D01*
X007707Y014079D02*
X007707Y014309D01*
X007630Y014386D01*
X007476Y014386D01*
X007707Y014233D02*
X007860Y014386D01*
X003922Y014452D02*
X003845Y014375D01*
X003691Y014375D01*
X003615Y014452D01*
X003461Y014452D02*
X003384Y014375D01*
X003231Y014375D01*
X003154Y014452D01*
X003154Y014759D01*
X003231Y014835D01*
X003384Y014835D01*
X003461Y014759D01*
X003615Y014759D02*
X003691Y014835D01*
X003845Y014835D01*
X003922Y014759D01*
X003922Y014682D01*
X003845Y014605D01*
X003922Y014528D01*
X003922Y014452D01*
X003845Y014605D02*
X003768Y014605D01*
X002435Y014745D02*
X001675Y014745D01*
X001675Y015365D02*
X002435Y015365D01*
X009005Y009096D02*
X009125Y009096D01*
X009065Y009096D02*
X009065Y008736D01*
X009005Y008736D02*
X009125Y008736D01*
X009251Y008796D02*
X009311Y008736D01*
X009431Y008736D01*
X009491Y008796D01*
X009619Y008736D02*
X009859Y008736D01*
X009739Y008736D02*
X009739Y009096D01*
X009619Y008976D01*
X009491Y009036D02*
X009431Y009096D01*
X009311Y009096D01*
X009251Y009036D01*
X009251Y008796D01*
X012826Y005042D02*
X012750Y004966D01*
X012750Y004812D01*
X012826Y004735D01*
X012903Y004735D01*
X012980Y004812D01*
X012980Y005042D01*
X013133Y005042D02*
X012826Y005042D01*
X013133Y005042D02*
X013210Y004966D01*
X013210Y004812D01*
X013133Y004735D01*
X013210Y004582D02*
X013057Y004428D01*
X013057Y004505D02*
X013057Y004275D01*
X013210Y004275D02*
X012750Y004275D01*
X012750Y004505D01*
X012826Y004582D01*
X012980Y004582D01*
X013057Y004505D01*
X013825Y004555D02*
X013825Y004325D01*
X014285Y004325D01*
X014132Y004325D02*
X014132Y004555D01*
X014055Y004632D01*
X013901Y004632D01*
X013825Y004555D01*
X013901Y004785D02*
X013825Y004862D01*
X013825Y005016D01*
X013901Y005092D01*
X014208Y005092D01*
X014285Y005016D01*
X014285Y004862D01*
X014208Y004785D01*
X013901Y004785D01*
X013825Y005246D02*
X014285Y005553D01*
X013825Y005553D01*
X013825Y005246D02*
X014285Y005246D01*
X014370Y003554D02*
X014370Y002806D01*
X014233Y002619D02*
X014235Y002631D01*
X014240Y002642D01*
X014249Y002651D01*
X014260Y002656D01*
X014272Y002658D01*
X014284Y002656D01*
X014295Y002651D01*
X014304Y002642D01*
X014309Y002631D01*
X014311Y002619D01*
X014309Y002607D01*
X014304Y002596D01*
X014295Y002587D01*
X014284Y002582D01*
X014272Y002580D01*
X014260Y002582D01*
X014249Y002587D01*
X014240Y002596D01*
X014235Y002607D01*
X014233Y002619D01*
X014213Y002550D02*
X014209Y002574D01*
X014203Y002596D01*
X014192Y002618D01*
X014179Y002638D01*
X014163Y002655D01*
X014145Y002670D01*
X014124Y002682D01*
X014102Y002691D01*
X014079Y002696D01*
X014055Y002698D01*
X014031Y002696D01*
X014008Y002691D01*
X013986Y002682D01*
X013965Y002670D01*
X013947Y002655D01*
X013931Y002638D01*
X013918Y002618D01*
X013907Y002596D01*
X013901Y002574D01*
X013897Y002550D01*
X013740Y002806D02*
X013740Y003554D01*
X004983Y002019D02*
X004830Y001865D01*
X004830Y001942D02*
X004830Y001712D01*
X004983Y001712D02*
X004523Y001712D01*
X004523Y001942D01*
X004600Y002019D01*
X004753Y002019D01*
X004830Y001942D01*
X004983Y001559D02*
X004523Y001559D01*
X004523Y001252D02*
X004983Y001252D01*
X004830Y001405D01*
X004983Y001559D01*
X004753Y001098D02*
X004830Y001021D01*
X004830Y000791D01*
X004983Y000791D02*
X004523Y000791D01*
X004523Y001021D01*
X004600Y001098D01*
X004753Y001098D01*
D22*
X009121Y009384D02*
X010739Y009384D01*
X010739Y012976D01*
X009121Y012976D01*
X009121Y009384D01*
D23*
X008866Y009517D03*
X008866Y009773D03*
X008866Y010028D03*
X008866Y010284D03*
X008866Y010540D03*
X008866Y010796D03*
X008866Y011052D03*
X008866Y011308D03*
X008866Y011564D03*
X008866Y011820D03*
X008866Y012076D03*
X008866Y012332D03*
X008866Y012587D03*
X008866Y012843D03*
X010994Y012843D03*
X010994Y012587D03*
X010994Y012332D03*
X010994Y012076D03*
X010994Y011820D03*
X010994Y011564D03*
X010994Y011308D03*
X010994Y011052D03*
X010994Y010796D03*
X010994Y010540D03*
X010994Y010284D03*
X010994Y010028D03*
X010994Y009773D03*
X010994Y009517D03*
D24*
X010950Y013680D03*
X009910Y013680D03*
D25*
X009908Y014555D03*
X010952Y014555D03*
X002577Y015055D03*
X001533Y015055D03*
D26*
X006180Y002130D03*
D27*
X013249Y008098D02*
X020573Y008098D01*
X020573Y013512D01*
X013249Y013512D01*
X013249Y008098D01*
X013249Y014348D02*
X020573Y014348D01*
X020573Y019762D01*
X013249Y019762D01*
X013249Y014348D01*
D28*
X019678Y013980D02*
X019678Y020130D01*
X019678Y013880D02*
X019678Y007730D01*
D29*
X019443Y007887D03*
X019443Y013723D03*
X019443Y014137D03*
X019443Y019973D03*
D30*
X010430Y018930D03*
X010430Y017930D03*
X010430Y016930D03*
X010430Y015930D03*
X009430Y015930D03*
X009430Y016930D03*
X009430Y017930D03*
X009430Y018930D03*
D31*
X002930Y019930D02*
X002930Y015930D01*
X001180Y015930D01*
X001180Y019930D01*
X002930Y019930D01*
X001180Y019930D02*
X000430Y019930D01*
X000430Y015930D01*
X001180Y015930D01*
X001180Y014180D02*
X000430Y014180D01*
X000430Y010180D01*
X001180Y010180D01*
X001180Y014180D01*
X002930Y014180D01*
X002930Y010180D01*
X001180Y010180D01*
X001180Y008680D02*
X000430Y008680D01*
X000430Y004680D01*
X001180Y004680D01*
X001180Y008680D01*
X002930Y008680D01*
X002930Y004680D01*
X001180Y004680D01*
X007930Y003430D02*
X007930Y001680D01*
X011930Y001680D01*
X011930Y000930D01*
X007930Y000930D01*
X007930Y001680D01*
X007930Y003430D02*
X011930Y003430D01*
X011930Y001680D01*
X014930Y001680D02*
X014930Y000930D01*
X018930Y000930D01*
X018930Y001680D01*
X014930Y001680D01*
X014930Y003430D01*
X018930Y003430D01*
X018930Y001680D01*
D32*
X014291Y002555D03*
D33*
X014345Y002634D03*
D34*
X014208Y002653D03*
D35*
X014227Y002673D03*
D36*
X013819Y002599D03*
D37*
X013838Y002673D03*
D38*
X014055Y002747D03*
D39*
X014055Y003692D03*
D40*
X013784Y002959D03*
X014326Y002959D03*
D41*
X014055Y003111D03*
M02*
