%
M48
M72
T01C0.0236
T02C0.0320
T03C0.0354
T04C0.0394
T05C0.0400
T06C0.1280
%
T01
X9930Y10680
X12555Y12930
X9055Y14555
X8680Y15930
X8680Y16930
X8680Y17930
X8680Y18930
X7055Y19680
X5930Y15055
X3305Y15055
X1930Y14430
T02
X6180Y2430
X6180Y1430
T03
X14009Y9555
X14009Y10555
X14009Y11555
X15009Y11055
X15009Y10055
X15009Y12055
X14009Y15805
X14009Y16805
X14009Y17805
X15009Y17305
X15009Y16305
X15009Y18305
T04
X1430Y2180
X3399Y2180
X1680Y5180
X1680Y6180
X1680Y7180
X1680Y8180
X1680Y10680
X1680Y11680
X1680Y12680
X1680Y13680
X1680Y16430
X1680Y17430
X1680Y18430
X1680Y19430
X8430Y2180
X9430Y2180
X10430Y2180
X11430Y2180
X15430Y2180
X16430Y2180
X17430Y2180
X18430Y2180
T05
X18430Y4280
X18430Y5180
X18430Y6080
X16930Y6080
X16930Y5180
X16930Y4280
X15430Y4280
X15430Y5180
X15430Y6080
X11430Y6080
X11430Y5180
X11430Y4280
X9930Y4280
X9930Y5180
X9930Y6080
X8430Y6080
X8430Y5180
X8430Y4280
X5580Y5180
X4680Y5180
X3780Y5180
X3780Y6680
X4680Y6680
X5580Y6680
X5580Y8180
X4680Y8180
X3780Y8180
X3780Y10680
X4680Y10680
X5580Y10680
X5580Y12180
X4680Y12180
X3780Y12180
X3780Y13680
X4680Y13680
X5580Y13680
X5580Y16430
X4680Y16430
X3780Y16430
X3780Y17930
X4680Y17930
X5580Y17930
X5580Y19430
X4680Y19430
X3780Y19430
X9430Y18930
X9430Y17930
X9430Y16930
X9430Y15930
X10430Y15930
X10430Y16930
X10430Y17930
X10430Y18930
T06
X17509Y19055
X17509Y15055
X17509Y12805
X17509Y8805
M30
