G75*
G70*
%OFA0B0*%
%FSLAX24Y24*%
%IPPOS*%
%LPD*%
%AMOC8*
5,1,8,0,0,1.08239X$1,22.5*
%
%ADD10C,0.0000*%
%ADD11C,0.0060*%
%ADD12C,0.0050*%
%ADD13R,0.0005X0.0005*%
%ADD14R,0.0005X0.0052*%
%ADD15R,0.0005X0.0095*%
%ADD16R,0.0005X0.0124*%
%ADD17R,0.0005X0.0143*%
%ADD18R,0.0005X0.0152*%
%ADD19R,0.0005X0.0167*%
%ADD20R,0.0005X0.0048*%
%ADD21R,0.0005X0.0048*%
%ADD22R,0.0005X0.0176*%
%ADD23R,0.0005X0.0043*%
%ADD24R,0.0005X0.0067*%
%ADD25R,0.0005X0.0076*%
%ADD26R,0.0005X0.0057*%
%ADD27R,0.0005X0.0057*%
%ADD28R,0.0005X0.0038*%
%ADD29R,0.0005X0.0071*%
%ADD30R,0.0005X0.0181*%
%ADD31R,0.0005X0.0005*%
%ADD32R,0.0005X0.0081*%
%ADD33R,0.0005X0.0171*%
%ADD34R,0.0005X0.0186*%
%ADD35R,0.0005X0.0043*%
%ADD36R,0.0005X0.0067*%
%ADD37R,0.0005X0.0005*%
%ADD38R,0.0005X0.0057*%
%ADD39R,0.0005X0.0067*%
%ADD40R,0.0005X0.0062*%
%ADD41R,0.0005X0.0162*%
%ADD42R,0.0005X0.0048*%
%ADD43R,0.0005X0.0062*%
%ADD44R,0.0005X0.0248*%
%ADD45R,0.0005X0.0043*%
%ADD46R,0.0005X0.0052*%
%ADD47R,0.0005X0.0100*%
%ADD48R,0.0005X0.0086*%
%ADD49R,0.0005X0.0138*%
%ADD50R,0.0005X0.0138*%
%ADD51R,0.0005X0.0291*%
%ADD52R,0.0005X0.0081*%
%ADD53R,0.0005X0.0119*%
%ADD54R,0.0005X0.0105*%
%ADD55R,0.0005X0.0143*%
%ADD56R,0.0005X0.0143*%
%ADD57R,0.0005X0.0081*%
%ADD58R,0.0005X0.0129*%
%ADD59R,0.0005X0.0086*%
%ADD60R,0.0005X0.0329*%
%ADD61R,0.0005X0.0091*%
%ADD62R,0.0005X0.0071*%
%ADD63R,0.0005X0.0133*%
%ADD64R,0.0005X0.0124*%
%ADD65R,0.0005X0.0095*%
%ADD66R,0.0005X0.0133*%
%ADD67R,0.0005X0.0100*%
%ADD68R,0.0005X0.0367*%
%ADD69R,0.0005X0.0148*%
%ADD70R,0.0005X0.0133*%
%ADD71R,0.0005X0.0157*%
%ADD72R,0.0005X0.0176*%
%ADD73R,0.0005X0.0086*%
%ADD74R,0.0005X0.0110*%
%ADD75R,0.0005X0.0400*%
%ADD76R,0.0005X0.0167*%
%ADD77R,0.0005X0.0181*%
%ADD78R,0.0005X0.0167*%
%ADD79R,0.0005X0.0424*%
%ADD80R,0.0005X0.0019*%
%ADD81R,0.0005X0.0148*%
%ADD82R,0.0005X0.0171*%
%ADD83R,0.0005X0.0024*%
%ADD84R,0.0005X0.0062*%
%ADD85R,0.0005X0.0453*%
%ADD86R,0.0005X0.0052*%
%ADD87R,0.0005X0.0010*%
%ADD88R,0.0005X0.0010*%
%ADD89R,0.0005X0.0481*%
%ADD90R,0.0005X0.0505*%
%ADD91R,0.0005X0.0071*%
%ADD92R,0.0005X0.0024*%
%ADD93R,0.0005X0.0033*%
%ADD94R,0.0005X0.0024*%
%ADD95R,0.0005X0.0529*%
%ADD96R,0.0005X0.0029*%
%ADD97R,0.0005X0.0029*%
%ADD98R,0.0005X0.0033*%
%ADD99R,0.0005X0.0543*%
%ADD100R,0.0005X0.0014*%
%ADD101R,0.0005X0.0014*%
%ADD102R,0.0005X0.0567*%
%ADD103R,0.0005X0.0586*%
%ADD104R,0.0005X0.0605*%
%ADD105R,0.0005X0.0624*%
%ADD106R,0.0005X0.0643*%
%ADD107R,0.0005X0.0272*%
%ADD108R,0.0005X0.0267*%
%ADD109R,0.0005X0.0243*%
%ADD110R,0.0005X0.0238*%
%ADD111R,0.0005X0.0224*%
%ADD112R,0.0005X0.0224*%
%ADD113R,0.0005X0.0214*%
%ADD114R,0.0005X0.0219*%
%ADD115R,0.0005X0.0205*%
%ADD116R,0.0005X0.0200*%
%ADD117R,0.0005X0.0076*%
%ADD118R,0.0005X0.0191*%
%ADD119R,0.0005X0.0195*%
%ADD120R,0.0005X0.0186*%
%ADD121R,0.0005X0.0105*%
%ADD122R,0.0005X0.0195*%
%ADD123R,0.0005X0.0091*%
%ADD124R,0.0005X0.0200*%
%ADD125R,0.0005X0.0176*%
%ADD126R,0.0005X0.0076*%
%ADD127R,0.0005X0.0157*%
%ADD128R,0.0005X0.0162*%
%ADD129R,0.0005X0.0148*%
%ADD130R,0.0005X0.0009*%
%ADD131R,0.0005X0.0019*%
%ADD132R,0.0005X0.0033*%
%ADD133R,0.0005X0.0224*%
%ADD134R,0.0005X0.0138*%
%ADD135R,0.0005X0.0029*%
%ADD136R,0.0005X0.0257*%
%ADD137R,0.0005X0.0129*%
%ADD138R,0.0005X0.0095*%
%ADD139R,0.0005X0.0319*%
%ADD140R,0.0005X0.0129*%
%ADD141R,0.0005X0.0353*%
%ADD142R,0.0005X0.0162*%
%ADD143R,0.0005X0.0124*%
%ADD144R,0.0005X0.0119*%
%ADD145R,0.0005X0.0114*%
%ADD146R,0.0005X0.0100*%
%ADD147R,0.0005X0.0119*%
%ADD148R,0.0005X0.0090*%
%ADD149R,0.0005X0.0110*%
%ADD150R,0.0005X0.0110*%
%ADD151R,0.0005X0.0038*%
%ADD152R,0.0005X0.0157*%
%ADD153R,0.0005X0.0634*%
%ADD154R,0.0005X0.0629*%
%ADD155R,0.0005X0.0648*%
%ADD156R,0.0005X0.0657*%
%ADD157R,0.0005X0.0653*%
%ADD158R,0.0005X0.0662*%
%ADD159R,0.0005X0.0662*%
%ADD160R,0.0005X0.0672*%
%ADD161R,0.0005X0.0667*%
%ADD162R,0.0005X0.0676*%
%ADD163R,0.0005X0.0676*%
%ADD164R,0.0005X0.0681*%
%ADD165R,0.0005X0.0681*%
%ADD166R,0.0005X0.0686*%
%ADD167R,0.0005X0.0691*%
%ADD168R,0.0005X0.0696*%
%ADD169R,0.0005X0.0696*%
%ADD170R,0.0005X0.0700*%
%ADD171R,0.0005X0.0705*%
%ADD172R,0.0005X0.0700*%
%ADD173R,0.0005X0.0710*%
%ADD174R,0.0005X0.0715*%
%ADD175R,0.0005X0.0715*%
%ADD176R,0.0005X0.0715*%
%ADD177R,0.0005X0.0719*%
%ADD178R,0.0005X0.0719*%
%ADD179R,0.0005X0.0724*%
%ADD180R,0.0005X0.0105*%
%ADD181R,0.0005X0.0262*%
%ADD182R,0.0005X0.0114*%
%ADD183R,0.0005X0.0014*%
%ADD184R,0.0005X0.0172*%
%ADD185R,0.0005X0.0219*%
%ADD186R,0.0005X0.0248*%
%ADD187R,0.0005X0.0281*%
%ADD188R,0.0005X0.0329*%
%ADD189R,0.0005X0.0219*%
%ADD190R,0.0005X0.0391*%
%ADD191R,0.0005X0.0572*%
%ADD192R,0.0005X0.1100*%
%ADD193R,0.0005X0.0562*%
%ADD194R,0.0005X0.1096*%
%ADD195R,0.0005X0.0557*%
%ADD196R,0.0005X0.1086*%
%ADD197R,0.0005X0.0548*%
%ADD198R,0.0005X0.1077*%
%ADD199R,0.0005X0.0538*%
%ADD200R,0.0005X0.1062*%
%ADD201R,0.0005X0.0524*%
%ADD202R,0.0005X0.0529*%
%ADD203R,0.0005X0.0524*%
%ADD204R,0.0005X0.0514*%
%ADD205R,0.0005X0.0510*%
%ADD206R,0.0005X0.0514*%
%ADD207R,0.0005X0.0500*%
%ADD208R,0.0005X0.0500*%
%ADD209R,0.0005X0.0500*%
%ADD210R,0.0005X0.0486*%
%ADD211R,0.0005X0.0481*%
%ADD212R,0.0005X0.0472*%
%ADD213R,0.0005X0.0472*%
%ADD214R,0.0005X0.0448*%
%ADD215R,0.0005X0.0453*%
%ADD216R,0.0005X0.0434*%
%ADD217R,0.0005X0.0429*%
%ADD218R,0.0005X0.0410*%
%ADD219R,0.0005X0.0414*%
%ADD220R,0.0005X0.0386*%
%ADD221R,0.0005X0.0386*%
%ADD222R,0.0005X0.0357*%
%ADD223R,0.0005X0.0357*%
%ADD224R,0.0005X0.0643*%
%ADD225R,0.0005X0.0624*%
%ADD226R,0.0005X0.0286*%
%ADD227R,0.0005X0.0286*%
%ADD228R,0.0005X0.0243*%
%ADD229R,0.0005X0.0195*%
%ADD230R,0.0005X0.0205*%
%ADD231R,0.0005X0.0214*%
%ADD232R,0.0005X0.0229*%
%ADD233R,0.0005X0.0638*%
%ADD234R,0.0005X0.0581*%
%ADD235R,0.0005X0.0476*%
%ADD236R,0.0005X0.0362*%
%ADD237R,0.0005X0.0291*%
%ADD238R,0.0005X0.0243*%
%ADD239C,0.0040*%
%ADD240C,0.0004*%
D10*
X000180Y000680D02*
X000180Y020176D01*
X019675Y020176D01*
X019675Y000680D01*
X000180Y000680D01*
X008100Y008160D02*
X008109Y008166D01*
X008109Y008168D02*
X008100Y008168D01*
X008104Y008168D02*
X008106Y008170D01*
X008106Y008173D01*
X008104Y008175D01*
X008100Y008175D01*
X008101Y008177D02*
X008100Y008179D01*
X008100Y008182D01*
X008101Y008184D01*
X008104Y008184D01*
X008106Y008182D01*
X008106Y008179D01*
X008104Y008177D01*
X008101Y008177D01*
X008100Y008186D02*
X008106Y008186D01*
X008106Y008188D01*
X008104Y008189D01*
X008106Y008191D01*
X008104Y008192D01*
X008100Y008192D01*
X008100Y008189D02*
X008104Y008189D01*
X008104Y008195D02*
X008106Y008196D01*
X008106Y008200D01*
X008104Y008201D01*
X008103Y008201D01*
X008103Y008195D01*
X008104Y008195D02*
X008101Y008195D01*
X008100Y008196D01*
X008100Y008200D01*
X008100Y008204D02*
X008109Y008210D01*
X008106Y008212D02*
X008106Y008217D01*
X008104Y008219D01*
X008100Y008219D01*
X008101Y008221D02*
X008104Y008221D01*
X008106Y008223D01*
X008106Y008226D01*
X008104Y008227D01*
X008103Y008227D01*
X008103Y008221D01*
X008101Y008221D02*
X008100Y008223D01*
X008100Y008226D01*
X008100Y008230D02*
X008100Y008235D01*
X008101Y008236D01*
X008104Y008236D01*
X008106Y008235D01*
X008106Y008230D01*
X008097Y008230D01*
X008100Y008239D02*
X008109Y008239D01*
X008106Y008240D02*
X008106Y008243D01*
X008104Y008245D01*
X008100Y008245D01*
X008100Y008247D02*
X008100Y008251D01*
X008100Y008249D02*
X008106Y008249D01*
X008106Y008247D01*
X008109Y008249D02*
X008111Y008249D01*
X008106Y008253D02*
X008100Y008253D01*
X008103Y008253D02*
X008106Y008256D01*
X008106Y008258D01*
X008106Y008261D02*
X008101Y008261D01*
X008100Y008262D01*
X008100Y008267D01*
X008106Y008267D01*
X008104Y008269D02*
X008106Y008271D01*
X008106Y008276D01*
X008103Y008274D02*
X008103Y008271D01*
X008104Y008269D01*
X008100Y008269D02*
X008100Y008274D01*
X008101Y008276D01*
X008103Y008274D01*
X008100Y008278D02*
X008109Y008284D01*
X008109Y008287D02*
X008100Y008287D01*
X008100Y008292D01*
X008101Y008293D01*
X008104Y008293D01*
X008106Y008292D01*
X008106Y008287D01*
X008106Y008296D02*
X008100Y008296D01*
X008103Y008296D02*
X008106Y008299D01*
X008106Y008300D01*
X008106Y008303D02*
X008106Y008305D01*
X008104Y008306D01*
X008106Y008308D01*
X008104Y008309D01*
X008100Y008309D01*
X008100Y008312D02*
X008100Y008315D01*
X008100Y008313D02*
X008109Y008313D01*
X008109Y008312D01*
X008104Y008306D02*
X008100Y008306D01*
X008100Y008303D02*
X008106Y008303D01*
X008101Y008318D02*
X008103Y008319D01*
X008103Y008324D01*
X008104Y008324D02*
X008100Y008324D01*
X008100Y008319D01*
X008101Y008318D01*
X008106Y008319D02*
X008106Y008322D01*
X008104Y008324D01*
X008106Y008326D02*
X008106Y008331D01*
X008104Y008333D01*
X008101Y008333D01*
X008100Y008331D01*
X008100Y008326D01*
X008109Y008326D01*
X008101Y008335D02*
X008101Y008337D01*
X008100Y008337D01*
X008100Y008335D01*
X008101Y008335D01*
X008100Y008339D02*
X008100Y008344D01*
X008101Y008346D01*
X008104Y008346D01*
X008106Y008344D01*
X008106Y008339D01*
X008109Y008339D02*
X008100Y008339D01*
X008100Y008348D02*
X008106Y008348D01*
X008106Y008350D01*
X008104Y008351D01*
X008106Y008353D01*
X008104Y008355D01*
X008100Y008355D01*
X008100Y008357D02*
X008100Y008362D01*
X008101Y008363D01*
X008104Y008363D01*
X008106Y008362D01*
X008106Y008357D01*
X008097Y008357D01*
X008100Y008351D02*
X008104Y008351D01*
X008106Y008240D02*
X008104Y008239D01*
X008100Y008212D02*
X008106Y008212D01*
X016869Y008805D02*
X016871Y008855D01*
X016877Y008905D01*
X016887Y008954D01*
X016900Y009003D01*
X016918Y009050D01*
X016939Y009096D01*
X016963Y009139D01*
X016991Y009181D01*
X017022Y009221D01*
X017056Y009258D01*
X017093Y009292D01*
X017133Y009323D01*
X017175Y009351D01*
X017218Y009375D01*
X017264Y009396D01*
X017311Y009414D01*
X017360Y009427D01*
X017409Y009437D01*
X017459Y009443D01*
X017509Y009445D01*
X017559Y009443D01*
X017609Y009437D01*
X017658Y009427D01*
X017707Y009414D01*
X017754Y009396D01*
X017800Y009375D01*
X017843Y009351D01*
X017885Y009323D01*
X017925Y009292D01*
X017962Y009258D01*
X017996Y009221D01*
X018027Y009181D01*
X018055Y009139D01*
X018079Y009096D01*
X018100Y009050D01*
X018118Y009003D01*
X018131Y008954D01*
X018141Y008905D01*
X018147Y008855D01*
X018149Y008805D01*
X018147Y008755D01*
X018141Y008705D01*
X018131Y008656D01*
X018118Y008607D01*
X018100Y008560D01*
X018079Y008514D01*
X018055Y008471D01*
X018027Y008429D01*
X017996Y008389D01*
X017962Y008352D01*
X017925Y008318D01*
X017885Y008287D01*
X017843Y008259D01*
X017800Y008235D01*
X017754Y008214D01*
X017707Y008196D01*
X017658Y008183D01*
X017609Y008173D01*
X017559Y008167D01*
X017509Y008165D01*
X017459Y008167D01*
X017409Y008173D01*
X017360Y008183D01*
X017311Y008196D01*
X017264Y008214D01*
X017218Y008235D01*
X017175Y008259D01*
X017133Y008287D01*
X017093Y008318D01*
X017056Y008352D01*
X017022Y008389D01*
X016991Y008429D01*
X016963Y008471D01*
X016939Y008514D01*
X016918Y008560D01*
X016900Y008607D01*
X016887Y008656D01*
X016877Y008705D01*
X016871Y008755D01*
X016869Y008805D01*
X016869Y012805D02*
X016871Y012855D01*
X016877Y012905D01*
X016887Y012954D01*
X016900Y013003D01*
X016918Y013050D01*
X016939Y013096D01*
X016963Y013139D01*
X016991Y013181D01*
X017022Y013221D01*
X017056Y013258D01*
X017093Y013292D01*
X017133Y013323D01*
X017175Y013351D01*
X017218Y013375D01*
X017264Y013396D01*
X017311Y013414D01*
X017360Y013427D01*
X017409Y013437D01*
X017459Y013443D01*
X017509Y013445D01*
X017559Y013443D01*
X017609Y013437D01*
X017658Y013427D01*
X017707Y013414D01*
X017754Y013396D01*
X017800Y013375D01*
X017843Y013351D01*
X017885Y013323D01*
X017925Y013292D01*
X017962Y013258D01*
X017996Y013221D01*
X018027Y013181D01*
X018055Y013139D01*
X018079Y013096D01*
X018100Y013050D01*
X018118Y013003D01*
X018131Y012954D01*
X018141Y012905D01*
X018147Y012855D01*
X018149Y012805D01*
X018147Y012755D01*
X018141Y012705D01*
X018131Y012656D01*
X018118Y012607D01*
X018100Y012560D01*
X018079Y012514D01*
X018055Y012471D01*
X018027Y012429D01*
X017996Y012389D01*
X017962Y012352D01*
X017925Y012318D01*
X017885Y012287D01*
X017843Y012259D01*
X017800Y012235D01*
X017754Y012214D01*
X017707Y012196D01*
X017658Y012183D01*
X017609Y012173D01*
X017559Y012167D01*
X017509Y012165D01*
X017459Y012167D01*
X017409Y012173D01*
X017360Y012183D01*
X017311Y012196D01*
X017264Y012214D01*
X017218Y012235D01*
X017175Y012259D01*
X017133Y012287D01*
X017093Y012318D01*
X017056Y012352D01*
X017022Y012389D01*
X016991Y012429D01*
X016963Y012471D01*
X016939Y012514D01*
X016918Y012560D01*
X016900Y012607D01*
X016887Y012656D01*
X016877Y012705D01*
X016871Y012755D01*
X016869Y012805D01*
X016869Y015055D02*
X016871Y015105D01*
X016877Y015155D01*
X016887Y015204D01*
X016900Y015253D01*
X016918Y015300D01*
X016939Y015346D01*
X016963Y015389D01*
X016991Y015431D01*
X017022Y015471D01*
X017056Y015508D01*
X017093Y015542D01*
X017133Y015573D01*
X017175Y015601D01*
X017218Y015625D01*
X017264Y015646D01*
X017311Y015664D01*
X017360Y015677D01*
X017409Y015687D01*
X017459Y015693D01*
X017509Y015695D01*
X017559Y015693D01*
X017609Y015687D01*
X017658Y015677D01*
X017707Y015664D01*
X017754Y015646D01*
X017800Y015625D01*
X017843Y015601D01*
X017885Y015573D01*
X017925Y015542D01*
X017962Y015508D01*
X017996Y015471D01*
X018027Y015431D01*
X018055Y015389D01*
X018079Y015346D01*
X018100Y015300D01*
X018118Y015253D01*
X018131Y015204D01*
X018141Y015155D01*
X018147Y015105D01*
X018149Y015055D01*
X018147Y015005D01*
X018141Y014955D01*
X018131Y014906D01*
X018118Y014857D01*
X018100Y014810D01*
X018079Y014764D01*
X018055Y014721D01*
X018027Y014679D01*
X017996Y014639D01*
X017962Y014602D01*
X017925Y014568D01*
X017885Y014537D01*
X017843Y014509D01*
X017800Y014485D01*
X017754Y014464D01*
X017707Y014446D01*
X017658Y014433D01*
X017609Y014423D01*
X017559Y014417D01*
X017509Y014415D01*
X017459Y014417D01*
X017409Y014423D01*
X017360Y014433D01*
X017311Y014446D01*
X017264Y014464D01*
X017218Y014485D01*
X017175Y014509D01*
X017133Y014537D01*
X017093Y014568D01*
X017056Y014602D01*
X017022Y014639D01*
X016991Y014679D01*
X016963Y014721D01*
X016939Y014764D01*
X016918Y014810D01*
X016900Y014857D01*
X016887Y014906D01*
X016877Y014955D01*
X016871Y015005D01*
X016869Y015055D01*
X016869Y019055D02*
X016871Y019105D01*
X016877Y019155D01*
X016887Y019204D01*
X016900Y019253D01*
X016918Y019300D01*
X016939Y019346D01*
X016963Y019389D01*
X016991Y019431D01*
X017022Y019471D01*
X017056Y019508D01*
X017093Y019542D01*
X017133Y019573D01*
X017175Y019601D01*
X017218Y019625D01*
X017264Y019646D01*
X017311Y019664D01*
X017360Y019677D01*
X017409Y019687D01*
X017459Y019693D01*
X017509Y019695D01*
X017559Y019693D01*
X017609Y019687D01*
X017658Y019677D01*
X017707Y019664D01*
X017754Y019646D01*
X017800Y019625D01*
X017843Y019601D01*
X017885Y019573D01*
X017925Y019542D01*
X017962Y019508D01*
X017996Y019471D01*
X018027Y019431D01*
X018055Y019389D01*
X018079Y019346D01*
X018100Y019300D01*
X018118Y019253D01*
X018131Y019204D01*
X018141Y019155D01*
X018147Y019105D01*
X018149Y019055D01*
X018147Y019005D01*
X018141Y018955D01*
X018131Y018906D01*
X018118Y018857D01*
X018100Y018810D01*
X018079Y018764D01*
X018055Y018721D01*
X018027Y018679D01*
X017996Y018639D01*
X017962Y018602D01*
X017925Y018568D01*
X017885Y018537D01*
X017843Y018509D01*
X017800Y018485D01*
X017754Y018464D01*
X017707Y018446D01*
X017658Y018433D01*
X017609Y018423D01*
X017559Y018417D01*
X017509Y018415D01*
X017459Y018417D01*
X017409Y018423D01*
X017360Y018433D01*
X017311Y018446D01*
X017264Y018464D01*
X017218Y018485D01*
X017175Y018509D01*
X017133Y018537D01*
X017093Y018568D01*
X017056Y018602D01*
X017022Y018639D01*
X016991Y018679D01*
X016963Y018721D01*
X016939Y018764D01*
X016918Y018810D01*
X016900Y018857D01*
X016887Y018906D01*
X016877Y018955D01*
X016871Y019005D01*
X016869Y019055D01*
D11*
X018476Y018617D02*
X019116Y018617D01*
X019116Y018190D02*
X018476Y018617D01*
X018476Y018190D02*
X019116Y018190D01*
X019116Y017974D02*
X019116Y017761D01*
X019116Y017868D02*
X018476Y017868D01*
X018476Y017974D02*
X018476Y017761D01*
X018796Y017543D02*
X018796Y017116D01*
X019009Y016899D02*
X019116Y016792D01*
X019116Y016578D01*
X019009Y016472D01*
X018582Y016472D01*
X018476Y016578D01*
X018476Y016792D01*
X018582Y016899D01*
X018476Y016254D02*
X018476Y015827D01*
X018903Y016254D01*
X019009Y016254D01*
X019116Y016147D01*
X019116Y015934D01*
X019009Y015827D01*
X019116Y015611D02*
X019116Y015397D01*
X019116Y015504D02*
X018476Y015504D01*
X018476Y015397D02*
X018476Y015611D01*
X019097Y012809D02*
X019097Y012382D01*
X019097Y012596D02*
X018457Y012596D01*
X018563Y012165D02*
X019097Y012165D01*
X019097Y011738D02*
X018563Y011738D01*
X018457Y011844D01*
X018457Y012058D01*
X018563Y012165D01*
X018563Y011520D02*
X018990Y011520D01*
X019097Y011413D01*
X019097Y011200D01*
X018990Y011093D01*
X018563Y011093D01*
X018457Y011200D01*
X018457Y011413D01*
X018563Y011520D01*
X018777Y010876D02*
X018777Y010448D01*
X018990Y010231D02*
X019097Y010124D01*
X019097Y009911D01*
X018990Y009804D01*
X018563Y009804D01*
X018457Y009911D01*
X018457Y010124D01*
X018563Y010231D01*
X018457Y009586D02*
X018457Y009159D01*
X018884Y009586D01*
X018990Y009586D01*
X019097Y009480D01*
X019097Y009266D01*
X018990Y009159D01*
X019097Y008943D02*
X019097Y008730D01*
X019097Y008836D02*
X018457Y008836D01*
X018457Y008730D02*
X018457Y008943D01*
X011476Y008961D02*
X010835Y008961D01*
X010835Y008641D01*
X010942Y008534D01*
X011155Y008534D01*
X011262Y008641D01*
X011262Y008961D01*
X011262Y009179D02*
X011262Y009499D01*
X011155Y009606D01*
X010942Y009606D01*
X010835Y009499D01*
X010835Y009179D01*
X011476Y009179D01*
X010942Y009823D02*
X011049Y009930D01*
X011049Y010250D01*
X011155Y010250D02*
X010835Y010250D01*
X010835Y009930D01*
X010942Y009823D01*
X011262Y009930D02*
X011262Y010144D01*
X011155Y010250D01*
X011049Y010468D02*
X011262Y010681D01*
X011262Y010788D01*
X011262Y010468D02*
X010835Y010468D01*
X011262Y011650D02*
X010835Y011863D01*
X011262Y012077D01*
X011369Y012294D02*
X011476Y012401D01*
X011476Y012614D01*
X011369Y012721D01*
X011262Y012721D01*
X010835Y012294D01*
X010835Y012721D01*
X010835Y012939D02*
X010835Y013045D01*
X010942Y013045D01*
X010942Y012939D01*
X010835Y012939D01*
X010835Y013261D02*
X011262Y013688D01*
X011369Y013688D01*
X011476Y013581D01*
X011476Y013368D01*
X011369Y013261D01*
X010835Y013261D02*
X010835Y013688D01*
X007670Y015205D02*
X007243Y015205D01*
X011049Y008317D02*
X011049Y007890D01*
X011155Y007890D02*
X011262Y007996D01*
X011262Y008210D01*
X011155Y008317D01*
X011049Y008317D01*
X010835Y008210D02*
X010835Y007996D01*
X010942Y007890D01*
X011155Y007890D01*
X010835Y007674D02*
X010835Y007460D01*
X010835Y007567D02*
X011476Y007567D01*
X011476Y007460D01*
X001650Y001280D02*
X001223Y001280D01*
X001436Y001494D02*
X001436Y001067D01*
D12*
X003180Y001305D02*
X003618Y001305D01*
D13*
X007595Y007793D03*
X007657Y007845D03*
X007657Y007855D03*
X007657Y007864D03*
X007685Y009041D03*
X007685Y009050D03*
X007685Y009060D03*
X007685Y009070D03*
X007685Y009079D03*
X007685Y009089D03*
X007685Y009098D03*
X007685Y009108D03*
X007685Y009127D03*
X007685Y009146D03*
X007685Y009165D03*
X007685Y009184D03*
X007685Y009203D03*
X007685Y009222D03*
X007685Y009241D03*
X007685Y009260D03*
X007685Y009279D03*
X007685Y009298D03*
X007685Y009317D03*
X007685Y009336D03*
X007685Y009355D03*
X007685Y009374D03*
X007685Y009393D03*
X007685Y009413D03*
X007685Y009432D03*
X007685Y009451D03*
X007685Y009470D03*
X007685Y009489D03*
X007685Y009508D03*
X007685Y009527D03*
X007685Y009546D03*
X007685Y009565D03*
X007685Y009584D03*
X007685Y009603D03*
X007685Y009622D03*
X007685Y009927D03*
X007685Y009946D03*
X007685Y009965D03*
X007685Y009984D03*
X007685Y010003D03*
X007447Y010003D03*
X007447Y009984D03*
X007447Y010022D03*
X007228Y010022D03*
X007228Y010003D03*
X007228Y010041D03*
X007228Y010179D03*
X007228Y010408D03*
X007228Y010427D03*
X007409Y010484D03*
X007447Y010427D03*
X007447Y010408D03*
X007228Y010656D03*
X007228Y010718D03*
X007447Y010718D03*
X007447Y010861D03*
X007447Y010870D03*
X007447Y010880D03*
X007447Y010899D03*
X007447Y010908D03*
X007447Y010918D03*
X007685Y011128D03*
X007685Y011137D03*
X007685Y011147D03*
X007685Y011166D03*
X007685Y011175D03*
X007685Y011185D03*
X007685Y011204D03*
X007685Y011647D03*
X007685Y011656D03*
X007685Y011675D03*
X007685Y011685D03*
X007685Y011694D03*
X007685Y011713D03*
X007685Y011723D03*
X007685Y011733D03*
X007685Y011890D03*
X007685Y011899D03*
X007685Y011909D03*
X007685Y011928D03*
X007685Y011937D03*
X007685Y011947D03*
X007685Y011966D03*
X007685Y012271D03*
X007685Y012280D03*
X007685Y012290D03*
X007685Y012299D03*
X007685Y012309D03*
X007685Y012318D03*
X007685Y012328D03*
X007685Y012337D03*
X007685Y012347D03*
X007685Y012357D03*
X007685Y012366D03*
X007685Y012376D03*
X007685Y012385D03*
X007685Y012395D03*
X007685Y012404D03*
X007685Y012414D03*
X007685Y012423D03*
X007685Y012433D03*
X007685Y012442D03*
X007685Y012452D03*
X007685Y012461D03*
X007685Y012471D03*
X007685Y012480D03*
X007685Y012490D03*
X007685Y012499D03*
X007685Y012509D03*
X007685Y012518D03*
X007685Y012528D03*
X007685Y012538D03*
X007685Y012547D03*
X007685Y012557D03*
X007685Y012566D03*
X007685Y012576D03*
X007685Y012585D03*
X007685Y012595D03*
X007685Y012604D03*
X007685Y012614D03*
X007685Y012623D03*
X007685Y012633D03*
X007685Y012642D03*
X007685Y012652D03*
X007685Y012661D03*
X007685Y012671D03*
X007685Y012680D03*
X007685Y012690D03*
X007685Y012700D03*
X007685Y012709D03*
X007685Y012719D03*
X007685Y012728D03*
X007685Y012738D03*
X007685Y012747D03*
X007685Y012757D03*
X007685Y012766D03*
X007685Y012776D03*
X007685Y012785D03*
X007685Y012795D03*
X007685Y012804D03*
X007685Y012814D03*
X007685Y012823D03*
X007685Y012833D03*
X007685Y012842D03*
X007685Y012852D03*
X007685Y012861D03*
X007685Y012871D03*
X007685Y013023D03*
X007685Y013033D03*
X007685Y013043D03*
X007685Y013052D03*
X007685Y013062D03*
X007685Y013071D03*
X007685Y013081D03*
X007685Y013090D03*
X007685Y013100D03*
X007685Y013109D03*
X007685Y013119D03*
X007685Y013128D03*
X007685Y013138D03*
X007685Y013147D03*
X007685Y013157D03*
X007685Y013166D03*
X007685Y013176D03*
X007685Y013185D03*
X007685Y013195D03*
X007685Y013204D03*
X007685Y013214D03*
X007685Y013224D03*
X007685Y013233D03*
X007685Y013243D03*
X007685Y013252D03*
X007685Y013262D03*
X007685Y013271D03*
X007685Y013281D03*
X007685Y013290D03*
X007685Y013300D03*
X007685Y013309D03*
X007685Y013319D03*
X007685Y013328D03*
X007685Y013338D03*
X007685Y013347D03*
X007685Y013357D03*
X007685Y013366D03*
X007685Y013376D03*
X007685Y013385D03*
X007685Y013395D03*
X007685Y013405D03*
X007685Y013414D03*
X007685Y013424D03*
X007685Y013433D03*
X007685Y013443D03*
X007685Y013452D03*
X007685Y013462D03*
X007685Y013471D03*
X007685Y013481D03*
X007685Y013490D03*
X007685Y013500D03*
X007685Y013509D03*
X007685Y013519D03*
X007685Y013528D03*
X007685Y013538D03*
X007685Y013547D03*
X007685Y013557D03*
X007685Y013567D03*
X007685Y013576D03*
X007685Y013586D03*
X007685Y013595D03*
X007685Y013605D03*
X007685Y013614D03*
X007447Y013314D03*
X007447Y013285D03*
X007447Y013176D03*
X007447Y013166D03*
X007447Y013157D03*
X007447Y013147D03*
X007447Y013052D03*
X007447Y013043D03*
X007447Y013033D03*
X007447Y013023D03*
X007447Y013014D03*
X007447Y013004D03*
X007447Y012995D03*
X007447Y012985D03*
X007447Y012976D03*
X007447Y012966D03*
X007414Y013033D03*
X007414Y013043D03*
X007295Y012971D03*
X007152Y012966D03*
X007152Y012942D03*
X007118Y012928D03*
X007409Y012700D03*
X007409Y012680D03*
X007380Y012623D03*
X007376Y012623D03*
X007390Y012538D03*
X007409Y012499D03*
X007447Y012438D03*
X007447Y012409D03*
X007228Y012414D03*
X007228Y012423D03*
X007228Y012433D03*
X007228Y012442D03*
X007228Y012404D03*
X007261Y012195D03*
X007447Y012180D03*
X007447Y012171D03*
X007447Y012142D03*
X007447Y012133D03*
X007333Y011837D03*
X007266Y011490D03*
X007685Y010675D03*
X007685Y010656D03*
X007685Y010637D03*
X007685Y010618D03*
X007685Y010599D03*
X008228Y010832D03*
X008324Y010842D03*
X008319Y010799D03*
X008324Y010937D03*
X008324Y010946D03*
X008319Y010989D03*
X008228Y010956D03*
X008324Y011370D03*
X008324Y011380D03*
X008324Y011390D03*
X008324Y011456D03*
X008324Y011466D03*
X008319Y011518D03*
X008228Y011485D03*
X008324Y010270D03*
X008324Y010179D03*
X008228Y010160D03*
X008305Y009665D03*
X007256Y009393D03*
X007228Y009208D03*
X007228Y009189D03*
X007228Y009079D03*
X007228Y009070D03*
X007228Y009060D03*
X007228Y009050D03*
X007228Y009041D03*
X007228Y009851D03*
X007228Y009870D03*
X007261Y013233D03*
X007228Y013281D03*
X007228Y013290D03*
X007228Y013300D03*
X007228Y013309D03*
X007228Y013319D03*
X007266Y013519D03*
X007266Y013538D03*
D14*
X007280Y013457D03*
X007285Y013452D03*
X007280Y013295D03*
X007204Y013033D03*
X007118Y012962D03*
X007261Y012919D03*
X007333Y012914D03*
X007357Y012747D03*
X007323Y012671D03*
X007261Y012647D03*
X007266Y012747D03*
X007409Y012647D03*
X007380Y012428D03*
X007376Y012428D03*
X007380Y012276D03*
X007385Y012271D03*
X007390Y012271D03*
X007285Y012271D03*
X007280Y012266D03*
X007233Y011275D03*
X007280Y011013D03*
X007376Y010646D03*
X007409Y010646D03*
X007380Y010418D03*
X007376Y010418D03*
X007404Y010146D03*
X007442Y009998D03*
X007438Y009994D03*
X007418Y009979D03*
X007414Y009975D03*
X007399Y009960D03*
X007395Y009956D03*
X007376Y009941D03*
X007371Y009937D03*
X007352Y009917D03*
X007290Y009598D03*
X007395Y009065D03*
X007490Y007931D03*
X007809Y007850D03*
X008052Y007912D03*
X008219Y007855D03*
X008228Y007864D03*
X008243Y007883D03*
X007409Y013567D03*
D15*
X007233Y013526D03*
X007309Y012959D03*
X007123Y012959D03*
X007342Y012726D03*
X007781Y012826D03*
X007785Y012826D03*
X007790Y012826D03*
X007795Y012826D03*
X007800Y012826D03*
X007804Y012826D03*
X007809Y012826D03*
X007814Y012826D03*
X007819Y012826D03*
X007823Y012826D03*
X007828Y012826D03*
X007833Y012826D03*
X007838Y012826D03*
X007842Y012826D03*
X007847Y012826D03*
X007852Y012826D03*
X007857Y012826D03*
X007861Y012826D03*
X007866Y012826D03*
X007871Y012826D03*
X007876Y012826D03*
X007881Y012826D03*
X007885Y012826D03*
X007890Y012826D03*
X007895Y012826D03*
X007900Y012826D03*
X007904Y012826D03*
X007909Y012826D03*
X007914Y012826D03*
X007919Y012826D03*
X007923Y012826D03*
X007928Y012826D03*
X007933Y012826D03*
X007938Y012826D03*
X007942Y012826D03*
X007947Y012826D03*
X007952Y012826D03*
X007957Y012826D03*
X007962Y012826D03*
X007966Y012826D03*
X007971Y012826D03*
X007976Y012826D03*
X007981Y012826D03*
X007985Y012826D03*
X007990Y012826D03*
X007995Y012826D03*
X008000Y012826D03*
X008004Y012826D03*
X008009Y012826D03*
X008014Y012826D03*
X008019Y012826D03*
X008023Y012826D03*
X008028Y012826D03*
X008033Y012826D03*
X008038Y012826D03*
X008043Y012826D03*
X008047Y012826D03*
X008052Y012826D03*
X008057Y012826D03*
X008062Y012826D03*
X008066Y012826D03*
X008071Y012826D03*
X008076Y012826D03*
X008081Y012826D03*
X008085Y012826D03*
X008090Y012826D03*
X008095Y012826D03*
X008100Y012826D03*
X008104Y012826D03*
X008109Y012826D03*
X008114Y012826D03*
X008119Y012826D03*
X008124Y012826D03*
X008128Y012826D03*
X008133Y012826D03*
X008138Y012826D03*
X008143Y012826D03*
X008147Y012826D03*
X008152Y012826D03*
X008157Y012826D03*
X008162Y012826D03*
X008166Y012826D03*
X008171Y012826D03*
X008176Y012826D03*
X008181Y012826D03*
X008185Y012826D03*
X008190Y012826D03*
X008195Y012826D03*
X008200Y012826D03*
X008204Y012826D03*
X008209Y012826D03*
X008214Y012826D03*
X008214Y013069D03*
X008309Y013069D03*
X008152Y013717D03*
X008147Y013717D03*
X008138Y013721D03*
X008133Y013721D03*
X008128Y013721D03*
X008057Y013736D03*
X008047Y013736D03*
X008043Y013736D03*
X008033Y013736D03*
X008028Y013736D03*
X008023Y013736D03*
X008019Y013736D03*
X008014Y013736D03*
X008009Y013736D03*
X008004Y013736D03*
X007995Y013736D03*
X007985Y013736D03*
X007981Y013736D03*
X007976Y013736D03*
X007971Y013736D03*
X007966Y013736D03*
X007962Y013736D03*
X007957Y013736D03*
X007947Y013736D03*
X007866Y013721D03*
X007861Y013721D03*
X007857Y013721D03*
X007847Y013717D03*
X007842Y013717D03*
X007838Y012178D03*
X007852Y012173D03*
X007857Y012173D03*
X007861Y012173D03*
X007928Y012159D03*
X007933Y012159D03*
X007938Y012159D03*
X007947Y012159D03*
X007952Y012159D03*
X007962Y012159D03*
X008000Y012154D03*
X008043Y012159D03*
X008052Y012159D03*
X008057Y012159D03*
X008062Y012159D03*
X008071Y012159D03*
X008133Y012173D03*
X008138Y012173D03*
X008143Y012173D03*
X008157Y012178D03*
X007233Y011754D03*
X007690Y010630D03*
X007695Y010630D03*
X007700Y010630D03*
X007704Y010630D03*
X007709Y010630D03*
X007714Y010630D03*
X007719Y010630D03*
X007723Y010630D03*
X007728Y010630D03*
X007733Y010630D03*
X007738Y010630D03*
X007742Y010630D03*
X007747Y010630D03*
X007752Y010630D03*
X007757Y010630D03*
X007761Y010630D03*
X007766Y010630D03*
X007771Y010630D03*
X007776Y010630D03*
X007781Y010630D03*
X007785Y010630D03*
X007790Y010630D03*
X007795Y010630D03*
X007800Y010630D03*
X007804Y010630D03*
X007809Y010630D03*
X007814Y010630D03*
X007819Y010630D03*
X007823Y010630D03*
X007828Y010630D03*
X007833Y010630D03*
X007838Y010630D03*
X007842Y010630D03*
X007847Y010630D03*
X007852Y010630D03*
X007857Y010630D03*
X007861Y010630D03*
X007866Y010630D03*
X007871Y010630D03*
X007876Y010630D03*
X007881Y010630D03*
X007885Y010630D03*
X007890Y010630D03*
X007895Y010630D03*
X007900Y010630D03*
X007904Y010630D03*
X007909Y010630D03*
X007914Y010630D03*
X007919Y010630D03*
X007923Y010630D03*
X007928Y010630D03*
X007933Y010630D03*
X007938Y010630D03*
X007942Y010630D03*
X007947Y010630D03*
X007952Y010630D03*
X007957Y010630D03*
X007962Y010630D03*
X007966Y010630D03*
X007971Y010630D03*
X007976Y010630D03*
X007981Y010630D03*
X007985Y010630D03*
X007990Y010630D03*
X007995Y010630D03*
X008000Y010630D03*
X008004Y010630D03*
X008009Y010630D03*
X008014Y010630D03*
X008019Y010630D03*
X008023Y010630D03*
X008028Y010630D03*
X008033Y010630D03*
X008038Y010630D03*
X008043Y010630D03*
X008047Y010630D03*
X008052Y010630D03*
X008057Y010630D03*
X008062Y010630D03*
X008066Y010630D03*
X008071Y010630D03*
X008076Y010630D03*
X008081Y010630D03*
X008085Y010630D03*
X008090Y010630D03*
X008095Y010630D03*
X008100Y010630D03*
X008104Y010630D03*
X008109Y010630D03*
X008114Y010630D03*
X008119Y010630D03*
X008124Y010630D03*
X008128Y010630D03*
X008133Y010630D03*
X008138Y010630D03*
X008143Y010630D03*
X008147Y010630D03*
X008152Y010630D03*
X008157Y010630D03*
X008162Y010630D03*
X008171Y010630D03*
X008171Y009963D03*
X008176Y009963D03*
X008162Y009958D03*
X008157Y009958D03*
X008147Y009958D03*
X008138Y009958D03*
X008128Y009958D03*
X008119Y009958D03*
X008109Y009958D03*
X008100Y009958D03*
X008090Y009958D03*
X008081Y009958D03*
X008071Y009958D03*
X008062Y009958D03*
X008052Y009958D03*
X008043Y009958D03*
X008033Y009958D03*
X008023Y009958D03*
X008014Y009958D03*
X008004Y009958D03*
X007995Y009958D03*
X007985Y009958D03*
X007976Y009958D03*
X007966Y009958D03*
X007957Y009958D03*
X007947Y009958D03*
X007938Y009958D03*
X007928Y009958D03*
X007919Y009958D03*
X007909Y009958D03*
X007900Y009958D03*
X007890Y009958D03*
X007885Y009958D03*
X007876Y009958D03*
X007871Y009958D03*
X007861Y009958D03*
X007852Y009958D03*
X007847Y009958D03*
X007838Y009958D03*
X007833Y009958D03*
X007823Y009958D03*
X007819Y009958D03*
X007809Y009958D03*
X007804Y009958D03*
X007795Y009958D03*
X007790Y009958D03*
X007781Y009958D03*
X007776Y009958D03*
X007766Y009958D03*
X007761Y009958D03*
X007757Y009958D03*
X007747Y009958D03*
X007742Y009958D03*
X007738Y009958D03*
X007728Y009958D03*
X007723Y009958D03*
X007719Y009958D03*
X007709Y009958D03*
X007704Y009958D03*
X007700Y009958D03*
X007690Y009958D03*
X007833Y009729D03*
X007838Y009729D03*
X007847Y009734D03*
X007852Y009734D03*
X007857Y009734D03*
X007861Y009739D03*
X007866Y009739D03*
X007871Y009739D03*
X007876Y009739D03*
X007881Y009739D03*
X007885Y009744D03*
X007890Y009744D03*
X007895Y009744D03*
X007900Y009744D03*
X007904Y009744D03*
X007914Y009748D03*
X007923Y009748D03*
X007928Y009748D03*
X007933Y009748D03*
X007938Y009748D03*
X007942Y009748D03*
X007952Y009748D03*
X007990Y009753D03*
X008000Y009753D03*
X008009Y009753D03*
X008047Y009748D03*
X008057Y009748D03*
X008062Y009748D03*
X008066Y009748D03*
X008071Y009748D03*
X008076Y009748D03*
X008085Y009744D03*
X008095Y009744D03*
X008100Y009744D03*
X008104Y009744D03*
X008109Y009744D03*
X008119Y009739D03*
X008124Y009739D03*
X008128Y009739D03*
X008133Y009739D03*
X008138Y009734D03*
X008143Y009734D03*
X008147Y009734D03*
X008157Y009729D03*
X008162Y009729D03*
X008171Y009725D03*
X008171Y009081D03*
X008166Y009081D03*
X008162Y009081D03*
X008157Y009081D03*
X008152Y009081D03*
X008147Y009081D03*
X008143Y009081D03*
X008138Y009081D03*
X008133Y009081D03*
X008128Y009081D03*
X008124Y009081D03*
X008119Y009081D03*
X008114Y009081D03*
X008109Y009081D03*
X008104Y009081D03*
X008100Y009081D03*
X008095Y009081D03*
X008090Y009081D03*
X008085Y009081D03*
X008081Y009081D03*
X008076Y009081D03*
X008071Y009081D03*
X008066Y009081D03*
X008062Y009081D03*
X008057Y009081D03*
X008052Y009081D03*
X008047Y009081D03*
X008043Y009081D03*
X008038Y009081D03*
X008033Y009081D03*
X008028Y009081D03*
X008023Y009081D03*
X008019Y009081D03*
X008014Y009081D03*
X008009Y009081D03*
X008004Y009081D03*
X008000Y009081D03*
X007995Y009081D03*
X007990Y009081D03*
X007985Y009081D03*
X007981Y009081D03*
X007976Y009081D03*
X007971Y009081D03*
X007966Y009081D03*
X007962Y009081D03*
X007957Y009081D03*
X007952Y009081D03*
X007947Y009081D03*
X007942Y009081D03*
X007938Y009081D03*
X007933Y009081D03*
X007928Y009081D03*
X007923Y009081D03*
X007919Y009081D03*
X007914Y009081D03*
X007909Y009081D03*
X007904Y009081D03*
X007900Y009081D03*
X007895Y009081D03*
X007890Y009081D03*
X007885Y009081D03*
X007881Y009081D03*
X007876Y009081D03*
X007871Y009081D03*
X007866Y009081D03*
X007861Y009081D03*
X007857Y009081D03*
X007852Y009081D03*
X007847Y009081D03*
X007842Y009081D03*
X007838Y009081D03*
X007833Y009081D03*
X007828Y009081D03*
X007823Y009081D03*
X007819Y009081D03*
X007814Y009081D03*
X007809Y009081D03*
X007804Y009081D03*
X007800Y009081D03*
X007795Y009081D03*
X007790Y009081D03*
X007785Y009081D03*
X007781Y009081D03*
X007638Y008757D03*
X007628Y008753D03*
X007623Y008753D03*
X007619Y008748D03*
X007614Y008748D03*
X007609Y008743D03*
X007604Y008743D03*
X007599Y008738D03*
X007590Y008734D03*
X007580Y008729D03*
X007557Y008715D03*
X007447Y008367D03*
X007447Y008010D03*
X007561Y007662D03*
X007585Y007648D03*
X007595Y007643D03*
X007604Y007638D03*
X007614Y007633D03*
X007623Y007628D03*
X007633Y007624D03*
X007647Y007619D03*
X008033Y007948D03*
X008033Y008191D03*
X008319Y008367D03*
X008319Y008010D03*
X008185Y007652D03*
X008181Y007648D03*
X008176Y007648D03*
X008171Y007643D03*
X008166Y007643D03*
X008162Y007638D03*
X008152Y007633D03*
X008147Y007633D03*
X008143Y007628D03*
X008133Y007624D03*
X008128Y007624D03*
X008119Y007619D03*
X008185Y008729D03*
X008176Y008734D03*
X008166Y008738D03*
X008162Y008743D03*
X008157Y008743D03*
X008147Y008748D03*
X008138Y008753D03*
X008128Y008757D03*
X008176Y009081D03*
X008181Y009081D03*
X008185Y009081D03*
X008190Y009081D03*
X008195Y009081D03*
X008200Y009081D03*
X008204Y009081D03*
X008209Y009081D03*
X008214Y009081D03*
X008309Y009081D03*
X008314Y009081D03*
X008319Y009081D03*
X008324Y009081D03*
X008328Y009081D03*
X008333Y009081D03*
X008338Y009081D03*
X008343Y009081D03*
X008347Y009081D03*
X008352Y009081D03*
X008357Y009081D03*
X008362Y009081D03*
X008366Y009081D03*
X008371Y009081D03*
X008376Y009081D03*
X008381Y009081D03*
X008386Y009081D03*
X008390Y009081D03*
X008395Y009081D03*
X008400Y009081D03*
X008405Y009081D03*
X008409Y009081D03*
X008414Y009081D03*
X008419Y009081D03*
X008424Y009081D03*
X008428Y009081D03*
X008433Y009081D03*
X008438Y009081D03*
X008443Y009081D03*
X008447Y009081D03*
X008452Y009081D03*
X008457Y009081D03*
X008462Y009081D03*
X008466Y009081D03*
X008471Y009081D03*
X008476Y009081D03*
X008481Y009081D03*
X008486Y009081D03*
X008490Y009081D03*
X008495Y009081D03*
X008500Y009081D03*
X008505Y009081D03*
X008509Y009081D03*
X007423Y010501D03*
X007418Y010501D03*
X007414Y010496D03*
X007233Y009677D03*
D16*
X007428Y010692D03*
X007428Y011201D03*
X008185Y011158D03*
X008200Y010653D03*
X008333Y008610D03*
X008338Y008605D03*
X008343Y008600D03*
X008266Y008191D03*
X008333Y007767D03*
X008324Y007757D03*
X007447Y007752D03*
X007442Y007757D03*
X007438Y007762D03*
X007433Y007767D03*
X007433Y008324D03*
X007428Y008605D03*
X007433Y008610D03*
X007438Y008615D03*
X007428Y012692D03*
X007318Y012959D03*
X007128Y012959D03*
D17*
X007133Y012959D03*
X007414Y012692D03*
X007418Y012692D03*
X007418Y011744D03*
X007414Y011206D03*
D18*
X007428Y010930D03*
X007242Y010930D03*
X007261Y011487D03*
X007247Y011759D03*
X007242Y012183D03*
X007428Y012183D03*
X007233Y012959D03*
X007137Y012959D03*
X007433Y012988D03*
X007247Y013531D03*
X008195Y011158D03*
X007261Y009667D03*
X007376Y008538D03*
X007633Y008534D03*
X007371Y007848D03*
X007380Y007833D03*
X008390Y008538D03*
D19*
X007357Y007874D03*
X008219Y010013D03*
X008219Y010684D03*
X007261Y011752D03*
X007256Y011756D03*
X007142Y012957D03*
X007418Y012976D03*
X007423Y012981D03*
X007256Y013528D03*
D20*
X007290Y013450D03*
X007299Y013445D03*
X007390Y013450D03*
X007395Y013450D03*
X007399Y013455D03*
X007404Y013574D03*
X007285Y013297D03*
X007199Y013035D03*
X007166Y013035D03*
X007161Y013031D03*
X007161Y012888D03*
X007166Y012883D03*
X007204Y012883D03*
X007209Y012888D03*
X007290Y012926D03*
X007404Y013002D03*
X007314Y012654D03*
X007266Y012645D03*
X007357Y012426D03*
X007366Y012426D03*
X007371Y012426D03*
X007371Y012278D03*
X007376Y012278D03*
X007299Y012278D03*
X007295Y012278D03*
X007290Y012273D03*
X007399Y011806D03*
X007390Y011678D03*
X007290Y011678D03*
X007304Y011411D03*
X007309Y011411D03*
X007366Y011411D03*
X007371Y011411D03*
X007357Y011259D03*
X007390Y011259D03*
X007395Y011259D03*
X007266Y011259D03*
X007314Y011030D03*
X007318Y011030D03*
X007357Y011030D03*
X007361Y011030D03*
X007357Y010877D03*
X007366Y010877D03*
X007376Y010877D03*
X007385Y010877D03*
X007395Y010877D03*
X007404Y010877D03*
X007347Y010877D03*
X007337Y010877D03*
X007328Y010877D03*
X007318Y010877D03*
X007309Y010877D03*
X007299Y010877D03*
X007290Y010877D03*
X007280Y010877D03*
X007271Y010877D03*
X007223Y010877D03*
X007214Y010877D03*
X007204Y010877D03*
X007195Y010877D03*
X007185Y010877D03*
X007176Y010877D03*
X007166Y010877D03*
X007156Y010877D03*
X007147Y010877D03*
X007276Y010739D03*
X007285Y010739D03*
X007295Y010739D03*
X007228Y010687D03*
X007380Y010644D03*
X007404Y010644D03*
X007371Y010415D03*
X007366Y010415D03*
X007361Y010415D03*
X007357Y010415D03*
X007352Y010415D03*
X007399Y010263D03*
X007395Y010139D03*
X007376Y010129D03*
X007304Y010129D03*
X007285Y010139D03*
X007428Y009987D03*
X007380Y009596D03*
X007376Y009596D03*
X007299Y009596D03*
X007295Y009596D03*
X007390Y009196D03*
X007395Y009196D03*
X007447Y009148D03*
X007390Y009062D03*
X007614Y008576D03*
X007609Y008457D03*
X007604Y008453D03*
X007599Y008448D03*
X007571Y008353D03*
X007628Y008353D03*
X007628Y008272D03*
X007571Y008272D03*
X007571Y008105D03*
X007628Y008105D03*
X007628Y008024D03*
X007571Y008024D03*
X007604Y007924D03*
X007614Y007800D03*
X007814Y007843D03*
X007871Y007924D03*
X008057Y007905D03*
X008114Y007905D03*
X008114Y007986D03*
X008057Y007986D03*
X008057Y008148D03*
X008114Y008148D03*
X008114Y008229D03*
X008114Y008391D03*
X008114Y008472D03*
X008057Y008472D03*
X008052Y008467D03*
X008166Y008567D03*
X008171Y008562D03*
X008185Y008553D03*
X008190Y008548D03*
X008195Y008543D03*
X008200Y008538D03*
X008204Y008534D03*
X008209Y008529D03*
X008305Y008262D03*
X008300Y008119D03*
X008214Y007852D03*
X008209Y007848D03*
X008204Y007843D03*
X008200Y007838D03*
X008195Y007833D03*
X008190Y007829D03*
X008185Y007824D03*
X008171Y007814D03*
X008166Y007809D03*
X007495Y008448D03*
X007871Y008453D03*
D21*
X007599Y007929D03*
X007609Y007919D03*
X007495Y007929D03*
X007399Y009191D03*
X007395Y009439D03*
X007357Y009439D03*
X007266Y009439D03*
X007309Y009591D03*
X007314Y009591D03*
X007366Y009591D03*
X007433Y009991D03*
X007404Y010258D03*
X007399Y010639D03*
X007390Y010639D03*
X007266Y010639D03*
X007290Y011020D03*
X007295Y011025D03*
X007299Y011025D03*
X007371Y011025D03*
X007376Y011025D03*
X007380Y011020D03*
X007318Y011173D03*
X007366Y011668D03*
X007385Y011673D03*
X007299Y011673D03*
X007299Y012130D03*
X007295Y012130D03*
X007290Y012130D03*
X007280Y012130D03*
X007271Y012130D03*
X007309Y012130D03*
X007314Y012130D03*
X007318Y012130D03*
X007328Y012130D03*
X007333Y012130D03*
X007337Y012130D03*
X007347Y012130D03*
X007352Y012130D03*
X007357Y012130D03*
X007366Y012130D03*
X007371Y012130D03*
X007376Y012130D03*
X007385Y012130D03*
X007390Y012130D03*
X007395Y012130D03*
X007404Y012130D03*
X007361Y012283D03*
X007357Y012283D03*
X007314Y012283D03*
X007223Y012130D03*
X007214Y012130D03*
X007209Y012130D03*
X007204Y012130D03*
X007195Y012130D03*
X007190Y012130D03*
X007185Y012130D03*
X007176Y012130D03*
X007171Y012130D03*
X007166Y012130D03*
X007156Y012130D03*
X007152Y012130D03*
X007147Y012130D03*
X007399Y012745D03*
X007342Y013012D03*
X007333Y013159D03*
X007361Y013159D03*
X007390Y013159D03*
X007418Y013159D03*
X007285Y013164D03*
X007280Y013164D03*
D22*
X007147Y012962D03*
X007409Y012195D03*
X008319Y010894D03*
X008319Y010222D03*
X007247Y009408D03*
D23*
X007299Y009336D03*
X007304Y009336D03*
X007309Y009341D03*
X007318Y009589D03*
X007323Y009589D03*
X007328Y009589D03*
X007333Y009589D03*
X007337Y009589D03*
X007342Y009589D03*
X007347Y009589D03*
X007352Y009589D03*
X007357Y009589D03*
X007361Y009589D03*
X007266Y009722D03*
X007266Y009856D03*
X007261Y009856D03*
X007256Y009856D03*
X007252Y009856D03*
X007247Y009856D03*
X007242Y009856D03*
X007237Y009856D03*
X007233Y009856D03*
X007271Y009856D03*
X007276Y009856D03*
X007280Y009856D03*
X007285Y009856D03*
X007290Y009856D03*
X007295Y009856D03*
X007299Y009856D03*
X007304Y009856D03*
X007309Y009856D03*
X007314Y009856D03*
X007318Y009856D03*
X007323Y009856D03*
X007328Y009856D03*
X007333Y009856D03*
X007337Y009856D03*
X007342Y009856D03*
X007347Y009856D03*
X007352Y009856D03*
X007357Y009856D03*
X007361Y009856D03*
X007366Y009856D03*
X007371Y009856D03*
X007376Y009856D03*
X007380Y009856D03*
X007385Y009856D03*
X007390Y009856D03*
X007395Y009856D03*
X007399Y009856D03*
X007404Y009856D03*
X007409Y009856D03*
X007414Y009856D03*
X007418Y009856D03*
X007423Y009856D03*
X007428Y009856D03*
X007433Y009856D03*
X007438Y009856D03*
X007442Y009856D03*
X007447Y009856D03*
X007452Y009856D03*
X007457Y009856D03*
X007461Y009856D03*
X007466Y009856D03*
X007471Y009856D03*
X007476Y009856D03*
X007480Y009856D03*
X007485Y009856D03*
X007490Y009856D03*
X007495Y009856D03*
X007499Y009856D03*
X007504Y009856D03*
X007509Y009856D03*
X007514Y009856D03*
X007333Y010122D03*
X007323Y010122D03*
X007366Y010275D03*
X007371Y010275D03*
X007376Y010275D03*
X007385Y010270D03*
X007390Y010270D03*
X007271Y010275D03*
X007280Y010742D03*
X007290Y010742D03*
X007295Y010875D03*
X007304Y010875D03*
X007314Y010875D03*
X007323Y010875D03*
X007333Y010875D03*
X007342Y010875D03*
X007352Y010875D03*
X007361Y010875D03*
X007371Y010875D03*
X007380Y010875D03*
X007390Y010875D03*
X007399Y010875D03*
X007285Y010875D03*
X007276Y010875D03*
X007228Y010875D03*
X007218Y010875D03*
X007209Y010875D03*
X007199Y010875D03*
X007190Y010875D03*
X007180Y010875D03*
X007171Y010875D03*
X007161Y010875D03*
X007152Y010875D03*
X007304Y011027D03*
X007309Y011027D03*
X007323Y011032D03*
X007328Y011032D03*
X007333Y011032D03*
X007337Y011032D03*
X007342Y011032D03*
X007347Y011032D03*
X007352Y011032D03*
X007366Y011027D03*
X007304Y011156D03*
X007309Y011161D03*
X007314Y011166D03*
X007314Y011261D03*
X007318Y011261D03*
X007323Y011261D03*
X007328Y011261D03*
X007333Y011261D03*
X007309Y011261D03*
X007304Y011261D03*
X007299Y011261D03*
X007295Y011261D03*
X007290Y011261D03*
X007285Y011261D03*
X007280Y011261D03*
X007276Y011261D03*
X007271Y011261D03*
X007361Y011261D03*
X007366Y011261D03*
X007371Y011261D03*
X007376Y011261D03*
X007380Y011261D03*
X007385Y011261D03*
X007361Y011409D03*
X007357Y011409D03*
X007352Y011409D03*
X007347Y011409D03*
X007342Y011409D03*
X007337Y011409D03*
X007333Y011409D03*
X007328Y011409D03*
X007323Y011409D03*
X007318Y011409D03*
X007314Y011409D03*
X007318Y011666D03*
X007323Y011666D03*
X007328Y011666D03*
X007333Y011666D03*
X007361Y011666D03*
X007295Y011675D03*
X007361Y011818D03*
X007366Y011818D03*
X007380Y011813D03*
X007385Y011813D03*
X007390Y011809D03*
X007395Y011809D03*
X007399Y012128D03*
X007380Y012128D03*
X007361Y012128D03*
X007342Y012128D03*
X007323Y012128D03*
X007304Y012128D03*
X007285Y012128D03*
X007276Y012128D03*
X007228Y012128D03*
X007218Y012128D03*
X007199Y012128D03*
X007180Y012128D03*
X007161Y012128D03*
X007304Y012280D03*
X007309Y012280D03*
X007366Y012280D03*
X007361Y012423D03*
X007352Y012423D03*
X007347Y012423D03*
X007342Y012423D03*
X007337Y012423D03*
X007333Y012423D03*
X007328Y012423D03*
X007323Y012423D03*
X007318Y012423D03*
X007314Y012423D03*
X007309Y012423D03*
X007304Y012423D03*
X007299Y012423D03*
X007295Y012423D03*
X007290Y012423D03*
X007285Y012423D03*
X007280Y012423D03*
X007276Y012423D03*
X007271Y012423D03*
X007266Y012423D03*
X007261Y012423D03*
X007256Y012423D03*
X007252Y012423D03*
X007247Y012423D03*
X007242Y012423D03*
X007237Y012423D03*
X007233Y012423D03*
X007404Y012423D03*
X007409Y012423D03*
X007414Y012423D03*
X007418Y012423D03*
X007423Y012423D03*
X007428Y012423D03*
X007433Y012423D03*
X007438Y012423D03*
X007442Y012423D03*
X007409Y012528D03*
X007404Y012642D03*
X007309Y012652D03*
X007304Y012647D03*
X007299Y012642D03*
X007295Y012642D03*
X007290Y012642D03*
X007276Y012642D03*
X007271Y012642D03*
X007228Y012671D03*
X007390Y012747D03*
X007390Y012900D03*
X007385Y012900D03*
X007352Y012900D03*
X007347Y012900D03*
X007271Y012909D03*
X007266Y012914D03*
X007199Y012881D03*
X007195Y012881D03*
X007180Y012876D03*
X007176Y012881D03*
X007171Y012881D03*
X007171Y013038D03*
X007176Y013038D03*
X007180Y013038D03*
X007190Y013038D03*
X007195Y013038D03*
X007347Y013014D03*
X007390Y013014D03*
X007399Y013157D03*
X007409Y013157D03*
X007428Y013157D03*
X007438Y013157D03*
X007380Y013157D03*
X007371Y013157D03*
X007352Y013157D03*
X007342Y013157D03*
X007323Y013157D03*
X007323Y013300D03*
X007318Y013300D03*
X007314Y013300D03*
X007309Y013300D03*
X007304Y013300D03*
X007299Y013300D03*
X007295Y013300D03*
X007290Y013300D03*
X007328Y013300D03*
X007333Y013300D03*
X007337Y013300D03*
X007342Y013300D03*
X007347Y013300D03*
X007352Y013300D03*
X007357Y013300D03*
X007361Y013300D03*
X007366Y013300D03*
X007371Y013300D03*
X007376Y013300D03*
X007380Y013300D03*
X007385Y013300D03*
X007390Y013300D03*
X007395Y013300D03*
X007399Y013300D03*
X007404Y013300D03*
X007409Y013300D03*
X007414Y013300D03*
X007418Y013300D03*
X007423Y013300D03*
X007428Y013300D03*
X007433Y013300D03*
X007438Y013300D03*
X007442Y013300D03*
X007380Y013443D03*
X007376Y013443D03*
X007371Y013443D03*
X007385Y013447D03*
X007314Y013443D03*
X007309Y013443D03*
X007304Y013443D03*
X007295Y013447D03*
X007252Y013300D03*
X007247Y013300D03*
X007242Y013300D03*
X007237Y013300D03*
X007233Y013300D03*
X007380Y013586D03*
X007385Y013586D03*
X007399Y013576D03*
X008190Y010441D03*
X007514Y009060D03*
X007509Y009060D03*
X007504Y009060D03*
X007499Y009060D03*
X007495Y009060D03*
X007490Y009060D03*
X007485Y009060D03*
X007480Y009060D03*
X007476Y009060D03*
X007471Y009060D03*
X007466Y009060D03*
X007461Y009060D03*
X007457Y009060D03*
X007452Y009060D03*
X007447Y009060D03*
X007442Y009060D03*
X007438Y009060D03*
X007433Y009060D03*
X007428Y009060D03*
X007423Y009060D03*
X007385Y009060D03*
X007380Y009060D03*
X007376Y009060D03*
X007371Y009060D03*
X007366Y009060D03*
X007361Y009060D03*
X007357Y009060D03*
X007352Y009060D03*
X007347Y009060D03*
X007342Y009060D03*
X007337Y009060D03*
X007333Y009060D03*
X007328Y009060D03*
X007323Y009060D03*
X007318Y009060D03*
X007314Y009060D03*
X007309Y009060D03*
X007304Y009060D03*
X007299Y009060D03*
X007295Y009060D03*
X007290Y009060D03*
X007285Y009060D03*
X007280Y009060D03*
X007276Y009060D03*
X007271Y009060D03*
X007266Y009060D03*
X007261Y009060D03*
X007256Y009060D03*
X007252Y009060D03*
X007247Y009060D03*
X007242Y009060D03*
X007237Y009060D03*
X007233Y009060D03*
X007509Y007936D03*
X007590Y007936D03*
X007647Y007779D03*
X007657Y007774D03*
X007666Y007769D03*
X007695Y007755D03*
X007819Y007840D03*
X007857Y007836D03*
X007866Y007840D03*
X007871Y007845D03*
X007814Y007926D03*
X007776Y007883D03*
X008019Y007945D03*
X008109Y007902D03*
X008181Y007821D03*
X008176Y007817D03*
X008162Y007807D03*
X008157Y007802D03*
X008152Y007798D03*
X008147Y007798D03*
X008143Y007793D03*
X008133Y007788D03*
X008128Y007783D03*
X008119Y007779D03*
X008109Y007774D03*
X008100Y007769D03*
X008090Y007764D03*
X008071Y007755D03*
D24*
X008281Y007933D03*
X008252Y008191D03*
X008285Y008238D03*
X008281Y008443D03*
X008271Y008457D03*
X008023Y008429D03*
X008023Y008191D03*
X007781Y007886D03*
X007485Y007933D03*
X007485Y008443D03*
X007652Y008524D03*
X007781Y008491D03*
X008543Y008186D03*
X007409Y009424D03*
X007256Y009434D03*
X007233Y009367D03*
X007395Y010425D03*
X007361Y010663D03*
X007318Y010720D03*
X007261Y010725D03*
X007233Y011187D03*
X007237Y011278D03*
X007271Y011697D03*
X007399Y012435D03*
X007438Y012511D03*
X007352Y012740D03*
X007152Y012902D03*
X007233Y013212D03*
X007271Y013469D03*
X007266Y013578D03*
D25*
X007414Y013478D03*
X007152Y013012D03*
X007242Y012769D03*
X007256Y012740D03*
X007347Y012735D03*
X007404Y012249D03*
X007414Y011706D03*
X007266Y011706D03*
X007266Y011444D03*
X007242Y011278D03*
X007256Y011249D03*
X007237Y011187D03*
X007347Y011244D03*
X007404Y010996D03*
X007333Y010701D03*
X007342Y010687D03*
X007414Y010163D03*
X007266Y010163D03*
X007347Y009424D03*
X007900Y008491D03*
X008143Y008429D03*
X008295Y008419D03*
X008300Y008410D03*
X008305Y008400D03*
X008305Y007976D03*
X008300Y007967D03*
X008295Y007957D03*
X008143Y007948D03*
X007900Y007886D03*
X007471Y007957D03*
X007466Y007967D03*
X007461Y007976D03*
X007466Y008410D03*
X007471Y008419D03*
D26*
X007614Y007914D03*
X007228Y010944D03*
X007390Y011016D03*
X007261Y011254D03*
X007447Y011744D03*
X007390Y012430D03*
X007385Y012430D03*
X007214Y012892D03*
X007156Y012892D03*
X007333Y013002D03*
X007404Y013459D03*
X007409Y013464D03*
D27*
X007447Y013517D03*
X007276Y013293D03*
X007266Y013174D03*
X007209Y013026D03*
X007156Y013026D03*
X007328Y012678D03*
X007276Y012264D03*
X007271Y012259D03*
X007395Y012264D03*
X007409Y011692D03*
X007404Y011687D03*
X007395Y011425D03*
X007280Y011425D03*
X007409Y011158D03*
X007271Y011006D03*
X007309Y010730D03*
X007371Y010653D03*
D28*
X007409Y010734D03*
X007447Y010501D03*
X007380Y010272D03*
X007361Y010277D03*
X007228Y009453D03*
X007404Y009334D03*
X007814Y008657D03*
X007823Y008657D03*
X007828Y008657D03*
X007838Y008657D03*
X007871Y008662D03*
X007881Y008662D03*
X007890Y008662D03*
X007900Y008662D03*
X007923Y008657D03*
X007938Y008657D03*
X007942Y008657D03*
X007947Y008657D03*
X007952Y008657D03*
X007966Y008653D03*
X007971Y008653D03*
X007976Y008653D03*
X007990Y008648D03*
X007995Y008648D03*
X008000Y008648D03*
X008009Y008643D03*
X008014Y008643D03*
X008019Y008643D03*
X008023Y008638D03*
X008028Y008638D03*
X008033Y008638D03*
X008038Y008634D03*
X008043Y008634D03*
X008047Y008634D03*
X008052Y008629D03*
X008057Y008629D03*
X008062Y008624D03*
X008066Y008624D03*
X008076Y008619D03*
X008081Y008619D03*
X008085Y008615D03*
X008090Y008615D03*
X008095Y008610D03*
X008100Y008610D03*
X008104Y008605D03*
X008114Y008600D03*
X008124Y008596D03*
X008100Y008481D03*
X008095Y008481D03*
X008090Y008481D03*
X008081Y008481D03*
X008076Y008481D03*
X008071Y008481D03*
X008066Y008476D03*
X008062Y008476D03*
X008104Y008476D03*
X008100Y008381D03*
X008095Y008381D03*
X008081Y008381D03*
X008071Y008381D03*
X008062Y008386D03*
X008071Y008238D03*
X008076Y008238D03*
X008085Y008238D03*
X008095Y008238D03*
X008100Y008238D03*
X008062Y008233D03*
X008062Y008143D03*
X008066Y008143D03*
X008071Y008138D03*
X008076Y008138D03*
X008081Y008138D03*
X008090Y008138D03*
X008095Y008138D03*
X008100Y008138D03*
X008104Y008143D03*
X008100Y007995D03*
X008095Y007995D03*
X008076Y007995D03*
X008071Y007995D03*
X008066Y007995D03*
X008062Y007991D03*
X008062Y007900D03*
X008066Y007900D03*
X008071Y007895D03*
X008076Y007895D03*
X008081Y007895D03*
X008085Y007895D03*
X008090Y007895D03*
X008095Y007895D03*
X008100Y007895D03*
X008104Y007900D03*
X008138Y007790D03*
X008124Y007781D03*
X008114Y007776D03*
X008104Y007771D03*
X008095Y007767D03*
X008085Y007762D03*
X008081Y007757D03*
X008076Y007757D03*
X008066Y007752D03*
X008062Y007752D03*
X008057Y007748D03*
X008052Y007748D03*
X008047Y007743D03*
X008043Y007743D03*
X008038Y007743D03*
X008028Y007738D03*
X008023Y007738D03*
X008019Y007733D03*
X008014Y007733D03*
X008009Y007733D03*
X008000Y007729D03*
X007995Y007729D03*
X007990Y007729D03*
X007985Y007729D03*
X007976Y007724D03*
X007971Y007724D03*
X007966Y007724D03*
X007947Y007719D03*
X007942Y007719D03*
X007938Y007719D03*
X007928Y007719D03*
X007895Y007714D03*
X007885Y007714D03*
X007876Y007714D03*
X007842Y007719D03*
X007833Y007719D03*
X007828Y007719D03*
X007823Y007719D03*
X007804Y007724D03*
X007800Y007724D03*
X007795Y007724D03*
X007790Y007724D03*
X007776Y007729D03*
X007771Y007729D03*
X007766Y007729D03*
X007761Y007733D03*
X007757Y007733D03*
X007752Y007733D03*
X007742Y007738D03*
X007738Y007738D03*
X007733Y007738D03*
X007728Y007743D03*
X007723Y007743D03*
X007719Y007743D03*
X007714Y007748D03*
X007709Y007748D03*
X007704Y007752D03*
X007700Y007752D03*
X007690Y007757D03*
X007685Y007757D03*
X007680Y007762D03*
X007676Y007762D03*
X007671Y007767D03*
X007661Y007771D03*
X007652Y007776D03*
X007585Y007938D03*
X007580Y007938D03*
X007514Y007938D03*
X007585Y008014D03*
X007590Y008014D03*
X007595Y008014D03*
X007604Y008014D03*
X007609Y008014D03*
X007614Y008014D03*
X007619Y008019D03*
X007623Y008019D03*
X007580Y008019D03*
X007576Y008110D03*
X007585Y008114D03*
X007590Y008114D03*
X007595Y008114D03*
X007609Y008114D03*
X007614Y008114D03*
X007623Y008110D03*
X007614Y008262D03*
X007609Y008262D03*
X007604Y008262D03*
X007595Y008262D03*
X007590Y008262D03*
X007585Y008262D03*
X007580Y008267D03*
X007623Y008267D03*
X007623Y008357D03*
X007614Y008362D03*
X007609Y008362D03*
X007604Y008362D03*
X007595Y008362D03*
X007590Y008362D03*
X007585Y008362D03*
X007580Y008357D03*
X007576Y008357D03*
X007571Y008434D03*
X007566Y008434D03*
X007580Y008438D03*
X007585Y008438D03*
X007590Y008443D03*
X007533Y008434D03*
X007528Y008434D03*
X007523Y008434D03*
X007519Y008438D03*
X007514Y008438D03*
X007504Y008443D03*
X007661Y008605D03*
X007676Y008615D03*
X007680Y008615D03*
X007685Y008619D03*
X007690Y008619D03*
X007695Y008624D03*
X007700Y008624D03*
X007704Y008624D03*
X007709Y008629D03*
X007714Y008629D03*
X007719Y008634D03*
X007723Y008634D03*
X007728Y008634D03*
X007733Y008638D03*
X007738Y008638D03*
X007742Y008638D03*
X007752Y008643D03*
X007757Y008643D03*
X007766Y008648D03*
X007771Y008648D03*
X007776Y008648D03*
X007790Y008653D03*
X007795Y008653D03*
X007800Y008653D03*
X007833Y008543D03*
X007838Y008543D03*
X007842Y008543D03*
X007847Y008543D03*
X007852Y008543D03*
X007861Y008538D03*
X007823Y008538D03*
X007819Y008448D03*
X007823Y008443D03*
X007828Y008443D03*
X007833Y008443D03*
X007852Y008443D03*
X007857Y008443D03*
X007866Y008448D03*
X007842Y008300D03*
X007842Y008076D03*
X007857Y008076D03*
X007876Y008076D03*
X007895Y008076D03*
X007866Y007929D03*
X007861Y007838D03*
X007852Y007833D03*
X007847Y007833D03*
X007842Y007833D03*
X007838Y007833D03*
X007833Y007833D03*
X007823Y007838D03*
X008319Y008105D03*
X008362Y008095D03*
X008309Y008267D03*
X008319Y008272D03*
X008324Y008272D03*
X007404Y011154D03*
X007299Y011154D03*
X007228Y011182D03*
X007228Y011273D03*
X007266Y011540D03*
X007271Y011816D03*
X007371Y011816D03*
X007376Y011816D03*
X007447Y012511D03*
X007285Y012640D03*
X007228Y012764D03*
X007190Y012878D03*
X007185Y012878D03*
X007276Y012911D03*
X007280Y012911D03*
X007285Y012916D03*
X007357Y012897D03*
X007361Y012897D03*
X007366Y012897D03*
X007376Y012897D03*
X007380Y012897D03*
X007395Y013012D03*
X007385Y013016D03*
X007376Y013021D03*
X007371Y013021D03*
X007366Y013021D03*
X007352Y013016D03*
X007185Y013040D03*
X007271Y013588D03*
X007371Y013588D03*
X007376Y013588D03*
D29*
X007414Y013557D03*
X007266Y013476D03*
X007266Y013285D03*
X007214Y013019D03*
X007252Y012938D03*
X007414Y011785D03*
X007409Y011442D03*
X007414Y010656D03*
X007261Y010651D03*
X007438Y010503D03*
X007399Y010427D03*
X007409Y009622D03*
X007442Y009146D03*
X007409Y009074D03*
X007476Y007950D03*
X007480Y007940D03*
X007652Y007855D03*
X008285Y007940D03*
X008290Y007950D03*
D30*
X008424Y008481D03*
X007342Y008481D03*
X007252Y009405D03*
X007218Y012959D03*
D31*
X007447Y013305D03*
X007333Y013609D03*
X007447Y012428D03*
X007447Y012161D03*
X007447Y012123D03*
X007685Y011704D03*
X007685Y011666D03*
X007266Y011513D03*
X007261Y010942D03*
X007685Y010665D03*
X007685Y010646D03*
X007685Y010627D03*
X007685Y010608D03*
X007685Y010589D03*
X007447Y010418D03*
X007447Y010399D03*
X007228Y010399D03*
X007228Y010418D03*
X007266Y010227D03*
X007233Y009732D03*
X007266Y009694D03*
X007228Y009217D03*
X007228Y009198D03*
X007595Y008584D03*
X007399Y008279D03*
X007314Y008279D03*
X007223Y008250D03*
X007223Y008241D03*
X007223Y008145D03*
X007223Y008136D03*
X007223Y008126D03*
X008366Y008279D03*
X008457Y008136D03*
X008543Y008136D03*
X008543Y008145D03*
X008324Y010170D03*
X008228Y010284D03*
X008176Y010437D03*
X008228Y011361D03*
X008324Y011475D03*
D32*
X007304Y012962D03*
X007461Y008403D03*
X007223Y008193D03*
X008028Y008431D03*
D33*
X008419Y007890D03*
X008414Y007881D03*
X007399Y008186D03*
X007347Y007890D03*
X007418Y009124D03*
X007414Y012192D03*
X007256Y012192D03*
X007223Y012959D03*
D34*
X007228Y008188D03*
D35*
X007580Y008112D03*
X007619Y008112D03*
X007666Y008064D03*
X007595Y007931D03*
X007499Y007931D03*
X007819Y007931D03*
X007861Y007931D03*
X008019Y008188D03*
X008066Y008236D03*
X008104Y008236D03*
X008109Y008388D03*
X008057Y008388D03*
X008109Y008474D03*
X008176Y008560D03*
X008162Y008569D03*
X008152Y008579D03*
X008147Y008579D03*
X008138Y008588D03*
X008133Y008588D03*
X008119Y008598D03*
X007871Y008531D03*
X007857Y008541D03*
X007776Y008493D03*
X007861Y008445D03*
X007666Y008312D03*
X007619Y008264D03*
X007619Y008360D03*
X007595Y008445D03*
X007499Y008445D03*
X007647Y008598D03*
X007666Y008607D03*
X008109Y007988D03*
X008305Y008112D03*
X008309Y008112D03*
X008324Y008102D03*
X007314Y009346D03*
X007228Y009365D03*
X007271Y009441D03*
X007276Y009441D03*
X007280Y009441D03*
X007285Y009441D03*
X007290Y009441D03*
X007295Y009441D03*
X007299Y009441D03*
X007304Y009441D03*
X007309Y009441D03*
X007314Y009441D03*
X007318Y009441D03*
X007323Y009441D03*
X007328Y009441D03*
X007333Y009441D03*
X007361Y009441D03*
X007366Y009441D03*
X007371Y009441D03*
X007376Y009441D03*
X007380Y009441D03*
X007385Y009441D03*
X007390Y009441D03*
X007371Y009594D03*
X007304Y009594D03*
X007309Y010127D03*
X007314Y010127D03*
X007318Y010127D03*
X007328Y010127D03*
X007361Y010127D03*
X007366Y010127D03*
X007371Y010127D03*
X007347Y010413D03*
X007342Y010413D03*
X007337Y010413D03*
X007333Y010413D03*
X007328Y010413D03*
X007323Y010413D03*
X007318Y010413D03*
X007314Y010413D03*
X007309Y010413D03*
X007304Y010413D03*
X007299Y010413D03*
X007295Y010413D03*
X007290Y010413D03*
X007285Y010413D03*
X007280Y010413D03*
X007276Y010413D03*
X007271Y010413D03*
X007266Y010413D03*
X007261Y010413D03*
X007256Y010413D03*
X007252Y010413D03*
X007247Y010413D03*
X007242Y010413D03*
X007237Y010413D03*
X007233Y010413D03*
X007404Y010413D03*
X007409Y010413D03*
X007414Y010413D03*
X007418Y010413D03*
X007423Y010413D03*
X007428Y010413D03*
X007433Y010413D03*
X007438Y010413D03*
X007442Y010413D03*
X007395Y010642D03*
X007385Y010642D03*
X007380Y011671D03*
X007376Y011671D03*
X007371Y011671D03*
X007314Y011671D03*
X007309Y011671D03*
X007304Y011671D03*
X007318Y012285D03*
X007323Y012285D03*
X007328Y012285D03*
X007333Y012285D03*
X007337Y012285D03*
X007342Y012285D03*
X007347Y012285D03*
X007352Y012285D03*
X007371Y012895D03*
X007399Y013009D03*
X007395Y013162D03*
X007404Y013162D03*
X007414Y013162D03*
X007423Y013162D03*
X007433Y013162D03*
X007442Y013162D03*
X007385Y013162D03*
X007376Y013162D03*
X007366Y013162D03*
X007357Y013162D03*
X007347Y013162D03*
X007337Y013162D03*
X007328Y013162D03*
X007318Y013162D03*
X007314Y013162D03*
X007309Y013162D03*
X007304Y013162D03*
X007299Y013162D03*
X007295Y013162D03*
X007290Y013162D03*
X007390Y013581D03*
X007395Y013581D03*
D36*
X007409Y012921D03*
X007404Y011435D03*
X007409Y011244D03*
X007352Y011249D03*
X007271Y010153D03*
X007228Y009677D03*
X008023Y007948D03*
X008271Y007919D03*
D37*
X008452Y008102D03*
X008457Y008236D03*
X008457Y008245D03*
X008543Y008236D03*
X008543Y008226D03*
X008538Y008284D03*
X008247Y008198D03*
X008247Y008188D03*
X008247Y008179D03*
X007909Y008474D03*
X007657Y008512D03*
X007619Y008541D03*
X007395Y008245D03*
X007428Y008207D03*
X007428Y008198D03*
X007428Y008179D03*
X007428Y008169D03*
X007395Y008131D03*
X007314Y008102D03*
X007309Y008141D03*
X007309Y008245D03*
X007685Y009117D03*
X007685Y009136D03*
X007685Y009155D03*
X007685Y009174D03*
X007685Y009193D03*
X007685Y009212D03*
X007685Y009231D03*
X007685Y009251D03*
X007685Y009270D03*
X007685Y009289D03*
X007685Y009308D03*
X007685Y009327D03*
X007685Y009346D03*
X007685Y009365D03*
X007685Y009384D03*
X007685Y009403D03*
X007685Y009422D03*
X007685Y009441D03*
X007685Y009460D03*
X007685Y009479D03*
X007685Y009498D03*
X007685Y009517D03*
X007685Y009536D03*
X007685Y009555D03*
X007685Y009574D03*
X007685Y009594D03*
X007685Y009613D03*
X007685Y009632D03*
X007685Y009917D03*
X007685Y009937D03*
X007685Y009956D03*
X007685Y009975D03*
X007685Y009994D03*
X007447Y009994D03*
X007447Y010013D03*
X007228Y010013D03*
X007228Y010032D03*
X007228Y009994D03*
X007228Y009860D03*
X007228Y009841D03*
X007447Y010889D03*
X007447Y010927D03*
X007685Y011118D03*
X007685Y011156D03*
X007685Y011194D03*
X008324Y010927D03*
X008324Y010851D03*
X008319Y010318D03*
X008324Y010260D03*
X008319Y010127D03*
X007685Y011918D03*
X007685Y011956D03*
X007447Y012114D03*
X007447Y012152D03*
X007266Y011766D03*
X007447Y012418D03*
X007261Y013219D03*
X007447Y013295D03*
D38*
X007295Y012935D03*
X007233Y012764D03*
X007261Y012745D03*
X007256Y012649D03*
X007447Y012692D03*
X007228Y012197D03*
X007276Y011430D03*
X007399Y011430D03*
X007447Y011201D03*
X007256Y011163D03*
X007276Y011011D03*
X007395Y011011D03*
X007414Y010725D03*
X007385Y010420D03*
X007409Y010253D03*
X007447Y010201D03*
X007280Y010144D03*
X007276Y010149D03*
X007228Y010215D03*
X007233Y010015D03*
X007237Y010010D03*
X007242Y010006D03*
X007247Y010001D03*
X007252Y009996D03*
X007256Y009991D03*
X007261Y009987D03*
X007266Y009982D03*
X007271Y009977D03*
X007276Y009972D03*
X007280Y009968D03*
X007285Y009963D03*
X007290Y009958D03*
X007295Y009953D03*
X007299Y009948D03*
X007304Y009944D03*
X007309Y009939D03*
X007314Y009934D03*
X007318Y009929D03*
X007323Y009925D03*
X007328Y009920D03*
X007333Y009915D03*
X007337Y009910D03*
X007342Y009910D03*
X007347Y009915D03*
X007357Y009925D03*
X007380Y009944D03*
X007390Y009953D03*
X007399Y009610D03*
X007395Y009605D03*
X007280Y009605D03*
X007256Y009343D03*
X007409Y009339D03*
X007447Y009382D03*
X007409Y009186D03*
X007414Y009181D03*
X007399Y009067D03*
X007614Y008462D03*
X007490Y008448D03*
X007566Y008343D03*
X007566Y008281D03*
X007633Y008281D03*
X007566Y008095D03*
X007566Y008033D03*
X007633Y008033D03*
X007809Y007919D03*
X007619Y007805D03*
X008224Y007862D03*
X008233Y007871D03*
X008238Y007876D03*
X008247Y007886D03*
X008257Y007900D03*
X008357Y008086D03*
X008290Y008129D03*
X008290Y008248D03*
X008357Y008291D03*
X008257Y008476D03*
X008243Y008496D03*
X008238Y008500D03*
X008233Y008505D03*
X007904Y008491D03*
X008195Y010439D03*
D39*
X008324Y010220D03*
X007237Y009458D03*
X007228Y011497D03*
X007266Y011806D03*
D40*
X007228Y011752D03*
X007266Y012137D03*
X007266Y012252D03*
X007399Y012256D03*
X007333Y012690D03*
X007233Y012676D03*
X007237Y012766D03*
X007314Y010723D03*
X007266Y010265D03*
X007409Y010151D03*
X007447Y009675D03*
X007404Y009617D03*
X007276Y009613D03*
X007328Y009370D03*
X007404Y009070D03*
X007619Y007907D03*
X007904Y007883D03*
X008147Y007945D03*
X008252Y007893D03*
X008262Y007907D03*
X008276Y007926D03*
D41*
X007228Y012959D03*
D42*
X007337Y012907D03*
X007395Y012902D03*
X007399Y012907D03*
X007395Y012750D03*
X007280Y012640D03*
X007276Y013169D03*
X007271Y013169D03*
X007228Y013212D03*
X007366Y013440D03*
X007404Y011802D03*
X007399Y011682D03*
X007395Y011682D03*
X007380Y011416D03*
X007376Y011416D03*
X007299Y011416D03*
X007295Y011416D03*
X007266Y011154D03*
X007295Y010134D03*
X007390Y010134D03*
X007409Y009715D03*
X007385Y009601D03*
X007266Y009334D03*
X007266Y009201D03*
X007256Y009201D03*
X007247Y009201D03*
X007237Y009201D03*
X007276Y009201D03*
X007285Y009201D03*
X007295Y009201D03*
X007304Y009201D03*
X007314Y009201D03*
X007323Y009201D03*
X007333Y009201D03*
X007342Y009201D03*
X007352Y009201D03*
D43*
X007333Y009379D03*
X007261Y009436D03*
X007619Y008469D03*
X008147Y008431D03*
X008262Y008469D03*
X008276Y008450D03*
X008285Y008136D03*
X007366Y010656D03*
X007266Y010885D03*
X007266Y010999D03*
X007399Y011004D03*
X007328Y011189D03*
X007333Y011199D03*
X007447Y011494D03*
X007276Y011690D03*
X008324Y010889D03*
X007409Y012990D03*
X007261Y013181D03*
X007271Y013290D03*
X007228Y013524D03*
D44*
X007233Y008191D03*
D45*
X007576Y008269D03*
X007509Y008441D03*
X007652Y008603D03*
X007657Y008603D03*
X007671Y008612D03*
X007814Y008536D03*
X007819Y008536D03*
X007866Y008536D03*
X007814Y008450D03*
X008019Y008431D03*
X008066Y008384D03*
X008104Y008384D03*
X008109Y008231D03*
X008057Y008231D03*
X008109Y008145D03*
X008104Y007993D03*
X008314Y008107D03*
X008300Y008260D03*
X008314Y008269D03*
X008181Y008555D03*
X008157Y008574D03*
X008143Y008584D03*
X008128Y008593D03*
X008109Y008603D03*
X008071Y008622D03*
X007576Y008021D03*
X007385Y009198D03*
X007380Y009198D03*
X007376Y009198D03*
X007371Y009198D03*
X007366Y009198D03*
X007361Y009198D03*
X007357Y009198D03*
X007347Y009198D03*
X007337Y009198D03*
X007328Y009198D03*
X007318Y009198D03*
X007309Y009198D03*
X007299Y009198D03*
X007290Y009198D03*
X007280Y009198D03*
X007271Y009198D03*
X007261Y009198D03*
X007252Y009198D03*
X007242Y009198D03*
X007233Y009198D03*
X007271Y009332D03*
X007276Y009332D03*
X007280Y009332D03*
X007285Y009332D03*
X007290Y009332D03*
X007295Y009332D03*
X007299Y010132D03*
X007380Y010132D03*
X007385Y010132D03*
X007395Y010265D03*
X007295Y011151D03*
X007290Y011151D03*
X007285Y011151D03*
X007280Y011151D03*
X007276Y011151D03*
X007271Y011151D03*
X007409Y011532D03*
X007385Y012752D03*
X007380Y012752D03*
X007376Y012752D03*
X007371Y012752D03*
X007366Y012752D03*
X007361Y012752D03*
X007333Y012752D03*
X007328Y012752D03*
X007323Y012752D03*
X007318Y012752D03*
X007314Y012752D03*
X007309Y012752D03*
X007304Y012752D03*
X007299Y012752D03*
X007295Y012752D03*
X007290Y012752D03*
X007285Y012752D03*
X007280Y012752D03*
X007276Y012752D03*
X007271Y012752D03*
X007342Y012904D03*
X007357Y013019D03*
X007361Y013019D03*
X007380Y013019D03*
X007361Y013438D03*
X007333Y013438D03*
X007328Y013438D03*
X007323Y013438D03*
X007318Y013438D03*
X007361Y013590D03*
X007366Y013590D03*
D46*
X007337Y013009D03*
X007404Y012742D03*
X007318Y012661D03*
X007442Y012514D03*
X007399Y011256D03*
X007404Y011251D03*
X007323Y011180D03*
X007285Y011018D03*
X007385Y011018D03*
X007447Y010684D03*
X007442Y010503D03*
X007399Y010141D03*
X007409Y009970D03*
X007385Y009951D03*
X007366Y009932D03*
X007233Y009455D03*
X007323Y009360D03*
X007399Y009436D03*
X007404Y009189D03*
X007619Y008574D03*
X007809Y008526D03*
X007633Y008345D03*
X007633Y008098D03*
X008052Y008155D03*
X008052Y008222D03*
X008052Y007983D03*
X008247Y008488D03*
X008224Y008517D03*
X008214Y008526D03*
D47*
X008214Y008712D03*
X008209Y008712D03*
X008200Y008722D03*
X008195Y008722D03*
X008181Y008731D03*
X007890Y008493D03*
X007647Y008312D03*
X007552Y008312D03*
X007395Y008188D03*
X007552Y008064D03*
X007647Y008064D03*
X007890Y007883D03*
X008038Y008188D03*
X008133Y008188D03*
X008343Y008064D03*
X008343Y008312D03*
X007585Y008731D03*
X007571Y008722D03*
X007566Y008722D03*
X007552Y008712D03*
X007538Y008703D03*
X007433Y009146D03*
X007804Y009717D03*
X007809Y009717D03*
X008190Y009717D03*
X008181Y009965D03*
X007233Y010213D03*
X007233Y011499D03*
X007814Y012185D03*
X007819Y012185D03*
X007828Y012180D03*
X007833Y012180D03*
X008162Y012180D03*
X008166Y012180D03*
X008176Y012185D03*
X008181Y012185D03*
X008176Y011685D03*
X007242Y013214D03*
X007809Y013705D03*
X007814Y013705D03*
X007819Y013709D03*
X007823Y013709D03*
X008171Y013709D03*
X008176Y013709D03*
X008181Y013705D03*
X008185Y013705D03*
D48*
X007442Y012692D03*
X007442Y011744D03*
X007233Y010687D03*
X007828Y007571D03*
X007842Y007571D03*
X007852Y007571D03*
X007857Y007571D03*
X007861Y007571D03*
X007866Y007571D03*
X007871Y007571D03*
X007876Y007571D03*
X007881Y007571D03*
X007885Y007571D03*
X007890Y007571D03*
X007895Y007571D03*
X007900Y007571D03*
X007904Y007571D03*
X007909Y007571D03*
X007914Y007571D03*
X007923Y007571D03*
X007933Y007571D03*
D49*
X008328Y008050D03*
X008328Y008326D03*
X008371Y008565D03*
X007395Y008565D03*
X008204Y009989D03*
X007233Y010923D03*
X007438Y012990D03*
D50*
X007414Y012957D03*
X007233Y012175D03*
X007423Y011490D03*
X007418Y011485D03*
X007252Y010684D03*
X007423Y010203D03*
X007423Y009670D03*
X007247Y009675D03*
X007418Y009384D03*
X008209Y009994D03*
X007399Y007807D03*
D51*
X007414Y008188D03*
X007237Y008188D03*
D52*
X007542Y008064D03*
X007657Y008064D03*
X007657Y008312D03*
X007542Y008312D03*
X007785Y008493D03*
X007852Y008808D03*
X007861Y008808D03*
X007876Y008808D03*
X007885Y008808D03*
X007900Y008808D03*
X007909Y008808D03*
X007919Y008808D03*
X007414Y009079D03*
X007442Y009384D03*
X007237Y009365D03*
X007442Y010203D03*
X008028Y008188D03*
D53*
X008047Y007945D03*
X008119Y007945D03*
X008314Y007750D03*
X008319Y007755D03*
X008328Y007764D03*
X008309Y007745D03*
X008300Y007736D03*
X007457Y007745D03*
X007452Y007750D03*
X007423Y009146D03*
X007237Y009679D03*
X007237Y010213D03*
X007433Y010694D03*
X007442Y010913D03*
X007237Y011499D03*
X007237Y011756D03*
X007442Y012166D03*
X007252Y013214D03*
X007237Y013528D03*
X007781Y013686D03*
X008195Y010646D03*
X008214Y009698D03*
X007781Y009698D03*
D54*
X007790Y009710D03*
X008185Y009720D03*
X008200Y009710D03*
X008185Y009967D03*
X007237Y010682D03*
X008176Y011158D03*
X008185Y011678D03*
X008195Y012192D03*
X008200Y012197D03*
X007800Y012192D03*
X007795Y012197D03*
X007438Y012692D03*
X007337Y012721D03*
X007542Y008705D03*
X007528Y008696D03*
X007523Y008691D03*
X007519Y008691D03*
X007514Y008686D03*
X007509Y008681D03*
X007795Y008491D03*
X007885Y008491D03*
X008038Y008429D03*
X008324Y008353D03*
X008262Y008676D03*
X008257Y008681D03*
X008252Y008686D03*
X008243Y008691D03*
X008238Y008696D03*
X008228Y008700D03*
X008224Y008705D03*
X007885Y007886D03*
X007795Y007886D03*
X007547Y007671D03*
X007533Y007681D03*
X007528Y007686D03*
X007523Y007686D03*
X007519Y007690D03*
X007514Y007695D03*
X007495Y007709D03*
X007442Y008024D03*
X008219Y007671D03*
X008224Y007676D03*
X008233Y007681D03*
X008238Y007686D03*
X008247Y007690D03*
X008252Y007695D03*
D55*
X007418Y009667D03*
X007418Y010201D03*
X007433Y010925D03*
X007237Y010925D03*
D56*
X007418Y011201D03*
X007256Y011487D03*
X007252Y011492D03*
X007237Y012178D03*
X007433Y012178D03*
X007418Y013516D03*
X007256Y010687D03*
X008209Y010663D03*
X007252Y009672D03*
X007414Y009386D03*
X007390Y008557D03*
X007385Y008553D03*
X007385Y007829D03*
X007390Y007819D03*
X007395Y007814D03*
X008371Y007814D03*
X008376Y007819D03*
X008381Y007829D03*
X008381Y008553D03*
X008376Y008557D03*
D57*
X008028Y007945D03*
X007942Y007574D03*
X007928Y007574D03*
X007919Y007574D03*
X007847Y007574D03*
X007838Y007574D03*
X007790Y007578D03*
X007266Y009627D03*
X007433Y010503D03*
X007442Y010689D03*
X007337Y010694D03*
X007261Y010894D03*
X007261Y010989D03*
X007261Y012147D03*
X007261Y012242D03*
X007433Y012514D03*
X007237Y012676D03*
X007261Y013281D03*
D58*
X007442Y013000D03*
X007237Y012962D03*
X007428Y010203D03*
X007433Y009675D03*
X007418Y007783D03*
X007423Y007779D03*
X007428Y007774D03*
X008338Y007774D03*
X008343Y007779D03*
X008347Y007783D03*
D59*
X008309Y007986D03*
X008347Y008072D03*
X008347Y008305D03*
X008309Y008391D03*
X008062Y008781D03*
X008047Y008786D03*
X008043Y008786D03*
X008033Y008791D03*
X008028Y008791D03*
X008023Y008791D03*
X008014Y008796D03*
X008009Y008796D03*
X008004Y008796D03*
X008000Y008796D03*
X007995Y008800D03*
X007990Y008796D03*
X007985Y008800D03*
X007981Y008800D03*
X007976Y008800D03*
X007971Y008800D03*
X007966Y008800D03*
X007962Y008805D03*
X007957Y008805D03*
X007952Y008805D03*
X007947Y008805D03*
X007942Y008805D03*
X007938Y008805D03*
X007933Y008805D03*
X007928Y008805D03*
X007923Y008805D03*
X007914Y008805D03*
X007895Y008810D03*
X007890Y008810D03*
X007881Y008810D03*
X007871Y008810D03*
X007866Y008805D03*
X007857Y008805D03*
X007847Y008805D03*
X007842Y008805D03*
X007838Y008805D03*
X007833Y008805D03*
X007828Y008805D03*
X007823Y008805D03*
X007819Y008805D03*
X007814Y008805D03*
X007809Y008805D03*
X007804Y008805D03*
X007800Y008800D03*
X007795Y008800D03*
X007790Y008800D03*
X007785Y008800D03*
X007781Y008800D03*
X007776Y008800D03*
X007771Y008796D03*
X007766Y008796D03*
X007761Y008796D03*
X007757Y008796D03*
X007742Y008791D03*
X007738Y008791D03*
X007723Y008786D03*
X007719Y008786D03*
X007704Y008781D03*
X007438Y009148D03*
X007457Y008391D03*
X007457Y007986D03*
X007785Y007886D03*
X007719Y007595D03*
X007714Y007595D03*
X007728Y007590D03*
X007733Y007590D03*
X007738Y007590D03*
X007747Y007586D03*
X007752Y007586D03*
X007757Y007586D03*
X007761Y007586D03*
X007766Y007581D03*
X007771Y007581D03*
X007776Y007581D03*
X007781Y007581D03*
X007785Y007581D03*
X007800Y007576D03*
X007804Y007576D03*
X007809Y007576D03*
X007814Y007576D03*
X007819Y007576D03*
X007823Y007576D03*
X007833Y007576D03*
X007938Y007576D03*
X007947Y007576D03*
X007952Y007576D03*
X007957Y007576D03*
X007962Y007576D03*
X007966Y007576D03*
X007971Y007576D03*
X007976Y007581D03*
X007981Y007581D03*
X007985Y007581D03*
X007990Y007581D03*
X007995Y007581D03*
X008000Y007581D03*
X008009Y007586D03*
X008014Y007586D03*
X008019Y007586D03*
X008033Y007590D03*
X008038Y007590D03*
X008052Y007595D03*
X008066Y007600D03*
X007700Y007600D03*
X007442Y011201D03*
X007237Y013212D03*
X007442Y013516D03*
D60*
X008305Y011423D03*
X008524Y008188D03*
X007242Y008188D03*
D61*
X007647Y007855D03*
X007790Y007883D03*
X007895Y007883D03*
X008138Y007626D03*
X008124Y007621D03*
X008114Y007617D03*
X008109Y007617D03*
X008104Y007612D03*
X008100Y007612D03*
X008095Y007607D03*
X008090Y007607D03*
X008085Y007607D03*
X008081Y007602D03*
X008076Y007602D03*
X008071Y007602D03*
X008062Y007598D03*
X008057Y007598D03*
X008047Y007593D03*
X008043Y007593D03*
X008028Y007588D03*
X008023Y007588D03*
X008004Y007583D03*
X008157Y007636D03*
X007795Y007578D03*
X007742Y007588D03*
X007723Y007593D03*
X007709Y007598D03*
X007704Y007598D03*
X007695Y007602D03*
X007690Y007602D03*
X007685Y007602D03*
X007680Y007607D03*
X007676Y007607D03*
X007671Y007607D03*
X007666Y007612D03*
X007661Y007612D03*
X007657Y007617D03*
X007652Y007617D03*
X007642Y007621D03*
X007638Y007621D03*
X007628Y007626D03*
X007619Y007631D03*
X007609Y007636D03*
X007242Y009370D03*
X007442Y009675D03*
X007695Y009960D03*
X007714Y009960D03*
X007733Y009960D03*
X007752Y009960D03*
X007771Y009960D03*
X007785Y009960D03*
X007800Y009960D03*
X007814Y009960D03*
X007828Y009960D03*
X007842Y009960D03*
X007857Y009960D03*
X007866Y009960D03*
X007881Y009960D03*
X007895Y009960D03*
X007904Y009960D03*
X007914Y009960D03*
X007923Y009960D03*
X007933Y009960D03*
X007942Y009960D03*
X007952Y009960D03*
X007962Y009960D03*
X007971Y009960D03*
X007981Y009960D03*
X007990Y009960D03*
X008000Y009960D03*
X008009Y009960D03*
X008019Y009960D03*
X008028Y009960D03*
X008038Y009960D03*
X008047Y009960D03*
X008057Y009960D03*
X008066Y009960D03*
X008076Y009960D03*
X008085Y009960D03*
X008095Y009960D03*
X008104Y009960D03*
X008114Y009960D03*
X008124Y009960D03*
X008133Y009960D03*
X008143Y009960D03*
X008152Y009960D03*
X008166Y009960D03*
X008090Y009746D03*
X008081Y009746D03*
X008052Y009751D03*
X008043Y009751D03*
X008038Y009751D03*
X008033Y009751D03*
X008028Y009751D03*
X008023Y009751D03*
X008019Y009751D03*
X008014Y009751D03*
X008004Y009751D03*
X007995Y009751D03*
X007985Y009751D03*
X007981Y009751D03*
X007976Y009751D03*
X007971Y009751D03*
X007966Y009751D03*
X007962Y009751D03*
X007957Y009751D03*
X007947Y009751D03*
X007919Y009746D03*
X007909Y009746D03*
X008204Y010437D03*
X008047Y012156D03*
X008038Y012156D03*
X008033Y012156D03*
X008028Y012156D03*
X008023Y012156D03*
X008019Y012156D03*
X008014Y012156D03*
X008009Y012156D03*
X008004Y012156D03*
X007995Y012156D03*
X007990Y012156D03*
X007985Y012156D03*
X007981Y012156D03*
X007976Y012156D03*
X007971Y012156D03*
X007966Y012156D03*
X007957Y012156D03*
X007942Y012156D03*
X007428Y012514D03*
X007928Y013733D03*
X007933Y013733D03*
X007938Y013733D03*
X007942Y013733D03*
X007952Y013733D03*
X007990Y013738D03*
X008000Y013738D03*
X008038Y013733D03*
X008052Y013733D03*
X008062Y013733D03*
X008071Y013733D03*
D62*
X007299Y012952D03*
X007414Y010241D03*
X007242Y009460D03*
X007480Y008436D03*
X007476Y008426D03*
X008143Y008188D03*
X008290Y008426D03*
X008285Y008436D03*
D63*
X008366Y008572D03*
X008362Y008576D03*
X008357Y008586D03*
X008347Y008596D03*
X008366Y007809D03*
X008362Y007800D03*
X008357Y007795D03*
X008352Y007790D03*
X007414Y007790D03*
X007409Y007795D03*
X007404Y007800D03*
X007399Y008572D03*
X007414Y008591D03*
X007418Y008596D03*
X007423Y009382D03*
X007428Y009672D03*
X007242Y009677D03*
X007242Y010215D03*
X008214Y010430D03*
X008204Y010658D03*
X007423Y011201D03*
X008204Y011659D03*
X007438Y012173D03*
X007423Y012692D03*
X007328Y012959D03*
X007323Y012959D03*
X007242Y013531D03*
D64*
X007428Y011744D03*
X007242Y010682D03*
X007428Y009382D03*
D65*
X007690Y011158D03*
X007695Y011158D03*
X007700Y011158D03*
X007704Y011158D03*
X007709Y011158D03*
X007714Y011158D03*
X007719Y011158D03*
X007723Y011158D03*
X007728Y011158D03*
X007733Y011158D03*
X007738Y011158D03*
X007742Y011158D03*
X007747Y011158D03*
X007752Y011158D03*
X007757Y011158D03*
X007761Y011158D03*
X007766Y011158D03*
X007771Y011158D03*
X007776Y011158D03*
X007781Y011158D03*
X007785Y011158D03*
X007790Y011158D03*
X007795Y011158D03*
X007800Y011158D03*
X007804Y011158D03*
X007809Y011158D03*
X007814Y011158D03*
X007819Y011158D03*
X007823Y011158D03*
X007828Y011158D03*
X007833Y011158D03*
X007838Y011158D03*
X007842Y011158D03*
X007847Y011158D03*
X007852Y011158D03*
X007857Y011158D03*
X007861Y011158D03*
X007866Y011158D03*
X007871Y011158D03*
X007876Y011158D03*
X007881Y011158D03*
X007885Y011158D03*
X007890Y011158D03*
X007895Y011158D03*
X007900Y011158D03*
X007904Y011158D03*
X007909Y011158D03*
X007914Y011158D03*
X007919Y011158D03*
X007923Y011158D03*
X007928Y011158D03*
X007933Y011158D03*
X007938Y011158D03*
X007942Y011158D03*
X007947Y011158D03*
X007952Y011158D03*
X007957Y011158D03*
X007962Y011158D03*
X007966Y011158D03*
X007971Y011158D03*
X007976Y011158D03*
X007981Y011158D03*
X007985Y011158D03*
X007990Y011158D03*
X007995Y011158D03*
X008000Y011158D03*
X008004Y011158D03*
X008009Y011158D03*
X008014Y011158D03*
X008019Y011158D03*
X008023Y011158D03*
X008028Y011158D03*
X008033Y011158D03*
X008038Y011158D03*
X008043Y011158D03*
X008047Y011158D03*
X008052Y011158D03*
X008057Y011158D03*
X008062Y011158D03*
X008066Y011158D03*
X008071Y011158D03*
X008076Y011158D03*
X008081Y011158D03*
X008085Y011158D03*
X008090Y011158D03*
X008095Y011158D03*
X008100Y011158D03*
X008104Y011158D03*
X008109Y011158D03*
X008114Y011158D03*
X008119Y011158D03*
X008124Y011158D03*
X008128Y011158D03*
X008133Y011158D03*
X008138Y011158D03*
X008143Y011158D03*
X008147Y011158D03*
X008152Y011158D03*
X008157Y011158D03*
X008162Y011158D03*
X008166Y011158D03*
X008171Y011158D03*
X008171Y011687D03*
X008166Y011687D03*
X008157Y011687D03*
X008147Y011687D03*
X008138Y011687D03*
X008128Y011687D03*
X008119Y011687D03*
X008109Y011687D03*
X008100Y011687D03*
X008090Y011687D03*
X008081Y011687D03*
X008071Y011687D03*
X008062Y011687D03*
X008052Y011687D03*
X008043Y011687D03*
X008033Y011687D03*
X008023Y011687D03*
X008014Y011687D03*
X008004Y011687D03*
X007995Y011687D03*
X007985Y011687D03*
X007976Y011687D03*
X007966Y011687D03*
X007957Y011687D03*
X007947Y011687D03*
X007938Y011687D03*
X007928Y011687D03*
X007919Y011687D03*
X007909Y011687D03*
X007900Y011687D03*
X007890Y011687D03*
X007881Y011687D03*
X007871Y011687D03*
X007861Y011687D03*
X007852Y011687D03*
X007842Y011687D03*
X007833Y011687D03*
X007823Y011687D03*
X007814Y011687D03*
X007804Y011687D03*
X007795Y011687D03*
X007785Y011687D03*
X007776Y011687D03*
X007766Y011687D03*
X007757Y011687D03*
X007747Y011687D03*
X007738Y011687D03*
X007728Y011687D03*
X007719Y011687D03*
X007709Y011687D03*
X007700Y011687D03*
X007690Y011687D03*
X007823Y012183D03*
X008171Y012183D03*
X007242Y012678D03*
X007828Y013712D03*
X008166Y013712D03*
X007242Y011187D03*
D66*
X007247Y011492D03*
X007242Y011497D03*
X007242Y011759D03*
X007438Y010920D03*
X008190Y011158D03*
X007423Y013517D03*
D67*
X007800Y013700D03*
X007833Y013714D03*
X007838Y013714D03*
X007852Y013719D03*
X008143Y013719D03*
X008157Y013714D03*
X008162Y013714D03*
X007242Y012962D03*
X007804Y012190D03*
X007809Y012190D03*
X007842Y012175D03*
X007847Y012175D03*
X008147Y012175D03*
X008152Y012175D03*
X008185Y012190D03*
X008190Y012190D03*
X007438Y011204D03*
X007438Y010203D03*
X007823Y009727D03*
X007828Y009727D03*
X007842Y009732D03*
X008152Y009732D03*
X008166Y009727D03*
X007438Y009384D03*
X008038Y007945D03*
X008133Y007945D03*
X008228Y007678D03*
X008214Y007669D03*
X008209Y007664D03*
X008204Y007664D03*
X008200Y007659D03*
X008195Y007655D03*
X008190Y007655D03*
X007599Y007640D03*
X007590Y007645D03*
X007580Y007650D03*
X007576Y007655D03*
X007571Y007655D03*
X007566Y007659D03*
X007557Y007664D03*
X007552Y007669D03*
X007542Y007674D03*
X007538Y007678D03*
D68*
X007247Y008188D03*
D69*
X007376Y007840D03*
X007642Y007836D03*
X008386Y007836D03*
X008390Y007840D03*
X007414Y009665D03*
X007247Y010218D03*
X007414Y011485D03*
D70*
X007423Y011744D03*
X007247Y010682D03*
D71*
X007247Y010932D03*
X007252Y010218D03*
X008214Y010003D03*
X008219Y010422D03*
X008214Y010675D03*
X008214Y011642D03*
X007252Y011756D03*
X007247Y012185D03*
X007428Y012981D03*
X007252Y013528D03*
X007633Y007845D03*
X007638Y007840D03*
X008395Y007850D03*
D72*
X008538Y008188D03*
X007247Y011228D03*
X008319Y011423D03*
X007247Y012714D03*
D73*
X007247Y012950D03*
D74*
X007314Y012962D03*
X007247Y013214D03*
X007785Y013690D03*
X008209Y013690D03*
X008209Y012204D03*
X008204Y012199D03*
X007790Y012199D03*
X007785Y012204D03*
X008190Y011675D03*
X008190Y009970D03*
X008209Y009703D03*
X007428Y009146D03*
X007800Y007883D03*
X007509Y007698D03*
X007504Y007702D03*
X007499Y007707D03*
X007485Y007717D03*
X007480Y007721D03*
X008243Y007688D03*
X008257Y007698D03*
X008262Y007702D03*
X008266Y007707D03*
X008271Y007712D03*
X008276Y007712D03*
X008285Y007721D03*
X008290Y007726D03*
D75*
X008514Y008191D03*
X007252Y008191D03*
D76*
X007256Y010213D03*
X007261Y010213D03*
X007252Y010937D03*
X007418Y010937D03*
D77*
X007252Y011225D03*
X007252Y012716D03*
X007342Y007900D03*
X008424Y007900D03*
D78*
X008414Y008498D03*
X008409Y008507D03*
X007357Y008507D03*
X007352Y008498D03*
X007352Y007879D03*
X007418Y012190D03*
X007252Y012190D03*
X007261Y013524D03*
D79*
X007256Y008188D03*
D80*
X007604Y007795D03*
X007604Y008581D03*
X007390Y009320D03*
X007395Y009324D03*
X007256Y009486D03*
X007399Y009729D03*
X007280Y010287D03*
X007399Y010525D03*
X007280Y010625D03*
X007399Y010744D03*
X007395Y011144D03*
X007399Y011544D03*
X007399Y012535D03*
X007390Y012630D03*
D81*
X008209Y011651D03*
X007256Y009670D03*
X007642Y008541D03*
X008276Y008188D03*
D82*
X007414Y010939D03*
X007256Y010939D03*
X007256Y013235D03*
D83*
X007256Y012795D03*
X007256Y011304D03*
D84*
X007390Y010422D03*
X007352Y009432D03*
X008252Y008484D03*
X008266Y008465D03*
X008147Y008188D03*
X008266Y007912D03*
X007661Y008064D03*
X007538Y008064D03*
X007538Y008312D03*
X007661Y008312D03*
X007395Y012433D03*
X007409Y012738D03*
X007256Y012928D03*
X007276Y013462D03*
D85*
X008281Y011423D03*
X008505Y008188D03*
X007261Y008188D03*
D86*
X007809Y008455D03*
X008052Y008398D03*
X008219Y008522D03*
X008228Y008512D03*
X008295Y008255D03*
X008295Y008122D03*
X007318Y009355D03*
X007261Y009336D03*
X007404Y009432D03*
X007390Y009603D03*
X007285Y009603D03*
X007361Y009927D03*
X007404Y009965D03*
X007423Y009984D03*
X007290Y010137D03*
X007409Y010518D03*
X007304Y010732D03*
X007299Y010737D03*
X007271Y010737D03*
X007266Y010732D03*
X007261Y011156D03*
X007290Y011418D03*
X007285Y011423D03*
X007385Y011418D03*
X007390Y011423D03*
X007285Y011680D03*
X007280Y011685D03*
X007409Y011794D03*
X008324Y011423D03*
X007404Y012909D03*
D87*
X007414Y013054D03*
X007385Y012626D03*
X007276Y011559D03*
X007385Y011139D03*
X007285Y010291D03*
X007276Y009739D03*
X007261Y009491D03*
X007385Y009320D03*
X007657Y008524D03*
X008366Y008267D03*
D88*
X007285Y010620D03*
X007261Y011311D03*
X007395Y012535D03*
X007261Y012802D03*
D89*
X007266Y008188D03*
D90*
X007271Y008191D03*
D91*
X008352Y008298D03*
X008352Y008079D03*
X007271Y009617D03*
X008200Y010437D03*
X007352Y010675D03*
X007323Y010713D03*
X007271Y011437D03*
D92*
X007395Y012633D03*
X007271Y009732D03*
D93*
X007409Y010461D03*
X007271Y010632D03*
X007399Y011147D03*
X007409Y012471D03*
X007404Y012533D03*
X007276Y013595D03*
X007519Y007940D03*
X007609Y007798D03*
X007747Y007736D03*
X007781Y007726D03*
X007785Y007726D03*
X007809Y007721D03*
X007814Y007721D03*
X007819Y007721D03*
X007838Y007717D03*
X007847Y007717D03*
X007852Y007717D03*
X007857Y007717D03*
X007861Y007717D03*
X007866Y007717D03*
X007871Y007717D03*
X007881Y007717D03*
X007890Y007717D03*
X007900Y007717D03*
X007904Y007717D03*
X007909Y007717D03*
X007914Y007717D03*
X007919Y007717D03*
X007923Y007717D03*
X007933Y007717D03*
X007952Y007721D03*
X007957Y007721D03*
X007962Y007721D03*
X007981Y007726D03*
X008004Y007731D03*
X008033Y007740D03*
X007828Y007836D03*
D94*
X007271Y011551D03*
D95*
X007276Y008188D03*
D96*
X007909Y007886D03*
X008152Y007943D03*
X008152Y008186D03*
X008152Y008429D03*
X007909Y008495D03*
X007276Y010282D03*
X007404Y010453D03*
X007404Y010739D03*
X007404Y011544D03*
X007404Y012464D03*
D97*
X007276Y010630D03*
X008185Y010439D03*
D98*
X007399Y009327D03*
X007761Y008646D03*
X007804Y008655D03*
X007809Y008655D03*
X007819Y008655D03*
X007828Y008541D03*
X007957Y008655D03*
X007962Y008655D03*
X008004Y008646D03*
X008085Y008484D03*
X008085Y008379D03*
X008090Y008379D03*
X008076Y008379D03*
X007919Y008303D03*
X007914Y008303D03*
X007909Y008303D03*
X007904Y008303D03*
X007900Y008303D03*
X007895Y008303D03*
X007890Y008303D03*
X007885Y008303D03*
X007881Y008303D03*
X007876Y008303D03*
X007871Y008303D03*
X007866Y008303D03*
X007861Y008303D03*
X007857Y008303D03*
X007852Y008303D03*
X007847Y008303D03*
X007847Y008074D03*
X007852Y008074D03*
X007861Y008074D03*
X007866Y008074D03*
X007871Y008074D03*
X007881Y008074D03*
X007885Y008074D03*
X007890Y008074D03*
X007900Y008074D03*
X007904Y008074D03*
X007909Y008074D03*
X007914Y008074D03*
X007919Y008074D03*
X008081Y007998D03*
X008085Y007998D03*
X008090Y007998D03*
X007533Y008064D03*
X007533Y008312D03*
X007576Y008436D03*
X007609Y008579D03*
X007276Y011823D03*
D99*
X007280Y008191D03*
X008486Y008191D03*
D100*
X007599Y007793D03*
X007395Y010527D03*
X007280Y011828D03*
X007285Y011833D03*
X007285Y013605D03*
D101*
X007280Y013600D03*
X007599Y008584D03*
X008366Y008107D03*
D102*
X008481Y008188D03*
X007285Y008188D03*
D103*
X007290Y008188D03*
D104*
X007295Y008188D03*
X008471Y008188D03*
D105*
X008466Y008188D03*
X007299Y008188D03*
X008305Y009346D03*
D106*
X008300Y009355D03*
X007695Y009355D03*
X007304Y008188D03*
X007695Y013343D03*
X008300Y013343D03*
D107*
X007309Y007998D03*
D108*
X007309Y008386D03*
X008457Y008386D03*
X008457Y007995D03*
D109*
X008452Y007974D03*
X008452Y008403D03*
X007314Y007974D03*
X008314Y010894D03*
X008314Y011423D03*
D110*
X007314Y008405D03*
D111*
X007318Y007960D03*
X008447Y007960D03*
D112*
X007318Y008422D03*
D113*
X007323Y007945D03*
X008443Y007945D03*
D114*
X007323Y008434D03*
X008228Y010044D03*
X008228Y010715D03*
X008228Y011601D03*
D115*
X008438Y007931D03*
X007328Y007931D03*
D116*
X007328Y008448D03*
D117*
X007357Y010668D03*
X007328Y010706D03*
D118*
X007357Y010201D03*
X008204Y011158D03*
X008224Y011621D03*
X008428Y007910D03*
X007337Y007910D03*
X007333Y007919D03*
D119*
X007333Y008460D03*
X008433Y008460D03*
X007357Y013514D03*
X007352Y013514D03*
X007347Y013514D03*
X007342Y013514D03*
X007337Y013514D03*
D120*
X008224Y010418D03*
X008428Y008469D03*
X007337Y008469D03*
D121*
X007337Y009410D03*
X007800Y009715D03*
X008195Y009715D03*
X007438Y010692D03*
X007337Y011230D03*
X008181Y011682D03*
X007438Y013517D03*
X007804Y013702D03*
X008190Y013702D03*
D122*
X007357Y011742D03*
X007352Y011742D03*
X007347Y011742D03*
X007342Y011742D03*
X007337Y011742D03*
X008224Y010699D03*
X008224Y010027D03*
X007352Y010199D03*
X007347Y010199D03*
X007337Y010199D03*
D123*
X007428Y010503D03*
X007342Y011237D03*
X007442Y011494D03*
X007695Y011690D03*
X007704Y011690D03*
X007714Y011690D03*
X007723Y011690D03*
X007733Y011690D03*
X007742Y011690D03*
X007752Y011690D03*
X007761Y011690D03*
X007771Y011690D03*
X007781Y011690D03*
X007790Y011690D03*
X007800Y011690D03*
X007809Y011690D03*
X007819Y011690D03*
X007828Y011690D03*
X007838Y011690D03*
X007847Y011690D03*
X007857Y011690D03*
X007866Y011690D03*
X007876Y011690D03*
X007885Y011690D03*
X007895Y011690D03*
X007904Y011690D03*
X007914Y011690D03*
X007923Y011690D03*
X007933Y011690D03*
X007942Y011690D03*
X007952Y011690D03*
X007962Y011690D03*
X007971Y011690D03*
X007981Y011690D03*
X007990Y011690D03*
X008000Y011690D03*
X008009Y011690D03*
X008019Y011690D03*
X008028Y011690D03*
X008038Y011690D03*
X008047Y011690D03*
X008057Y011690D03*
X008066Y011690D03*
X008076Y011690D03*
X008085Y011690D03*
X008095Y011690D03*
X008104Y011690D03*
X008114Y011690D03*
X008124Y011690D03*
X008133Y011690D03*
X008143Y011690D03*
X008152Y011690D03*
X008162Y011690D03*
X008162Y013066D03*
X008166Y013066D03*
X008171Y013066D03*
X008176Y013066D03*
X008181Y013066D03*
X008185Y013066D03*
X008190Y013066D03*
X008195Y013066D03*
X008200Y013066D03*
X008204Y013066D03*
X008209Y013066D03*
X008157Y013066D03*
X008152Y013066D03*
X008147Y013066D03*
X008143Y013066D03*
X008138Y013066D03*
X008133Y013066D03*
X008128Y013066D03*
X008124Y013066D03*
X008119Y013066D03*
X008114Y013066D03*
X008109Y013066D03*
X008104Y013066D03*
X008100Y013066D03*
X008095Y013066D03*
X008090Y013066D03*
X008085Y013066D03*
X008081Y013066D03*
X008076Y013066D03*
X008071Y013066D03*
X008066Y013066D03*
X008062Y013066D03*
X008057Y013066D03*
X008052Y013066D03*
X008047Y013066D03*
X008043Y013066D03*
X008038Y013066D03*
X008033Y013066D03*
X008028Y013066D03*
X008023Y013066D03*
X008019Y013066D03*
X008014Y013066D03*
X008009Y013066D03*
X008004Y013066D03*
X008000Y013066D03*
X007995Y013066D03*
X007990Y013066D03*
X007985Y013066D03*
X007981Y013066D03*
X007976Y013066D03*
X007971Y013066D03*
X007966Y013066D03*
X007962Y013066D03*
X007957Y013066D03*
X007952Y013066D03*
X007947Y013066D03*
X007942Y013066D03*
X007938Y013066D03*
X007933Y013066D03*
X007928Y013066D03*
X007923Y013066D03*
X007919Y013066D03*
X007914Y013066D03*
X007909Y013066D03*
X007904Y013066D03*
X007900Y013066D03*
X007895Y013066D03*
X007890Y013066D03*
X007885Y013066D03*
X007881Y013066D03*
X007876Y013066D03*
X007871Y013066D03*
X007866Y013066D03*
X007861Y013066D03*
X007857Y013066D03*
X007852Y013066D03*
X007847Y013066D03*
X007842Y013066D03*
X007838Y013066D03*
X007833Y013066D03*
X007828Y013066D03*
X007823Y013066D03*
X007819Y013066D03*
X007814Y013066D03*
X007809Y013066D03*
X007804Y013066D03*
X007800Y013066D03*
X007795Y013066D03*
X007790Y013066D03*
X007785Y013066D03*
X007781Y013066D03*
X008314Y013066D03*
X008319Y013066D03*
X008324Y013066D03*
X008328Y013066D03*
X008333Y013066D03*
X008338Y013066D03*
X008343Y013066D03*
X008347Y013066D03*
X008352Y013066D03*
X008357Y013066D03*
X008362Y013066D03*
X008366Y013066D03*
X008371Y013066D03*
X008376Y013066D03*
X008381Y013066D03*
X008386Y013066D03*
X008390Y013066D03*
X008395Y013066D03*
X008400Y013066D03*
X008405Y013066D03*
X008409Y013066D03*
X008414Y013066D03*
X008419Y013066D03*
X008424Y013066D03*
X008428Y013066D03*
X008433Y013066D03*
X008438Y013066D03*
X008443Y013066D03*
X008447Y013066D03*
X008452Y013066D03*
X008457Y013066D03*
X008462Y013066D03*
X008466Y013066D03*
X008471Y013066D03*
X008476Y013066D03*
X008481Y013066D03*
X008486Y013066D03*
X008490Y013066D03*
X008495Y013066D03*
X008500Y013066D03*
X008505Y013066D03*
X008509Y013066D03*
X008114Y009741D03*
X007342Y009417D03*
X007652Y008765D03*
X007657Y008765D03*
X007661Y008765D03*
X007676Y008774D03*
X007680Y008774D03*
X007685Y008774D03*
X007709Y008784D03*
X007714Y008784D03*
X007747Y008793D03*
X007752Y008793D03*
X007633Y008755D03*
X008019Y008793D03*
X008052Y008784D03*
X008057Y008784D03*
X008081Y008774D03*
X008085Y008774D03*
X008090Y008774D03*
X008104Y008765D03*
X008109Y008765D03*
X008114Y008765D03*
X008133Y008755D03*
X008152Y008746D03*
X008138Y008431D03*
X008033Y008431D03*
X008138Y007945D03*
D124*
X007342Y010201D03*
D125*
X007409Y010942D03*
X008219Y011632D03*
X008419Y008488D03*
X007347Y008488D03*
D126*
X007347Y010682D03*
D127*
X007371Y008531D03*
X007366Y008522D03*
X007428Y008293D03*
X007361Y007864D03*
X007366Y007855D03*
X008281Y008188D03*
X008400Y007855D03*
X008400Y008522D03*
X008395Y008531D03*
D128*
X008405Y008515D03*
X008405Y007867D03*
X007628Y007848D03*
X007428Y008081D03*
X007361Y008515D03*
X007623Y008524D03*
X007628Y008529D03*
X007423Y010935D03*
D129*
X007380Y008546D03*
X008386Y008546D03*
D130*
X007380Y009315D03*
X007395Y009734D03*
X007395Y010749D03*
X007380Y011135D03*
X007395Y011554D03*
D131*
X007390Y011139D03*
D132*
X007399Y012638D03*
X007833Y008660D03*
X007842Y008660D03*
X007847Y008660D03*
X007852Y008660D03*
X007857Y008660D03*
X007861Y008660D03*
X007866Y008660D03*
X007876Y008660D03*
X007885Y008660D03*
X007895Y008660D03*
X007904Y008660D03*
X007909Y008660D03*
X007914Y008660D03*
X007919Y008660D03*
X007928Y008660D03*
X007933Y008660D03*
X007981Y008650D03*
X007985Y008650D03*
X007785Y008650D03*
X007781Y008650D03*
X007747Y008641D03*
X007838Y008441D03*
X007842Y008441D03*
X007847Y008441D03*
X007599Y008364D03*
X007561Y008431D03*
X007557Y008431D03*
X007552Y008431D03*
X007547Y008431D03*
X007542Y008431D03*
X007538Y008431D03*
X007599Y008260D03*
X007599Y008117D03*
X007604Y008117D03*
X007599Y008012D03*
X007561Y007945D03*
X007557Y007945D03*
X007552Y007945D03*
X007547Y007945D03*
X007542Y007945D03*
X007538Y007945D03*
X007838Y007936D03*
X007842Y007936D03*
X007847Y007936D03*
X008085Y008136D03*
X008081Y008241D03*
X008090Y008241D03*
X008362Y008279D03*
D133*
X007404Y008188D03*
D134*
X007404Y008579D03*
X008271Y008188D03*
D135*
X007404Y009725D03*
X007404Y010525D03*
D136*
X007409Y008186D03*
D137*
X007409Y008584D03*
X007423Y008603D03*
X008200Y011666D03*
D138*
X008200Y011930D03*
X008204Y011930D03*
X008209Y011930D03*
X008214Y011930D03*
X008219Y011930D03*
X008224Y011930D03*
X008228Y011930D03*
X008233Y011930D03*
X008238Y011930D03*
X008243Y011930D03*
X008247Y011930D03*
X008252Y011930D03*
X008257Y011930D03*
X008262Y011930D03*
X008266Y011930D03*
X008271Y011930D03*
X008276Y011930D03*
X008281Y011930D03*
X008285Y011930D03*
X008290Y011930D03*
X008295Y011930D03*
X008300Y011930D03*
X008305Y011930D03*
X008309Y011930D03*
X008314Y011930D03*
X008319Y011930D03*
X008324Y011930D03*
X008328Y011930D03*
X008333Y011930D03*
X008338Y011930D03*
X008343Y011930D03*
X008347Y011930D03*
X008352Y011930D03*
X008357Y011930D03*
X008362Y011930D03*
X008366Y011930D03*
X008371Y011930D03*
X008376Y011930D03*
X008381Y011930D03*
X008386Y011930D03*
X008390Y011930D03*
X008395Y011930D03*
X008400Y011930D03*
X008405Y011930D03*
X008409Y011930D03*
X008414Y011930D03*
X008419Y011930D03*
X008424Y011930D03*
X008428Y011930D03*
X008433Y011930D03*
X008438Y011930D03*
X008443Y011930D03*
X008447Y011930D03*
X008452Y011930D03*
X008457Y011930D03*
X008462Y011930D03*
X008466Y011930D03*
X008471Y011930D03*
X008476Y011930D03*
X008481Y011930D03*
X008486Y011930D03*
X008490Y011930D03*
X008495Y011930D03*
X008500Y011930D03*
X008505Y011930D03*
X008509Y011930D03*
X008195Y011930D03*
X008190Y011930D03*
X008185Y011930D03*
X008181Y011930D03*
X008176Y011930D03*
X008171Y011930D03*
X008166Y011930D03*
X008162Y011930D03*
X008157Y011930D03*
X008152Y011930D03*
X008147Y011930D03*
X008143Y011930D03*
X008138Y011930D03*
X008133Y011930D03*
X008128Y011930D03*
X008124Y011930D03*
X008119Y011930D03*
X008114Y011930D03*
X008109Y011930D03*
X008104Y011930D03*
X008100Y011930D03*
X008095Y011930D03*
X008090Y011930D03*
X008085Y011930D03*
X008081Y011930D03*
X008076Y011930D03*
X008071Y011930D03*
X008066Y011930D03*
X008062Y011930D03*
X008057Y011930D03*
X008052Y011930D03*
X008047Y011930D03*
X008043Y011930D03*
X008038Y011930D03*
X008033Y011930D03*
X008028Y011930D03*
X008023Y011930D03*
X008019Y011930D03*
X008014Y011930D03*
X008009Y011930D03*
X008004Y011930D03*
X008000Y011930D03*
X007995Y011930D03*
X007990Y011930D03*
X007985Y011930D03*
X007981Y011930D03*
X007976Y011930D03*
X007971Y011930D03*
X007966Y011930D03*
X007962Y011930D03*
X007957Y011930D03*
X007952Y011930D03*
X007947Y011930D03*
X007942Y011930D03*
X007938Y011930D03*
X007933Y011930D03*
X007928Y011930D03*
X007923Y011930D03*
X007919Y011930D03*
X007914Y011930D03*
X007909Y011930D03*
X007904Y011930D03*
X007900Y011930D03*
X007895Y011930D03*
X007890Y011930D03*
X007885Y011930D03*
X007881Y011930D03*
X007876Y011930D03*
X007871Y011930D03*
X007866Y011930D03*
X007861Y011930D03*
X007857Y011930D03*
X007852Y011930D03*
X007847Y011930D03*
X007842Y011930D03*
X007838Y011930D03*
X007833Y011930D03*
X007828Y011930D03*
X007823Y011930D03*
X007819Y011930D03*
X007814Y011930D03*
X007809Y011930D03*
X007804Y011930D03*
X007800Y011930D03*
X007795Y011930D03*
X007790Y011930D03*
X007785Y011930D03*
X007781Y011930D03*
X007776Y011930D03*
X007771Y011930D03*
X007766Y011930D03*
X007761Y011930D03*
X007757Y011930D03*
X007752Y011930D03*
X007747Y011930D03*
X007742Y011930D03*
X007738Y011930D03*
X007733Y011930D03*
X007728Y011930D03*
X007723Y011930D03*
X007719Y011930D03*
X007714Y011930D03*
X007709Y011930D03*
X007704Y011930D03*
X007700Y011930D03*
X007695Y011930D03*
X007690Y011930D03*
X007866Y012168D03*
X007871Y012168D03*
X007876Y012168D03*
X007881Y012168D03*
X007890Y012164D03*
X007895Y012164D03*
X007900Y012164D03*
X007909Y012164D03*
X008090Y012164D03*
X008095Y012164D03*
X008100Y012164D03*
X008104Y012164D03*
X008114Y012168D03*
X008119Y012168D03*
X008124Y012168D03*
X008128Y012168D03*
X007423Y012511D03*
X007418Y012507D03*
X007414Y012507D03*
X007876Y013726D03*
X007881Y013726D03*
X007885Y013726D03*
X007890Y013726D03*
X007895Y013726D03*
X007900Y013731D03*
X007909Y013731D03*
X007914Y013731D03*
X007919Y013731D03*
X007923Y013731D03*
X008066Y013731D03*
X008076Y013731D03*
X008081Y013731D03*
X008085Y013731D03*
X008090Y013731D03*
X008095Y013731D03*
X008104Y013726D03*
X008109Y013726D03*
X008114Y013726D03*
X008119Y013726D03*
X008176Y010634D03*
D139*
X007418Y008188D03*
D140*
X007433Y008055D03*
X008333Y008055D03*
X008333Y008322D03*
X008352Y008588D03*
X007423Y010689D03*
X007418Y010689D03*
X007428Y011490D03*
X007433Y011494D03*
D141*
X007423Y008191D03*
D142*
X007623Y007852D03*
X008409Y007871D03*
X007423Y012187D03*
D143*
X007428Y013517D03*
X008200Y009982D03*
D144*
X007433Y009384D03*
X007466Y008646D03*
X007457Y008636D03*
X007447Y008626D03*
X007561Y008312D03*
X007638Y008312D03*
X007804Y008493D03*
X007876Y008493D03*
X008047Y008188D03*
X008119Y008188D03*
X007876Y007883D03*
X007804Y007883D03*
X007638Y008064D03*
X007561Y008064D03*
X008300Y008646D03*
X008309Y008636D03*
X008319Y008626D03*
X008328Y008617D03*
X008195Y011671D03*
X008214Y012209D03*
X007781Y012209D03*
D145*
X007433Y012692D03*
X007433Y013516D03*
X008214Y013683D03*
X007433Y011744D03*
X007438Y011497D03*
X007433Y011201D03*
X008181Y011158D03*
X007433Y010201D03*
X007785Y009705D03*
X007438Y009677D03*
X008195Y009977D03*
X008285Y008657D03*
X008290Y008653D03*
X008295Y008648D03*
X008124Y008429D03*
X008124Y008191D03*
X008124Y007948D03*
X008338Y008062D03*
X008305Y007738D03*
X008295Y007729D03*
X008281Y007719D03*
X007490Y007714D03*
X007476Y007724D03*
X007471Y007729D03*
X007466Y007733D03*
X007461Y007738D03*
X007438Y008038D03*
X007438Y008338D03*
X007476Y008653D03*
X007480Y008657D03*
X007485Y008662D03*
X007881Y008491D03*
D146*
X008133Y008431D03*
X008233Y008698D03*
X008219Y008707D03*
X008204Y008717D03*
X008190Y008727D03*
X008171Y008736D03*
X007595Y008736D03*
X007576Y008727D03*
X007561Y008717D03*
X007547Y008707D03*
X007533Y008698D03*
X007442Y008355D03*
X008324Y008021D03*
X008181Y009722D03*
X008176Y009722D03*
X007819Y009722D03*
X007814Y009722D03*
X008181Y010637D03*
X007438Y011747D03*
D147*
X007461Y008641D03*
X007452Y008631D03*
X007442Y008622D03*
X008047Y008431D03*
X008119Y008431D03*
X008338Y008317D03*
X008324Y008622D03*
X008314Y008631D03*
X008305Y008641D03*
D148*
X008143Y008750D03*
X008124Y008760D03*
X008119Y008760D03*
X008100Y008769D03*
X008095Y008769D03*
X008076Y008779D03*
X008071Y008779D03*
X008066Y008779D03*
X008038Y008788D03*
X007904Y008808D03*
X007733Y008788D03*
X007728Y008788D03*
X007700Y008779D03*
X007695Y008779D03*
X007690Y008779D03*
X007671Y008769D03*
X007666Y008769D03*
X007647Y008760D03*
X007642Y008760D03*
X007647Y008522D03*
X007790Y008493D03*
X007895Y008493D03*
X007652Y008312D03*
X007547Y008312D03*
X007452Y008379D03*
X007547Y008064D03*
X007652Y008064D03*
X007452Y007998D03*
X008138Y008188D03*
X008257Y008188D03*
X008314Y007998D03*
X008314Y008379D03*
X008166Y010632D03*
X008085Y012161D03*
X008081Y012161D03*
X008076Y012161D03*
X008066Y012161D03*
X008109Y012166D03*
X007923Y012161D03*
X007919Y012161D03*
X007914Y012161D03*
X007904Y012161D03*
X007885Y012166D03*
X007871Y013724D03*
X007904Y013729D03*
X008100Y013729D03*
X008124Y013724D03*
D149*
X007795Y009713D03*
X007504Y008679D03*
X007495Y008669D03*
X007471Y008650D03*
X008043Y008431D03*
X008128Y008431D03*
X008281Y008660D03*
X008271Y008669D03*
X008247Y008688D03*
X008128Y007945D03*
X008043Y007945D03*
D150*
X008043Y008188D03*
X008128Y008188D03*
X008262Y008188D03*
X007800Y008493D03*
X007642Y008312D03*
X007557Y008312D03*
X007557Y008064D03*
X007642Y008064D03*
X007490Y008665D03*
X007499Y008674D03*
X008266Y008674D03*
X008276Y008665D03*
X008204Y009708D03*
X008209Y010432D03*
X008190Y010642D03*
D151*
X007857Y007933D03*
X007852Y007933D03*
X007833Y007933D03*
X007828Y007933D03*
X007823Y007933D03*
X007576Y007943D03*
X007571Y007943D03*
X007566Y007943D03*
X007533Y007943D03*
X007528Y007943D03*
X007523Y007943D03*
X007504Y007933D03*
D152*
X007638Y008536D03*
D153*
X007690Y009351D03*
D154*
X007690Y012559D03*
X008305Y012559D03*
X007690Y013335D03*
D155*
X007695Y012549D03*
D156*
X007700Y009363D03*
D157*
X008295Y009360D03*
X008295Y012547D03*
X007700Y012547D03*
X007700Y013347D03*
X008295Y013347D03*
D158*
X008290Y012542D03*
X007704Y012542D03*
X007704Y009365D03*
X008290Y009365D03*
D159*
X008290Y013352D03*
X007704Y013352D03*
D160*
X007714Y013357D03*
X008281Y013357D03*
X007709Y012538D03*
X007709Y009370D03*
X008285Y009370D03*
D161*
X008285Y012540D03*
X008285Y013355D03*
X007709Y013355D03*
D162*
X007714Y009372D03*
X008281Y009372D03*
D163*
X008281Y012535D03*
X007714Y012535D03*
D164*
X007719Y013362D03*
X008271Y013362D03*
X008276Y013362D03*
X008276Y009374D03*
X007719Y009374D03*
D165*
X007719Y012533D03*
X008276Y012533D03*
D166*
X008271Y012530D03*
X007723Y012530D03*
X007723Y013364D03*
X008266Y013364D03*
X008271Y009377D03*
X007723Y009377D03*
D167*
X007728Y009379D03*
X008266Y009379D03*
X008266Y012528D03*
X007728Y012528D03*
X007728Y013366D03*
X007733Y013366D03*
X008262Y013366D03*
D168*
X008257Y013369D03*
X007738Y013369D03*
X007733Y009382D03*
X008262Y009382D03*
D169*
X008262Y012526D03*
X007733Y012526D03*
D170*
X007738Y012523D03*
X007742Y012523D03*
X008252Y012523D03*
X008257Y012523D03*
X008257Y009384D03*
X008252Y009384D03*
X007738Y009384D03*
D171*
X007742Y009386D03*
X007747Y009386D03*
X008247Y009386D03*
X008247Y012521D03*
X007747Y012521D03*
X007747Y013374D03*
X007752Y013374D03*
X008243Y013374D03*
X008247Y013374D03*
D172*
X008252Y013371D03*
X007742Y013371D03*
D173*
X007757Y013376D03*
X008233Y013376D03*
X008238Y013376D03*
X008238Y012518D03*
X008243Y012518D03*
X007757Y012518D03*
X007752Y012518D03*
X007752Y009389D03*
X007757Y009389D03*
X008238Y009389D03*
X008243Y009389D03*
D174*
X008233Y009391D03*
X007761Y009391D03*
D175*
X007761Y012516D03*
X008233Y012516D03*
D176*
X008228Y013378D03*
X007766Y013378D03*
X007761Y013378D03*
D177*
X007771Y013381D03*
X007776Y013381D03*
X008219Y013381D03*
X008224Y013381D03*
X008224Y009393D03*
X008228Y009393D03*
X007771Y009393D03*
X007766Y009393D03*
D178*
X007766Y012514D03*
X007771Y012514D03*
X008219Y012514D03*
X008224Y012514D03*
X008228Y012514D03*
D179*
X007776Y012511D03*
X007776Y009396D03*
X008219Y009396D03*
D180*
X008185Y010639D03*
X008204Y013693D03*
X008200Y013698D03*
X008195Y013698D03*
X007795Y013698D03*
X007790Y013693D03*
D181*
X007809Y008188D03*
X007814Y008188D03*
X007819Y008188D03*
X007823Y008188D03*
X007828Y008188D03*
X007833Y008188D03*
X007838Y008188D03*
X007923Y008188D03*
X007928Y008188D03*
X007933Y008188D03*
X007938Y008188D03*
X007942Y008188D03*
X007947Y008188D03*
X007952Y008188D03*
X007957Y008188D03*
D182*
X007881Y007886D03*
D183*
X008181Y010441D03*
D184*
X008200Y011158D03*
D185*
X008209Y011158D03*
D186*
X008214Y011158D03*
D187*
X008219Y011156D03*
D188*
X008224Y011161D03*
X008305Y010894D03*
X008305Y010222D03*
D189*
X008228Y010401D03*
D190*
X008228Y011158D03*
D191*
X008233Y010225D03*
D192*
X008233Y011161D03*
D193*
X008238Y010225D03*
D194*
X008238Y011158D03*
D195*
X008243Y010222D03*
D196*
X008243Y011158D03*
D197*
X008247Y010222D03*
D198*
X008247Y011158D03*
D199*
X008252Y010222D03*
D200*
X008252Y011161D03*
D201*
X008257Y010225D03*
X008490Y008191D03*
D202*
X008257Y010894D03*
D203*
X008257Y011425D03*
D204*
X008262Y010225D03*
D205*
X008262Y010894D03*
D206*
X008262Y011425D03*
D207*
X008266Y010222D03*
X008495Y008188D03*
D208*
X008266Y010894D03*
D209*
X008266Y011423D03*
D210*
X008271Y011425D03*
X008271Y010225D03*
D211*
X008271Y010894D03*
D212*
X008276Y010222D03*
D213*
X008276Y010894D03*
X008276Y011423D03*
D214*
X008281Y010225D03*
D215*
X008281Y010894D03*
D216*
X008285Y010894D03*
X008285Y010222D03*
D217*
X008285Y011425D03*
X008509Y008191D03*
D218*
X008290Y010225D03*
X008290Y011425D03*
D219*
X008290Y010894D03*
D220*
X008295Y011423D03*
X008295Y010222D03*
D221*
X008295Y010894D03*
D222*
X008300Y010894D03*
X008300Y010222D03*
D223*
X008300Y011423D03*
D224*
X008300Y012552D03*
D225*
X008305Y013333D03*
D226*
X008309Y010896D03*
X008309Y010225D03*
D227*
X008309Y011425D03*
D228*
X008314Y010222D03*
D229*
X008433Y007921D03*
D230*
X008438Y008445D03*
D231*
X008443Y008436D03*
D232*
X008447Y008419D03*
D233*
X008462Y008191D03*
D234*
X008476Y008191D03*
D235*
X008500Y008191D03*
D236*
X008519Y008191D03*
D237*
X008528Y008193D03*
D238*
X008533Y008188D03*
D239*
X008531Y015000D02*
X008531Y015460D01*
X008301Y015460D01*
X008224Y015384D01*
X008224Y015230D01*
X008301Y015153D01*
X008531Y015153D01*
X008377Y015153D02*
X008224Y015000D01*
X008070Y015077D02*
X007994Y015000D01*
X007840Y015000D01*
X007763Y015077D01*
X007763Y015230D01*
X007840Y015307D01*
X007917Y015307D01*
X008070Y015230D01*
X008070Y015460D01*
X007763Y015460D01*
X007156Y015460D02*
X007156Y015000D01*
X007156Y015153D02*
X006926Y015153D01*
X006849Y015230D01*
X006849Y015384D01*
X006926Y015460D01*
X007156Y015460D01*
X007002Y015153D02*
X006849Y015000D01*
X006695Y015077D02*
X006695Y015153D01*
X006619Y015230D01*
X006465Y015230D01*
X006388Y015153D01*
X006388Y015077D01*
X006465Y015000D01*
X006619Y015000D01*
X006695Y015077D01*
X006619Y015230D02*
X006695Y015307D01*
X006695Y015384D01*
X006619Y015460D01*
X006465Y015460D01*
X006388Y015384D01*
X006388Y015307D01*
X006465Y015230D01*
D240*
X019678Y013980D02*
X019678Y020130D01*
X019678Y013880D02*
X019678Y007730D01*
M02*
