G75*
G70*
%OFA0B0*%
%FSLAX24Y24*%
%IPPOS*%
%LPD*%
%AMOC8*
5,1,8,0,0,1.08239X$1,22.5*
%
%ADD10C,0.0000*%
%ADD11C,0.0600*%
%ADD12R,0.0710X0.0630*%
%ADD13R,0.0390X0.0120*%
%ADD14R,0.0630X0.0710*%
%ADD15R,0.0630X0.0709*%
%ADD16OC8,0.0630*%
%ADD17C,0.0630*%
%ADD18C,0.0004*%
%ADD19C,0.0554*%
%ADD20C,0.1000*%
%ADD21OC8,0.0600*%
%ADD22C,0.0594*%
%ADD23C,0.0120*%
%ADD24C,0.0356*%
%ADD25C,0.0500*%
D10*
X000180Y000680D02*
X000180Y020176D01*
X019675Y020176D01*
X019675Y000680D01*
X000180Y000680D01*
X016869Y008805D02*
X016871Y008855D01*
X016877Y008905D01*
X016887Y008954D01*
X016900Y009003D01*
X016918Y009050D01*
X016939Y009096D01*
X016963Y009139D01*
X016991Y009181D01*
X017022Y009221D01*
X017056Y009258D01*
X017093Y009292D01*
X017133Y009323D01*
X017175Y009351D01*
X017218Y009375D01*
X017264Y009396D01*
X017311Y009414D01*
X017360Y009427D01*
X017409Y009437D01*
X017459Y009443D01*
X017509Y009445D01*
X017559Y009443D01*
X017609Y009437D01*
X017658Y009427D01*
X017707Y009414D01*
X017754Y009396D01*
X017800Y009375D01*
X017843Y009351D01*
X017885Y009323D01*
X017925Y009292D01*
X017962Y009258D01*
X017996Y009221D01*
X018027Y009181D01*
X018055Y009139D01*
X018079Y009096D01*
X018100Y009050D01*
X018118Y009003D01*
X018131Y008954D01*
X018141Y008905D01*
X018147Y008855D01*
X018149Y008805D01*
X018147Y008755D01*
X018141Y008705D01*
X018131Y008656D01*
X018118Y008607D01*
X018100Y008560D01*
X018079Y008514D01*
X018055Y008471D01*
X018027Y008429D01*
X017996Y008389D01*
X017962Y008352D01*
X017925Y008318D01*
X017885Y008287D01*
X017843Y008259D01*
X017800Y008235D01*
X017754Y008214D01*
X017707Y008196D01*
X017658Y008183D01*
X017609Y008173D01*
X017559Y008167D01*
X017509Y008165D01*
X017459Y008167D01*
X017409Y008173D01*
X017360Y008183D01*
X017311Y008196D01*
X017264Y008214D01*
X017218Y008235D01*
X017175Y008259D01*
X017133Y008287D01*
X017093Y008318D01*
X017056Y008352D01*
X017022Y008389D01*
X016991Y008429D01*
X016963Y008471D01*
X016939Y008514D01*
X016918Y008560D01*
X016900Y008607D01*
X016887Y008656D01*
X016877Y008705D01*
X016871Y008755D01*
X016869Y008805D01*
X016869Y012805D02*
X016871Y012855D01*
X016877Y012905D01*
X016887Y012954D01*
X016900Y013003D01*
X016918Y013050D01*
X016939Y013096D01*
X016963Y013139D01*
X016991Y013181D01*
X017022Y013221D01*
X017056Y013258D01*
X017093Y013292D01*
X017133Y013323D01*
X017175Y013351D01*
X017218Y013375D01*
X017264Y013396D01*
X017311Y013414D01*
X017360Y013427D01*
X017409Y013437D01*
X017459Y013443D01*
X017509Y013445D01*
X017559Y013443D01*
X017609Y013437D01*
X017658Y013427D01*
X017707Y013414D01*
X017754Y013396D01*
X017800Y013375D01*
X017843Y013351D01*
X017885Y013323D01*
X017925Y013292D01*
X017962Y013258D01*
X017996Y013221D01*
X018027Y013181D01*
X018055Y013139D01*
X018079Y013096D01*
X018100Y013050D01*
X018118Y013003D01*
X018131Y012954D01*
X018141Y012905D01*
X018147Y012855D01*
X018149Y012805D01*
X018147Y012755D01*
X018141Y012705D01*
X018131Y012656D01*
X018118Y012607D01*
X018100Y012560D01*
X018079Y012514D01*
X018055Y012471D01*
X018027Y012429D01*
X017996Y012389D01*
X017962Y012352D01*
X017925Y012318D01*
X017885Y012287D01*
X017843Y012259D01*
X017800Y012235D01*
X017754Y012214D01*
X017707Y012196D01*
X017658Y012183D01*
X017609Y012173D01*
X017559Y012167D01*
X017509Y012165D01*
X017459Y012167D01*
X017409Y012173D01*
X017360Y012183D01*
X017311Y012196D01*
X017264Y012214D01*
X017218Y012235D01*
X017175Y012259D01*
X017133Y012287D01*
X017093Y012318D01*
X017056Y012352D01*
X017022Y012389D01*
X016991Y012429D01*
X016963Y012471D01*
X016939Y012514D01*
X016918Y012560D01*
X016900Y012607D01*
X016887Y012656D01*
X016877Y012705D01*
X016871Y012755D01*
X016869Y012805D01*
X016869Y015055D02*
X016871Y015105D01*
X016877Y015155D01*
X016887Y015204D01*
X016900Y015253D01*
X016918Y015300D01*
X016939Y015346D01*
X016963Y015389D01*
X016991Y015431D01*
X017022Y015471D01*
X017056Y015508D01*
X017093Y015542D01*
X017133Y015573D01*
X017175Y015601D01*
X017218Y015625D01*
X017264Y015646D01*
X017311Y015664D01*
X017360Y015677D01*
X017409Y015687D01*
X017459Y015693D01*
X017509Y015695D01*
X017559Y015693D01*
X017609Y015687D01*
X017658Y015677D01*
X017707Y015664D01*
X017754Y015646D01*
X017800Y015625D01*
X017843Y015601D01*
X017885Y015573D01*
X017925Y015542D01*
X017962Y015508D01*
X017996Y015471D01*
X018027Y015431D01*
X018055Y015389D01*
X018079Y015346D01*
X018100Y015300D01*
X018118Y015253D01*
X018131Y015204D01*
X018141Y015155D01*
X018147Y015105D01*
X018149Y015055D01*
X018147Y015005D01*
X018141Y014955D01*
X018131Y014906D01*
X018118Y014857D01*
X018100Y014810D01*
X018079Y014764D01*
X018055Y014721D01*
X018027Y014679D01*
X017996Y014639D01*
X017962Y014602D01*
X017925Y014568D01*
X017885Y014537D01*
X017843Y014509D01*
X017800Y014485D01*
X017754Y014464D01*
X017707Y014446D01*
X017658Y014433D01*
X017609Y014423D01*
X017559Y014417D01*
X017509Y014415D01*
X017459Y014417D01*
X017409Y014423D01*
X017360Y014433D01*
X017311Y014446D01*
X017264Y014464D01*
X017218Y014485D01*
X017175Y014509D01*
X017133Y014537D01*
X017093Y014568D01*
X017056Y014602D01*
X017022Y014639D01*
X016991Y014679D01*
X016963Y014721D01*
X016939Y014764D01*
X016918Y014810D01*
X016900Y014857D01*
X016887Y014906D01*
X016877Y014955D01*
X016871Y015005D01*
X016869Y015055D01*
X016869Y019055D02*
X016871Y019105D01*
X016877Y019155D01*
X016887Y019204D01*
X016900Y019253D01*
X016918Y019300D01*
X016939Y019346D01*
X016963Y019389D01*
X016991Y019431D01*
X017022Y019471D01*
X017056Y019508D01*
X017093Y019542D01*
X017133Y019573D01*
X017175Y019601D01*
X017218Y019625D01*
X017264Y019646D01*
X017311Y019664D01*
X017360Y019677D01*
X017409Y019687D01*
X017459Y019693D01*
X017509Y019695D01*
X017559Y019693D01*
X017609Y019687D01*
X017658Y019677D01*
X017707Y019664D01*
X017754Y019646D01*
X017800Y019625D01*
X017843Y019601D01*
X017885Y019573D01*
X017925Y019542D01*
X017962Y019508D01*
X017996Y019471D01*
X018027Y019431D01*
X018055Y019389D01*
X018079Y019346D01*
X018100Y019300D01*
X018118Y019253D01*
X018131Y019204D01*
X018141Y019155D01*
X018147Y019105D01*
X018149Y019055D01*
X018147Y019005D01*
X018141Y018955D01*
X018131Y018906D01*
X018118Y018857D01*
X018100Y018810D01*
X018079Y018764D01*
X018055Y018721D01*
X018027Y018679D01*
X017996Y018639D01*
X017962Y018602D01*
X017925Y018568D01*
X017885Y018537D01*
X017843Y018509D01*
X017800Y018485D01*
X017754Y018464D01*
X017707Y018446D01*
X017658Y018433D01*
X017609Y018423D01*
X017559Y018417D01*
X017509Y018415D01*
X017459Y018417D01*
X017409Y018423D01*
X017360Y018433D01*
X017311Y018446D01*
X017264Y018464D01*
X017218Y018485D01*
X017175Y018509D01*
X017133Y018537D01*
X017093Y018568D01*
X017056Y018602D01*
X017022Y018639D01*
X016991Y018679D01*
X016963Y018721D01*
X016939Y018764D01*
X016918Y018810D01*
X016900Y018857D01*
X016887Y018906D01*
X016877Y018955D01*
X016871Y019005D01*
X016869Y019055D01*
D11*
X005580Y019130D02*
X005580Y019730D01*
X004680Y019730D02*
X004680Y019130D01*
X004680Y018230D02*
X004680Y017630D01*
X004680Y016730D02*
X004680Y016130D01*
X003780Y016130D02*
X003780Y016730D01*
X003780Y017630D02*
X003780Y018230D01*
X003780Y019130D02*
X003780Y019730D01*
X005580Y018230D02*
X005580Y017630D01*
X005580Y016730D02*
X005580Y016130D01*
X005580Y013980D02*
X005580Y013380D01*
X005580Y012480D02*
X005580Y011880D01*
X005580Y010980D02*
X005580Y010380D01*
X004680Y010380D02*
X004680Y010980D01*
X004680Y011880D02*
X004680Y012480D01*
X004680Y013380D02*
X004680Y013980D01*
X003780Y013980D02*
X003780Y013380D01*
X003780Y012480D02*
X003780Y011880D01*
X003780Y010980D02*
X003780Y010380D01*
X003780Y008480D02*
X003780Y007880D01*
X004680Y007880D02*
X004680Y008480D01*
X005580Y008480D02*
X005580Y007880D01*
X005580Y006980D02*
X005580Y006380D01*
X005580Y005480D02*
X005580Y004880D01*
X004680Y004880D02*
X004680Y005480D01*
X004680Y006380D02*
X004680Y006980D01*
X003780Y006980D02*
X003780Y006380D01*
X003780Y005480D02*
X003780Y004880D01*
X008130Y005180D02*
X008730Y005180D01*
X008730Y006080D02*
X008130Y006080D01*
X009630Y006080D02*
X010230Y006080D01*
X010230Y005180D02*
X009630Y005180D01*
X009630Y004280D02*
X010230Y004280D01*
X011130Y004280D02*
X011730Y004280D01*
X011730Y005180D02*
X011130Y005180D01*
X011130Y006080D02*
X011730Y006080D01*
X008730Y004280D02*
X008130Y004280D01*
X015130Y004280D02*
X015730Y004280D01*
X015730Y005180D02*
X015130Y005180D01*
X015130Y006080D02*
X015730Y006080D01*
X016630Y006080D02*
X017230Y006080D01*
X017230Y005180D02*
X016630Y005180D01*
X016630Y004280D02*
X017230Y004280D01*
X018130Y004280D02*
X018730Y004280D01*
X018730Y005180D02*
X018130Y005180D01*
X018130Y006080D02*
X018730Y006080D01*
D12*
X011680Y015495D03*
X011680Y016615D03*
X011680Y018120D03*
X011680Y019240D03*
X008430Y014615D03*
X008430Y013495D03*
D13*
X008781Y012843D03*
X008781Y012587D03*
X008781Y012332D03*
X008781Y012076D03*
X008781Y011820D03*
X008781Y011564D03*
X008781Y011308D03*
X008781Y011052D03*
X008781Y010796D03*
X008781Y010540D03*
X008781Y010284D03*
X008781Y010028D03*
X008781Y009773D03*
X008781Y009517D03*
X011079Y009517D03*
X011079Y009773D03*
X011079Y010028D03*
X011079Y010284D03*
X011079Y010540D03*
X011079Y010796D03*
X011079Y011052D03*
X011079Y011308D03*
X011079Y011564D03*
X011079Y011820D03*
X011079Y012076D03*
X011079Y012332D03*
X011079Y012587D03*
X011079Y012843D03*
D14*
X010990Y013680D03*
X009870Y013680D03*
D15*
X009879Y014555D03*
X010981Y014555D03*
X002606Y015055D03*
X001504Y015055D03*
D16*
X006180Y002430D03*
D17*
X006180Y001430D03*
D18*
X019678Y007730D02*
X019678Y013880D01*
X019678Y013980D02*
X019678Y020130D01*
D19*
X015009Y018305D03*
X015009Y017305D03*
X015009Y016305D03*
X014009Y015805D03*
X014009Y016805D03*
X014009Y017805D03*
X015009Y012055D03*
X015009Y011055D03*
X015009Y010055D03*
X014009Y009555D03*
X014009Y010555D03*
X014009Y011555D03*
D20*
X003399Y002180D03*
X001430Y002180D03*
D21*
X009430Y015930D03*
X009430Y016930D03*
X009430Y017930D03*
X009430Y018930D03*
X010430Y018930D03*
X010430Y017930D03*
X010430Y016930D03*
X010430Y015930D03*
D22*
X001977Y016430D02*
X001383Y016430D01*
X001383Y017430D02*
X001977Y017430D01*
X001977Y018430D02*
X001383Y018430D01*
X001383Y019430D02*
X001977Y019430D01*
X001977Y013680D02*
X001383Y013680D01*
X001383Y012680D02*
X001977Y012680D01*
X001977Y011680D02*
X001383Y011680D01*
X001383Y010680D02*
X001977Y010680D01*
X001977Y008180D02*
X001383Y008180D01*
X001383Y007180D02*
X001977Y007180D01*
X001977Y006180D02*
X001383Y006180D01*
X001383Y005180D02*
X001977Y005180D01*
X008430Y002477D02*
X008430Y001883D01*
X009430Y001883D02*
X009430Y002477D01*
X010430Y002477D02*
X010430Y001883D01*
X011430Y001883D02*
X011430Y002477D01*
X015430Y002477D02*
X015430Y001883D01*
X016430Y001883D02*
X016430Y002477D01*
X017430Y002477D02*
X017430Y001883D01*
X018430Y001883D02*
X018430Y002477D01*
D23*
X018430Y006080D02*
X018430Y006430D01*
X017805Y007055D01*
X013555Y007055D01*
X012680Y007930D01*
X012680Y010305D01*
X011677Y011308D01*
X011079Y011308D01*
X011079Y011052D02*
X011558Y011052D01*
X012430Y010180D01*
X012430Y007805D01*
X013430Y006805D01*
X016555Y006805D01*
X016930Y006430D01*
X016930Y006080D01*
X015430Y006080D02*
X014955Y006555D01*
X013305Y006555D01*
X012180Y007680D01*
X012180Y010055D01*
X011439Y010796D01*
X011079Y010796D01*
X011079Y010540D02*
X010070Y010540D01*
X009930Y010680D01*
X009930Y011430D01*
X010320Y011820D01*
X011079Y011820D01*
X011058Y012055D02*
X011079Y012076D01*
X011058Y012055D02*
X010430Y012055D01*
X009870Y012615D01*
X009870Y013680D01*
X009879Y014555D02*
X009055Y014555D01*
X008995Y014615D01*
X008430Y014615D01*
X007930Y015555D02*
X008305Y015930D01*
X008680Y015930D01*
X009430Y015930D01*
X009430Y016930D02*
X008680Y016930D01*
X008305Y016930D01*
X007680Y016305D01*
X007680Y012805D01*
X008153Y012332D01*
X008781Y012332D01*
X008781Y012076D02*
X008034Y012076D01*
X007430Y012680D01*
X007430Y017055D01*
X008305Y017930D01*
X008680Y017930D01*
X008805Y017930D01*
X008680Y017930D02*
X009430Y017930D01*
X009430Y018930D02*
X008680Y018930D01*
X008305Y018930D01*
X007180Y017805D01*
X007180Y012555D01*
X007915Y011820D01*
X008781Y011820D01*
X008781Y011564D02*
X007796Y011564D01*
X006805Y012555D01*
X006805Y016180D01*
X006430Y016555D01*
X006430Y017555D01*
X006055Y017930D01*
X006055Y018955D01*
X005580Y019430D01*
X007055Y019680D02*
X011240Y019680D01*
X011680Y019240D01*
X011870Y019180D01*
X011305Y019180D01*
X011055Y018930D01*
X011055Y015680D01*
X011240Y015495D01*
X011240Y014814D01*
X010981Y014555D01*
X010990Y014546D01*
X010990Y013680D01*
X010990Y012932D01*
X011079Y012843D01*
X011079Y012587D02*
X013976Y012587D01*
X014101Y012462D01*
X014134Y012495D01*
X014134Y013305D01*
X015509Y014680D01*
X015509Y016930D01*
X015134Y017305D01*
X015009Y017305D01*
X012495Y017305D01*
X011680Y018120D01*
X011990Y018120D01*
X011680Y016615D02*
X011740Y016305D01*
X012555Y016305D01*
X012555Y012930D01*
X013232Y012332D02*
X014009Y011555D01*
X014509Y011055D02*
X014009Y010555D01*
X014509Y011055D02*
X014509Y012055D01*
X014101Y012462D01*
X013232Y012332D02*
X011079Y012332D01*
X009930Y010680D02*
X009790Y010540D01*
X008781Y010540D01*
X008781Y010796D02*
X008772Y010805D01*
X007430Y010805D01*
X006055Y012180D01*
X006055Y013205D01*
X005580Y013680D01*
X006555Y012430D02*
X007677Y011308D01*
X008781Y011308D01*
X008778Y011055D02*
X007555Y011055D01*
X006305Y012305D01*
X006305Y015705D01*
X005580Y016430D01*
X006180Y016430D02*
X006180Y017330D01*
X005580Y017930D01*
X006180Y016430D02*
X006555Y016055D01*
X006555Y012430D01*
X005580Y012180D02*
X007476Y010284D01*
X008781Y010284D01*
X008781Y010028D02*
X006232Y010028D01*
X005580Y010680D01*
X007173Y009773D02*
X005580Y008180D01*
X005580Y006680D02*
X008417Y009517D01*
X008781Y009517D01*
X008781Y009773D02*
X007173Y009773D01*
X008781Y011052D02*
X008778Y011055D01*
X009917Y009517D02*
X005580Y005180D01*
X008430Y006080D02*
X008430Y006930D01*
X010680Y009180D01*
X011305Y009180D01*
X011430Y009305D01*
X011430Y009680D01*
X011337Y009773D01*
X011079Y009773D01*
X011079Y010028D02*
X011457Y010028D01*
X011680Y009805D01*
X011680Y009180D01*
X011430Y008930D01*
X010805Y008930D01*
X009930Y008055D01*
X009930Y006080D01*
X011430Y006080D02*
X011430Y008555D01*
X011930Y009055D01*
X011930Y009930D01*
X011576Y010284D01*
X011079Y010284D01*
X011079Y009517D02*
X009917Y009517D01*
X008781Y012587D02*
X008273Y012587D01*
X007930Y012930D01*
X007930Y015555D01*
X005930Y015055D02*
X003305Y015055D01*
X002606Y015055D01*
X001930Y014430D02*
X001504Y014856D01*
X001504Y015055D01*
X008430Y013495D02*
X008781Y013144D01*
X008781Y012843D01*
X011240Y015495D02*
X011680Y015495D01*
X011740Y016430D02*
X011680Y016615D01*
X012555Y016305D02*
X015009Y016305D01*
D24*
X012555Y012930D03*
X009930Y010680D03*
X009055Y014555D03*
X008680Y015930D03*
X008680Y016930D03*
X008680Y017930D03*
X008680Y018930D03*
X007055Y019680D03*
X005930Y015055D03*
X003305Y015055D03*
X001930Y014430D03*
D25*
X001680Y013680D02*
X003780Y013680D01*
X003780Y012180D02*
X002930Y012180D01*
X002430Y012680D01*
X001680Y012680D01*
X001680Y010680D02*
X003780Y010680D01*
X003780Y008180D02*
X001680Y008180D01*
X001680Y007180D02*
X002430Y007180D01*
X002930Y006680D01*
X003780Y006680D01*
X003780Y005180D02*
X001680Y005180D01*
X008430Y004280D02*
X008430Y002180D01*
X009430Y002180D02*
X009430Y002930D01*
X009930Y003430D01*
X009930Y004280D01*
X011430Y004280D02*
X011430Y002180D01*
X015430Y002180D02*
X015430Y004280D01*
X016430Y002930D02*
X016930Y003430D01*
X016930Y004280D01*
X016430Y002930D02*
X016430Y002180D01*
X018430Y002180D02*
X018430Y004280D01*
X003780Y016430D02*
X001680Y016430D01*
X002930Y017930D02*
X003780Y017930D01*
X002930Y017930D02*
X002430Y018430D01*
X001680Y018430D01*
X001680Y019430D02*
X003780Y019430D01*
M02*
