G75*
G70*
%OFA0B0*%
%FSLAX24Y24*%
%IPPOS*%
%LPD*%
%AMOC8*
5,1,8,0,0,1.08239X$1,22.5*
%
%ADD10C,0.0000*%
%ADD11C,0.0600*%
%ADD12OC8,0.0630*%
%ADD13C,0.0630*%
%ADD14R,0.0630X0.0710*%
%ADD15C,0.0004*%
%ADD16C,0.0554*%
%ADD17C,0.1000*%
%ADD18OC8,0.0600*%
%ADD19C,0.0594*%
%ADD20C,0.0500*%
%ADD21C,0.0120*%
%ADD22C,0.0356*%
%ADD23C,0.0160*%
D10*
X000180Y000680D02*
X000180Y020176D01*
X019675Y020176D01*
X019675Y000680D01*
X000180Y000680D01*
X016869Y008805D02*
X016871Y008855D01*
X016877Y008905D01*
X016887Y008954D01*
X016900Y009003D01*
X016918Y009050D01*
X016939Y009096D01*
X016963Y009139D01*
X016991Y009181D01*
X017022Y009221D01*
X017056Y009258D01*
X017093Y009292D01*
X017133Y009323D01*
X017175Y009351D01*
X017218Y009375D01*
X017264Y009396D01*
X017311Y009414D01*
X017360Y009427D01*
X017409Y009437D01*
X017459Y009443D01*
X017509Y009445D01*
X017559Y009443D01*
X017609Y009437D01*
X017658Y009427D01*
X017707Y009414D01*
X017754Y009396D01*
X017800Y009375D01*
X017843Y009351D01*
X017885Y009323D01*
X017925Y009292D01*
X017962Y009258D01*
X017996Y009221D01*
X018027Y009181D01*
X018055Y009139D01*
X018079Y009096D01*
X018100Y009050D01*
X018118Y009003D01*
X018131Y008954D01*
X018141Y008905D01*
X018147Y008855D01*
X018149Y008805D01*
X018147Y008755D01*
X018141Y008705D01*
X018131Y008656D01*
X018118Y008607D01*
X018100Y008560D01*
X018079Y008514D01*
X018055Y008471D01*
X018027Y008429D01*
X017996Y008389D01*
X017962Y008352D01*
X017925Y008318D01*
X017885Y008287D01*
X017843Y008259D01*
X017800Y008235D01*
X017754Y008214D01*
X017707Y008196D01*
X017658Y008183D01*
X017609Y008173D01*
X017559Y008167D01*
X017509Y008165D01*
X017459Y008167D01*
X017409Y008173D01*
X017360Y008183D01*
X017311Y008196D01*
X017264Y008214D01*
X017218Y008235D01*
X017175Y008259D01*
X017133Y008287D01*
X017093Y008318D01*
X017056Y008352D01*
X017022Y008389D01*
X016991Y008429D01*
X016963Y008471D01*
X016939Y008514D01*
X016918Y008560D01*
X016900Y008607D01*
X016887Y008656D01*
X016877Y008705D01*
X016871Y008755D01*
X016869Y008805D01*
X016869Y012805D02*
X016871Y012855D01*
X016877Y012905D01*
X016887Y012954D01*
X016900Y013003D01*
X016918Y013050D01*
X016939Y013096D01*
X016963Y013139D01*
X016991Y013181D01*
X017022Y013221D01*
X017056Y013258D01*
X017093Y013292D01*
X017133Y013323D01*
X017175Y013351D01*
X017218Y013375D01*
X017264Y013396D01*
X017311Y013414D01*
X017360Y013427D01*
X017409Y013437D01*
X017459Y013443D01*
X017509Y013445D01*
X017559Y013443D01*
X017609Y013437D01*
X017658Y013427D01*
X017707Y013414D01*
X017754Y013396D01*
X017800Y013375D01*
X017843Y013351D01*
X017885Y013323D01*
X017925Y013292D01*
X017962Y013258D01*
X017996Y013221D01*
X018027Y013181D01*
X018055Y013139D01*
X018079Y013096D01*
X018100Y013050D01*
X018118Y013003D01*
X018131Y012954D01*
X018141Y012905D01*
X018147Y012855D01*
X018149Y012805D01*
X018147Y012755D01*
X018141Y012705D01*
X018131Y012656D01*
X018118Y012607D01*
X018100Y012560D01*
X018079Y012514D01*
X018055Y012471D01*
X018027Y012429D01*
X017996Y012389D01*
X017962Y012352D01*
X017925Y012318D01*
X017885Y012287D01*
X017843Y012259D01*
X017800Y012235D01*
X017754Y012214D01*
X017707Y012196D01*
X017658Y012183D01*
X017609Y012173D01*
X017559Y012167D01*
X017509Y012165D01*
X017459Y012167D01*
X017409Y012173D01*
X017360Y012183D01*
X017311Y012196D01*
X017264Y012214D01*
X017218Y012235D01*
X017175Y012259D01*
X017133Y012287D01*
X017093Y012318D01*
X017056Y012352D01*
X017022Y012389D01*
X016991Y012429D01*
X016963Y012471D01*
X016939Y012514D01*
X016918Y012560D01*
X016900Y012607D01*
X016887Y012656D01*
X016877Y012705D01*
X016871Y012755D01*
X016869Y012805D01*
X016869Y015055D02*
X016871Y015105D01*
X016877Y015155D01*
X016887Y015204D01*
X016900Y015253D01*
X016918Y015300D01*
X016939Y015346D01*
X016963Y015389D01*
X016991Y015431D01*
X017022Y015471D01*
X017056Y015508D01*
X017093Y015542D01*
X017133Y015573D01*
X017175Y015601D01*
X017218Y015625D01*
X017264Y015646D01*
X017311Y015664D01*
X017360Y015677D01*
X017409Y015687D01*
X017459Y015693D01*
X017509Y015695D01*
X017559Y015693D01*
X017609Y015687D01*
X017658Y015677D01*
X017707Y015664D01*
X017754Y015646D01*
X017800Y015625D01*
X017843Y015601D01*
X017885Y015573D01*
X017925Y015542D01*
X017962Y015508D01*
X017996Y015471D01*
X018027Y015431D01*
X018055Y015389D01*
X018079Y015346D01*
X018100Y015300D01*
X018118Y015253D01*
X018131Y015204D01*
X018141Y015155D01*
X018147Y015105D01*
X018149Y015055D01*
X018147Y015005D01*
X018141Y014955D01*
X018131Y014906D01*
X018118Y014857D01*
X018100Y014810D01*
X018079Y014764D01*
X018055Y014721D01*
X018027Y014679D01*
X017996Y014639D01*
X017962Y014602D01*
X017925Y014568D01*
X017885Y014537D01*
X017843Y014509D01*
X017800Y014485D01*
X017754Y014464D01*
X017707Y014446D01*
X017658Y014433D01*
X017609Y014423D01*
X017559Y014417D01*
X017509Y014415D01*
X017459Y014417D01*
X017409Y014423D01*
X017360Y014433D01*
X017311Y014446D01*
X017264Y014464D01*
X017218Y014485D01*
X017175Y014509D01*
X017133Y014537D01*
X017093Y014568D01*
X017056Y014602D01*
X017022Y014639D01*
X016991Y014679D01*
X016963Y014721D01*
X016939Y014764D01*
X016918Y014810D01*
X016900Y014857D01*
X016887Y014906D01*
X016877Y014955D01*
X016871Y015005D01*
X016869Y015055D01*
X016869Y019055D02*
X016871Y019105D01*
X016877Y019155D01*
X016887Y019204D01*
X016900Y019253D01*
X016918Y019300D01*
X016939Y019346D01*
X016963Y019389D01*
X016991Y019431D01*
X017022Y019471D01*
X017056Y019508D01*
X017093Y019542D01*
X017133Y019573D01*
X017175Y019601D01*
X017218Y019625D01*
X017264Y019646D01*
X017311Y019664D01*
X017360Y019677D01*
X017409Y019687D01*
X017459Y019693D01*
X017509Y019695D01*
X017559Y019693D01*
X017609Y019687D01*
X017658Y019677D01*
X017707Y019664D01*
X017754Y019646D01*
X017800Y019625D01*
X017843Y019601D01*
X017885Y019573D01*
X017925Y019542D01*
X017962Y019508D01*
X017996Y019471D01*
X018027Y019431D01*
X018055Y019389D01*
X018079Y019346D01*
X018100Y019300D01*
X018118Y019253D01*
X018131Y019204D01*
X018141Y019155D01*
X018147Y019105D01*
X018149Y019055D01*
X018147Y019005D01*
X018141Y018955D01*
X018131Y018906D01*
X018118Y018857D01*
X018100Y018810D01*
X018079Y018764D01*
X018055Y018721D01*
X018027Y018679D01*
X017996Y018639D01*
X017962Y018602D01*
X017925Y018568D01*
X017885Y018537D01*
X017843Y018509D01*
X017800Y018485D01*
X017754Y018464D01*
X017707Y018446D01*
X017658Y018433D01*
X017609Y018423D01*
X017559Y018417D01*
X017509Y018415D01*
X017459Y018417D01*
X017409Y018423D01*
X017360Y018433D01*
X017311Y018446D01*
X017264Y018464D01*
X017218Y018485D01*
X017175Y018509D01*
X017133Y018537D01*
X017093Y018568D01*
X017056Y018602D01*
X017022Y018639D01*
X016991Y018679D01*
X016963Y018721D01*
X016939Y018764D01*
X016918Y018810D01*
X016900Y018857D01*
X016887Y018906D01*
X016877Y018955D01*
X016871Y019005D01*
X016869Y019055D01*
D11*
X005580Y019130D02*
X005580Y019730D01*
X004680Y019730D02*
X004680Y019130D01*
X004680Y018230D02*
X004680Y017630D01*
X004680Y016730D02*
X004680Y016130D01*
X003780Y016130D02*
X003780Y016730D01*
X003780Y017630D02*
X003780Y018230D01*
X003780Y019130D02*
X003780Y019730D01*
X005580Y018230D02*
X005580Y017630D01*
X005580Y016730D02*
X005580Y016130D01*
X005580Y013980D02*
X005580Y013380D01*
X005580Y012480D02*
X005580Y011880D01*
X005580Y010980D02*
X005580Y010380D01*
X004680Y010380D02*
X004680Y010980D01*
X004680Y011880D02*
X004680Y012480D01*
X004680Y013380D02*
X004680Y013980D01*
X003780Y013980D02*
X003780Y013380D01*
X003780Y012480D02*
X003780Y011880D01*
X003780Y010980D02*
X003780Y010380D01*
X003780Y008480D02*
X003780Y007880D01*
X004680Y007880D02*
X004680Y008480D01*
X005580Y008480D02*
X005580Y007880D01*
X005580Y006980D02*
X005580Y006380D01*
X005580Y005480D02*
X005580Y004880D01*
X004680Y004880D02*
X004680Y005480D01*
X004680Y006380D02*
X004680Y006980D01*
X003780Y006980D02*
X003780Y006380D01*
X003780Y005480D02*
X003780Y004880D01*
X008130Y005180D02*
X008730Y005180D01*
X008730Y006080D02*
X008130Y006080D01*
X009630Y006080D02*
X010230Y006080D01*
X010230Y005180D02*
X009630Y005180D01*
X009630Y004280D02*
X010230Y004280D01*
X011130Y004280D02*
X011730Y004280D01*
X011730Y005180D02*
X011130Y005180D01*
X011130Y006080D02*
X011730Y006080D01*
X008730Y004280D02*
X008130Y004280D01*
X015130Y004280D02*
X015730Y004280D01*
X015730Y005180D02*
X015130Y005180D01*
X015130Y006080D02*
X015730Y006080D01*
X016630Y006080D02*
X017230Y006080D01*
X017230Y005180D02*
X016630Y005180D01*
X016630Y004280D02*
X017230Y004280D01*
X018130Y004280D02*
X018730Y004280D01*
X018730Y005180D02*
X018130Y005180D01*
X018130Y006080D02*
X018730Y006080D01*
D12*
X006180Y002430D03*
D13*
X006180Y001430D03*
D14*
X006870Y015930D03*
X006870Y016930D03*
X006870Y017930D03*
X006870Y018930D03*
X007990Y018930D03*
X007990Y017930D03*
X007990Y016930D03*
X007990Y015930D03*
D15*
X019678Y013980D02*
X019678Y020130D01*
X019678Y013880D02*
X019678Y007730D01*
D16*
X015009Y010055D03*
X015009Y011055D03*
X015009Y012055D03*
X014009Y011555D03*
X014009Y010555D03*
X014009Y009555D03*
X014009Y015805D03*
X014009Y016805D03*
X014009Y017805D03*
X015009Y017305D03*
X015009Y016305D03*
X015009Y018305D03*
D17*
X003399Y002180D03*
X001430Y002180D03*
D18*
X009430Y015930D03*
X009430Y016930D03*
X009430Y017930D03*
X009430Y018930D03*
X010430Y018930D03*
X010430Y017930D03*
X010430Y016930D03*
X010430Y015930D03*
D19*
X001977Y016430D02*
X001383Y016430D01*
X001383Y017430D02*
X001977Y017430D01*
X001977Y018430D02*
X001383Y018430D01*
X001383Y019430D02*
X001977Y019430D01*
X001977Y013680D02*
X001383Y013680D01*
X001383Y012680D02*
X001977Y012680D01*
X001977Y011680D02*
X001383Y011680D01*
X001383Y010680D02*
X001977Y010680D01*
X001977Y008180D02*
X001383Y008180D01*
X001383Y007180D02*
X001977Y007180D01*
X001977Y006180D02*
X001383Y006180D01*
X001383Y005180D02*
X001977Y005180D01*
X008430Y002477D02*
X008430Y001883D01*
X009430Y001883D02*
X009430Y002477D01*
X010430Y002477D02*
X010430Y001883D01*
X011430Y001883D02*
X011430Y002477D01*
X015430Y002477D02*
X015430Y001883D01*
X016430Y001883D02*
X016430Y002477D01*
X017430Y002477D02*
X017430Y001883D01*
X018430Y001883D02*
X018430Y002477D01*
D20*
X017430Y002180D02*
X017430Y001180D01*
X010430Y001180D01*
X010430Y002180D01*
X010430Y001180D02*
X006180Y001180D01*
X006180Y001430D01*
X006180Y001180D02*
X002430Y001180D01*
X001430Y002180D01*
X001430Y003680D01*
X000680Y004430D01*
X000680Y006180D01*
X001680Y006180D01*
X000680Y006180D02*
X000680Y011680D01*
X001680Y011680D01*
X000680Y011680D02*
X000680Y015055D01*
X000680Y017430D01*
X001680Y017430D01*
D21*
X000680Y015055D02*
X003305Y015055D01*
X002055Y014430D02*
X001930Y014430D01*
X005930Y015055D02*
X006430Y015055D01*
X006870Y015495D01*
X006870Y015930D01*
X006870Y019495D01*
X007055Y019680D01*
X006870Y018930D02*
X006870Y017930D01*
X006870Y016930D01*
X006870Y015930D01*
X007990Y015930D02*
X008680Y015930D01*
X008680Y016930D02*
X007990Y016930D01*
X007990Y017930D02*
X008680Y017930D01*
X008680Y018930D02*
X007990Y018930D01*
X009055Y014555D02*
X009055Y014430D01*
X008930Y014305D01*
X009930Y010805D02*
X009930Y010680D01*
X012555Y012305D02*
X013352Y011508D01*
X013962Y011508D01*
X014009Y011555D01*
X012555Y012305D02*
X012555Y012930D01*
D22*
X012555Y012930D03*
X009930Y010680D03*
X009055Y014555D03*
X008680Y015930D03*
X008680Y016930D03*
X008680Y017930D03*
X008680Y018930D03*
X007055Y019680D03*
X005930Y015055D03*
X003305Y015055D03*
X001930Y014430D03*
D23*
X002064Y014117D02*
X001296Y014117D01*
X001136Y014050D01*
X001070Y013985D01*
X001070Y014855D01*
X003055Y014855D01*
X003125Y014785D01*
X003242Y014737D01*
X003368Y014737D01*
X003485Y014785D01*
X003575Y014875D01*
X003623Y014992D01*
X003623Y015118D01*
X003575Y015235D01*
X003485Y015325D01*
X003368Y015373D01*
X003242Y015373D01*
X003125Y015325D01*
X003055Y015255D01*
X001070Y015255D01*
X001070Y016125D01*
X001136Y016060D01*
X001296Y015993D01*
X002064Y015993D01*
X002224Y016060D01*
X002347Y016183D01*
X002414Y016343D01*
X002414Y016517D01*
X002347Y016677D01*
X002224Y016800D01*
X002064Y016867D01*
X001296Y016867D01*
X001136Y016800D01*
X001070Y016735D01*
X001070Y017040D01*
X001183Y017040D01*
X001296Y016993D01*
X002064Y016993D01*
X002224Y017060D01*
X002347Y017183D01*
X002414Y017343D01*
X002414Y017517D01*
X002347Y017677D01*
X002224Y017800D01*
X002064Y017867D01*
X001296Y017867D01*
X001183Y017820D01*
X000602Y017820D01*
X000459Y017761D01*
X000360Y017662D01*
X000360Y019996D01*
X003424Y019996D01*
X003407Y019979D01*
X003340Y019818D01*
X003340Y019042D01*
X003407Y018881D01*
X003531Y018757D01*
X003692Y018690D01*
X003868Y018690D01*
X004029Y018757D01*
X004153Y018881D01*
X004211Y019021D01*
X004212Y019018D01*
X004235Y018946D01*
X004269Y018878D01*
X004314Y018817D01*
X004367Y018764D01*
X004428Y018719D01*
X004496Y018685D01*
X004512Y018680D01*
X004496Y018675D01*
X004428Y018641D01*
X004367Y018596D01*
X004314Y018543D01*
X004269Y018482D01*
X004235Y018414D01*
X004212Y018342D01*
X004211Y018339D01*
X004153Y018479D01*
X004029Y018603D01*
X003868Y018670D01*
X003692Y018670D01*
X003531Y018603D01*
X003407Y018479D01*
X003340Y018318D01*
X003340Y017542D01*
X003407Y017381D01*
X003531Y017257D01*
X003692Y017190D01*
X003868Y017190D01*
X004029Y017257D01*
X004153Y017381D01*
X004211Y017521D01*
X004212Y017518D01*
X004235Y017446D01*
X004269Y017378D01*
X004314Y017317D01*
X004367Y017264D01*
X004428Y017219D01*
X004496Y017185D01*
X004512Y017180D01*
X004496Y017175D01*
X004428Y017141D01*
X004367Y017096D01*
X004314Y017043D01*
X004269Y016982D01*
X004235Y016914D01*
X004212Y016842D01*
X004211Y016839D01*
X004153Y016979D01*
X004029Y017103D01*
X003868Y017170D01*
X003692Y017170D01*
X003531Y017103D01*
X003407Y016979D01*
X003340Y016818D01*
X003340Y016042D01*
X003407Y015881D01*
X003531Y015757D01*
X003692Y015690D01*
X003868Y015690D01*
X004029Y015757D01*
X004153Y015881D01*
X004211Y016021D01*
X004212Y016018D01*
X004235Y015946D01*
X004269Y015878D01*
X004314Y015817D01*
X004367Y015764D01*
X004428Y015719D01*
X004496Y015685D01*
X004568Y015662D01*
X004642Y015650D01*
X004660Y015650D01*
X004660Y016410D01*
X004700Y016410D01*
X004700Y015650D01*
X004718Y015650D01*
X004792Y015662D01*
X004864Y015685D01*
X004932Y015719D01*
X004993Y015764D01*
X005046Y015817D01*
X005091Y015878D01*
X005125Y015946D01*
X005148Y016018D01*
X005149Y016021D01*
X005207Y015881D01*
X005331Y015757D01*
X005492Y015690D01*
X005668Y015690D01*
X005829Y015757D01*
X005953Y015881D01*
X006020Y016042D01*
X006020Y016818D01*
X005953Y016979D01*
X005829Y017103D01*
X005668Y017170D01*
X005492Y017170D01*
X005331Y017103D01*
X005207Y016979D01*
X005149Y016839D01*
X005148Y016842D01*
X005125Y016914D01*
X005091Y016982D01*
X005046Y017043D01*
X004993Y017096D01*
X004932Y017141D01*
X004864Y017175D01*
X004848Y017180D01*
X004864Y017185D01*
X004932Y017219D01*
X004993Y017264D01*
X005046Y017317D01*
X005091Y017378D01*
X005125Y017446D01*
X005148Y017518D01*
X005149Y017521D01*
X005207Y017381D01*
X005331Y017257D01*
X005492Y017190D01*
X005668Y017190D01*
X005829Y017257D01*
X005953Y017381D01*
X006020Y017542D01*
X006020Y018318D01*
X005953Y018479D01*
X005829Y018603D01*
X005668Y018670D01*
X005492Y018670D01*
X005331Y018603D01*
X005207Y018479D01*
X005149Y018339D01*
X005148Y018342D01*
X005125Y018414D01*
X005091Y018482D01*
X005046Y018543D01*
X004993Y018596D01*
X004932Y018641D01*
X004864Y018675D01*
X004848Y018680D01*
X004864Y018685D01*
X004932Y018719D01*
X004993Y018764D01*
X005046Y018817D01*
X005091Y018878D01*
X005125Y018946D01*
X005148Y019018D01*
X005149Y019021D01*
X005207Y018881D01*
X005331Y018757D01*
X005492Y018690D01*
X005668Y018690D01*
X005829Y018757D01*
X005953Y018881D01*
X006020Y019042D01*
X006020Y019818D01*
X005953Y019979D01*
X005936Y019996D01*
X006987Y019996D01*
X006875Y019950D01*
X006785Y019860D01*
X006737Y019743D01*
X006737Y019645D01*
X006670Y019578D01*
X006670Y019425D01*
X006497Y019425D01*
X006415Y019343D01*
X006415Y018517D01*
X006497Y018435D01*
X006670Y018435D01*
X006670Y018425D01*
X006497Y018425D01*
X006415Y018343D01*
X006415Y017517D01*
X006497Y017435D01*
X006670Y017435D01*
X006670Y017425D01*
X006497Y017425D01*
X006415Y017343D01*
X006415Y016517D01*
X006497Y016435D01*
X006670Y016435D01*
X006670Y016425D01*
X006497Y016425D01*
X006415Y016343D01*
X006415Y015517D01*
X006497Y015435D01*
X006527Y015435D01*
X006347Y015255D01*
X006180Y015255D01*
X006110Y015325D01*
X005993Y015373D01*
X005867Y015373D01*
X005750Y015325D01*
X005660Y015235D01*
X005612Y015118D01*
X005612Y014992D01*
X005660Y014875D01*
X005750Y014785D01*
X005867Y014737D01*
X005993Y014737D01*
X006110Y014785D01*
X006180Y014855D01*
X006513Y014855D01*
X007070Y015412D01*
X007070Y015435D01*
X007243Y015435D01*
X007325Y015517D01*
X007325Y016343D01*
X007243Y016425D01*
X007070Y016425D01*
X007070Y016435D01*
X007243Y016435D01*
X007325Y016517D01*
X007325Y017343D01*
X007243Y017425D01*
X007070Y017425D01*
X007070Y017435D01*
X007243Y017435D01*
X007325Y017517D01*
X007325Y018343D01*
X007243Y018425D01*
X007070Y018425D01*
X007070Y018435D01*
X007243Y018435D01*
X007325Y018517D01*
X007325Y019343D01*
X007246Y019422D01*
X007325Y019500D01*
X007373Y019617D01*
X007373Y019743D01*
X007325Y019860D01*
X007235Y019950D01*
X007123Y019996D01*
X019495Y019996D01*
X019495Y000860D01*
X017662Y000860D01*
X017761Y000959D01*
X017820Y001102D01*
X017820Y001683D01*
X017867Y001796D01*
X017867Y002564D01*
X017800Y002724D01*
X017677Y002847D01*
X017517Y002914D01*
X017343Y002914D01*
X017183Y002847D01*
X017060Y002724D01*
X016993Y002564D01*
X016993Y001796D01*
X017040Y001683D01*
X017040Y001570D01*
X016735Y001570D01*
X016800Y001636D01*
X016867Y001796D01*
X016867Y002564D01*
X016800Y002724D01*
X016677Y002847D01*
X016517Y002914D01*
X016343Y002914D01*
X016183Y002847D01*
X016060Y002724D01*
X015993Y002564D01*
X015993Y001796D01*
X016060Y001636D01*
X016125Y001570D01*
X015735Y001570D01*
X015800Y001636D01*
X015867Y001796D01*
X015867Y002564D01*
X015800Y002724D01*
X015677Y002847D01*
X015517Y002914D01*
X015343Y002914D01*
X015183Y002847D01*
X015060Y002724D01*
X014993Y002564D01*
X014993Y001796D01*
X015060Y001636D01*
X015125Y001570D01*
X011735Y001570D01*
X011800Y001636D01*
X011867Y001796D01*
X011867Y002564D01*
X011800Y002724D01*
X011677Y002847D01*
X011517Y002914D01*
X011343Y002914D01*
X011183Y002847D01*
X011060Y002724D01*
X010993Y002564D01*
X010993Y001796D01*
X011060Y001636D01*
X011125Y001570D01*
X010820Y001570D01*
X010820Y001683D01*
X010867Y001796D01*
X010867Y002564D01*
X010800Y002724D01*
X010677Y002847D01*
X010517Y002914D01*
X010343Y002914D01*
X010183Y002847D01*
X010060Y002724D01*
X009993Y002564D01*
X009993Y001796D01*
X010040Y001683D01*
X010040Y001570D01*
X009735Y001570D01*
X009800Y001636D01*
X009867Y001796D01*
X009867Y002564D01*
X009800Y002724D01*
X009677Y002847D01*
X009517Y002914D01*
X009343Y002914D01*
X009183Y002847D01*
X009060Y002724D01*
X008993Y002564D01*
X008993Y001796D01*
X009060Y001636D01*
X009125Y001570D01*
X008735Y001570D01*
X008800Y001636D01*
X008867Y001796D01*
X008867Y002564D01*
X008800Y002724D01*
X008677Y002847D01*
X008517Y002914D01*
X008343Y002914D01*
X008183Y002847D01*
X008060Y002724D01*
X007993Y002564D01*
X007993Y001796D01*
X008060Y001636D01*
X008125Y001570D01*
X006614Y001570D01*
X006566Y001688D01*
X006438Y001816D01*
X006271Y001885D01*
X006089Y001885D01*
X005922Y001816D01*
X005794Y001688D01*
X005746Y001570D01*
X003702Y001570D01*
X003777Y001613D01*
X003848Y001668D01*
X003911Y001731D01*
X003965Y001801D01*
X004010Y001879D01*
X004044Y001961D01*
X004067Y002047D01*
X004079Y002135D01*
X004079Y002162D01*
X003417Y002162D01*
X003417Y002198D01*
X004079Y002198D01*
X004079Y002225D01*
X004067Y002313D01*
X004044Y002399D01*
X004010Y002481D01*
X003965Y002559D01*
X003911Y002629D01*
X003848Y002692D01*
X003777Y002747D01*
X003700Y002791D01*
X003618Y002825D01*
X003531Y002848D01*
X003443Y002860D01*
X003417Y002860D01*
X003417Y002198D01*
X003380Y002198D01*
X003380Y002162D01*
X002719Y002162D01*
X002719Y002135D01*
X002730Y002047D01*
X002753Y001961D01*
X002787Y001879D01*
X002832Y001801D01*
X002886Y001731D01*
X002949Y001668D01*
X003020Y001613D01*
X003095Y001570D01*
X002592Y001570D01*
X002070Y002092D01*
X002070Y002307D01*
X001973Y002543D01*
X001820Y002695D01*
X001820Y003758D01*
X001761Y003901D01*
X001070Y004592D01*
X001070Y004875D01*
X001136Y004810D01*
X001296Y004743D01*
X002064Y004743D01*
X002224Y004810D01*
X002347Y004933D01*
X002414Y005093D01*
X002414Y005267D01*
X002347Y005427D01*
X002224Y005550D01*
X002064Y005617D01*
X001296Y005617D01*
X001136Y005550D01*
X001070Y005485D01*
X001070Y005790D01*
X001183Y005790D01*
X001296Y005743D01*
X002064Y005743D01*
X002224Y005810D01*
X002347Y005933D01*
X002414Y006093D01*
X002414Y006267D01*
X002347Y006427D01*
X002224Y006550D01*
X002064Y006617D01*
X001296Y006617D01*
X001183Y006570D01*
X001070Y006570D01*
X001070Y006875D01*
X001136Y006810D01*
X001296Y006743D01*
X002064Y006743D01*
X002224Y006810D01*
X002347Y006933D01*
X002414Y007093D01*
X002414Y007267D01*
X002347Y007427D01*
X002224Y007550D01*
X002064Y007617D01*
X001296Y007617D01*
X001136Y007550D01*
X001070Y007485D01*
X001070Y007875D01*
X001136Y007810D01*
X001296Y007743D01*
X002064Y007743D01*
X002224Y007810D01*
X002347Y007933D01*
X002414Y008093D01*
X002414Y008267D01*
X002347Y008427D01*
X002224Y008550D01*
X002064Y008617D01*
X001296Y008617D01*
X001136Y008550D01*
X001070Y008485D01*
X001070Y010375D01*
X001136Y010310D01*
X001296Y010243D01*
X002064Y010243D01*
X002224Y010310D01*
X002347Y010433D01*
X002414Y010593D01*
X002414Y010767D01*
X002347Y010927D01*
X002224Y011050D01*
X002064Y011117D01*
X001296Y011117D01*
X001136Y011050D01*
X001070Y010985D01*
X001070Y011290D01*
X001183Y011290D01*
X001296Y011243D01*
X002064Y011243D01*
X002224Y011310D01*
X002347Y011433D01*
X002414Y011593D01*
X002414Y011767D01*
X002347Y011927D01*
X002224Y012050D01*
X002064Y012117D01*
X001296Y012117D01*
X001183Y012070D01*
X001070Y012070D01*
X001070Y012375D01*
X001136Y012310D01*
X001296Y012243D01*
X002064Y012243D01*
X002224Y012310D01*
X002347Y012433D01*
X002414Y012593D01*
X002414Y012767D01*
X002347Y012927D01*
X002224Y013050D01*
X002064Y013117D01*
X001296Y013117D01*
X001136Y013050D01*
X001070Y012985D01*
X001070Y013375D01*
X001136Y013310D01*
X001296Y013243D01*
X002064Y013243D01*
X002224Y013310D01*
X002347Y013433D01*
X002414Y013593D01*
X002414Y013767D01*
X002347Y013927D01*
X002224Y014050D01*
X002064Y014117D01*
X002281Y013994D02*
X003340Y013994D01*
X003340Y014068D02*
X003340Y013292D01*
X003407Y013131D01*
X003531Y013007D01*
X003692Y012940D01*
X003868Y012940D01*
X004029Y013007D01*
X004153Y013131D01*
X004211Y013271D01*
X004212Y013268D01*
X004235Y013196D01*
X004269Y013128D01*
X004314Y013067D01*
X004367Y013014D01*
X004428Y012969D01*
X004496Y012935D01*
X004512Y012930D01*
X004496Y012925D01*
X004428Y012891D01*
X004367Y012846D01*
X004314Y012793D01*
X004269Y012732D01*
X004235Y012664D01*
X004212Y012592D01*
X004211Y012589D01*
X004153Y012729D01*
X004029Y012853D01*
X003868Y012920D01*
X003692Y012920D01*
X003531Y012853D01*
X003407Y012729D01*
X003340Y012568D01*
X003340Y011792D01*
X003407Y011631D01*
X003531Y011507D01*
X003692Y011440D01*
X003868Y011440D01*
X004029Y011507D01*
X004153Y011631D01*
X004211Y011771D01*
X004212Y011768D01*
X004235Y011696D01*
X004269Y011628D01*
X004314Y011567D01*
X004367Y011514D01*
X004428Y011469D01*
X004496Y011435D01*
X004512Y011430D01*
X004496Y011425D01*
X004428Y011391D01*
X004367Y011346D01*
X004314Y011293D01*
X004269Y011232D01*
X004235Y011164D01*
X004212Y011092D01*
X004211Y011089D01*
X004153Y011229D01*
X004029Y011353D01*
X003868Y011420D01*
X003692Y011420D01*
X003531Y011353D01*
X003407Y011229D01*
X003340Y011068D01*
X003340Y010292D01*
X003407Y010131D01*
X003531Y010007D01*
X003692Y009940D01*
X003868Y009940D01*
X004029Y010007D01*
X004153Y010131D01*
X004211Y010271D01*
X004212Y010268D01*
X004235Y010196D01*
X004269Y010128D01*
X004314Y010067D01*
X004367Y010014D01*
X004428Y009969D01*
X004496Y009935D01*
X004568Y009912D01*
X004642Y009900D01*
X004660Y009900D01*
X004660Y010660D01*
X004700Y010660D01*
X004700Y009900D01*
X004718Y009900D01*
X004792Y009912D01*
X004864Y009935D01*
X004932Y009969D01*
X004993Y010014D01*
X005046Y010067D01*
X005091Y010128D01*
X005125Y010196D01*
X005148Y010268D01*
X005149Y010271D01*
X005207Y010131D01*
X005331Y010007D01*
X005492Y009940D01*
X005668Y009940D01*
X005829Y010007D01*
X005953Y010131D01*
X006020Y010292D01*
X006020Y011068D01*
X005953Y011229D01*
X005829Y011353D01*
X005668Y011420D01*
X005492Y011420D01*
X005331Y011353D01*
X005207Y011229D01*
X005149Y011089D01*
X005148Y011092D01*
X005125Y011164D01*
X005091Y011232D01*
X005046Y011293D01*
X004993Y011346D01*
X004932Y011391D01*
X004864Y011425D01*
X004848Y011430D01*
X004864Y011435D01*
X004932Y011469D01*
X004993Y011514D01*
X005046Y011567D01*
X005091Y011628D01*
X005125Y011696D01*
X005148Y011768D01*
X005149Y011771D01*
X005207Y011631D01*
X005331Y011507D01*
X005492Y011440D01*
X005668Y011440D01*
X005829Y011507D01*
X005953Y011631D01*
X006020Y011792D01*
X006020Y012568D01*
X005953Y012729D01*
X005829Y012853D01*
X005668Y012920D01*
X005492Y012920D01*
X005331Y012853D01*
X005207Y012729D01*
X005149Y012589D01*
X005148Y012592D01*
X005125Y012664D01*
X005091Y012732D01*
X005046Y012793D01*
X004993Y012846D01*
X004932Y012891D01*
X004864Y012925D01*
X004848Y012930D01*
X004864Y012935D01*
X004932Y012969D01*
X004993Y013014D01*
X005046Y013067D01*
X005091Y013128D01*
X005125Y013196D01*
X005148Y013268D01*
X005149Y013271D01*
X005207Y013131D01*
X005331Y013007D01*
X005492Y012940D01*
X005668Y012940D01*
X005829Y013007D01*
X005953Y013131D01*
X006020Y013292D01*
X006020Y014068D01*
X005953Y014229D01*
X005829Y014353D01*
X005668Y014420D01*
X005492Y014420D01*
X005331Y014353D01*
X005207Y014229D01*
X005149Y014089D01*
X005148Y014092D01*
X005125Y014164D01*
X005091Y014232D01*
X005046Y014293D01*
X004993Y014346D01*
X004932Y014391D01*
X004864Y014425D01*
X004792Y014448D01*
X004718Y014460D01*
X004700Y014460D01*
X004700Y013700D01*
X004660Y013700D01*
X004660Y014460D01*
X004642Y014460D01*
X004568Y014448D01*
X004496Y014425D01*
X004428Y014391D01*
X004367Y014346D01*
X004314Y014293D01*
X004269Y014232D01*
X004235Y014164D01*
X004212Y014092D01*
X004211Y014089D01*
X004153Y014229D01*
X004029Y014353D01*
X003868Y014420D01*
X003692Y014420D01*
X003531Y014353D01*
X003407Y014229D01*
X003340Y014068D01*
X003375Y014153D02*
X001070Y014153D01*
X001070Y014311D02*
X003489Y014311D01*
X003486Y014787D02*
X005749Y014787D01*
X005631Y014945D02*
X003604Y014945D01*
X003623Y015104D02*
X005612Y015104D01*
X005687Y015262D02*
X003548Y015262D01*
X003578Y015738D02*
X001070Y015738D01*
X001070Y015896D02*
X003401Y015896D01*
X003340Y016055D02*
X002212Y016055D01*
X002360Y016213D02*
X003340Y016213D01*
X003340Y016372D02*
X002414Y016372D01*
X002408Y016530D02*
X003340Y016530D01*
X003340Y016689D02*
X002336Y016689D01*
X002112Y016847D02*
X003352Y016847D01*
X003433Y017006D02*
X002094Y017006D01*
X002329Y017164D02*
X003678Y017164D01*
X003882Y017164D02*
X004475Y017164D01*
X004660Y017164D02*
X004700Y017164D01*
X004700Y017150D02*
X004700Y017910D01*
X004660Y017910D01*
X004660Y016450D01*
X004700Y016450D01*
X004700Y017150D01*
X004700Y017006D02*
X004660Y017006D01*
X004660Y016847D02*
X004700Y016847D01*
X004700Y016689D02*
X004660Y016689D01*
X004660Y016530D02*
X004700Y016530D01*
X004700Y016372D02*
X004660Y016372D01*
X004660Y016213D02*
X004700Y016213D01*
X004700Y016055D02*
X004660Y016055D01*
X004660Y015896D02*
X004700Y015896D01*
X004700Y015738D02*
X004660Y015738D01*
X004404Y015738D02*
X003982Y015738D01*
X004159Y015896D02*
X004260Y015896D01*
X004956Y015738D02*
X005378Y015738D01*
X005201Y015896D02*
X005099Y015896D01*
X005782Y015738D02*
X006415Y015738D01*
X006415Y015896D02*
X005959Y015896D01*
X006020Y016055D02*
X006415Y016055D01*
X006415Y016213D02*
X006020Y016213D01*
X006020Y016372D02*
X006444Y016372D01*
X006415Y016530D02*
X006020Y016530D01*
X006020Y016689D02*
X006415Y016689D01*
X006415Y016847D02*
X006008Y016847D01*
X005927Y017006D02*
X006415Y017006D01*
X006415Y017164D02*
X005682Y017164D01*
X005478Y017164D02*
X004885Y017164D01*
X005050Y017323D02*
X005265Y017323D01*
X005165Y017481D02*
X005136Y017481D01*
X004700Y017481D02*
X004660Y017481D01*
X004660Y017323D02*
X004700Y017323D01*
X004700Y017640D02*
X004660Y017640D01*
X004660Y017798D02*
X004700Y017798D01*
X004700Y017950D02*
X004700Y018650D01*
X004700Y019410D01*
X004660Y019410D01*
X004660Y017950D01*
X004700Y017950D01*
X004700Y017957D02*
X004660Y017957D01*
X004660Y018115D02*
X004700Y018115D01*
X004700Y018274D02*
X004660Y018274D01*
X004660Y018432D02*
X004700Y018432D01*
X004700Y018591D02*
X004660Y018591D01*
X004660Y018749D02*
X004700Y018749D01*
X004700Y018908D02*
X004660Y018908D01*
X004660Y019066D02*
X004700Y019066D01*
X004700Y019225D02*
X004660Y019225D01*
X004660Y019383D02*
X004700Y019383D01*
X005105Y018908D02*
X005196Y018908D01*
X005350Y018749D02*
X004972Y018749D01*
X004998Y018591D02*
X005318Y018591D01*
X005187Y018432D02*
X005116Y018432D01*
X004362Y018591D02*
X004042Y018591D01*
X004010Y018749D02*
X004388Y018749D01*
X004255Y018908D02*
X004164Y018908D01*
X004173Y018432D02*
X004244Y018432D01*
X003550Y018749D02*
X002276Y018749D01*
X002224Y018800D02*
X002064Y018867D01*
X001296Y018867D01*
X001136Y018800D01*
X001013Y018677D01*
X000946Y018517D01*
X000946Y018343D01*
X001013Y018183D01*
X001136Y018060D01*
X001296Y017993D01*
X002064Y017993D01*
X002224Y018060D01*
X002347Y018183D01*
X002414Y018343D01*
X002414Y018517D01*
X002347Y018677D01*
X002224Y018800D01*
X002064Y018993D02*
X002224Y019060D01*
X002347Y019183D01*
X002414Y019343D01*
X002414Y019517D01*
X002347Y019677D01*
X002224Y019800D01*
X002064Y019867D01*
X001296Y019867D01*
X001136Y019800D01*
X001013Y019677D01*
X000946Y019517D01*
X000946Y019343D01*
X001013Y019183D01*
X001136Y019060D01*
X001296Y018993D01*
X002064Y018993D01*
X002231Y019066D02*
X003340Y019066D01*
X003340Y019225D02*
X002365Y019225D01*
X002414Y019383D02*
X003340Y019383D01*
X003340Y019542D02*
X002403Y019542D01*
X002325Y019700D02*
X003340Y019700D01*
X003357Y019859D02*
X002084Y019859D01*
X001276Y019859D02*
X000360Y019859D01*
X000360Y019700D02*
X001035Y019700D01*
X000957Y019542D02*
X000360Y019542D01*
X000360Y019383D02*
X000946Y019383D01*
X000995Y019225D02*
X000360Y019225D01*
X000360Y019066D02*
X001129Y019066D01*
X001084Y018749D02*
X000360Y018749D01*
X000360Y018591D02*
X000977Y018591D01*
X000946Y018432D02*
X000360Y018432D01*
X000360Y018274D02*
X000975Y018274D01*
X001080Y018115D02*
X000360Y018115D01*
X000360Y017957D02*
X003340Y017957D01*
X003340Y018115D02*
X002280Y018115D01*
X002385Y018274D02*
X003340Y018274D01*
X003387Y018432D02*
X002414Y018432D01*
X002383Y018591D02*
X003518Y018591D01*
X003396Y018908D02*
X000360Y018908D01*
X000360Y017798D02*
X000549Y017798D01*
X001070Y017006D02*
X001266Y017006D01*
X001248Y016847D02*
X001070Y016847D01*
X001070Y016055D02*
X001148Y016055D01*
X001070Y015579D02*
X006415Y015579D01*
X006513Y015421D02*
X001070Y015421D01*
X001070Y015262D02*
X003062Y015262D01*
X003124Y014787D02*
X001070Y014787D01*
X001070Y014628D02*
X016798Y014628D01*
X016814Y014591D02*
X017044Y014360D01*
X017346Y014235D01*
X017672Y014235D01*
X017973Y014360D01*
X018204Y014591D01*
X018329Y014892D01*
X018329Y015218D01*
X018204Y015519D01*
X017973Y015750D01*
X017672Y015875D01*
X017346Y015875D01*
X017044Y015750D01*
X016814Y015519D01*
X016689Y015218D01*
X016689Y014892D01*
X016814Y014591D01*
X016935Y014470D02*
X001070Y014470D01*
X001070Y013994D02*
X001079Y013994D01*
X001070Y013360D02*
X001085Y013360D01*
X001070Y013202D02*
X003378Y013202D01*
X003340Y013360D02*
X002275Y013360D01*
X002383Y013519D02*
X003340Y013519D01*
X003340Y013677D02*
X002414Y013677D01*
X002385Y013836D02*
X003340Y013836D01*
X004071Y014311D02*
X004332Y014311D01*
X004231Y014153D02*
X004185Y014153D01*
X004660Y014153D02*
X004700Y014153D01*
X004700Y014311D02*
X004660Y014311D01*
X004660Y013994D02*
X004700Y013994D01*
X004700Y013836D02*
X004660Y013836D01*
X004660Y013660D02*
X004700Y013660D01*
X004700Y012900D01*
X004700Y012200D01*
X004660Y012200D01*
X004660Y013660D01*
X004660Y013519D02*
X004700Y013519D01*
X004700Y013360D02*
X004660Y013360D01*
X004660Y013202D02*
X004700Y013202D01*
X004700Y013043D02*
X004660Y013043D01*
X004660Y012885D02*
X004700Y012885D01*
X004700Y012726D02*
X004660Y012726D01*
X004660Y012568D02*
X004700Y012568D01*
X004700Y012409D02*
X004660Y012409D01*
X004660Y012251D02*
X004700Y012251D01*
X004700Y012160D02*
X004700Y011400D01*
X004700Y010700D01*
X004660Y010700D01*
X004660Y012160D01*
X004700Y012160D01*
X004700Y012092D02*
X004660Y012092D01*
X004660Y011934D02*
X004700Y011934D01*
X004700Y011775D02*
X004660Y011775D01*
X004660Y011617D02*
X004700Y011617D01*
X004700Y011458D02*
X004660Y011458D01*
X004660Y011300D02*
X004700Y011300D01*
X004700Y011141D02*
X004660Y011141D01*
X004660Y010983D02*
X004700Y010983D01*
X004700Y010824D02*
X004660Y010824D01*
X004660Y010507D02*
X004700Y010507D01*
X004700Y010349D02*
X004660Y010349D01*
X004660Y010190D02*
X004700Y010190D01*
X004700Y010032D02*
X004660Y010032D01*
X004350Y010032D02*
X004054Y010032D01*
X004178Y010190D02*
X004238Y010190D01*
X003506Y010032D02*
X001070Y010032D01*
X001070Y010190D02*
X003382Y010190D01*
X003340Y010349D02*
X002263Y010349D01*
X002378Y010507D02*
X003340Y010507D01*
X003340Y010666D02*
X002414Y010666D01*
X002390Y010824D02*
X003340Y010824D01*
X003340Y010983D02*
X002292Y010983D01*
X002200Y011300D02*
X003477Y011300D01*
X003370Y011141D02*
X001070Y011141D01*
X001070Y010349D02*
X001097Y010349D01*
X001070Y009873D02*
X013737Y009873D01*
X013773Y009909D02*
X013655Y009791D01*
X013592Y009638D01*
X013592Y009472D01*
X013655Y009319D01*
X013773Y009201D01*
X013926Y009138D01*
X014092Y009138D01*
X014245Y009201D01*
X014363Y009319D01*
X014426Y009472D01*
X014426Y009638D01*
X014363Y009791D01*
X014245Y009909D01*
X014092Y009972D01*
X013926Y009972D01*
X013773Y009909D01*
X013623Y009715D02*
X001070Y009715D01*
X001070Y009556D02*
X013592Y009556D01*
X013623Y009398D02*
X001070Y009398D01*
X001070Y009239D02*
X013735Y009239D01*
X014283Y009239D02*
X016801Y009239D01*
X016814Y009269D02*
X016689Y008968D01*
X016689Y008642D01*
X016814Y008341D01*
X017044Y008110D01*
X017346Y007985D01*
X017672Y007985D01*
X017973Y008110D01*
X018204Y008341D01*
X018329Y008642D01*
X018329Y008968D01*
X018204Y009269D01*
X017973Y009500D01*
X017672Y009625D01*
X017346Y009625D01*
X017044Y009500D01*
X016814Y009269D01*
X016942Y009398D02*
X014395Y009398D01*
X014426Y009556D02*
X017179Y009556D01*
X016735Y009081D02*
X001070Y009081D01*
X001070Y008922D02*
X004490Y008922D01*
X004496Y008925D02*
X004428Y008891D01*
X004367Y008846D01*
X004314Y008793D01*
X004269Y008732D01*
X004235Y008664D01*
X004212Y008592D01*
X004211Y008589D01*
X004153Y008729D01*
X004029Y008853D01*
X003868Y008920D01*
X003692Y008920D01*
X003531Y008853D01*
X003407Y008729D01*
X003340Y008568D01*
X003340Y007792D01*
X003407Y007631D01*
X003531Y007507D01*
X003692Y007440D01*
X003868Y007440D01*
X004029Y007507D01*
X004153Y007631D01*
X004211Y007771D01*
X004212Y007768D01*
X004235Y007696D01*
X004269Y007628D01*
X004314Y007567D01*
X004367Y007514D01*
X004428Y007469D01*
X004496Y007435D01*
X004512Y007430D01*
X004496Y007425D01*
X004428Y007391D01*
X004367Y007346D01*
X004314Y007293D01*
X004269Y007232D01*
X004235Y007164D01*
X004212Y007092D01*
X004211Y007089D01*
X004153Y007229D01*
X004029Y007353D01*
X003868Y007420D01*
X003692Y007420D01*
X003531Y007353D01*
X003407Y007229D01*
X003340Y007068D01*
X003340Y006292D01*
X003407Y006131D01*
X003531Y006007D01*
X003692Y005940D01*
X003868Y005940D01*
X004029Y006007D01*
X004153Y006131D01*
X004211Y006271D01*
X004212Y006268D01*
X004235Y006196D01*
X004269Y006128D01*
X004314Y006067D01*
X004367Y006014D01*
X004428Y005969D01*
X004496Y005935D01*
X004512Y005930D01*
X004496Y005925D01*
X004428Y005891D01*
X004367Y005846D01*
X004314Y005793D01*
X004269Y005732D01*
X004235Y005664D01*
X004212Y005592D01*
X004211Y005589D01*
X004153Y005729D01*
X004029Y005853D01*
X003868Y005920D01*
X003692Y005920D01*
X003531Y005853D01*
X003407Y005729D01*
X003340Y005568D01*
X003340Y004792D01*
X003407Y004631D01*
X003531Y004507D01*
X003692Y004440D01*
X003868Y004440D01*
X004029Y004507D01*
X004153Y004631D01*
X004211Y004771D01*
X004212Y004768D01*
X004235Y004696D01*
X004269Y004628D01*
X004314Y004567D01*
X004367Y004514D01*
X004428Y004469D01*
X004496Y004435D01*
X004568Y004412D01*
X004642Y004400D01*
X004660Y004400D01*
X004660Y005160D01*
X004700Y005160D01*
X004700Y004400D01*
X004718Y004400D01*
X004792Y004412D01*
X004864Y004435D01*
X004932Y004469D01*
X004993Y004514D01*
X005046Y004567D01*
X005091Y004628D01*
X005125Y004696D01*
X005148Y004768D01*
X005149Y004771D01*
X005207Y004631D01*
X005331Y004507D01*
X005492Y004440D01*
X005668Y004440D01*
X005829Y004507D01*
X005953Y004631D01*
X006020Y004792D01*
X006020Y005568D01*
X005953Y005729D01*
X005829Y005853D01*
X005668Y005920D01*
X005492Y005920D01*
X005331Y005853D01*
X005207Y005729D01*
X005149Y005589D01*
X005148Y005592D01*
X005125Y005664D01*
X005091Y005732D01*
X005046Y005793D01*
X004993Y005846D01*
X004932Y005891D01*
X004864Y005925D01*
X004848Y005930D01*
X004864Y005935D01*
X004932Y005969D01*
X004993Y006014D01*
X005046Y006067D01*
X005091Y006128D01*
X005125Y006196D01*
X005148Y006268D01*
X005149Y006271D01*
X005207Y006131D01*
X005331Y006007D01*
X005492Y005940D01*
X005668Y005940D01*
X005829Y006007D01*
X005953Y006131D01*
X006020Y006292D01*
X006020Y007068D01*
X005953Y007229D01*
X005829Y007353D01*
X005668Y007420D01*
X005492Y007420D01*
X005331Y007353D01*
X005207Y007229D01*
X005149Y007089D01*
X005148Y007092D01*
X005125Y007164D01*
X005091Y007232D01*
X005046Y007293D01*
X004993Y007346D01*
X004932Y007391D01*
X004864Y007425D01*
X004848Y007430D01*
X004864Y007435D01*
X004932Y007469D01*
X004993Y007514D01*
X005046Y007567D01*
X005091Y007628D01*
X005125Y007696D01*
X005148Y007768D01*
X005149Y007771D01*
X005207Y007631D01*
X005331Y007507D01*
X005492Y007440D01*
X005668Y007440D01*
X005829Y007507D01*
X005953Y007631D01*
X006020Y007792D01*
X006020Y008568D01*
X005953Y008729D01*
X005829Y008853D01*
X005668Y008920D01*
X005492Y008920D01*
X005331Y008853D01*
X005207Y008729D01*
X005149Y008589D01*
X005148Y008592D01*
X005125Y008664D01*
X005091Y008732D01*
X005046Y008793D01*
X004993Y008846D01*
X004932Y008891D01*
X004864Y008925D01*
X004792Y008948D01*
X004718Y008960D01*
X004700Y008960D01*
X004700Y008200D01*
X004660Y008200D01*
X004660Y008960D01*
X004642Y008960D01*
X004568Y008948D01*
X004496Y008925D01*
X004660Y008922D02*
X004700Y008922D01*
X004700Y008764D02*
X004660Y008764D01*
X004660Y008605D02*
X004700Y008605D01*
X004700Y008447D02*
X004660Y008447D01*
X004660Y008288D02*
X004700Y008288D01*
X004700Y008160D02*
X004700Y007460D01*
X004700Y006700D01*
X004660Y006700D01*
X004660Y008160D01*
X004700Y008160D01*
X004700Y008130D02*
X004660Y008130D01*
X004660Y007971D02*
X004700Y007971D01*
X004700Y007813D02*
X004660Y007813D01*
X004660Y007654D02*
X004700Y007654D01*
X004700Y007496D02*
X004660Y007496D01*
X004660Y007337D02*
X004700Y007337D01*
X004700Y007179D02*
X004660Y007179D01*
X004660Y007020D02*
X004700Y007020D01*
X004700Y006862D02*
X004660Y006862D01*
X004660Y006703D02*
X004700Y006703D01*
X004700Y006660D02*
X004700Y005900D01*
X004700Y005200D01*
X004660Y005200D01*
X004660Y006660D01*
X004700Y006660D01*
X004700Y006545D02*
X004660Y006545D01*
X004660Y006386D02*
X004700Y006386D01*
X004700Y006228D02*
X004660Y006228D01*
X004660Y006069D02*
X004700Y006069D01*
X004700Y005911D02*
X004660Y005911D01*
X004660Y005752D02*
X004700Y005752D01*
X004700Y005594D02*
X004660Y005594D01*
X004660Y005435D02*
X004700Y005435D01*
X004700Y005277D02*
X004660Y005277D01*
X004660Y005118D02*
X004700Y005118D01*
X004700Y004960D02*
X004660Y004960D01*
X004660Y004801D02*
X004700Y004801D01*
X004700Y004643D02*
X004660Y004643D01*
X004660Y004484D02*
X004700Y004484D01*
X004952Y004484D02*
X005386Y004484D01*
X005202Y004643D02*
X005098Y004643D01*
X005774Y004484D02*
X007738Y004484D01*
X007757Y004529D02*
X007690Y004368D01*
X007690Y004192D01*
X007757Y004031D01*
X007881Y003907D01*
X008042Y003840D01*
X008818Y003840D01*
X008979Y003907D01*
X009103Y004031D01*
X009170Y004192D01*
X009170Y004368D01*
X009103Y004529D01*
X008979Y004653D01*
X008839Y004711D01*
X008842Y004712D01*
X008914Y004735D01*
X008982Y004769D01*
X009043Y004814D01*
X009096Y004867D01*
X009141Y004928D01*
X009175Y004996D01*
X009180Y005012D01*
X009185Y004996D01*
X009219Y004928D01*
X009264Y004867D01*
X009317Y004814D01*
X009378Y004769D01*
X009446Y004735D01*
X009518Y004712D01*
X009521Y004711D01*
X009381Y004653D01*
X009257Y004529D01*
X009190Y004368D01*
X009190Y004192D01*
X009257Y004031D01*
X009381Y003907D01*
X009542Y003840D01*
X010318Y003840D01*
X010479Y003907D01*
X010603Y004031D01*
X010670Y004192D01*
X010670Y004368D01*
X010603Y004529D01*
X010479Y004653D01*
X010339Y004711D01*
X010342Y004712D01*
X010414Y004735D01*
X010482Y004769D01*
X010543Y004814D01*
X010596Y004867D01*
X010641Y004928D01*
X010675Y004996D01*
X010680Y005012D01*
X010685Y004996D01*
X010719Y004928D01*
X010764Y004867D01*
X010817Y004814D01*
X010878Y004769D01*
X010946Y004735D01*
X011018Y004712D01*
X011021Y004711D01*
X010881Y004653D01*
X010757Y004529D01*
X010690Y004368D01*
X010690Y004192D01*
X010757Y004031D01*
X010881Y003907D01*
X011042Y003840D01*
X011818Y003840D01*
X011979Y003907D01*
X012103Y004031D01*
X012170Y004192D01*
X012170Y004368D01*
X012103Y004529D01*
X011979Y004653D01*
X011839Y004711D01*
X011842Y004712D01*
X011914Y004735D01*
X011982Y004769D01*
X012043Y004814D01*
X012096Y004867D01*
X012141Y004928D01*
X012175Y004996D01*
X012198Y005068D01*
X012210Y005142D01*
X012210Y005160D01*
X011450Y005160D01*
X011450Y005200D01*
X012210Y005200D01*
X012210Y005218D01*
X012198Y005292D01*
X012175Y005364D01*
X012141Y005432D01*
X012096Y005493D01*
X012043Y005546D01*
X011982Y005591D01*
X011914Y005625D01*
X011842Y005648D01*
X011839Y005649D01*
X011979Y005707D01*
X012103Y005831D01*
X012170Y005992D01*
X012170Y006168D01*
X012103Y006329D01*
X011979Y006453D01*
X011818Y006520D01*
X011042Y006520D01*
X010881Y006453D01*
X010757Y006329D01*
X010690Y006168D01*
X010690Y005992D01*
X010757Y005831D01*
X010881Y005707D01*
X011021Y005649D01*
X011018Y005648D01*
X010946Y005625D01*
X010878Y005591D01*
X010817Y005546D01*
X010764Y005493D01*
X010719Y005432D01*
X010685Y005364D01*
X010680Y005348D01*
X010675Y005364D01*
X010641Y005432D01*
X010596Y005493D01*
X010543Y005546D01*
X010482Y005591D01*
X010414Y005625D01*
X010342Y005648D01*
X010339Y005649D01*
X010479Y005707D01*
X010603Y005831D01*
X010670Y005992D01*
X010670Y006168D01*
X010603Y006329D01*
X010479Y006453D01*
X010318Y006520D01*
X009542Y006520D01*
X009381Y006453D01*
X009257Y006329D01*
X009190Y006168D01*
X009190Y005992D01*
X009257Y005831D01*
X009381Y005707D01*
X009521Y005649D01*
X009518Y005648D01*
X009446Y005625D01*
X009378Y005591D01*
X009317Y005546D01*
X009264Y005493D01*
X009219Y005432D01*
X009185Y005364D01*
X009180Y005348D01*
X009175Y005364D01*
X009141Y005432D01*
X009096Y005493D01*
X009043Y005546D01*
X008982Y005591D01*
X008914Y005625D01*
X008842Y005648D01*
X008839Y005649D01*
X008979Y005707D01*
X009103Y005831D01*
X009170Y005992D01*
X009170Y006168D01*
X009103Y006329D01*
X008979Y006453D01*
X008818Y006520D01*
X008042Y006520D01*
X007881Y006453D01*
X007757Y006329D01*
X007690Y006168D01*
X007690Y005992D01*
X007757Y005831D01*
X007881Y005707D01*
X008021Y005649D01*
X008018Y005648D01*
X007946Y005625D01*
X007878Y005591D01*
X007817Y005546D01*
X007764Y005493D01*
X007719Y005432D01*
X007685Y005364D01*
X007662Y005292D01*
X007650Y005218D01*
X007650Y005200D01*
X008410Y005200D01*
X008410Y005160D01*
X007650Y005160D01*
X007650Y005142D01*
X007662Y005068D01*
X007685Y004996D01*
X007719Y004928D01*
X007764Y004867D01*
X007817Y004814D01*
X007878Y004769D01*
X007946Y004735D01*
X008018Y004712D01*
X008021Y004711D01*
X007881Y004653D01*
X007757Y004529D01*
X007870Y004643D02*
X005958Y004643D01*
X006020Y004801D02*
X007835Y004801D01*
X007704Y004960D02*
X006020Y004960D01*
X006020Y005118D02*
X007654Y005118D01*
X007659Y005277D02*
X006020Y005277D01*
X006020Y005435D02*
X007722Y005435D01*
X007884Y005594D02*
X006009Y005594D01*
X005930Y005752D02*
X007836Y005752D01*
X007724Y005911D02*
X005690Y005911D01*
X005470Y005911D02*
X004892Y005911D01*
X005047Y006069D02*
X005269Y006069D01*
X005167Y006228D02*
X005135Y006228D01*
X005076Y005752D02*
X005230Y005752D01*
X005151Y005594D02*
X005148Y005594D01*
X004468Y005911D02*
X003890Y005911D01*
X003670Y005911D02*
X002325Y005911D01*
X002404Y006069D02*
X003469Y006069D01*
X003367Y006228D02*
X002414Y006228D01*
X002364Y006386D02*
X003340Y006386D01*
X003340Y006545D02*
X002230Y006545D01*
X002276Y006862D02*
X003340Y006862D01*
X003340Y007020D02*
X002383Y007020D01*
X002414Y007179D02*
X003386Y007179D01*
X003515Y007337D02*
X002385Y007337D01*
X002279Y007496D02*
X003558Y007496D01*
X003397Y007654D02*
X001070Y007654D01*
X001070Y007496D02*
X001081Y007496D01*
X001070Y007813D02*
X001133Y007813D01*
X001070Y008605D02*
X001268Y008605D01*
X001070Y008764D02*
X003441Y008764D01*
X003356Y008605D02*
X002092Y008605D01*
X002328Y008447D02*
X003340Y008447D01*
X003340Y008288D02*
X002405Y008288D01*
X002414Y008130D02*
X003340Y008130D01*
X003340Y007971D02*
X002363Y007971D01*
X002227Y007813D02*
X003340Y007813D01*
X004002Y007496D02*
X004393Y007496D01*
X004358Y007337D02*
X004045Y007337D01*
X004174Y007179D02*
X004242Y007179D01*
X004256Y007654D02*
X004163Y007654D01*
X004967Y007496D02*
X005358Y007496D01*
X005315Y007337D02*
X005002Y007337D01*
X005118Y007179D02*
X005186Y007179D01*
X005197Y007654D02*
X005104Y007654D01*
X005802Y007496D02*
X019495Y007496D01*
X019495Y007654D02*
X005963Y007654D01*
X006020Y007813D02*
X019495Y007813D01*
X019495Y007971D02*
X006020Y007971D01*
X006020Y008130D02*
X017025Y008130D01*
X016866Y008288D02*
X006020Y008288D01*
X006020Y008447D02*
X016770Y008447D01*
X016704Y008605D02*
X006004Y008605D01*
X005919Y008764D02*
X016689Y008764D01*
X016689Y008922D02*
X004870Y008922D01*
X005067Y008764D02*
X005241Y008764D01*
X005156Y008605D02*
X005144Y008605D01*
X004293Y008764D02*
X004119Y008764D01*
X004204Y008605D02*
X004216Y008605D01*
X005010Y010032D02*
X005306Y010032D01*
X005182Y010190D02*
X005122Y010190D01*
X005854Y010032D02*
X014552Y010032D01*
X014552Y010019D02*
X014563Y009948D01*
X014585Y009880D01*
X014618Y009815D01*
X014660Y009757D01*
X014711Y009706D01*
X014769Y009664D01*
X014833Y009631D01*
X014902Y009609D01*
X014973Y009598D01*
X015000Y009598D01*
X015000Y010046D01*
X015017Y010046D01*
X015017Y009598D01*
X015045Y009598D01*
X015116Y009609D01*
X015184Y009631D01*
X015249Y009664D01*
X015307Y009706D01*
X015358Y009757D01*
X015400Y009815D01*
X015433Y009880D01*
X015455Y009948D01*
X015466Y010019D01*
X015466Y010046D01*
X015017Y010046D01*
X015017Y010064D01*
X015000Y010064D01*
X015000Y010512D01*
X014973Y010512D01*
X014902Y010501D01*
X014833Y010479D01*
X014769Y010446D01*
X014711Y010404D01*
X014660Y010353D01*
X014618Y010295D01*
X014585Y010230D01*
X014563Y010162D01*
X014552Y010091D01*
X014552Y010064D01*
X015000Y010064D01*
X015000Y010046D01*
X014552Y010046D01*
X014552Y010019D01*
X014589Y009873D02*
X014281Y009873D01*
X014394Y009715D02*
X014703Y009715D01*
X015000Y009715D02*
X015017Y009715D01*
X015000Y009873D02*
X015017Y009873D01*
X015000Y010032D02*
X015017Y010032D01*
X015017Y010064D02*
X015466Y010064D01*
X015466Y010091D01*
X015455Y010162D01*
X015433Y010230D01*
X015400Y010295D01*
X015358Y010353D01*
X015307Y010404D01*
X015249Y010446D01*
X015184Y010479D01*
X015116Y010501D01*
X015045Y010512D01*
X015017Y010512D01*
X015017Y010064D01*
X015017Y010190D02*
X015000Y010190D01*
X015000Y010349D02*
X015017Y010349D01*
X015000Y010507D02*
X015017Y010507D01*
X015077Y010507D02*
X019495Y010507D01*
X019495Y010349D02*
X015361Y010349D01*
X015446Y010190D02*
X019495Y010190D01*
X019495Y010032D02*
X015466Y010032D01*
X015429Y009873D02*
X019495Y009873D01*
X019495Y009715D02*
X015315Y009715D01*
X014940Y010507D02*
X014426Y010507D01*
X014426Y010472D02*
X014363Y010319D01*
X014245Y010201D01*
X014092Y010138D01*
X013926Y010138D01*
X013773Y010201D01*
X013655Y010319D01*
X013592Y010472D01*
X013592Y010638D01*
X013655Y010791D01*
X013773Y010909D01*
X013926Y010972D01*
X014092Y010972D01*
X014245Y010909D01*
X014363Y010791D01*
X014426Y010638D01*
X014426Y010472D01*
X014375Y010349D02*
X014657Y010349D01*
X014572Y010190D02*
X014218Y010190D01*
X013800Y010190D02*
X005978Y010190D01*
X006020Y010349D02*
X013643Y010349D01*
X013592Y010507D02*
X006020Y010507D01*
X006020Y010666D02*
X013603Y010666D01*
X013688Y010824D02*
X006020Y010824D01*
X006020Y010983D02*
X014558Y010983D01*
X014563Y010948D02*
X014585Y010880D01*
X014618Y010815D01*
X014660Y010757D01*
X014711Y010706D01*
X014769Y010664D01*
X014833Y010631D01*
X014902Y010609D01*
X014973Y010598D01*
X015000Y010598D01*
X015000Y011046D01*
X015017Y011046D01*
X015017Y010598D01*
X015045Y010598D01*
X015116Y010609D01*
X015184Y010631D01*
X015249Y010664D01*
X015307Y010706D01*
X015358Y010757D01*
X015400Y010815D01*
X015433Y010880D01*
X015455Y010948D01*
X015466Y011019D01*
X015466Y011046D01*
X015017Y011046D01*
X015017Y011064D01*
X015000Y011064D01*
X015000Y011512D01*
X014973Y011512D01*
X014902Y011501D01*
X014833Y011479D01*
X014769Y011446D01*
X014711Y011404D01*
X014660Y011353D01*
X014618Y011295D01*
X014585Y011230D01*
X014563Y011162D01*
X014552Y011091D01*
X014552Y011064D01*
X015000Y011064D01*
X015000Y011046D01*
X014552Y011046D01*
X014552Y011019D01*
X014563Y010948D01*
X014614Y010824D02*
X014330Y010824D01*
X014415Y010666D02*
X014767Y010666D01*
X015000Y010666D02*
X015017Y010666D01*
X015000Y010824D02*
X015017Y010824D01*
X015000Y010983D02*
X015017Y010983D01*
X015017Y011064D02*
X015466Y011064D01*
X015466Y011091D01*
X015455Y011162D01*
X015433Y011230D01*
X015400Y011295D01*
X015358Y011353D01*
X015307Y011404D01*
X015249Y011446D01*
X015184Y011479D01*
X015116Y011501D01*
X015045Y011512D01*
X015017Y011512D01*
X015017Y011064D01*
X015017Y011141D02*
X015000Y011141D01*
X015000Y011300D02*
X015017Y011300D01*
X015000Y011458D02*
X015017Y011458D01*
X015092Y011638D02*
X015245Y011701D01*
X015363Y011819D01*
X015426Y011972D01*
X015426Y012138D01*
X015363Y012291D01*
X015245Y012409D01*
X015092Y012472D01*
X014926Y012472D01*
X014773Y012409D01*
X012755Y012409D01*
X012755Y012388D02*
X012755Y012680D01*
X012825Y012750D01*
X012873Y012867D01*
X012873Y012993D01*
X012825Y013110D01*
X012735Y013200D01*
X012618Y013248D01*
X012492Y013248D01*
X012375Y013200D01*
X012285Y013110D01*
X012237Y012993D01*
X012237Y012867D01*
X012285Y012750D01*
X012355Y012680D01*
X012355Y012222D01*
X013152Y011425D01*
X013269Y011308D01*
X013666Y011308D01*
X013773Y011201D01*
X013926Y011138D01*
X014092Y011138D01*
X014245Y011201D01*
X014363Y011319D01*
X014426Y011472D01*
X014426Y011638D01*
X014363Y011791D01*
X014245Y011909D01*
X014092Y011972D01*
X013926Y011972D01*
X013773Y011909D01*
X013655Y011791D01*
X013621Y011708D01*
X013435Y011708D01*
X012755Y012388D01*
X012755Y012568D02*
X016720Y012568D01*
X016689Y012642D02*
X016814Y012341D01*
X017044Y012110D01*
X017346Y011985D01*
X017672Y011985D01*
X017973Y012110D01*
X018204Y012341D01*
X018329Y012642D01*
X018329Y012968D01*
X018204Y013269D01*
X017973Y013500D01*
X017672Y013625D01*
X017346Y013625D01*
X017044Y013500D01*
X016814Y013269D01*
X016689Y012968D01*
X016689Y012642D01*
X016689Y012726D02*
X012801Y012726D01*
X012873Y012885D02*
X016689Y012885D01*
X016720Y013043D02*
X012853Y013043D01*
X012731Y013202D02*
X016786Y013202D01*
X016904Y013360D02*
X006020Y013360D01*
X006020Y013519D02*
X017089Y013519D01*
X017162Y014311D02*
X005871Y014311D01*
X005985Y014153D02*
X019495Y014153D01*
X019495Y014311D02*
X017856Y014311D01*
X018083Y014470D02*
X019495Y014470D01*
X019495Y014628D02*
X018220Y014628D01*
X018285Y014787D02*
X019495Y014787D01*
X019495Y014945D02*
X018329Y014945D01*
X018329Y015104D02*
X019495Y015104D01*
X019495Y015262D02*
X018311Y015262D01*
X018245Y015421D02*
X019495Y015421D01*
X019495Y015579D02*
X018145Y015579D01*
X017986Y015738D02*
X019495Y015738D01*
X019495Y015896D02*
X015112Y015896D01*
X015092Y015888D02*
X015245Y015951D01*
X015363Y016069D01*
X015426Y016222D01*
X015426Y016388D01*
X015363Y016541D01*
X015245Y016659D01*
X015092Y016722D01*
X014926Y016722D01*
X014773Y016659D01*
X014655Y016541D01*
X014592Y016388D01*
X014592Y016222D01*
X014655Y016069D01*
X014773Y015951D01*
X014926Y015888D01*
X015092Y015888D01*
X014906Y015896D02*
X014423Y015896D01*
X014426Y015888D02*
X014363Y016041D01*
X014245Y016159D01*
X014092Y016222D01*
X013926Y016222D01*
X013773Y016159D01*
X013655Y016041D01*
X013592Y015888D01*
X013592Y015722D01*
X013655Y015569D01*
X013773Y015451D01*
X013926Y015388D01*
X014092Y015388D01*
X014245Y015451D01*
X014363Y015569D01*
X014426Y015722D01*
X014426Y015888D01*
X014426Y015738D02*
X017032Y015738D01*
X016873Y015579D02*
X014367Y015579D01*
X014171Y015421D02*
X016773Y015421D01*
X016707Y015262D02*
X006920Y015262D01*
X007070Y015421D02*
X013847Y015421D01*
X013651Y015579D02*
X010758Y015579D01*
X010629Y015450D02*
X010450Y015450D01*
X010450Y015910D01*
X010450Y015950D01*
X010410Y015950D01*
X010410Y016410D01*
X010231Y016410D01*
X009950Y016129D01*
X009950Y015950D01*
X010410Y015950D01*
X010410Y015910D01*
X009950Y015910D01*
X009950Y015731D01*
X010231Y015450D01*
X010410Y015450D01*
X010410Y015910D01*
X010450Y015910D01*
X010910Y015910D01*
X010910Y015731D01*
X010629Y015450D01*
X010450Y015579D02*
X010410Y015579D01*
X010410Y015738D02*
X010450Y015738D01*
X010450Y015896D02*
X010410Y015896D01*
X010450Y015950D02*
X010910Y015950D01*
X010910Y016129D01*
X010629Y016410D01*
X010450Y016410D01*
X010450Y015950D01*
X010450Y016055D02*
X010410Y016055D01*
X010410Y016213D02*
X010450Y016213D01*
X010450Y016372D02*
X010410Y016372D01*
X010410Y016450D02*
X010410Y016910D01*
X009950Y016910D01*
X009950Y016731D01*
X010231Y016450D01*
X010410Y016450D01*
X010450Y016450D02*
X010629Y016450D01*
X010910Y016731D01*
X010910Y016910D01*
X010450Y016910D01*
X010450Y016950D01*
X010410Y016950D01*
X010410Y017410D01*
X010231Y017410D01*
X009950Y017129D01*
X009950Y016950D01*
X010410Y016950D01*
X010410Y016910D01*
X010450Y016910D01*
X010450Y016450D01*
X010450Y016530D02*
X010410Y016530D01*
X010410Y016689D02*
X010450Y016689D01*
X010450Y016847D02*
X010410Y016847D01*
X010450Y016950D02*
X010910Y016950D01*
X010910Y017129D01*
X010629Y017410D01*
X010450Y017410D01*
X010450Y016950D01*
X010450Y017006D02*
X010410Y017006D01*
X010410Y017164D02*
X010450Y017164D01*
X010450Y017323D02*
X010410Y017323D01*
X010410Y017450D02*
X010410Y017910D01*
X009950Y017910D01*
X009950Y017731D01*
X010231Y017450D01*
X010410Y017450D01*
X010410Y017481D02*
X010450Y017481D01*
X010450Y017450D02*
X010629Y017450D01*
X010910Y017731D01*
X010910Y017910D01*
X010450Y017910D01*
X010450Y017950D01*
X010410Y017950D01*
X010410Y018410D01*
X010231Y018410D01*
X009950Y018129D01*
X009950Y017950D01*
X010410Y017950D01*
X010410Y017910D01*
X010450Y017910D01*
X010450Y017450D01*
X010450Y017640D02*
X010410Y017640D01*
X010410Y017798D02*
X010450Y017798D01*
X010450Y017950D02*
X010910Y017950D01*
X010910Y018129D01*
X010629Y018410D01*
X010450Y018410D01*
X010450Y017950D01*
X010450Y017957D02*
X010410Y017957D01*
X010410Y018115D02*
X010450Y018115D01*
X010450Y018274D02*
X010410Y018274D01*
X010410Y018450D02*
X010231Y018450D01*
X009950Y018731D01*
X009950Y018910D01*
X010410Y018910D01*
X010410Y018950D01*
X010410Y019410D01*
X010231Y019410D01*
X009950Y019129D01*
X009950Y018950D01*
X010410Y018950D01*
X010450Y018950D01*
X010450Y019410D01*
X010629Y019410D01*
X010910Y019129D01*
X010910Y018950D01*
X010450Y018950D01*
X010450Y018910D01*
X010910Y018910D01*
X010910Y018731D01*
X010629Y018450D01*
X010450Y018450D01*
X010450Y018910D01*
X010410Y018910D01*
X010410Y018450D01*
X010410Y018591D02*
X010450Y018591D01*
X010450Y018749D02*
X010410Y018749D01*
X010410Y018908D02*
X010450Y018908D01*
X010450Y019066D02*
X010410Y019066D01*
X010410Y019225D02*
X010450Y019225D01*
X010450Y019383D02*
X010410Y019383D01*
X010204Y019383D02*
X008405Y019383D01*
X008445Y019343D02*
X008363Y019425D01*
X007617Y019425D01*
X007535Y019343D01*
X007535Y018517D01*
X007617Y018435D01*
X008363Y018435D01*
X008445Y018517D01*
X008445Y018715D01*
X008500Y018660D01*
X008617Y018612D01*
X008743Y018612D01*
X008860Y018660D01*
X008950Y018750D01*
X008990Y018847D01*
X008990Y018748D01*
X009248Y018490D01*
X009612Y018490D01*
X009870Y018748D01*
X009870Y019112D01*
X009612Y019370D01*
X009248Y019370D01*
X008990Y019112D01*
X008990Y019013D01*
X008950Y019110D01*
X008860Y019200D01*
X008743Y019248D01*
X008617Y019248D01*
X008500Y019200D01*
X008445Y019145D01*
X008445Y019343D01*
X008445Y019225D02*
X008560Y019225D01*
X008800Y019225D02*
X009102Y019225D01*
X008990Y019066D02*
X008968Y019066D01*
X008949Y018749D02*
X008990Y018749D01*
X009147Y018591D02*
X008445Y018591D01*
X008363Y018425D02*
X007617Y018425D01*
X007535Y018343D01*
X007535Y017517D01*
X007617Y017435D01*
X008363Y017435D01*
X008445Y017517D01*
X008445Y017715D01*
X008500Y017660D01*
X008617Y017612D01*
X008743Y017612D01*
X008860Y017660D01*
X008950Y017750D01*
X008990Y017847D01*
X008990Y017748D01*
X009248Y017490D01*
X009612Y017490D01*
X009870Y017748D01*
X009870Y018112D01*
X009612Y018370D01*
X009248Y018370D01*
X008990Y018112D01*
X008990Y018013D01*
X008950Y018110D01*
X008860Y018200D01*
X008743Y018248D01*
X008617Y018248D01*
X008500Y018200D01*
X008445Y018145D01*
X008445Y018343D01*
X008363Y018425D01*
X008445Y018274D02*
X009151Y018274D01*
X008993Y018115D02*
X008945Y018115D01*
X008970Y017798D02*
X008990Y017798D01*
X009098Y017640D02*
X008810Y017640D01*
X008550Y017640D02*
X008445Y017640D01*
X008409Y017481D02*
X010200Y017481D01*
X010144Y017323D02*
X009660Y017323D01*
X009612Y017370D02*
X009248Y017370D01*
X008990Y017112D01*
X008990Y017013D01*
X008950Y017110D01*
X008860Y017200D01*
X008743Y017248D01*
X008617Y017248D01*
X008500Y017200D01*
X008445Y017145D01*
X008445Y017343D01*
X008363Y017425D01*
X007617Y017425D01*
X007535Y017343D01*
X007535Y016517D01*
X007617Y016435D01*
X008363Y016435D01*
X008445Y016517D01*
X008445Y016715D01*
X008500Y016660D01*
X008617Y016612D01*
X008743Y016612D01*
X008860Y016660D01*
X008950Y016750D01*
X008990Y016847D01*
X008990Y016847D01*
X008990Y016748D01*
X009248Y016490D01*
X009612Y016490D01*
X009870Y016748D01*
X009870Y017112D01*
X009612Y017370D01*
X009818Y017164D02*
X009985Y017164D01*
X009950Y017006D02*
X009870Y017006D01*
X009870Y016847D02*
X009950Y016847D01*
X009993Y016689D02*
X009811Y016689D01*
X009652Y016530D02*
X010151Y016530D01*
X010193Y016372D02*
X008416Y016372D01*
X008445Y016343D02*
X008363Y016425D01*
X007617Y016425D01*
X007535Y016343D01*
X007535Y015517D01*
X007617Y015435D01*
X008363Y015435D01*
X008445Y015517D01*
X008445Y015715D01*
X008500Y015660D01*
X008617Y015612D01*
X008743Y015612D01*
X008860Y015660D01*
X008950Y015750D01*
X008990Y015847D01*
X008990Y015748D01*
X009248Y015490D01*
X009612Y015490D01*
X009870Y015748D01*
X009870Y016112D01*
X009612Y016370D01*
X009248Y016370D01*
X008990Y016112D01*
X008990Y016013D01*
X008950Y016110D01*
X008860Y016200D01*
X008743Y016248D01*
X008617Y016248D01*
X008500Y016200D01*
X008445Y016145D01*
X008445Y016343D01*
X008445Y016213D02*
X008532Y016213D01*
X008828Y016213D02*
X009091Y016213D01*
X008990Y016055D02*
X008973Y016055D01*
X009000Y015738D02*
X008937Y015738D01*
X009159Y015579D02*
X008445Y015579D01*
X007535Y015579D02*
X007325Y015579D01*
X007325Y015738D02*
X007535Y015738D01*
X007535Y015896D02*
X007325Y015896D01*
X007325Y016055D02*
X007535Y016055D01*
X007535Y016213D02*
X007325Y016213D01*
X007297Y016372D02*
X007563Y016372D01*
X007535Y016530D02*
X007325Y016530D01*
X007325Y016689D02*
X007535Y016689D01*
X007535Y016847D02*
X007325Y016847D01*
X007325Y017006D02*
X007535Y017006D01*
X007535Y017164D02*
X007325Y017164D01*
X007325Y017323D02*
X007535Y017323D01*
X007571Y017481D02*
X007289Y017481D01*
X007325Y017640D02*
X007535Y017640D01*
X007535Y017798D02*
X007325Y017798D01*
X007325Y017957D02*
X007535Y017957D01*
X007535Y018115D02*
X007325Y018115D01*
X007325Y018274D02*
X007535Y018274D01*
X007535Y018591D02*
X007325Y018591D01*
X007325Y018749D02*
X007535Y018749D01*
X007535Y018908D02*
X007325Y018908D01*
X007325Y019066D02*
X007535Y019066D01*
X007535Y019225D02*
X007325Y019225D01*
X007285Y019383D02*
X007575Y019383D01*
X007342Y019542D02*
X016836Y019542D01*
X016814Y019519D02*
X016689Y019218D01*
X016689Y018892D01*
X016814Y018591D01*
X015313Y018591D01*
X015363Y018541D02*
X015245Y018659D01*
X015092Y018722D01*
X014926Y018722D01*
X014773Y018659D01*
X014655Y018541D01*
X014592Y018388D01*
X014592Y018222D01*
X014655Y018069D01*
X014773Y017951D01*
X014926Y017888D01*
X015092Y017888D01*
X015245Y017951D01*
X015363Y018069D01*
X015426Y018222D01*
X015426Y018388D01*
X015363Y018541D01*
X015408Y018432D02*
X016972Y018432D01*
X017044Y018360D02*
X016814Y018591D01*
X016748Y018749D02*
X010910Y018749D01*
X010910Y018908D02*
X016689Y018908D01*
X016689Y019066D02*
X010910Y019066D01*
X010814Y019225D02*
X016692Y019225D01*
X016757Y019383D02*
X010656Y019383D01*
X010046Y019225D02*
X009758Y019225D01*
X009870Y019066D02*
X009950Y019066D01*
X009950Y018908D02*
X009870Y018908D01*
X009870Y018749D02*
X009950Y018749D01*
X010091Y018591D02*
X009713Y018591D01*
X009709Y018274D02*
X010095Y018274D01*
X009950Y018115D02*
X009867Y018115D01*
X009870Y017957D02*
X009950Y017957D01*
X009950Y017798D02*
X009870Y017798D01*
X009762Y017640D02*
X010042Y017640D01*
X010660Y017481D02*
X013686Y017481D01*
X013711Y017456D02*
X013769Y017414D01*
X013833Y017381D01*
X013902Y017359D01*
X013973Y017348D01*
X014000Y017348D01*
X014000Y017796D01*
X014017Y017796D01*
X014017Y017348D01*
X014045Y017348D01*
X014116Y017359D01*
X014184Y017381D01*
X014249Y017414D01*
X014307Y017456D01*
X014358Y017507D01*
X014400Y017565D01*
X014433Y017630D01*
X014455Y017698D01*
X014466Y017769D01*
X014466Y017796D01*
X014017Y017796D01*
X014017Y017814D01*
X014000Y017814D01*
X014000Y018262D01*
X013973Y018262D01*
X013902Y018251D01*
X013833Y018229D01*
X013769Y018196D01*
X013711Y018154D01*
X013660Y018103D01*
X013618Y018045D01*
X013585Y017980D01*
X013563Y017912D01*
X013552Y017841D01*
X013552Y017814D01*
X014000Y017814D01*
X014000Y017796D01*
X013552Y017796D01*
X013552Y017769D01*
X013563Y017698D01*
X013585Y017630D01*
X013618Y017565D01*
X013660Y017507D01*
X013711Y017456D01*
X013582Y017640D02*
X010818Y017640D01*
X010910Y017798D02*
X014000Y017798D01*
X014017Y017798D02*
X019495Y017798D01*
X019495Y017640D02*
X015264Y017640D01*
X015245Y017659D02*
X015092Y017722D01*
X014926Y017722D01*
X014773Y017659D01*
X014655Y017541D01*
X014592Y017388D01*
X014592Y017222D01*
X014655Y017069D01*
X014773Y016951D01*
X014926Y016888D01*
X015092Y016888D01*
X015245Y016951D01*
X015363Y017069D01*
X015426Y017222D01*
X015426Y017388D01*
X015363Y017541D01*
X015245Y017659D01*
X015388Y017481D02*
X019495Y017481D01*
X019495Y017323D02*
X015426Y017323D01*
X015402Y017164D02*
X019495Y017164D01*
X019495Y017006D02*
X015299Y017006D01*
X015173Y016689D02*
X019495Y016689D01*
X019495Y016847D02*
X014465Y016847D01*
X014466Y016841D02*
X014455Y016912D01*
X014433Y016980D01*
X014400Y017045D01*
X014358Y017103D01*
X014307Y017154D01*
X014249Y017196D01*
X014184Y017229D01*
X014116Y017251D01*
X014045Y017262D01*
X014017Y017262D01*
X014017Y016814D01*
X014000Y016814D01*
X014000Y017262D01*
X013973Y017262D01*
X013902Y017251D01*
X013833Y017229D01*
X013769Y017196D01*
X013711Y017154D01*
X013660Y017103D01*
X013618Y017045D01*
X013585Y016980D01*
X013563Y016912D01*
X013552Y016841D01*
X013552Y016814D01*
X014000Y016814D01*
X014000Y016796D01*
X014017Y016796D01*
X014017Y016348D01*
X014045Y016348D01*
X014116Y016359D01*
X014184Y016381D01*
X014249Y016414D01*
X014307Y016456D01*
X014358Y016507D01*
X014400Y016565D01*
X014433Y016630D01*
X014455Y016698D01*
X014466Y016769D01*
X014466Y016796D01*
X014017Y016796D01*
X014017Y016814D01*
X014466Y016814D01*
X014466Y016841D01*
X014452Y016689D02*
X014845Y016689D01*
X014651Y016530D02*
X014374Y016530D01*
X014592Y016372D02*
X014154Y016372D01*
X014017Y016372D02*
X014000Y016372D01*
X014000Y016348D02*
X014000Y016796D01*
X013552Y016796D01*
X013552Y016769D01*
X013563Y016698D01*
X013585Y016630D01*
X013618Y016565D01*
X013660Y016507D01*
X013711Y016456D01*
X013769Y016414D01*
X013833Y016381D01*
X013902Y016359D01*
X013973Y016348D01*
X014000Y016348D01*
X013864Y016372D02*
X010667Y016372D01*
X010709Y016530D02*
X013644Y016530D01*
X013566Y016689D02*
X010867Y016689D01*
X010910Y016847D02*
X013553Y016847D01*
X013598Y017006D02*
X010910Y017006D01*
X010875Y017164D02*
X013725Y017164D01*
X014000Y017164D02*
X014017Y017164D01*
X014000Y017006D02*
X014017Y017006D01*
X014000Y016847D02*
X014017Y016847D01*
X014000Y016689D02*
X014017Y016689D01*
X014000Y016530D02*
X014017Y016530D01*
X014114Y016213D02*
X014595Y016213D01*
X014669Y016055D02*
X014349Y016055D01*
X013904Y016213D02*
X010826Y016213D01*
X010910Y016055D02*
X013668Y016055D01*
X013595Y015896D02*
X010910Y015896D01*
X010910Y015738D02*
X013592Y015738D01*
X014420Y017006D02*
X014718Y017006D01*
X014616Y017164D02*
X014293Y017164D01*
X014331Y017481D02*
X014630Y017481D01*
X014592Y017323D02*
X010716Y017323D01*
X010910Y017957D02*
X013577Y017957D01*
X013672Y018115D02*
X010910Y018115D01*
X010765Y018274D02*
X014592Y018274D01*
X014610Y018432D02*
X007070Y018432D01*
X006670Y018432D02*
X005973Y018432D01*
X006020Y018274D02*
X006415Y018274D01*
X006415Y018115D02*
X006020Y018115D01*
X006020Y017957D02*
X006415Y017957D01*
X006415Y017798D02*
X006020Y017798D01*
X006020Y017640D02*
X006415Y017640D01*
X006451Y017481D02*
X005995Y017481D01*
X005895Y017323D02*
X006415Y017323D01*
X005233Y017006D02*
X005073Y017006D01*
X005147Y016847D02*
X005152Y016847D01*
X004287Y017006D02*
X004127Y017006D01*
X004208Y016847D02*
X004213Y016847D01*
X004310Y017323D02*
X004095Y017323D01*
X004195Y017481D02*
X004224Y017481D01*
X003465Y017323D02*
X002405Y017323D01*
X002414Y017481D02*
X003365Y017481D01*
X003340Y017640D02*
X002363Y017640D01*
X002227Y017798D02*
X003340Y017798D01*
X005842Y018591D02*
X006415Y018591D01*
X006415Y018749D02*
X005810Y018749D01*
X005964Y018908D02*
X006415Y018908D01*
X006415Y019066D02*
X006020Y019066D01*
X006020Y019225D02*
X006415Y019225D01*
X006455Y019383D02*
X006020Y019383D01*
X006020Y019542D02*
X006670Y019542D01*
X006737Y019700D02*
X006020Y019700D01*
X006003Y019859D02*
X006785Y019859D01*
X007325Y019859D02*
X017306Y019859D01*
X017346Y019875D02*
X017044Y019750D01*
X016814Y019519D01*
X016994Y019700D02*
X007373Y019700D01*
X008445Y017323D02*
X009200Y017323D01*
X009042Y017164D02*
X008896Y017164D01*
X008464Y017164D02*
X008445Y017164D01*
X008445Y016689D02*
X008472Y016689D01*
X008445Y016530D02*
X009208Y016530D01*
X009049Y016689D02*
X008888Y016689D01*
X009769Y016213D02*
X010034Y016213D01*
X009950Y016055D02*
X009870Y016055D01*
X009870Y015896D02*
X009950Y015896D01*
X009950Y015738D02*
X009860Y015738D01*
X009701Y015579D02*
X010102Y015579D01*
X012379Y013202D02*
X005982Y013202D01*
X005865Y013043D02*
X012257Y013043D01*
X012237Y012885D02*
X005753Y012885D01*
X005954Y012726D02*
X012309Y012726D01*
X012355Y012568D02*
X006020Y012568D01*
X006020Y012409D02*
X012355Y012409D01*
X012355Y012251D02*
X006020Y012251D01*
X006020Y012092D02*
X012485Y012092D01*
X012644Y011934D02*
X006020Y011934D01*
X006013Y011775D02*
X012802Y011775D01*
X012961Y011617D02*
X005939Y011617D01*
X005711Y011458D02*
X013119Y011458D01*
X013368Y011775D02*
X013648Y011775D01*
X013833Y011934D02*
X013209Y011934D01*
X013051Y012092D02*
X014592Y012092D01*
X014592Y012138D02*
X014592Y011972D01*
X014655Y011819D01*
X014773Y011701D01*
X014926Y011638D01*
X015092Y011638D01*
X015225Y011458D02*
X019495Y011458D01*
X019495Y011300D02*
X015396Y011300D01*
X015458Y011141D02*
X019495Y011141D01*
X019495Y010983D02*
X015460Y010983D01*
X015404Y010824D02*
X019495Y010824D01*
X019495Y010666D02*
X015251Y010666D01*
X014560Y011141D02*
X014100Y011141D01*
X013918Y011141D02*
X005990Y011141D01*
X005883Y011300D02*
X013674Y011300D01*
X014343Y011300D02*
X014621Y011300D01*
X014793Y011458D02*
X014420Y011458D01*
X014426Y011617D02*
X019495Y011617D01*
X019495Y011775D02*
X015319Y011775D01*
X015410Y011934D02*
X019495Y011934D01*
X019495Y012092D02*
X017930Y012092D01*
X018114Y012251D02*
X019495Y012251D01*
X019495Y012409D02*
X018232Y012409D01*
X018298Y012568D02*
X019495Y012568D01*
X019495Y012726D02*
X018329Y012726D01*
X018329Y012885D02*
X019495Y012885D01*
X019495Y013043D02*
X018298Y013043D01*
X018232Y013202D02*
X019495Y013202D01*
X019495Y013360D02*
X018114Y013360D01*
X017929Y013519D02*
X019495Y013519D01*
X019495Y013677D02*
X006020Y013677D01*
X006020Y013836D02*
X019495Y013836D01*
X019495Y013994D02*
X006020Y013994D01*
X005289Y014311D02*
X005028Y014311D01*
X005129Y014153D02*
X005175Y014153D01*
X005178Y013202D02*
X005127Y013202D01*
X005022Y013043D02*
X005295Y013043D01*
X005407Y012885D02*
X004940Y012885D01*
X005093Y012726D02*
X005206Y012726D01*
X004420Y012885D02*
X003953Y012885D01*
X004065Y013043D02*
X004338Y013043D01*
X004233Y013202D02*
X004182Y013202D01*
X004154Y012726D02*
X004267Y012726D01*
X003607Y012885D02*
X002365Y012885D01*
X002414Y012726D02*
X003406Y012726D01*
X003340Y012568D02*
X002403Y012568D01*
X002324Y012409D02*
X003340Y012409D01*
X003340Y012251D02*
X002082Y012251D01*
X002124Y012092D02*
X003340Y012092D01*
X003340Y011934D02*
X002341Y011934D01*
X002410Y011775D02*
X003347Y011775D01*
X003421Y011617D02*
X002414Y011617D01*
X002358Y011458D02*
X003649Y011458D01*
X003911Y011458D02*
X004451Y011458D01*
X004321Y011300D02*
X004083Y011300D01*
X004190Y011141D02*
X004228Y011141D01*
X004278Y011617D02*
X004139Y011617D01*
X004909Y011458D02*
X005449Y011458D01*
X005277Y011300D02*
X005039Y011300D01*
X005132Y011141D02*
X005170Y011141D01*
X005221Y011617D02*
X005082Y011617D01*
X003495Y013043D02*
X002232Y013043D01*
X001278Y012251D02*
X001070Y012251D01*
X001070Y012092D02*
X001236Y012092D01*
X001128Y013043D02*
X001070Y013043D01*
X006111Y014787D02*
X016733Y014787D01*
X016689Y014945D02*
X006603Y014945D01*
X006761Y015104D02*
X016689Y015104D01*
X015348Y016055D02*
X019495Y016055D01*
X019495Y016213D02*
X015422Y016213D01*
X015426Y016372D02*
X019495Y016372D01*
X019495Y016530D02*
X015367Y016530D01*
X014753Y017640D02*
X014436Y017640D01*
X014466Y017814D02*
X014466Y017841D01*
X014455Y017912D01*
X014433Y017980D01*
X014400Y018045D01*
X014358Y018103D01*
X014307Y018154D01*
X014249Y018196D01*
X014184Y018229D01*
X014116Y018251D01*
X014045Y018262D01*
X014017Y018262D01*
X014017Y017814D01*
X014466Y017814D01*
X014440Y017957D02*
X014767Y017957D01*
X014636Y018115D02*
X014345Y018115D01*
X014017Y018115D02*
X014000Y018115D01*
X014000Y017957D02*
X014017Y017957D01*
X014000Y017640D02*
X014017Y017640D01*
X014000Y017481D02*
X014017Y017481D01*
X014704Y018591D02*
X010769Y018591D01*
X006354Y015262D02*
X006173Y015262D01*
X012892Y012251D02*
X014638Y012251D01*
X014655Y012291D02*
X014592Y012138D01*
X014655Y012291D02*
X014773Y012409D01*
X015244Y012409D02*
X016785Y012409D01*
X016904Y012251D02*
X015379Y012251D01*
X015426Y012092D02*
X017087Y012092D01*
X014699Y011775D02*
X014369Y011775D01*
X014185Y011934D02*
X014608Y011934D01*
X017839Y009556D02*
X019495Y009556D01*
X019495Y009398D02*
X018076Y009398D01*
X018217Y009239D02*
X019495Y009239D01*
X019495Y009081D02*
X018282Y009081D01*
X018329Y008922D02*
X019495Y008922D01*
X019495Y008764D02*
X018329Y008764D01*
X018314Y008605D02*
X019495Y008605D01*
X019495Y008447D02*
X018248Y008447D01*
X018152Y008288D02*
X019495Y008288D01*
X019495Y008130D02*
X017993Y008130D01*
X018042Y006520D02*
X017881Y006453D01*
X017757Y006329D01*
X017690Y006168D01*
X017690Y005992D01*
X017757Y005831D01*
X017881Y005707D01*
X018021Y005649D01*
X018018Y005648D01*
X017946Y005625D01*
X017878Y005591D01*
X017817Y005546D01*
X017764Y005493D01*
X017719Y005432D01*
X017685Y005364D01*
X017680Y005348D01*
X017675Y005364D01*
X017641Y005432D01*
X017596Y005493D01*
X017543Y005546D01*
X017482Y005591D01*
X017414Y005625D01*
X017342Y005648D01*
X017339Y005649D01*
X017479Y005707D01*
X017603Y005831D01*
X017670Y005992D01*
X017670Y006168D01*
X017603Y006329D01*
X017479Y006453D01*
X017318Y006520D01*
X016542Y006520D01*
X016381Y006453D01*
X016257Y006329D01*
X016190Y006168D01*
X016190Y005992D01*
X016257Y005831D01*
X016381Y005707D01*
X016521Y005649D01*
X016518Y005648D01*
X016446Y005625D01*
X016378Y005591D01*
X016317Y005546D01*
X016264Y005493D01*
X016219Y005432D01*
X016185Y005364D01*
X016180Y005348D01*
X016175Y005364D01*
X016141Y005432D01*
X016096Y005493D01*
X016043Y005546D01*
X015982Y005591D01*
X015914Y005625D01*
X015842Y005648D01*
X015839Y005649D01*
X015979Y005707D01*
X016103Y005831D01*
X016170Y005992D01*
X016170Y006168D01*
X016103Y006329D01*
X015979Y006453D01*
X015818Y006520D01*
X015042Y006520D01*
X014881Y006453D01*
X014757Y006329D01*
X014690Y006168D01*
X014690Y005992D01*
X014757Y005831D01*
X014881Y005707D01*
X015021Y005649D01*
X015018Y005648D01*
X014946Y005625D01*
X014878Y005591D01*
X014817Y005546D01*
X014764Y005493D01*
X014719Y005432D01*
X014685Y005364D01*
X014662Y005292D01*
X014650Y005218D01*
X014650Y005200D01*
X015410Y005200D01*
X015410Y005160D01*
X014650Y005160D01*
X014650Y005142D01*
X014662Y005068D01*
X014685Y004996D01*
X014719Y004928D01*
X014764Y004867D01*
X014817Y004814D01*
X014878Y004769D01*
X014946Y004735D01*
X015018Y004712D01*
X015021Y004711D01*
X014881Y004653D01*
X014757Y004529D01*
X014690Y004368D01*
X014690Y004192D01*
X014757Y004031D01*
X014881Y003907D01*
X015042Y003840D01*
X015818Y003840D01*
X015979Y003907D01*
X016103Y004031D01*
X016170Y004192D01*
X016170Y004368D01*
X016103Y004529D01*
X015979Y004653D01*
X015839Y004711D01*
X015842Y004712D01*
X015914Y004735D01*
X015982Y004769D01*
X016043Y004814D01*
X016096Y004867D01*
X016141Y004928D01*
X016175Y004996D01*
X016180Y005012D01*
X016185Y004996D01*
X016219Y004928D01*
X016264Y004867D01*
X016317Y004814D01*
X016378Y004769D01*
X016446Y004735D01*
X016518Y004712D01*
X016521Y004711D01*
X016381Y004653D01*
X016257Y004529D01*
X016190Y004368D01*
X016190Y004192D01*
X016257Y004031D01*
X016381Y003907D01*
X016542Y003840D01*
X017318Y003840D01*
X017479Y003907D01*
X017603Y004031D01*
X017670Y004192D01*
X017670Y004368D01*
X017603Y004529D01*
X017479Y004653D01*
X017339Y004711D01*
X017342Y004712D01*
X017414Y004735D01*
X017482Y004769D01*
X017543Y004814D01*
X017596Y004867D01*
X017641Y004928D01*
X017675Y004996D01*
X017680Y005012D01*
X017685Y004996D01*
X017719Y004928D01*
X017764Y004867D01*
X017817Y004814D01*
X017878Y004769D01*
X017946Y004735D01*
X018018Y004712D01*
X018021Y004711D01*
X017881Y004653D01*
X017757Y004529D01*
X017690Y004368D01*
X017690Y004192D01*
X017757Y004031D01*
X017881Y003907D01*
X018042Y003840D01*
X018818Y003840D01*
X018979Y003907D01*
X019103Y004031D01*
X019170Y004192D01*
X019170Y004368D01*
X019103Y004529D01*
X018979Y004653D01*
X018839Y004711D01*
X018842Y004712D01*
X018914Y004735D01*
X018982Y004769D01*
X019043Y004814D01*
X019096Y004867D01*
X019141Y004928D01*
X019175Y004996D01*
X019198Y005068D01*
X019210Y005142D01*
X019210Y005160D01*
X018450Y005160D01*
X018450Y005200D01*
X019210Y005200D01*
X019210Y005218D01*
X019198Y005292D01*
X019175Y005364D01*
X019141Y005432D01*
X019096Y005493D01*
X019043Y005546D01*
X018982Y005591D01*
X018914Y005625D01*
X018842Y005648D01*
X018839Y005649D01*
X018979Y005707D01*
X019103Y005831D01*
X019170Y005992D01*
X019170Y006168D01*
X019103Y006329D01*
X018979Y006453D01*
X018818Y006520D01*
X018042Y006520D01*
X017814Y006386D02*
X017546Y006386D01*
X017645Y006228D02*
X017715Y006228D01*
X017690Y006069D02*
X017670Y006069D01*
X017636Y005911D02*
X017724Y005911D01*
X017836Y005752D02*
X017524Y005752D01*
X017476Y005594D02*
X017884Y005594D01*
X017722Y005435D02*
X017638Y005435D01*
X017650Y005200D02*
X016950Y005200D01*
X016950Y005160D01*
X018410Y005160D01*
X018410Y005200D01*
X017650Y005200D01*
X017656Y004960D02*
X017704Y004960D01*
X017835Y004801D02*
X017525Y004801D01*
X017490Y004643D02*
X017870Y004643D01*
X017738Y004484D02*
X017622Y004484D01*
X017670Y004326D02*
X017690Y004326D01*
X017701Y004167D02*
X017659Y004167D01*
X017581Y004009D02*
X017779Y004009D01*
X018018Y003850D02*
X017342Y003850D01*
X016518Y003850D02*
X015842Y003850D01*
X016081Y004009D02*
X016279Y004009D01*
X016201Y004167D02*
X016159Y004167D01*
X016170Y004326D02*
X016190Y004326D01*
X016238Y004484D02*
X016122Y004484D01*
X015990Y004643D02*
X016370Y004643D01*
X016335Y004801D02*
X016025Y004801D01*
X016156Y004960D02*
X016204Y004960D01*
X016210Y005200D02*
X015450Y005200D01*
X015450Y005160D01*
X016910Y005160D01*
X016910Y005200D01*
X016210Y005200D01*
X016222Y005435D02*
X016138Y005435D01*
X015976Y005594D02*
X016384Y005594D01*
X016336Y005752D02*
X016024Y005752D01*
X016136Y005911D02*
X016224Y005911D01*
X016190Y006069D02*
X016170Y006069D01*
X016145Y006228D02*
X016215Y006228D01*
X016314Y006386D02*
X016046Y006386D01*
X014814Y006386D02*
X012046Y006386D01*
X012145Y006228D02*
X014715Y006228D01*
X014690Y006069D02*
X012170Y006069D01*
X012136Y005911D02*
X014724Y005911D01*
X014836Y005752D02*
X012024Y005752D01*
X011976Y005594D02*
X014884Y005594D01*
X014722Y005435D02*
X012138Y005435D01*
X012201Y005277D02*
X014659Y005277D01*
X014654Y005118D02*
X012206Y005118D01*
X012156Y004960D02*
X014704Y004960D01*
X014835Y004801D02*
X012025Y004801D01*
X011990Y004643D02*
X014870Y004643D01*
X014738Y004484D02*
X012122Y004484D01*
X012170Y004326D02*
X014690Y004326D01*
X014701Y004167D02*
X012159Y004167D01*
X012081Y004009D02*
X014779Y004009D01*
X015018Y003850D02*
X011842Y003850D01*
X011018Y003850D02*
X010342Y003850D01*
X010581Y004009D02*
X010779Y004009D01*
X010701Y004167D02*
X010659Y004167D01*
X010670Y004326D02*
X010690Y004326D01*
X010738Y004484D02*
X010622Y004484D01*
X010490Y004643D02*
X010870Y004643D01*
X010835Y004801D02*
X010525Y004801D01*
X010656Y004960D02*
X010704Y004960D01*
X010710Y005200D02*
X009950Y005200D01*
X009950Y005160D01*
X011410Y005160D01*
X011410Y005200D01*
X010710Y005200D01*
X010722Y005435D02*
X010638Y005435D01*
X010476Y005594D02*
X010884Y005594D01*
X010836Y005752D02*
X010524Y005752D01*
X010636Y005911D02*
X010724Y005911D01*
X010690Y006069D02*
X010670Y006069D01*
X010645Y006228D02*
X010715Y006228D01*
X010814Y006386D02*
X010546Y006386D01*
X009910Y005200D02*
X009910Y005160D01*
X008450Y005160D01*
X008450Y005200D01*
X009210Y005200D01*
X009910Y005200D01*
X009384Y005594D02*
X008976Y005594D01*
X009024Y005752D02*
X009336Y005752D01*
X009224Y005911D02*
X009136Y005911D01*
X009170Y006069D02*
X009190Y006069D01*
X009215Y006228D02*
X009145Y006228D01*
X009046Y006386D02*
X009314Y006386D01*
X009222Y005435D02*
X009138Y005435D01*
X009156Y004960D02*
X009204Y004960D01*
X009335Y004801D02*
X009025Y004801D01*
X008990Y004643D02*
X009370Y004643D01*
X009238Y004484D02*
X009122Y004484D01*
X009170Y004326D02*
X009190Y004326D01*
X009201Y004167D02*
X009159Y004167D01*
X009081Y004009D02*
X009279Y004009D01*
X009518Y003850D02*
X008842Y003850D01*
X008018Y003850D02*
X001782Y003850D01*
X001820Y003692D02*
X019495Y003692D01*
X019495Y003850D02*
X018842Y003850D01*
X019081Y004009D02*
X019495Y004009D01*
X019495Y004167D02*
X019159Y004167D01*
X019170Y004326D02*
X019495Y004326D01*
X019495Y004484D02*
X019122Y004484D01*
X018990Y004643D02*
X019495Y004643D01*
X019495Y004801D02*
X019025Y004801D01*
X019156Y004960D02*
X019495Y004960D01*
X019495Y005118D02*
X019206Y005118D01*
X019201Y005277D02*
X019495Y005277D01*
X019495Y005435D02*
X019138Y005435D01*
X018976Y005594D02*
X019495Y005594D01*
X019495Y005752D02*
X019024Y005752D01*
X019136Y005911D02*
X019495Y005911D01*
X019495Y006069D02*
X019170Y006069D01*
X019145Y006228D02*
X019495Y006228D01*
X019495Y006386D02*
X019046Y006386D01*
X019495Y006545D02*
X006020Y006545D01*
X006020Y006703D02*
X019495Y006703D01*
X019495Y006862D02*
X006020Y006862D01*
X006020Y007020D02*
X019495Y007020D01*
X019495Y007179D02*
X005974Y007179D01*
X005845Y007337D02*
X019495Y007337D01*
X019495Y003533D02*
X001820Y003533D01*
X001820Y003375D02*
X019495Y003375D01*
X019495Y003216D02*
X001820Y003216D01*
X001820Y003058D02*
X019495Y003058D01*
X019495Y002899D02*
X018552Y002899D01*
X018517Y002914D02*
X018343Y002914D01*
X018183Y002847D01*
X018060Y002724D01*
X017993Y002564D01*
X017993Y001796D01*
X018060Y001636D01*
X018183Y001513D01*
X018343Y001446D01*
X018517Y001446D01*
X018677Y001513D01*
X018800Y001636D01*
X018867Y001796D01*
X018867Y002564D01*
X018800Y002724D01*
X018677Y002847D01*
X018517Y002914D01*
X018308Y002899D02*
X017552Y002899D01*
X017308Y002899D02*
X016552Y002899D01*
X016308Y002899D02*
X015552Y002899D01*
X015784Y002741D02*
X016076Y002741D01*
X016001Y002582D02*
X015859Y002582D01*
X015867Y002424D02*
X015993Y002424D01*
X015993Y002265D02*
X015867Y002265D01*
X015867Y002107D02*
X015993Y002107D01*
X015993Y001948D02*
X015867Y001948D01*
X015864Y001790D02*
X015996Y001790D01*
X016064Y001631D02*
X015796Y001631D01*
X015064Y001631D02*
X011796Y001631D01*
X011864Y001790D02*
X014996Y001790D01*
X014993Y001948D02*
X011867Y001948D01*
X011867Y002107D02*
X014993Y002107D01*
X014993Y002265D02*
X011867Y002265D01*
X011867Y002424D02*
X014993Y002424D01*
X015001Y002582D02*
X011859Y002582D01*
X011784Y002741D02*
X015076Y002741D01*
X015308Y002899D02*
X011552Y002899D01*
X011308Y002899D02*
X010552Y002899D01*
X010308Y002899D02*
X009552Y002899D01*
X009784Y002741D02*
X010076Y002741D01*
X010001Y002582D02*
X009859Y002582D01*
X009867Y002424D02*
X009993Y002424D01*
X009993Y002265D02*
X009867Y002265D01*
X009867Y002107D02*
X009993Y002107D01*
X009993Y001948D02*
X009867Y001948D01*
X009864Y001790D02*
X009996Y001790D01*
X010040Y001631D02*
X009796Y001631D01*
X009064Y001631D02*
X008796Y001631D01*
X008864Y001790D02*
X008996Y001790D01*
X008993Y001948D02*
X008867Y001948D01*
X008867Y002107D02*
X008993Y002107D01*
X008993Y002265D02*
X008867Y002265D01*
X008867Y002424D02*
X008993Y002424D01*
X009001Y002582D02*
X008859Y002582D01*
X008784Y002741D02*
X009076Y002741D01*
X009308Y002899D02*
X008552Y002899D01*
X008308Y002899D02*
X006411Y002899D01*
X006385Y002925D02*
X006180Y002925D01*
X006180Y002430D01*
X006180Y002430D01*
X006675Y002430D01*
X006675Y002635D01*
X006385Y002925D01*
X006180Y002925D02*
X005975Y002925D01*
X005685Y002635D01*
X005685Y002430D01*
X006180Y002430D01*
X006180Y002430D01*
X006180Y002430D01*
X006180Y002925D01*
X006180Y002899D02*
X006180Y002899D01*
X006180Y002741D02*
X006180Y002741D01*
X006180Y002582D02*
X006180Y002582D01*
X006180Y002430D02*
X005685Y002430D01*
X005685Y002225D01*
X005975Y001935D01*
X006180Y001935D01*
X006385Y001935D01*
X006675Y002225D01*
X006675Y002430D01*
X006180Y002430D01*
X006180Y001935D01*
X006180Y002430D01*
X006180Y002430D01*
X006180Y002424D02*
X006180Y002424D01*
X006180Y002265D02*
X006180Y002265D01*
X006180Y002107D02*
X006180Y002107D01*
X006180Y001948D02*
X006180Y001948D01*
X006398Y001948D02*
X007993Y001948D01*
X007993Y002107D02*
X006557Y002107D01*
X006675Y002265D02*
X007993Y002265D01*
X007993Y002424D02*
X006675Y002424D01*
X006675Y002582D02*
X008001Y002582D01*
X008076Y002741D02*
X006570Y002741D01*
X005949Y002899D02*
X001820Y002899D01*
X001820Y002741D02*
X003012Y002741D01*
X003020Y002747D02*
X002949Y002692D01*
X002886Y002629D01*
X002832Y002559D01*
X002787Y002481D01*
X002753Y002399D01*
X002730Y002313D01*
X002719Y002225D01*
X002719Y002198D01*
X003380Y002198D01*
X003380Y002860D01*
X003354Y002860D01*
X003266Y002848D01*
X003179Y002825D01*
X003097Y002791D01*
X003020Y002747D01*
X002850Y002582D02*
X001933Y002582D01*
X002022Y002424D02*
X002763Y002424D01*
X002724Y002265D02*
X002070Y002265D01*
X002070Y002107D02*
X002722Y002107D01*
X002759Y001948D02*
X002214Y001948D01*
X002372Y001790D02*
X002841Y001790D01*
X002997Y001631D02*
X002531Y001631D01*
X003380Y002265D02*
X003417Y002265D01*
X003417Y002424D02*
X003380Y002424D01*
X003380Y002582D02*
X003417Y002582D01*
X003417Y002741D02*
X003380Y002741D01*
X003785Y002741D02*
X005790Y002741D01*
X005685Y002582D02*
X003947Y002582D01*
X004034Y002424D02*
X005685Y002424D01*
X005685Y002265D02*
X004073Y002265D01*
X004075Y002107D02*
X005803Y002107D01*
X005962Y001948D02*
X004038Y001948D01*
X003956Y001790D02*
X005896Y001790D01*
X005771Y001631D02*
X003800Y001631D01*
X001653Y004009D02*
X007779Y004009D01*
X007701Y004167D02*
X001495Y004167D01*
X001336Y004326D02*
X007690Y004326D01*
X007690Y006069D02*
X005891Y006069D01*
X005993Y006228D02*
X007715Y006228D01*
X007814Y006386D02*
X006020Y006386D01*
X004313Y006069D02*
X004091Y006069D01*
X004193Y006228D02*
X004225Y006228D01*
X004284Y005752D02*
X004130Y005752D01*
X004209Y005594D02*
X004212Y005594D01*
X003430Y005752D02*
X002085Y005752D01*
X002120Y005594D02*
X003351Y005594D01*
X003340Y005435D02*
X002340Y005435D01*
X002410Y005277D02*
X003340Y005277D01*
X003340Y005118D02*
X002414Y005118D01*
X002358Y004960D02*
X003340Y004960D01*
X003340Y004801D02*
X002203Y004801D01*
X001275Y005752D02*
X001070Y005752D01*
X001070Y005594D02*
X001240Y005594D01*
X001157Y004801D02*
X001070Y004801D01*
X001070Y004643D02*
X003402Y004643D01*
X003586Y004484D02*
X001178Y004484D01*
X001070Y006703D02*
X003340Y006703D01*
X004158Y004643D02*
X004262Y004643D01*
X004408Y004484D02*
X003974Y004484D01*
X006464Y001790D02*
X007996Y001790D01*
X008064Y001631D02*
X006589Y001631D01*
X010820Y001631D02*
X011064Y001631D01*
X010996Y001790D02*
X010864Y001790D01*
X010867Y001948D02*
X010993Y001948D01*
X010993Y002107D02*
X010867Y002107D01*
X010867Y002265D02*
X010993Y002265D01*
X010993Y002424D02*
X010867Y002424D01*
X010859Y002582D02*
X011001Y002582D01*
X011076Y002741D02*
X010784Y002741D01*
X016784Y002741D02*
X017076Y002741D01*
X017001Y002582D02*
X016859Y002582D01*
X016867Y002424D02*
X016993Y002424D01*
X016993Y002265D02*
X016867Y002265D01*
X016867Y002107D02*
X016993Y002107D01*
X016993Y001948D02*
X016867Y001948D01*
X016864Y001790D02*
X016996Y001790D01*
X017040Y001631D02*
X016796Y001631D01*
X017776Y000997D02*
X019495Y000997D01*
X019495Y001156D02*
X017820Y001156D01*
X017820Y001314D02*
X019495Y001314D01*
X019495Y001473D02*
X018580Y001473D01*
X018796Y001631D02*
X019495Y001631D01*
X019495Y001790D02*
X018864Y001790D01*
X018867Y001948D02*
X019495Y001948D01*
X019495Y002107D02*
X018867Y002107D01*
X018867Y002265D02*
X019495Y002265D01*
X019495Y002424D02*
X018867Y002424D01*
X018859Y002582D02*
X019495Y002582D01*
X019495Y002741D02*
X018784Y002741D01*
X018076Y002741D02*
X017784Y002741D01*
X017859Y002582D02*
X018001Y002582D01*
X017993Y002424D02*
X017867Y002424D01*
X017867Y002265D02*
X017993Y002265D01*
X017993Y002107D02*
X017867Y002107D01*
X017867Y001948D02*
X017993Y001948D01*
X017996Y001790D02*
X017864Y001790D01*
X017820Y001631D02*
X018064Y001631D01*
X018280Y001473D02*
X017820Y001473D01*
X019495Y017957D02*
X015250Y017957D01*
X015382Y018115D02*
X019495Y018115D01*
X019495Y018274D02*
X017765Y018274D01*
X017672Y018235D02*
X017973Y018360D01*
X018204Y018591D01*
X019495Y018591D01*
X019495Y018749D02*
X018270Y018749D01*
X018329Y018892D02*
X018204Y018591D01*
X018046Y018432D02*
X019495Y018432D01*
X019495Y018908D02*
X018329Y018908D01*
X018329Y018892D02*
X018329Y019218D01*
X018204Y019519D01*
X017973Y019750D01*
X017672Y019875D01*
X017346Y019875D01*
X017712Y019859D02*
X019495Y019859D01*
X019495Y019700D02*
X018024Y019700D01*
X018182Y019542D02*
X019495Y019542D01*
X019495Y019383D02*
X018261Y019383D01*
X018326Y019225D02*
X019495Y019225D01*
X019495Y019066D02*
X018329Y019066D01*
X017672Y018235D02*
X017346Y018235D01*
X017044Y018360D01*
X017253Y018274D02*
X015426Y018274D01*
X001084Y006862D02*
X001070Y006862D01*
M02*
