G75*
G70*
%OFA0B0*%
%FSLAX24Y24*%
%IPPOS*%
%LPD*%
%AMOC8*
5,1,8,0,0,1.08239X$1,22.5*
%
%ADD10C,0.0000*%
%ADD11C,0.0060*%
%ADD12C,0.0050*%
%ADD13R,0.0005X0.0005*%
%ADD14R,0.0005X0.0052*%
%ADD15R,0.0005X0.0095*%
%ADD16R,0.0005X0.0124*%
%ADD17R,0.0005X0.0143*%
%ADD18R,0.0005X0.0152*%
%ADD19R,0.0005X0.0167*%
%ADD20R,0.0005X0.0048*%
%ADD21R,0.0005X0.0048*%
%ADD22R,0.0005X0.0176*%
%ADD23R,0.0005X0.0043*%
%ADD24R,0.0005X0.0067*%
%ADD25R,0.0005X0.0076*%
%ADD26R,0.0005X0.0057*%
%ADD27R,0.0005X0.0057*%
%ADD28R,0.0005X0.0038*%
%ADD29R,0.0005X0.0071*%
%ADD30R,0.0005X0.0181*%
%ADD31R,0.0005X0.0005*%
%ADD32R,0.0005X0.0081*%
%ADD33R,0.0005X0.0171*%
%ADD34R,0.0005X0.0186*%
%ADD35R,0.0005X0.0043*%
%ADD36R,0.0005X0.0067*%
%ADD37R,0.0005X0.0005*%
%ADD38R,0.0005X0.0057*%
%ADD39R,0.0005X0.0067*%
%ADD40R,0.0005X0.0062*%
%ADD41R,0.0005X0.0162*%
%ADD42R,0.0005X0.0048*%
%ADD43R,0.0005X0.0062*%
%ADD44R,0.0005X0.0248*%
%ADD45R,0.0005X0.0043*%
%ADD46R,0.0005X0.0052*%
%ADD47R,0.0005X0.0100*%
%ADD48R,0.0005X0.0086*%
%ADD49R,0.0005X0.0138*%
%ADD50R,0.0005X0.0138*%
%ADD51R,0.0005X0.0291*%
%ADD52R,0.0005X0.0081*%
%ADD53R,0.0005X0.0119*%
%ADD54R,0.0005X0.0105*%
%ADD55R,0.0005X0.0143*%
%ADD56R,0.0005X0.0143*%
%ADD57R,0.0005X0.0081*%
%ADD58R,0.0005X0.0129*%
%ADD59R,0.0005X0.0086*%
%ADD60R,0.0005X0.0329*%
%ADD61R,0.0005X0.0091*%
%ADD62R,0.0005X0.0071*%
%ADD63R,0.0005X0.0133*%
%ADD64R,0.0005X0.0124*%
%ADD65R,0.0005X0.0095*%
%ADD66R,0.0005X0.0133*%
%ADD67R,0.0005X0.0100*%
%ADD68R,0.0005X0.0367*%
%ADD69R,0.0005X0.0148*%
%ADD70R,0.0005X0.0133*%
%ADD71R,0.0005X0.0157*%
%ADD72R,0.0005X0.0176*%
%ADD73R,0.0005X0.0086*%
%ADD74R,0.0005X0.0110*%
%ADD75R,0.0005X0.0400*%
%ADD76R,0.0005X0.0167*%
%ADD77R,0.0005X0.0181*%
%ADD78R,0.0005X0.0167*%
%ADD79R,0.0005X0.0424*%
%ADD80R,0.0005X0.0019*%
%ADD81R,0.0005X0.0148*%
%ADD82R,0.0005X0.0171*%
%ADD83R,0.0005X0.0024*%
%ADD84R,0.0005X0.0062*%
%ADD85R,0.0005X0.0453*%
%ADD86R,0.0005X0.0052*%
%ADD87R,0.0005X0.0010*%
%ADD88R,0.0005X0.0010*%
%ADD89R,0.0005X0.0481*%
%ADD90R,0.0005X0.0505*%
%ADD91R,0.0005X0.0071*%
%ADD92R,0.0005X0.0024*%
%ADD93R,0.0005X0.0033*%
%ADD94R,0.0005X0.0024*%
%ADD95R,0.0005X0.0529*%
%ADD96R,0.0005X0.0029*%
%ADD97R,0.0005X0.0029*%
%ADD98R,0.0005X0.0033*%
%ADD99R,0.0005X0.0543*%
%ADD100R,0.0005X0.0014*%
%ADD101R,0.0005X0.0014*%
%ADD102R,0.0005X0.0567*%
%ADD103R,0.0005X0.0586*%
%ADD104R,0.0005X0.0605*%
%ADD105R,0.0005X0.0624*%
%ADD106R,0.0005X0.0643*%
%ADD107R,0.0005X0.0272*%
%ADD108R,0.0005X0.0267*%
%ADD109R,0.0005X0.0243*%
%ADD110R,0.0005X0.0238*%
%ADD111R,0.0005X0.0224*%
%ADD112R,0.0005X0.0224*%
%ADD113R,0.0005X0.0214*%
%ADD114R,0.0005X0.0219*%
%ADD115R,0.0005X0.0205*%
%ADD116R,0.0005X0.0200*%
%ADD117R,0.0005X0.0076*%
%ADD118R,0.0005X0.0191*%
%ADD119R,0.0005X0.0195*%
%ADD120R,0.0005X0.0186*%
%ADD121R,0.0005X0.0105*%
%ADD122R,0.0005X0.0195*%
%ADD123R,0.0005X0.0091*%
%ADD124R,0.0005X0.0200*%
%ADD125R,0.0005X0.0176*%
%ADD126R,0.0005X0.0076*%
%ADD127R,0.0005X0.0157*%
%ADD128R,0.0005X0.0162*%
%ADD129R,0.0005X0.0148*%
%ADD130R,0.0005X0.0009*%
%ADD131R,0.0005X0.0019*%
%ADD132R,0.0005X0.0033*%
%ADD133R,0.0005X0.0224*%
%ADD134R,0.0005X0.0138*%
%ADD135R,0.0005X0.0029*%
%ADD136R,0.0005X0.0257*%
%ADD137R,0.0005X0.0129*%
%ADD138R,0.0005X0.0095*%
%ADD139R,0.0005X0.0319*%
%ADD140R,0.0005X0.0129*%
%ADD141R,0.0005X0.0353*%
%ADD142R,0.0005X0.0162*%
%ADD143R,0.0005X0.0124*%
%ADD144R,0.0005X0.0119*%
%ADD145R,0.0005X0.0114*%
%ADD146R,0.0005X0.0100*%
%ADD147R,0.0005X0.0119*%
%ADD148R,0.0005X0.0090*%
%ADD149R,0.0005X0.0110*%
%ADD150R,0.0005X0.0110*%
%ADD151R,0.0005X0.0038*%
%ADD152R,0.0005X0.0157*%
%ADD153R,0.0005X0.0634*%
%ADD154R,0.0005X0.0629*%
%ADD155R,0.0005X0.0648*%
%ADD156R,0.0005X0.0657*%
%ADD157R,0.0005X0.0653*%
%ADD158R,0.0005X0.0662*%
%ADD159R,0.0005X0.0662*%
%ADD160R,0.0005X0.0672*%
%ADD161R,0.0005X0.0667*%
%ADD162R,0.0005X0.0676*%
%ADD163R,0.0005X0.0676*%
%ADD164R,0.0005X0.0681*%
%ADD165R,0.0005X0.0681*%
%ADD166R,0.0005X0.0686*%
%ADD167R,0.0005X0.0691*%
%ADD168R,0.0005X0.0696*%
%ADD169R,0.0005X0.0696*%
%ADD170R,0.0005X0.0700*%
%ADD171R,0.0005X0.0705*%
%ADD172R,0.0005X0.0700*%
%ADD173R,0.0005X0.0710*%
%ADD174R,0.0005X0.0715*%
%ADD175R,0.0005X0.0715*%
%ADD176R,0.0005X0.0715*%
%ADD177R,0.0005X0.0719*%
%ADD178R,0.0005X0.0719*%
%ADD179R,0.0005X0.0724*%
%ADD180R,0.0005X0.0105*%
%ADD181R,0.0005X0.0262*%
%ADD182R,0.0005X0.0114*%
%ADD183R,0.0005X0.0014*%
%ADD184R,0.0005X0.0172*%
%ADD185R,0.0005X0.0219*%
%ADD186R,0.0005X0.0248*%
%ADD187R,0.0005X0.0281*%
%ADD188R,0.0005X0.0329*%
%ADD189R,0.0005X0.0219*%
%ADD190R,0.0005X0.0391*%
%ADD191R,0.0005X0.0572*%
%ADD192R,0.0005X0.1100*%
%ADD193R,0.0005X0.0562*%
%ADD194R,0.0005X0.1096*%
%ADD195R,0.0005X0.0557*%
%ADD196R,0.0005X0.1086*%
%ADD197R,0.0005X0.0548*%
%ADD198R,0.0005X0.1077*%
%ADD199R,0.0005X0.0538*%
%ADD200R,0.0005X0.1062*%
%ADD201R,0.0005X0.0524*%
%ADD202R,0.0005X0.0529*%
%ADD203R,0.0005X0.0524*%
%ADD204R,0.0005X0.0514*%
%ADD205R,0.0005X0.0510*%
%ADD206R,0.0005X0.0514*%
%ADD207R,0.0005X0.0500*%
%ADD208R,0.0005X0.0500*%
%ADD209R,0.0005X0.0500*%
%ADD210R,0.0005X0.0486*%
%ADD211R,0.0005X0.0481*%
%ADD212R,0.0005X0.0472*%
%ADD213R,0.0005X0.0472*%
%ADD214R,0.0005X0.0448*%
%ADD215R,0.0005X0.0453*%
%ADD216R,0.0005X0.0434*%
%ADD217R,0.0005X0.0429*%
%ADD218R,0.0005X0.0410*%
%ADD219R,0.0005X0.0414*%
%ADD220R,0.0005X0.0386*%
%ADD221R,0.0005X0.0386*%
%ADD222R,0.0005X0.0357*%
%ADD223R,0.0005X0.0357*%
%ADD224R,0.0005X0.0643*%
%ADD225R,0.0005X0.0624*%
%ADD226R,0.0005X0.0286*%
%ADD227R,0.0005X0.0286*%
%ADD228R,0.0005X0.0243*%
%ADD229R,0.0005X0.0195*%
%ADD230R,0.0005X0.0205*%
%ADD231R,0.0005X0.0214*%
%ADD232R,0.0005X0.0229*%
%ADD233R,0.0005X0.0638*%
%ADD234R,0.0005X0.0581*%
%ADD235R,0.0005X0.0476*%
%ADD236R,0.0005X0.0362*%
%ADD237R,0.0005X0.0291*%
%ADD238R,0.0005X0.0243*%
%ADD239C,0.0040*%
%ADD240C,0.0004*%
D10*
X000180Y000680D02*
X000180Y020176D01*
X019675Y020176D01*
X019675Y000680D01*
X000180Y000680D01*
X007626Y012869D02*
X007635Y012876D01*
X007635Y012878D02*
X007626Y012878D01*
X007631Y012878D02*
X007632Y012880D01*
X007632Y012883D01*
X007631Y012884D01*
X007626Y012884D01*
X007627Y012887D02*
X007626Y012888D01*
X007626Y012892D01*
X007627Y012893D01*
X007631Y012893D01*
X007632Y012892D01*
X007632Y012888D01*
X007631Y012887D01*
X007627Y012887D01*
X007626Y012896D02*
X007632Y012896D01*
X007632Y012897D01*
X007631Y012899D01*
X007632Y012900D01*
X007631Y012902D01*
X007626Y012902D01*
X007627Y012904D02*
X007631Y012904D01*
X007632Y012906D01*
X007632Y012909D01*
X007631Y012911D01*
X007629Y012911D01*
X007629Y012904D01*
X007627Y012904D02*
X007626Y012906D01*
X007626Y012909D01*
X007626Y012913D02*
X007635Y012919D01*
X007632Y012922D02*
X007632Y012927D01*
X007631Y012928D01*
X007626Y012928D01*
X007627Y012931D02*
X007631Y012931D01*
X007632Y012932D01*
X007632Y012935D01*
X007631Y012937D01*
X007629Y012937D01*
X007629Y012931D01*
X007627Y012931D02*
X007626Y012932D01*
X007626Y012935D01*
X007626Y012939D02*
X007626Y012944D01*
X007627Y012946D01*
X007631Y012946D01*
X007632Y012944D01*
X007632Y012939D01*
X007623Y012939D01*
X007626Y012948D02*
X007635Y012948D01*
X007632Y012950D02*
X007632Y012953D01*
X007631Y012954D01*
X007626Y012954D01*
X007626Y012957D02*
X007626Y012960D01*
X007626Y012959D02*
X007632Y012959D01*
X007632Y012957D01*
X007635Y012959D02*
X007637Y012959D01*
X007632Y012963D02*
X007626Y012963D01*
X007629Y012963D02*
X007632Y012966D01*
X007632Y012968D01*
X007632Y012970D02*
X007627Y012970D01*
X007626Y012972D01*
X007626Y012976D01*
X007632Y012976D01*
X007631Y012979D02*
X007632Y012980D01*
X007632Y012985D01*
X007629Y012984D02*
X007627Y012985D01*
X007626Y012984D01*
X007626Y012979D01*
X007629Y012980D02*
X007631Y012979D01*
X007629Y012980D02*
X007629Y012984D01*
X007626Y012988D02*
X007635Y012994D01*
X007635Y012996D02*
X007626Y012996D01*
X007626Y013001D01*
X007627Y013003D01*
X007631Y013003D01*
X007632Y013001D01*
X007632Y012996D01*
X007632Y013005D02*
X007626Y013005D01*
X007629Y013005D02*
X007632Y013008D01*
X007632Y013010D01*
X007632Y013012D02*
X007632Y013014D01*
X007631Y013016D01*
X007632Y013017D01*
X007631Y013019D01*
X007626Y013019D01*
X007626Y013021D02*
X007626Y013024D01*
X007626Y013023D02*
X007635Y013023D01*
X007635Y013021D01*
X007631Y013016D02*
X007626Y013016D01*
X007626Y013012D02*
X007632Y013012D01*
X007627Y013027D02*
X007629Y013029D01*
X007629Y013033D01*
X007631Y013033D02*
X007626Y013033D01*
X007626Y013029D01*
X007627Y013027D01*
X007632Y013029D02*
X007632Y013032D01*
X007631Y013033D01*
X007632Y013036D02*
X007632Y013041D01*
X007631Y013042D01*
X007627Y013042D01*
X007626Y013041D01*
X007626Y013036D01*
X007635Y013036D01*
X007627Y013045D02*
X007627Y013046D01*
X007626Y013046D01*
X007626Y013045D01*
X007627Y013045D01*
X007626Y013049D02*
X007626Y013054D01*
X007627Y013055D01*
X007631Y013055D01*
X007632Y013054D01*
X007632Y013049D01*
X007635Y013049D02*
X007626Y013049D01*
X007626Y013058D02*
X007632Y013058D01*
X007632Y013059D01*
X007631Y013061D01*
X007632Y013063D01*
X007631Y013064D01*
X007626Y013064D01*
X007626Y013067D02*
X007626Y013071D01*
X007627Y013073D01*
X007631Y013073D01*
X007632Y013071D01*
X007632Y013067D01*
X007623Y013067D01*
X007626Y013061D02*
X007631Y013061D01*
X007632Y012950D02*
X007631Y012948D01*
X007626Y012922D02*
X007632Y012922D01*
X007631Y012899D02*
X007626Y012899D01*
X016869Y012805D02*
X016871Y012855D01*
X016877Y012905D01*
X016887Y012954D01*
X016900Y013003D01*
X016918Y013050D01*
X016939Y013096D01*
X016963Y013139D01*
X016991Y013181D01*
X017022Y013221D01*
X017056Y013258D01*
X017093Y013292D01*
X017133Y013323D01*
X017175Y013351D01*
X017218Y013375D01*
X017264Y013396D01*
X017311Y013414D01*
X017360Y013427D01*
X017409Y013437D01*
X017459Y013443D01*
X017509Y013445D01*
X017559Y013443D01*
X017609Y013437D01*
X017658Y013427D01*
X017707Y013414D01*
X017754Y013396D01*
X017800Y013375D01*
X017843Y013351D01*
X017885Y013323D01*
X017925Y013292D01*
X017962Y013258D01*
X017996Y013221D01*
X018027Y013181D01*
X018055Y013139D01*
X018079Y013096D01*
X018100Y013050D01*
X018118Y013003D01*
X018131Y012954D01*
X018141Y012905D01*
X018147Y012855D01*
X018149Y012805D01*
X018147Y012755D01*
X018141Y012705D01*
X018131Y012656D01*
X018118Y012607D01*
X018100Y012560D01*
X018079Y012514D01*
X018055Y012471D01*
X018027Y012429D01*
X017996Y012389D01*
X017962Y012352D01*
X017925Y012318D01*
X017885Y012287D01*
X017843Y012259D01*
X017800Y012235D01*
X017754Y012214D01*
X017707Y012196D01*
X017658Y012183D01*
X017609Y012173D01*
X017559Y012167D01*
X017509Y012165D01*
X017459Y012167D01*
X017409Y012173D01*
X017360Y012183D01*
X017311Y012196D01*
X017264Y012214D01*
X017218Y012235D01*
X017175Y012259D01*
X017133Y012287D01*
X017093Y012318D01*
X017056Y012352D01*
X017022Y012389D01*
X016991Y012429D01*
X016963Y012471D01*
X016939Y012514D01*
X016918Y012560D01*
X016900Y012607D01*
X016887Y012656D01*
X016877Y012705D01*
X016871Y012755D01*
X016869Y012805D01*
X016869Y015055D02*
X016871Y015105D01*
X016877Y015155D01*
X016887Y015204D01*
X016900Y015253D01*
X016918Y015300D01*
X016939Y015346D01*
X016963Y015389D01*
X016991Y015431D01*
X017022Y015471D01*
X017056Y015508D01*
X017093Y015542D01*
X017133Y015573D01*
X017175Y015601D01*
X017218Y015625D01*
X017264Y015646D01*
X017311Y015664D01*
X017360Y015677D01*
X017409Y015687D01*
X017459Y015693D01*
X017509Y015695D01*
X017559Y015693D01*
X017609Y015687D01*
X017658Y015677D01*
X017707Y015664D01*
X017754Y015646D01*
X017800Y015625D01*
X017843Y015601D01*
X017885Y015573D01*
X017925Y015542D01*
X017962Y015508D01*
X017996Y015471D01*
X018027Y015431D01*
X018055Y015389D01*
X018079Y015346D01*
X018100Y015300D01*
X018118Y015253D01*
X018131Y015204D01*
X018141Y015155D01*
X018147Y015105D01*
X018149Y015055D01*
X018147Y015005D01*
X018141Y014955D01*
X018131Y014906D01*
X018118Y014857D01*
X018100Y014810D01*
X018079Y014764D01*
X018055Y014721D01*
X018027Y014679D01*
X017996Y014639D01*
X017962Y014602D01*
X017925Y014568D01*
X017885Y014537D01*
X017843Y014509D01*
X017800Y014485D01*
X017754Y014464D01*
X017707Y014446D01*
X017658Y014433D01*
X017609Y014423D01*
X017559Y014417D01*
X017509Y014415D01*
X017459Y014417D01*
X017409Y014423D01*
X017360Y014433D01*
X017311Y014446D01*
X017264Y014464D01*
X017218Y014485D01*
X017175Y014509D01*
X017133Y014537D01*
X017093Y014568D01*
X017056Y014602D01*
X017022Y014639D01*
X016991Y014679D01*
X016963Y014721D01*
X016939Y014764D01*
X016918Y014810D01*
X016900Y014857D01*
X016887Y014906D01*
X016877Y014955D01*
X016871Y015005D01*
X016869Y015055D01*
X016869Y019055D02*
X016871Y019105D01*
X016877Y019155D01*
X016887Y019204D01*
X016900Y019253D01*
X016918Y019300D01*
X016939Y019346D01*
X016963Y019389D01*
X016991Y019431D01*
X017022Y019471D01*
X017056Y019508D01*
X017093Y019542D01*
X017133Y019573D01*
X017175Y019601D01*
X017218Y019625D01*
X017264Y019646D01*
X017311Y019664D01*
X017360Y019677D01*
X017409Y019687D01*
X017459Y019693D01*
X017509Y019695D01*
X017559Y019693D01*
X017609Y019687D01*
X017658Y019677D01*
X017707Y019664D01*
X017754Y019646D01*
X017800Y019625D01*
X017843Y019601D01*
X017885Y019573D01*
X017925Y019542D01*
X017962Y019508D01*
X017996Y019471D01*
X018027Y019431D01*
X018055Y019389D01*
X018079Y019346D01*
X018100Y019300D01*
X018118Y019253D01*
X018131Y019204D01*
X018141Y019155D01*
X018147Y019105D01*
X018149Y019055D01*
X018147Y019005D01*
X018141Y018955D01*
X018131Y018906D01*
X018118Y018857D01*
X018100Y018810D01*
X018079Y018764D01*
X018055Y018721D01*
X018027Y018679D01*
X017996Y018639D01*
X017962Y018602D01*
X017925Y018568D01*
X017885Y018537D01*
X017843Y018509D01*
X017800Y018485D01*
X017754Y018464D01*
X017707Y018446D01*
X017658Y018433D01*
X017609Y018423D01*
X017559Y018417D01*
X017509Y018415D01*
X017459Y018417D01*
X017409Y018423D01*
X017360Y018433D01*
X017311Y018446D01*
X017264Y018464D01*
X017218Y018485D01*
X017175Y018509D01*
X017133Y018537D01*
X017093Y018568D01*
X017056Y018602D01*
X017022Y018639D01*
X016991Y018679D01*
X016963Y018721D01*
X016939Y018764D01*
X016918Y018810D01*
X016900Y018857D01*
X016887Y018906D01*
X016877Y018955D01*
X016871Y019005D01*
X016869Y019055D01*
X016869Y008805D02*
X016871Y008855D01*
X016877Y008905D01*
X016887Y008954D01*
X016900Y009003D01*
X016918Y009050D01*
X016939Y009096D01*
X016963Y009139D01*
X016991Y009181D01*
X017022Y009221D01*
X017056Y009258D01*
X017093Y009292D01*
X017133Y009323D01*
X017175Y009351D01*
X017218Y009375D01*
X017264Y009396D01*
X017311Y009414D01*
X017360Y009427D01*
X017409Y009437D01*
X017459Y009443D01*
X017509Y009445D01*
X017559Y009443D01*
X017609Y009437D01*
X017658Y009427D01*
X017707Y009414D01*
X017754Y009396D01*
X017800Y009375D01*
X017843Y009351D01*
X017885Y009323D01*
X017925Y009292D01*
X017962Y009258D01*
X017996Y009221D01*
X018027Y009181D01*
X018055Y009139D01*
X018079Y009096D01*
X018100Y009050D01*
X018118Y009003D01*
X018131Y008954D01*
X018141Y008905D01*
X018147Y008855D01*
X018149Y008805D01*
X018147Y008755D01*
X018141Y008705D01*
X018131Y008656D01*
X018118Y008607D01*
X018100Y008560D01*
X018079Y008514D01*
X018055Y008471D01*
X018027Y008429D01*
X017996Y008389D01*
X017962Y008352D01*
X017925Y008318D01*
X017885Y008287D01*
X017843Y008259D01*
X017800Y008235D01*
X017754Y008214D01*
X017707Y008196D01*
X017658Y008183D01*
X017609Y008173D01*
X017559Y008167D01*
X017509Y008165D01*
X017459Y008167D01*
X017409Y008173D01*
X017360Y008183D01*
X017311Y008196D01*
X017264Y008214D01*
X017218Y008235D01*
X017175Y008259D01*
X017133Y008287D01*
X017093Y008318D01*
X017056Y008352D01*
X017022Y008389D01*
X016991Y008429D01*
X016963Y008471D01*
X016939Y008514D01*
X016918Y008560D01*
X016900Y008607D01*
X016887Y008656D01*
X016877Y008705D01*
X016871Y008755D01*
X016869Y008805D01*
D11*
X018457Y008836D02*
X019097Y008836D01*
X019097Y008730D02*
X019097Y008943D01*
X018990Y009159D02*
X019097Y009266D01*
X019097Y009480D01*
X018990Y009586D01*
X018884Y009586D01*
X018457Y009159D01*
X018457Y009586D01*
X018563Y009804D02*
X018457Y009911D01*
X018457Y010124D01*
X018563Y010231D01*
X018777Y010448D02*
X018777Y010876D01*
X018990Y011093D02*
X018563Y011093D01*
X018457Y011200D01*
X018457Y011413D01*
X018563Y011520D01*
X018990Y011520D01*
X019097Y011413D01*
X019097Y011200D01*
X018990Y011093D01*
X019097Y011738D02*
X018563Y011738D01*
X018457Y011844D01*
X018457Y012058D01*
X018563Y012165D01*
X019097Y012165D01*
X019097Y012382D02*
X019097Y012809D01*
X019097Y012596D02*
X018457Y012596D01*
X018990Y010231D02*
X019097Y010124D01*
X019097Y009911D01*
X018990Y009804D01*
X018563Y009804D01*
X018457Y008943D02*
X018457Y008730D01*
X018476Y015397D02*
X018476Y015611D01*
X018476Y015504D02*
X019116Y015504D01*
X019116Y015397D02*
X019116Y015611D01*
X019009Y015827D02*
X019116Y015934D01*
X019116Y016147D01*
X019009Y016254D01*
X018903Y016254D01*
X018476Y015827D01*
X018476Y016254D01*
X018582Y016472D02*
X018476Y016578D01*
X018476Y016792D01*
X018582Y016899D01*
X018796Y017116D02*
X018796Y017543D01*
X018476Y017761D02*
X018476Y017974D01*
X018476Y017868D02*
X019116Y017868D01*
X019116Y017974D02*
X019116Y017761D01*
X019116Y018190D02*
X018476Y018617D01*
X019116Y018617D01*
X019116Y018190D02*
X018476Y018190D01*
X019009Y016899D02*
X019116Y016792D01*
X019116Y016578D01*
X019009Y016472D01*
X018582Y016472D01*
X007670Y015205D02*
X007243Y015205D01*
X001436Y001494D02*
X001436Y001067D01*
X001650Y001280D02*
X001223Y001280D01*
D12*
X003180Y001305D02*
X003618Y001305D01*
D13*
X008050Y007621D03*
X008050Y007630D03*
X008050Y007640D03*
X008050Y007649D03*
X008050Y007659D03*
X008050Y007668D03*
X008050Y007678D03*
X008050Y007688D03*
X008050Y007697D03*
X008050Y007707D03*
X008050Y007716D03*
X008050Y007726D03*
X008050Y007735D03*
X008050Y007745D03*
X008050Y007754D03*
X008050Y007764D03*
X008050Y007773D03*
X008050Y007783D03*
X008050Y007792D03*
X008050Y007802D03*
X008050Y007811D03*
X008050Y007821D03*
X008050Y007830D03*
X008050Y007840D03*
X008050Y007850D03*
X008050Y007859D03*
X008050Y007869D03*
X008050Y007878D03*
X008050Y007888D03*
X008050Y007897D03*
X008050Y007907D03*
X008050Y007916D03*
X008050Y007926D03*
X008050Y007935D03*
X008050Y007945D03*
X008050Y007954D03*
X008050Y007964D03*
X008050Y007973D03*
X008050Y007983D03*
X008050Y007992D03*
X008050Y008002D03*
X008050Y008011D03*
X008050Y008021D03*
X008050Y008031D03*
X008050Y008040D03*
X008050Y008050D03*
X008050Y008059D03*
X008050Y008069D03*
X008050Y008078D03*
X008050Y008088D03*
X008050Y008097D03*
X008050Y008107D03*
X008050Y008116D03*
X008050Y008126D03*
X008050Y008135D03*
X008050Y008145D03*
X008050Y008154D03*
X008050Y008164D03*
X008050Y008173D03*
X008050Y008183D03*
X008050Y008193D03*
X008050Y008202D03*
X008050Y008212D03*
X008050Y008364D03*
X008050Y008374D03*
X008050Y008383D03*
X008050Y008393D03*
X008050Y008402D03*
X008050Y008412D03*
X008050Y008421D03*
X008050Y008431D03*
X008050Y008440D03*
X008050Y008450D03*
X008050Y008459D03*
X008050Y008469D03*
X008050Y008478D03*
X008050Y008488D03*
X008050Y008497D03*
X008050Y008507D03*
X008050Y008516D03*
X008050Y008526D03*
X008050Y008535D03*
X008050Y008545D03*
X008050Y008555D03*
X008050Y008564D03*
X008050Y008574D03*
X008050Y008583D03*
X008050Y008593D03*
X008050Y008602D03*
X008050Y008612D03*
X008050Y008621D03*
X008050Y008631D03*
X008050Y008640D03*
X008050Y008650D03*
X008050Y008659D03*
X008050Y008669D03*
X008050Y008678D03*
X008050Y008688D03*
X008050Y008697D03*
X008050Y008707D03*
X008050Y008717D03*
X008050Y008726D03*
X008050Y008736D03*
X008050Y008745D03*
X008050Y008755D03*
X008050Y008764D03*
X008050Y008774D03*
X008050Y008783D03*
X008050Y008793D03*
X008050Y008802D03*
X008050Y008812D03*
X008050Y008821D03*
X008050Y008831D03*
X008050Y008840D03*
X008050Y008850D03*
X008050Y008859D03*
X008050Y008869D03*
X008050Y008878D03*
X008050Y008888D03*
X008050Y008898D03*
X008050Y008907D03*
X008050Y008917D03*
X008050Y008926D03*
X008050Y008936D03*
X008050Y008945D03*
X008050Y008955D03*
X008050Y008964D03*
X008050Y009269D03*
X008050Y009288D03*
X008050Y009298D03*
X008050Y009307D03*
X008050Y009326D03*
X008050Y009336D03*
X008050Y009345D03*
X008050Y009503D03*
X008050Y009512D03*
X008050Y009522D03*
X008050Y009541D03*
X008050Y009550D03*
X008050Y009560D03*
X008050Y009579D03*
X008050Y009588D03*
X008402Y009398D03*
X008288Y009102D03*
X008288Y009093D03*
X008288Y009064D03*
X008288Y009055D03*
X008474Y009040D03*
X008507Y008831D03*
X008507Y008821D03*
X008507Y008812D03*
X008507Y008802D03*
X008507Y008793D03*
X008345Y008697D03*
X008326Y008736D03*
X008288Y008798D03*
X008288Y008826D03*
X008355Y008612D03*
X008359Y008612D03*
X008326Y008555D03*
X008326Y008535D03*
X008288Y008269D03*
X008288Y008259D03*
X008288Y008250D03*
X008288Y008240D03*
X008288Y008231D03*
X008288Y008221D03*
X008288Y008212D03*
X008288Y008202D03*
X008288Y008193D03*
X008288Y008183D03*
X008321Y008193D03*
X008321Y008202D03*
X008288Y008088D03*
X008288Y008078D03*
X008288Y008069D03*
X008288Y008059D03*
X008288Y007950D03*
X008288Y007921D03*
X008474Y008002D03*
X008507Y007954D03*
X008507Y007945D03*
X008507Y007935D03*
X008507Y007926D03*
X008507Y007916D03*
X008469Y007716D03*
X008469Y007697D03*
X008440Y008264D03*
X008583Y008269D03*
X008583Y008293D03*
X008617Y008307D03*
X008469Y009745D03*
X008050Y010031D03*
X008050Y010050D03*
X008050Y010060D03*
X008050Y010069D03*
X008050Y010088D03*
X008050Y010098D03*
X008050Y010108D03*
X008288Y010317D03*
X008288Y010327D03*
X008288Y010336D03*
X008288Y010355D03*
X008288Y010365D03*
X008288Y010374D03*
X008288Y010517D03*
X008507Y010517D03*
X008507Y010579D03*
X008507Y010808D03*
X008507Y010827D03*
X008326Y010751D03*
X008288Y010808D03*
X008288Y010827D03*
X008507Y011056D03*
X008507Y011194D03*
X008507Y011213D03*
X008507Y011232D03*
X008507Y011365D03*
X008507Y011384D03*
X008288Y011251D03*
X008288Y011232D03*
X008288Y011213D03*
X008050Y011232D03*
X008050Y011251D03*
X008050Y011270D03*
X008050Y011289D03*
X008050Y011308D03*
X008050Y011613D03*
X008050Y011632D03*
X008050Y011651D03*
X008050Y011670D03*
X008050Y011689D03*
X008050Y011708D03*
X008050Y011727D03*
X008050Y011746D03*
X008050Y011765D03*
X008050Y011784D03*
X008050Y011803D03*
X008050Y011823D03*
X008050Y011842D03*
X008050Y011861D03*
X008050Y011880D03*
X008050Y011899D03*
X008050Y011918D03*
X008050Y011937D03*
X008050Y011956D03*
X008050Y011975D03*
X008050Y011994D03*
X008050Y012013D03*
X008050Y012032D03*
X008050Y012051D03*
X008050Y012070D03*
X008050Y012089D03*
X008050Y012108D03*
X008050Y012127D03*
X008050Y012137D03*
X008050Y012146D03*
X008050Y012156D03*
X008050Y012165D03*
X008050Y012175D03*
X008050Y012185D03*
X008050Y012194D03*
X008479Y011842D03*
X008507Y012027D03*
X008507Y012046D03*
X008507Y012156D03*
X008507Y012165D03*
X008507Y012175D03*
X008507Y012185D03*
X008507Y012194D03*
X008078Y013371D03*
X008078Y013380D03*
X008078Y013390D03*
X008140Y013442D03*
X007430Y011570D03*
X007507Y011075D03*
X007411Y011056D03*
X007411Y010965D03*
X007416Y010436D03*
X007411Y010393D03*
X007411Y010298D03*
X007411Y010289D03*
X007416Y010246D03*
X007507Y010279D03*
X007507Y010403D03*
X008050Y010560D03*
X008050Y010579D03*
X008050Y010598D03*
X008050Y010617D03*
X008050Y010636D03*
X007411Y009865D03*
X007411Y009855D03*
X007411Y009845D03*
X007411Y009779D03*
X007411Y009769D03*
X007416Y009717D03*
X007507Y009750D03*
D14*
X008455Y010222D03*
X008502Y009960D03*
X008359Y010589D03*
X008326Y010589D03*
X008355Y010817D03*
X008359Y010817D03*
X008331Y011089D03*
X008293Y011237D03*
X008297Y011241D03*
X008317Y011256D03*
X008321Y011260D03*
X008336Y011275D03*
X008340Y011279D03*
X008359Y011294D03*
X008364Y011298D03*
X008383Y011318D03*
X008445Y011637D03*
X008340Y012170D03*
X008245Y013304D03*
X007926Y013385D03*
X007683Y013323D03*
X007516Y013380D03*
X007507Y013371D03*
X007492Y013352D03*
X008345Y008964D03*
X008350Y008964D03*
X008355Y008959D03*
X008450Y008964D03*
X008455Y008969D03*
X008359Y008807D03*
X008355Y008807D03*
X008326Y008588D03*
X008412Y008564D03*
X008474Y008588D03*
X008469Y008488D03*
X008378Y008488D03*
X008402Y008321D03*
X008474Y008316D03*
X008531Y008202D03*
X008617Y008273D03*
X008455Y007940D03*
X008450Y007783D03*
X008455Y007778D03*
X008326Y007668D03*
D15*
X008502Y007709D03*
X008426Y008276D03*
X008612Y008276D03*
X008393Y008509D03*
X007954Y008409D03*
X007950Y008409D03*
X007945Y008409D03*
X007940Y008409D03*
X007935Y008409D03*
X007931Y008409D03*
X007926Y008409D03*
X007921Y008409D03*
X007916Y008409D03*
X007912Y008409D03*
X007907Y008409D03*
X007902Y008409D03*
X007897Y008409D03*
X007893Y008409D03*
X007888Y008409D03*
X007883Y008409D03*
X007878Y008409D03*
X007874Y008409D03*
X007869Y008409D03*
X007864Y008409D03*
X007859Y008409D03*
X007854Y008409D03*
X007850Y008409D03*
X007845Y008409D03*
X007840Y008409D03*
X007835Y008409D03*
X007831Y008409D03*
X007826Y008409D03*
X007821Y008409D03*
X007816Y008409D03*
X007812Y008409D03*
X007807Y008409D03*
X007802Y008409D03*
X007797Y008409D03*
X007793Y008409D03*
X007788Y008409D03*
X007783Y008409D03*
X007778Y008409D03*
X007773Y008409D03*
X007769Y008409D03*
X007764Y008409D03*
X007759Y008409D03*
X007754Y008409D03*
X007750Y008409D03*
X007745Y008409D03*
X007740Y008409D03*
X007735Y008409D03*
X007731Y008409D03*
X007726Y008409D03*
X007721Y008409D03*
X007716Y008409D03*
X007712Y008409D03*
X007707Y008409D03*
X007702Y008409D03*
X007697Y008409D03*
X007692Y008409D03*
X007688Y008409D03*
X007683Y008409D03*
X007678Y008409D03*
X007673Y008409D03*
X007669Y008409D03*
X007664Y008409D03*
X007659Y008409D03*
X007654Y008409D03*
X007650Y008409D03*
X007645Y008409D03*
X007640Y008409D03*
X007635Y008409D03*
X007631Y008409D03*
X007626Y008409D03*
X007621Y008409D03*
X007616Y008409D03*
X007611Y008409D03*
X007607Y008409D03*
X007602Y008409D03*
X007597Y008409D03*
X007592Y008409D03*
X007588Y008409D03*
X007583Y008409D03*
X007578Y008409D03*
X007573Y008409D03*
X007569Y008409D03*
X007564Y008409D03*
X007559Y008409D03*
X007554Y008409D03*
X007550Y008409D03*
X007545Y008409D03*
X007540Y008409D03*
X007535Y008409D03*
X007531Y008409D03*
X007526Y008409D03*
X007521Y008409D03*
X007521Y008166D03*
X007426Y008166D03*
X007583Y007518D03*
X007588Y007518D03*
X007597Y007514D03*
X007602Y007514D03*
X007607Y007514D03*
X007678Y007499D03*
X007688Y007499D03*
X007692Y007499D03*
X007702Y007499D03*
X007707Y007499D03*
X007712Y007499D03*
X007716Y007499D03*
X007721Y007499D03*
X007726Y007499D03*
X007731Y007499D03*
X007740Y007499D03*
X007750Y007499D03*
X007754Y007499D03*
X007759Y007499D03*
X007764Y007499D03*
X007769Y007499D03*
X007773Y007499D03*
X007778Y007499D03*
X007788Y007499D03*
X007869Y007514D03*
X007874Y007514D03*
X007878Y007514D03*
X007888Y007518D03*
X007893Y007518D03*
X007897Y009057D03*
X007883Y009062D03*
X007878Y009062D03*
X007874Y009062D03*
X007807Y009076D03*
X007802Y009076D03*
X007797Y009076D03*
X007788Y009076D03*
X007783Y009076D03*
X007773Y009076D03*
X007735Y009081D03*
X007692Y009076D03*
X007683Y009076D03*
X007678Y009076D03*
X007673Y009076D03*
X007664Y009076D03*
X007602Y009062D03*
X007597Y009062D03*
X007592Y009062D03*
X007578Y009057D03*
X008502Y009481D03*
X008045Y010605D03*
X008040Y010605D03*
X008035Y010605D03*
X008031Y010605D03*
X008026Y010605D03*
X008021Y010605D03*
X008016Y010605D03*
X008012Y010605D03*
X008007Y010605D03*
X008002Y010605D03*
X007997Y010605D03*
X007993Y010605D03*
X007988Y010605D03*
X007983Y010605D03*
X007978Y010605D03*
X007974Y010605D03*
X007969Y010605D03*
X007964Y010605D03*
X007959Y010605D03*
X007954Y010605D03*
X007950Y010605D03*
X007945Y010605D03*
X007940Y010605D03*
X007935Y010605D03*
X007931Y010605D03*
X007926Y010605D03*
X007921Y010605D03*
X007916Y010605D03*
X007912Y010605D03*
X007907Y010605D03*
X007902Y010605D03*
X007897Y010605D03*
X007893Y010605D03*
X007888Y010605D03*
X007883Y010605D03*
X007878Y010605D03*
X007874Y010605D03*
X007869Y010605D03*
X007864Y010605D03*
X007859Y010605D03*
X007854Y010605D03*
X007850Y010605D03*
X007845Y010605D03*
X007840Y010605D03*
X007835Y010605D03*
X007831Y010605D03*
X007826Y010605D03*
X007821Y010605D03*
X007816Y010605D03*
X007812Y010605D03*
X007807Y010605D03*
X007802Y010605D03*
X007797Y010605D03*
X007793Y010605D03*
X007788Y010605D03*
X007783Y010605D03*
X007778Y010605D03*
X007773Y010605D03*
X007769Y010605D03*
X007764Y010605D03*
X007759Y010605D03*
X007754Y010605D03*
X007750Y010605D03*
X007745Y010605D03*
X007740Y010605D03*
X007735Y010605D03*
X007731Y010605D03*
X007726Y010605D03*
X007721Y010605D03*
X007716Y010605D03*
X007712Y010605D03*
X007707Y010605D03*
X007702Y010605D03*
X007697Y010605D03*
X007692Y010605D03*
X007688Y010605D03*
X007683Y010605D03*
X007678Y010605D03*
X007673Y010605D03*
X007669Y010605D03*
X007664Y010605D03*
X007659Y010605D03*
X007654Y010605D03*
X007650Y010605D03*
X007645Y010605D03*
X007640Y010605D03*
X007635Y010605D03*
X007631Y010605D03*
X007626Y010605D03*
X007621Y010605D03*
X007616Y010605D03*
X007611Y010605D03*
X007607Y010605D03*
X007602Y010605D03*
X007597Y010605D03*
X007592Y010605D03*
X007588Y010605D03*
X007583Y010605D03*
X007578Y010605D03*
X007573Y010605D03*
X007564Y010605D03*
X007564Y011272D03*
X007559Y011272D03*
X007573Y011277D03*
X007578Y011277D03*
X007588Y011277D03*
X007597Y011277D03*
X007607Y011277D03*
X007616Y011277D03*
X007626Y011277D03*
X007635Y011277D03*
X007645Y011277D03*
X007654Y011277D03*
X007664Y011277D03*
X007673Y011277D03*
X007683Y011277D03*
X007692Y011277D03*
X007702Y011277D03*
X007712Y011277D03*
X007721Y011277D03*
X007731Y011277D03*
X007740Y011277D03*
X007750Y011277D03*
X007759Y011277D03*
X007769Y011277D03*
X007778Y011277D03*
X007788Y011277D03*
X007797Y011277D03*
X007807Y011277D03*
X007816Y011277D03*
X007826Y011277D03*
X007835Y011277D03*
X007845Y011277D03*
X007850Y011277D03*
X007859Y011277D03*
X007864Y011277D03*
X007874Y011277D03*
X007883Y011277D03*
X007888Y011277D03*
X007897Y011277D03*
X007902Y011277D03*
X007912Y011277D03*
X007916Y011277D03*
X007926Y011277D03*
X007931Y011277D03*
X007940Y011277D03*
X007945Y011277D03*
X007954Y011277D03*
X007959Y011277D03*
X007969Y011277D03*
X007974Y011277D03*
X007978Y011277D03*
X007988Y011277D03*
X007993Y011277D03*
X007997Y011277D03*
X008007Y011277D03*
X008012Y011277D03*
X008016Y011277D03*
X008026Y011277D03*
X008031Y011277D03*
X008035Y011277D03*
X008045Y011277D03*
X007902Y011506D03*
X007897Y011506D03*
X007888Y011501D03*
X007883Y011501D03*
X007878Y011501D03*
X007874Y011496D03*
X007869Y011496D03*
X007864Y011496D03*
X007859Y011496D03*
X007854Y011496D03*
X007850Y011491D03*
X007845Y011491D03*
X007840Y011491D03*
X007835Y011491D03*
X007831Y011491D03*
X007821Y011487D03*
X007812Y011487D03*
X007807Y011487D03*
X007802Y011487D03*
X007797Y011487D03*
X007793Y011487D03*
X007783Y011487D03*
X007745Y011482D03*
X007735Y011482D03*
X007726Y011482D03*
X007688Y011487D03*
X007678Y011487D03*
X007673Y011487D03*
X007669Y011487D03*
X007664Y011487D03*
X007659Y011487D03*
X007650Y011491D03*
X007640Y011491D03*
X007635Y011491D03*
X007631Y011491D03*
X007626Y011491D03*
X007616Y011496D03*
X007611Y011496D03*
X007607Y011496D03*
X007602Y011496D03*
X007597Y011501D03*
X007592Y011501D03*
X007588Y011501D03*
X007578Y011506D03*
X007573Y011506D03*
X007564Y011510D03*
X007564Y012154D03*
X007569Y012154D03*
X007573Y012154D03*
X007578Y012154D03*
X007583Y012154D03*
X007588Y012154D03*
X007592Y012154D03*
X007597Y012154D03*
X007602Y012154D03*
X007607Y012154D03*
X007611Y012154D03*
X007616Y012154D03*
X007621Y012154D03*
X007626Y012154D03*
X007631Y012154D03*
X007635Y012154D03*
X007640Y012154D03*
X007645Y012154D03*
X007650Y012154D03*
X007654Y012154D03*
X007659Y012154D03*
X007664Y012154D03*
X007669Y012154D03*
X007673Y012154D03*
X007678Y012154D03*
X007683Y012154D03*
X007688Y012154D03*
X007692Y012154D03*
X007697Y012154D03*
X007702Y012154D03*
X007707Y012154D03*
X007712Y012154D03*
X007716Y012154D03*
X007721Y012154D03*
X007726Y012154D03*
X007731Y012154D03*
X007735Y012154D03*
X007740Y012154D03*
X007745Y012154D03*
X007750Y012154D03*
X007754Y012154D03*
X007759Y012154D03*
X007764Y012154D03*
X007769Y012154D03*
X007773Y012154D03*
X007778Y012154D03*
X007783Y012154D03*
X007788Y012154D03*
X007793Y012154D03*
X007797Y012154D03*
X007802Y012154D03*
X007807Y012154D03*
X007812Y012154D03*
X007816Y012154D03*
X007821Y012154D03*
X007826Y012154D03*
X007831Y012154D03*
X007835Y012154D03*
X007840Y012154D03*
X007845Y012154D03*
X007850Y012154D03*
X007854Y012154D03*
X007859Y012154D03*
X007864Y012154D03*
X007869Y012154D03*
X007874Y012154D03*
X007878Y012154D03*
X007883Y012154D03*
X007888Y012154D03*
X007893Y012154D03*
X007897Y012154D03*
X007902Y012154D03*
X007907Y012154D03*
X007912Y012154D03*
X007916Y012154D03*
X007921Y012154D03*
X007926Y012154D03*
X007931Y012154D03*
X007935Y012154D03*
X007940Y012154D03*
X007945Y012154D03*
X007950Y012154D03*
X007954Y012154D03*
X008097Y012478D03*
X008107Y012482D03*
X008112Y012482D03*
X008116Y012487D03*
X008121Y012487D03*
X008126Y012492D03*
X008131Y012492D03*
X008136Y012497D03*
X008145Y012501D03*
X008155Y012506D03*
X008178Y012520D03*
X008288Y012868D03*
X008288Y013225D03*
X008174Y013573D03*
X008150Y013587D03*
X008140Y013592D03*
X008131Y013597D03*
X008121Y013602D03*
X008112Y013607D03*
X008102Y013611D03*
X008088Y013616D03*
X007702Y013287D03*
X007702Y013044D03*
X007416Y012868D03*
X007416Y013225D03*
X007550Y013583D03*
X007554Y013587D03*
X007559Y013587D03*
X007564Y013592D03*
X007569Y013592D03*
X007573Y013597D03*
X007583Y013602D03*
X007588Y013602D03*
X007592Y013607D03*
X007602Y013611D03*
X007607Y013611D03*
X007616Y013616D03*
X007550Y012506D03*
X007559Y012501D03*
X007569Y012497D03*
X007573Y012492D03*
X007578Y012492D03*
X007588Y012487D03*
X007597Y012482D03*
X007607Y012478D03*
X007559Y012154D03*
X007554Y012154D03*
X007550Y012154D03*
X007545Y012154D03*
X007540Y012154D03*
X007535Y012154D03*
X007531Y012154D03*
X007526Y012154D03*
X007521Y012154D03*
X007426Y012154D03*
X007421Y012154D03*
X007416Y012154D03*
X007411Y012154D03*
X007407Y012154D03*
X007402Y012154D03*
X007397Y012154D03*
X007392Y012154D03*
X007388Y012154D03*
X007383Y012154D03*
X007378Y012154D03*
X007373Y012154D03*
X007369Y012154D03*
X007364Y012154D03*
X007359Y012154D03*
X007354Y012154D03*
X007349Y012154D03*
X007345Y012154D03*
X007340Y012154D03*
X007335Y012154D03*
X007330Y012154D03*
X007326Y012154D03*
X007321Y012154D03*
X007316Y012154D03*
X007311Y012154D03*
X007307Y012154D03*
X007302Y012154D03*
X007297Y012154D03*
X007292Y012154D03*
X007288Y012154D03*
X007283Y012154D03*
X007278Y012154D03*
X007273Y012154D03*
X007269Y012154D03*
X007264Y012154D03*
X007259Y012154D03*
X007254Y012154D03*
X007249Y012154D03*
X007245Y012154D03*
X007240Y012154D03*
X007235Y012154D03*
X007230Y012154D03*
X007226Y012154D03*
X008312Y010734D03*
X008317Y010734D03*
X008321Y010739D03*
X008502Y011558D03*
D16*
X008307Y010543D03*
X008307Y010034D03*
X007550Y010077D03*
X007535Y010582D03*
X007402Y012625D03*
X007397Y012630D03*
X007392Y012635D03*
X007469Y013044D03*
X007402Y013468D03*
X007411Y013478D03*
X008288Y013483D03*
X008293Y013478D03*
X008297Y013473D03*
X008302Y013468D03*
X008302Y012911D03*
X008307Y012630D03*
X008302Y012625D03*
X008297Y012620D03*
X008307Y008543D03*
X008417Y008276D03*
X008607Y008276D03*
D17*
X008602Y008276D03*
X008321Y008543D03*
X008317Y008543D03*
X008317Y009491D03*
X008321Y010029D03*
D18*
X008474Y009748D03*
X008488Y009476D03*
X008493Y009052D03*
X008307Y009052D03*
X008502Y008276D03*
X008598Y008276D03*
X008302Y008247D03*
X008488Y007704D03*
X007540Y010077D03*
X008307Y010305D03*
X008493Y010305D03*
X008474Y011568D03*
X008359Y012697D03*
X008102Y012701D03*
X008364Y013387D03*
X008355Y013402D03*
X007345Y012697D03*
D19*
X008378Y013361D03*
X007516Y011222D03*
X007516Y010551D03*
X008474Y009483D03*
X008479Y009479D03*
X008593Y008278D03*
X008317Y008259D03*
X008312Y008254D03*
X008479Y007707D03*
D20*
X008445Y007785D03*
X008436Y007790D03*
X008345Y007785D03*
X008340Y007785D03*
X008336Y007780D03*
X008331Y007661D03*
X008450Y007938D03*
X008536Y008200D03*
X008569Y008200D03*
X008574Y008204D03*
X008574Y008347D03*
X008569Y008352D03*
X008531Y008352D03*
X008526Y008347D03*
X008445Y008309D03*
X008331Y008233D03*
X008421Y008581D03*
X008469Y008590D03*
X008378Y008809D03*
X008369Y008809D03*
X008364Y008809D03*
X008364Y008957D03*
X008359Y008957D03*
X008436Y008957D03*
X008440Y008957D03*
X008445Y008962D03*
X008336Y009429D03*
X008345Y009557D03*
X008445Y009557D03*
X008431Y009824D03*
X008426Y009824D03*
X008369Y009824D03*
X008364Y009824D03*
X008378Y009976D03*
X008345Y009976D03*
X008340Y009976D03*
X008469Y009976D03*
X008421Y010205D03*
X008417Y010205D03*
X008378Y010205D03*
X008374Y010205D03*
X008378Y010358D03*
X008369Y010358D03*
X008359Y010358D03*
X008350Y010358D03*
X008340Y010358D03*
X008331Y010358D03*
X008388Y010358D03*
X008398Y010358D03*
X008407Y010358D03*
X008417Y010358D03*
X008426Y010358D03*
X008436Y010358D03*
X008445Y010358D03*
X008455Y010358D03*
X008464Y010358D03*
X008512Y010358D03*
X008521Y010358D03*
X008531Y010358D03*
X008540Y010358D03*
X008550Y010358D03*
X008559Y010358D03*
X008569Y010358D03*
X008579Y010358D03*
X008588Y010358D03*
X008459Y010496D03*
X008450Y010496D03*
X008440Y010496D03*
X008507Y010548D03*
X008355Y010591D03*
X008331Y010591D03*
X008364Y010820D03*
X008369Y010820D03*
X008374Y010820D03*
X008378Y010820D03*
X008383Y010820D03*
X008336Y010972D03*
X008340Y011096D03*
X008359Y011106D03*
X008431Y011106D03*
X008450Y011096D03*
X008307Y011248D03*
X008355Y011639D03*
X008359Y011639D03*
X008436Y011639D03*
X008440Y011639D03*
X008345Y012039D03*
X008340Y012039D03*
X008288Y012087D03*
X008345Y012173D03*
X008121Y012659D03*
X008126Y012778D03*
X008131Y012782D03*
X008136Y012787D03*
X008164Y012882D03*
X008107Y012882D03*
X008107Y012963D03*
X008164Y012963D03*
X008164Y013130D03*
X008107Y013130D03*
X008107Y013211D03*
X008164Y013211D03*
X008131Y013311D03*
X008121Y013435D03*
X007921Y013392D03*
X007864Y013311D03*
X007678Y013330D03*
X007621Y013330D03*
X007621Y013249D03*
X007678Y013249D03*
X007678Y013087D03*
X007621Y013087D03*
X007621Y013006D03*
X007621Y012844D03*
X007621Y012763D03*
X007678Y012763D03*
X007683Y012768D03*
X007569Y012668D03*
X007564Y012673D03*
X007550Y012682D03*
X007545Y012687D03*
X007540Y012692D03*
X007535Y012697D03*
X007531Y012701D03*
X007526Y012706D03*
X007430Y012973D03*
X007435Y013116D03*
X007521Y013383D03*
X007526Y013387D03*
X007531Y013392D03*
X007535Y013397D03*
X007540Y013402D03*
X007545Y013406D03*
X007550Y013411D03*
X007564Y013421D03*
X007569Y013426D03*
X007864Y012782D03*
X008240Y012787D03*
D21*
X008240Y013306D03*
X008136Y013306D03*
X008126Y013316D03*
X008336Y012044D03*
X008340Y011796D03*
X008378Y011796D03*
X008469Y011796D03*
X008426Y011644D03*
X008421Y011644D03*
X008369Y011644D03*
X008302Y011244D03*
X008331Y010977D03*
X008336Y010596D03*
X008345Y010596D03*
X008469Y010596D03*
X008445Y010215D03*
X008440Y010210D03*
X008436Y010210D03*
X008364Y010210D03*
X008359Y010210D03*
X008355Y010215D03*
X008417Y010062D03*
X008369Y009567D03*
X008350Y009562D03*
X008436Y009562D03*
X008436Y009105D03*
X008440Y009105D03*
X008445Y009105D03*
X008455Y009105D03*
X008464Y009105D03*
X008426Y009105D03*
X008421Y009105D03*
X008417Y009105D03*
X008407Y009105D03*
X008402Y009105D03*
X008398Y009105D03*
X008388Y009105D03*
X008383Y009105D03*
X008378Y009105D03*
X008369Y009105D03*
X008364Y009105D03*
X008359Y009105D03*
X008350Y009105D03*
X008345Y009105D03*
X008340Y009105D03*
X008331Y009105D03*
X008374Y008952D03*
X008378Y008952D03*
X008421Y008952D03*
X008512Y009105D03*
X008521Y009105D03*
X008526Y009105D03*
X008531Y009105D03*
X008540Y009105D03*
X008545Y009105D03*
X008550Y009105D03*
X008559Y009105D03*
X008564Y009105D03*
X008569Y009105D03*
X008579Y009105D03*
X008583Y009105D03*
X008588Y009105D03*
X008336Y008490D03*
X008393Y008223D03*
X008402Y008076D03*
X008374Y008076D03*
X008345Y008076D03*
X008317Y008076D03*
X008450Y008071D03*
X008455Y008071D03*
D22*
X008588Y008273D03*
X008326Y009040D03*
X007416Y010341D03*
X007416Y011013D03*
X008488Y011827D03*
D23*
X008436Y011899D03*
X008431Y011899D03*
X008426Y011894D03*
X008417Y011646D03*
X008412Y011646D03*
X008407Y011646D03*
X008402Y011646D03*
X008398Y011646D03*
X008393Y011646D03*
X008388Y011646D03*
X008383Y011646D03*
X008378Y011646D03*
X008374Y011646D03*
X008469Y011513D03*
X008469Y011379D03*
X008474Y011379D03*
X008479Y011379D03*
X008483Y011379D03*
X008488Y011379D03*
X008493Y011379D03*
X008498Y011379D03*
X008502Y011379D03*
X008464Y011379D03*
X008459Y011379D03*
X008455Y011379D03*
X008450Y011379D03*
X008445Y011379D03*
X008440Y011379D03*
X008436Y011379D03*
X008431Y011379D03*
X008426Y011379D03*
X008421Y011379D03*
X008417Y011379D03*
X008412Y011379D03*
X008407Y011379D03*
X008402Y011379D03*
X008398Y011379D03*
X008393Y011379D03*
X008388Y011379D03*
X008383Y011379D03*
X008378Y011379D03*
X008374Y011379D03*
X008369Y011379D03*
X008364Y011379D03*
X008359Y011379D03*
X008355Y011379D03*
X008350Y011379D03*
X008345Y011379D03*
X008340Y011379D03*
X008336Y011379D03*
X008331Y011379D03*
X008326Y011379D03*
X008321Y011379D03*
X008317Y011379D03*
X008312Y011379D03*
X008307Y011379D03*
X008302Y011379D03*
X008297Y011379D03*
X008293Y011379D03*
X008288Y011379D03*
X008283Y011379D03*
X008278Y011379D03*
X008274Y011379D03*
X008269Y011379D03*
X008264Y011379D03*
X008259Y011379D03*
X008255Y011379D03*
X008250Y011379D03*
X008245Y011379D03*
X008240Y011379D03*
X008236Y011379D03*
X008231Y011379D03*
X008226Y011379D03*
X008221Y011379D03*
X008402Y011113D03*
X008412Y011113D03*
X008369Y010960D03*
X008364Y010960D03*
X008359Y010960D03*
X008350Y010965D03*
X008345Y010965D03*
X008464Y010960D03*
X008455Y010493D03*
X008445Y010493D03*
X008440Y010360D03*
X008431Y010360D03*
X008421Y010360D03*
X008412Y010360D03*
X008402Y010360D03*
X008393Y010360D03*
X008383Y010360D03*
X008374Y010360D03*
X008364Y010360D03*
X008355Y010360D03*
X008345Y010360D03*
X008336Y010360D03*
X008450Y010360D03*
X008459Y010360D03*
X008507Y010360D03*
X008517Y010360D03*
X008526Y010360D03*
X008536Y010360D03*
X008545Y010360D03*
X008555Y010360D03*
X008564Y010360D03*
X008574Y010360D03*
X008583Y010360D03*
X008431Y010208D03*
X008426Y010208D03*
X008412Y010203D03*
X008407Y010203D03*
X008402Y010203D03*
X008398Y010203D03*
X008393Y010203D03*
X008388Y010203D03*
X008383Y010203D03*
X008369Y010208D03*
X008431Y010079D03*
X008426Y010074D03*
X008421Y010069D03*
X008421Y009974D03*
X008417Y009974D03*
X008412Y009974D03*
X008407Y009974D03*
X008402Y009974D03*
X008426Y009974D03*
X008431Y009974D03*
X008436Y009974D03*
X008440Y009974D03*
X008445Y009974D03*
X008450Y009974D03*
X008455Y009974D03*
X008459Y009974D03*
X008464Y009974D03*
X008374Y009974D03*
X008369Y009974D03*
X008364Y009974D03*
X008359Y009974D03*
X008355Y009974D03*
X008350Y009974D03*
X008374Y009826D03*
X008378Y009826D03*
X008383Y009826D03*
X008388Y009826D03*
X008393Y009826D03*
X008398Y009826D03*
X008402Y009826D03*
X008407Y009826D03*
X008412Y009826D03*
X008417Y009826D03*
X008421Y009826D03*
X008417Y009569D03*
X008412Y009569D03*
X008407Y009569D03*
X008402Y009569D03*
X008374Y009569D03*
X008440Y009560D03*
X008374Y009417D03*
X008369Y009417D03*
X008355Y009422D03*
X008350Y009422D03*
X008345Y009426D03*
X008340Y009426D03*
X008336Y009107D03*
X008355Y009107D03*
X008374Y009107D03*
X008393Y009107D03*
X008412Y009107D03*
X008431Y009107D03*
X008450Y009107D03*
X008459Y009107D03*
X008507Y009107D03*
X008517Y009107D03*
X008536Y009107D03*
X008555Y009107D03*
X008574Y009107D03*
X008431Y008955D03*
X008426Y008955D03*
X008369Y008955D03*
X008374Y008812D03*
X008383Y008812D03*
X008388Y008812D03*
X008393Y008812D03*
X008398Y008812D03*
X008402Y008812D03*
X008407Y008812D03*
X008412Y008812D03*
X008417Y008812D03*
X008421Y008812D03*
X008426Y008812D03*
X008431Y008812D03*
X008436Y008812D03*
X008440Y008812D03*
X008445Y008812D03*
X008450Y008812D03*
X008455Y008812D03*
X008459Y008812D03*
X008464Y008812D03*
X008469Y008812D03*
X008474Y008812D03*
X008479Y008812D03*
X008483Y008812D03*
X008488Y008812D03*
X008493Y008812D03*
X008498Y008812D03*
X008502Y008812D03*
X008331Y008812D03*
X008326Y008812D03*
X008321Y008812D03*
X008317Y008812D03*
X008312Y008812D03*
X008307Y008812D03*
X008302Y008812D03*
X008297Y008812D03*
X008293Y008812D03*
X008326Y008707D03*
X008331Y008593D03*
X008426Y008583D03*
X008431Y008588D03*
X008436Y008593D03*
X008440Y008593D03*
X008445Y008593D03*
X008459Y008593D03*
X008464Y008593D03*
X008507Y008564D03*
X008345Y008488D03*
X008345Y008335D03*
X008350Y008335D03*
X008383Y008335D03*
X008388Y008335D03*
X008464Y008326D03*
X008469Y008321D03*
X008536Y008354D03*
X008540Y008354D03*
X008555Y008359D03*
X008559Y008354D03*
X008564Y008354D03*
X008564Y008197D03*
X008559Y008197D03*
X008555Y008197D03*
X008545Y008197D03*
X008540Y008197D03*
X008388Y008221D03*
X008345Y008221D03*
X008336Y008078D03*
X008326Y008078D03*
X008307Y008078D03*
X008297Y008078D03*
X008355Y008078D03*
X008364Y008078D03*
X008383Y008078D03*
X008393Y008078D03*
X008412Y008078D03*
X008412Y007935D03*
X008417Y007935D03*
X008421Y007935D03*
X008426Y007935D03*
X008431Y007935D03*
X008436Y007935D03*
X008440Y007935D03*
X008445Y007935D03*
X008407Y007935D03*
X008402Y007935D03*
X008398Y007935D03*
X008393Y007935D03*
X008388Y007935D03*
X008383Y007935D03*
X008378Y007935D03*
X008374Y007935D03*
X008369Y007935D03*
X008364Y007935D03*
X008359Y007935D03*
X008355Y007935D03*
X008350Y007935D03*
X008345Y007935D03*
X008340Y007935D03*
X008336Y007935D03*
X008331Y007935D03*
X008326Y007935D03*
X008321Y007935D03*
X008317Y007935D03*
X008312Y007935D03*
X008307Y007935D03*
X008302Y007935D03*
X008297Y007935D03*
X008293Y007935D03*
X008355Y007792D03*
X008359Y007792D03*
X008364Y007792D03*
X008350Y007788D03*
X008421Y007792D03*
X008426Y007792D03*
X008431Y007792D03*
X008440Y007788D03*
X008483Y007935D03*
X008488Y007935D03*
X008493Y007935D03*
X008498Y007935D03*
X008502Y007935D03*
X008355Y007649D03*
X008350Y007649D03*
X008336Y007659D03*
X007545Y010794D03*
X008221Y012175D03*
X008226Y012175D03*
X008231Y012175D03*
X008236Y012175D03*
X008240Y012175D03*
X008245Y012175D03*
X008250Y012175D03*
X008255Y012175D03*
X008259Y012175D03*
X008264Y012175D03*
X008269Y012175D03*
X008274Y012175D03*
X008278Y012175D03*
X008283Y012175D03*
X008288Y012175D03*
X008293Y012175D03*
X008297Y012175D03*
X008302Y012175D03*
X008307Y012175D03*
X008312Y012175D03*
X008350Y012175D03*
X008355Y012175D03*
X008359Y012175D03*
X008364Y012175D03*
X008369Y012175D03*
X008374Y012175D03*
X008378Y012175D03*
X008383Y012175D03*
X008388Y012175D03*
X008393Y012175D03*
X008398Y012175D03*
X008402Y012175D03*
X008407Y012175D03*
X008412Y012175D03*
X008417Y012175D03*
X008421Y012175D03*
X008426Y012175D03*
X008431Y012175D03*
X008436Y012175D03*
X008440Y012175D03*
X008445Y012175D03*
X008450Y012175D03*
X008455Y012175D03*
X008459Y012175D03*
X008464Y012175D03*
X008469Y012175D03*
X008474Y012175D03*
X008479Y012175D03*
X008483Y012175D03*
X008488Y012175D03*
X008493Y012175D03*
X008498Y012175D03*
X008502Y012175D03*
X008226Y013299D03*
X008145Y013299D03*
X008088Y013456D03*
X008078Y013461D03*
X008069Y013466D03*
X008040Y013480D03*
X007916Y013395D03*
X007878Y013399D03*
X007869Y013395D03*
X007864Y013390D03*
X007921Y013309D03*
X007959Y013352D03*
X007716Y013290D03*
X007626Y013333D03*
X007554Y013414D03*
X007559Y013418D03*
X007573Y013428D03*
X007578Y013433D03*
X007583Y013437D03*
X007588Y013437D03*
X007592Y013442D03*
X007602Y013447D03*
X007607Y013452D03*
X007616Y013456D03*
X007626Y013461D03*
X007635Y013466D03*
X007645Y013471D03*
X007664Y013480D03*
D24*
X007954Y013349D03*
X008250Y013302D03*
X008250Y012792D03*
X008083Y012711D03*
X007954Y012744D03*
X007712Y012806D03*
X007712Y013044D03*
X007483Y013044D03*
X007450Y012997D03*
X007454Y012792D03*
X007464Y012778D03*
X007192Y013049D03*
X007454Y013302D03*
X008326Y011811D03*
X008479Y011801D03*
X008502Y011868D03*
X008340Y010810D03*
X008374Y010572D03*
X008417Y010515D03*
X008474Y010510D03*
X008502Y010048D03*
X008498Y009957D03*
X008464Y009538D03*
X008336Y008800D03*
X008297Y008724D03*
X008383Y008495D03*
X008583Y008333D03*
X008502Y008023D03*
X008464Y007766D03*
X008469Y007657D03*
D25*
X008321Y007757D03*
X008583Y008223D03*
X008493Y008466D03*
X008479Y008495D03*
X008388Y008500D03*
X008331Y008986D03*
X008321Y009529D03*
X008469Y009529D03*
X008469Y009791D03*
X008493Y009957D03*
X008479Y009986D03*
X008498Y010048D03*
X008388Y009991D03*
X008331Y010239D03*
X008402Y010534D03*
X008393Y010548D03*
X008321Y011072D03*
X008469Y011072D03*
X008388Y011811D03*
X007835Y012744D03*
X007592Y012806D03*
X007440Y012816D03*
X007435Y012825D03*
X007430Y012835D03*
X007430Y013259D03*
X007435Y013268D03*
X007440Y013278D03*
X007592Y013287D03*
X007835Y013349D03*
X008264Y013278D03*
X008269Y013268D03*
X008274Y013259D03*
X008269Y012825D03*
X008264Y012816D03*
D26*
X008121Y013321D03*
X008507Y010291D03*
X008345Y010219D03*
X008474Y009981D03*
X008288Y009491D03*
X008345Y008805D03*
X008350Y008805D03*
X008521Y008343D03*
X008579Y008343D03*
X008402Y008233D03*
X008331Y007776D03*
X008326Y007771D03*
D27*
X008288Y007718D03*
X008459Y007942D03*
X008469Y008061D03*
X008526Y008209D03*
X008579Y008209D03*
X008407Y008557D03*
X008459Y008971D03*
X008464Y008976D03*
X008340Y008971D03*
X008326Y009543D03*
X008331Y009548D03*
X008340Y009810D03*
X008455Y009810D03*
X008326Y010077D03*
X008464Y010229D03*
X008426Y010505D03*
X008364Y010582D03*
D28*
X008326Y010501D03*
X008288Y010734D03*
X008355Y010963D03*
X008374Y010958D03*
X008507Y011782D03*
X008331Y011901D03*
X008040Y012611D03*
X008035Y012611D03*
X008031Y012611D03*
X008026Y012606D03*
X008021Y012606D03*
X008016Y012601D03*
X008012Y012601D03*
X008007Y012601D03*
X008002Y012597D03*
X007997Y012597D03*
X007993Y012597D03*
X007983Y012592D03*
X007978Y012592D03*
X007969Y012587D03*
X007964Y012587D03*
X007959Y012587D03*
X007945Y012582D03*
X007940Y012582D03*
X007935Y012582D03*
X007921Y012578D03*
X007912Y012578D03*
X007907Y012578D03*
X007897Y012578D03*
X007864Y012573D03*
X007854Y012573D03*
X007845Y012573D03*
X007835Y012573D03*
X007812Y012578D03*
X007797Y012578D03*
X007793Y012578D03*
X007788Y012578D03*
X007783Y012578D03*
X007769Y012582D03*
X007764Y012582D03*
X007759Y012582D03*
X007745Y012587D03*
X007740Y012587D03*
X007735Y012587D03*
X007726Y012592D03*
X007721Y012592D03*
X007716Y012592D03*
X007712Y012597D03*
X007707Y012597D03*
X007702Y012597D03*
X007697Y012601D03*
X007692Y012601D03*
X007688Y012601D03*
X007683Y012606D03*
X007678Y012606D03*
X007673Y012611D03*
X007669Y012611D03*
X007659Y012616D03*
X007654Y012616D03*
X007650Y012620D03*
X007645Y012620D03*
X007640Y012625D03*
X007635Y012625D03*
X007631Y012630D03*
X007621Y012635D03*
X007611Y012639D03*
X007635Y012754D03*
X007640Y012754D03*
X007645Y012754D03*
X007654Y012754D03*
X007659Y012754D03*
X007664Y012754D03*
X007669Y012759D03*
X007673Y012759D03*
X007631Y012759D03*
X007635Y012854D03*
X007640Y012854D03*
X007654Y012854D03*
X007664Y012854D03*
X007673Y012849D03*
X007664Y012997D03*
X007659Y012997D03*
X007650Y012997D03*
X007640Y012997D03*
X007635Y012997D03*
X007673Y013002D03*
X007673Y013092D03*
X007669Y013092D03*
X007664Y013097D03*
X007659Y013097D03*
X007654Y013097D03*
X007645Y013097D03*
X007640Y013097D03*
X007635Y013097D03*
X007631Y013092D03*
X007635Y013240D03*
X007640Y013240D03*
X007659Y013240D03*
X007664Y013240D03*
X007669Y013240D03*
X007673Y013244D03*
X007673Y013335D03*
X007669Y013335D03*
X007664Y013340D03*
X007659Y013340D03*
X007654Y013340D03*
X007650Y013340D03*
X007645Y013340D03*
X007640Y013340D03*
X007635Y013340D03*
X007631Y013335D03*
X007597Y013445D03*
X007611Y013454D03*
X007621Y013459D03*
X007631Y013464D03*
X007640Y013468D03*
X007650Y013473D03*
X007654Y013478D03*
X007659Y013478D03*
X007669Y013483D03*
X007673Y013483D03*
X007678Y013487D03*
X007683Y013487D03*
X007688Y013492D03*
X007692Y013492D03*
X007697Y013492D03*
X007707Y013497D03*
X007712Y013497D03*
X007716Y013502D03*
X007721Y013502D03*
X007726Y013502D03*
X007735Y013506D03*
X007740Y013506D03*
X007745Y013506D03*
X007750Y013506D03*
X007759Y013511D03*
X007764Y013511D03*
X007769Y013511D03*
X007788Y013516D03*
X007793Y013516D03*
X007797Y013516D03*
X007807Y013516D03*
X007840Y013521D03*
X007850Y013521D03*
X007859Y013521D03*
X007893Y013516D03*
X007902Y013516D03*
X007907Y013516D03*
X007912Y013516D03*
X007931Y013511D03*
X007935Y013511D03*
X007940Y013511D03*
X007945Y013511D03*
X007959Y013506D03*
X007964Y013506D03*
X007969Y013506D03*
X007974Y013502D03*
X007978Y013502D03*
X007983Y013502D03*
X007993Y013497D03*
X007997Y013497D03*
X008002Y013497D03*
X008007Y013492D03*
X008012Y013492D03*
X008016Y013492D03*
X008021Y013487D03*
X008026Y013487D03*
X008031Y013483D03*
X008035Y013483D03*
X008045Y013478D03*
X008050Y013478D03*
X008055Y013473D03*
X008059Y013473D03*
X008064Y013468D03*
X008074Y013464D03*
X008083Y013459D03*
X008150Y013297D03*
X008155Y013297D03*
X008221Y013297D03*
X008150Y013221D03*
X008145Y013221D03*
X008140Y013221D03*
X008131Y013221D03*
X008126Y013221D03*
X008121Y013221D03*
X008116Y013216D03*
X008112Y013216D03*
X008155Y013216D03*
X008159Y013125D03*
X008150Y013121D03*
X008145Y013121D03*
X008140Y013121D03*
X008126Y013121D03*
X008121Y013121D03*
X008112Y013125D03*
X008121Y012973D03*
X008126Y012973D03*
X008131Y012973D03*
X008140Y012973D03*
X008145Y012973D03*
X008150Y012973D03*
X008155Y012968D03*
X008112Y012968D03*
X008112Y012878D03*
X008121Y012873D03*
X008126Y012873D03*
X008131Y012873D03*
X008140Y012873D03*
X008145Y012873D03*
X008150Y012873D03*
X008155Y012878D03*
X008159Y012878D03*
X008164Y012801D03*
X008169Y012801D03*
X008155Y012797D03*
X008150Y012797D03*
X008145Y012792D03*
X008202Y012801D03*
X008207Y012801D03*
X008212Y012801D03*
X008216Y012797D03*
X008221Y012797D03*
X008231Y012792D03*
X008074Y012630D03*
X008059Y012620D03*
X008055Y012620D03*
X008050Y012616D03*
X008045Y012616D03*
X007912Y012697D03*
X007902Y012692D03*
X007897Y012692D03*
X007893Y012692D03*
X007888Y012692D03*
X007883Y012692D03*
X007874Y012697D03*
X007869Y012787D03*
X007878Y012792D03*
X007883Y012792D03*
X007902Y012792D03*
X007907Y012792D03*
X007912Y012792D03*
X007916Y012787D03*
X007893Y012935D03*
X007893Y013159D03*
X007878Y013159D03*
X007859Y013159D03*
X007840Y013159D03*
X007869Y013306D03*
X007874Y013397D03*
X007883Y013402D03*
X007888Y013402D03*
X007893Y013402D03*
X007897Y013402D03*
X007902Y013402D03*
X007912Y013397D03*
X007416Y013130D03*
X007373Y013140D03*
X007426Y012968D03*
X007416Y012963D03*
X007411Y012963D03*
X008331Y010081D03*
X008436Y010081D03*
X008507Y010053D03*
X008507Y009962D03*
X008469Y009695D03*
X008464Y009419D03*
X008364Y009419D03*
X008359Y009419D03*
X008288Y008724D03*
X008450Y008595D03*
X008507Y008471D03*
X008545Y008357D03*
X008550Y008357D03*
X008459Y008324D03*
X008455Y008324D03*
X008450Y008319D03*
X008378Y008338D03*
X008374Y008338D03*
X008369Y008338D03*
X008359Y008338D03*
X008355Y008338D03*
X008340Y008223D03*
X008350Y008219D03*
X008359Y008214D03*
X008364Y008214D03*
X008369Y008214D03*
X008383Y008219D03*
X008550Y008195D03*
X008464Y007647D03*
X008364Y007647D03*
X008359Y007647D03*
D29*
X008321Y007678D03*
X008469Y007759D03*
X008469Y007950D03*
X008521Y008216D03*
X008483Y008297D03*
X008321Y009450D03*
X008326Y009793D03*
X008321Y010579D03*
X008474Y010584D03*
X008297Y010732D03*
X008336Y010808D03*
X008326Y011613D03*
X008293Y012089D03*
X008326Y012161D03*
X008259Y013285D03*
X008255Y013295D03*
X008083Y013380D03*
X007450Y013295D03*
X007445Y013285D03*
D30*
X007311Y012754D03*
X008393Y012754D03*
X008483Y011830D03*
X008517Y008276D03*
D31*
X008288Y007930D03*
X008402Y007626D03*
X008288Y008807D03*
X008288Y009074D03*
X008288Y009112D03*
X008050Y009531D03*
X008050Y009569D03*
X008469Y009722D03*
X008474Y010293D03*
X008050Y010570D03*
X008050Y010589D03*
X008050Y010608D03*
X008050Y010627D03*
X008050Y010646D03*
X008288Y010817D03*
X008288Y010836D03*
X008507Y010836D03*
X008507Y010817D03*
X008469Y011008D03*
X008502Y011503D03*
X008469Y011541D03*
X008507Y012018D03*
X008507Y012037D03*
X008140Y012651D03*
X008336Y012956D03*
X008421Y012956D03*
X008512Y012985D03*
X008512Y012994D03*
X008512Y013090D03*
X008512Y013099D03*
X008512Y013109D03*
X007369Y012956D03*
X007278Y013099D03*
X007192Y013099D03*
X007192Y013090D03*
X007411Y011065D03*
X007507Y010951D03*
X007559Y010798D03*
X007507Y009874D03*
X007411Y009760D03*
D32*
X008431Y008273D03*
X008274Y012832D03*
X008512Y013042D03*
X007707Y012804D03*
D33*
X007316Y013345D03*
X007321Y013354D03*
X008336Y013049D03*
X008388Y013345D03*
X008317Y012111D03*
X008321Y009043D03*
X008479Y009043D03*
X008512Y008276D03*
D34*
X008507Y013047D03*
D35*
X008155Y013123D03*
X008116Y013123D03*
X008069Y013171D03*
X008140Y013304D03*
X008236Y013304D03*
X007916Y013304D03*
X007874Y013304D03*
X007716Y013047D03*
X007669Y012999D03*
X007631Y012999D03*
X007626Y012847D03*
X007678Y012847D03*
X007626Y012761D03*
X007559Y012675D03*
X007573Y012666D03*
X007583Y012656D03*
X007588Y012656D03*
X007597Y012647D03*
X007602Y012647D03*
X007616Y012637D03*
X007864Y012704D03*
X007878Y012694D03*
X007959Y012742D03*
X007874Y012790D03*
X008069Y012923D03*
X008116Y012971D03*
X008116Y012875D03*
X008140Y012790D03*
X008236Y012790D03*
X008088Y012637D03*
X008069Y012628D03*
X007626Y013247D03*
X007430Y013123D03*
X007426Y013123D03*
X007411Y013133D03*
X008421Y011889D03*
X008507Y011870D03*
X008464Y011794D03*
X008459Y011794D03*
X008455Y011794D03*
X008450Y011794D03*
X008445Y011794D03*
X008440Y011794D03*
X008436Y011794D03*
X008431Y011794D03*
X008426Y011794D03*
X008421Y011794D03*
X008417Y011794D03*
X008412Y011794D03*
X008407Y011794D03*
X008402Y011794D03*
X008374Y011794D03*
X008369Y011794D03*
X008364Y011794D03*
X008359Y011794D03*
X008355Y011794D03*
X008350Y011794D03*
X008345Y011794D03*
X008364Y011641D03*
X008431Y011641D03*
X008426Y011108D03*
X008421Y011108D03*
X008417Y011108D03*
X008407Y011108D03*
X008374Y011108D03*
X008369Y011108D03*
X008364Y011108D03*
X008388Y010822D03*
X008393Y010822D03*
X008398Y010822D03*
X008402Y010822D03*
X008407Y010822D03*
X008412Y010822D03*
X008417Y010822D03*
X008421Y010822D03*
X008426Y010822D03*
X008431Y010822D03*
X008436Y010822D03*
X008440Y010822D03*
X008445Y010822D03*
X008450Y010822D03*
X008455Y010822D03*
X008459Y010822D03*
X008464Y010822D03*
X008469Y010822D03*
X008474Y010822D03*
X008479Y010822D03*
X008483Y010822D03*
X008488Y010822D03*
X008493Y010822D03*
X008498Y010822D03*
X008502Y010822D03*
X008331Y010822D03*
X008326Y010822D03*
X008321Y010822D03*
X008317Y010822D03*
X008312Y010822D03*
X008307Y010822D03*
X008302Y010822D03*
X008297Y010822D03*
X008293Y010822D03*
X008340Y010593D03*
X008350Y010593D03*
X008355Y009564D03*
X008359Y009564D03*
X008364Y009564D03*
X008421Y009564D03*
X008426Y009564D03*
X008431Y009564D03*
X008417Y008950D03*
X008412Y008950D03*
X008407Y008950D03*
X008402Y008950D03*
X008398Y008950D03*
X008393Y008950D03*
X008388Y008950D03*
X008383Y008950D03*
X008364Y008340D03*
X008336Y008226D03*
X008340Y008073D03*
X008331Y008073D03*
X008321Y008073D03*
X008312Y008073D03*
X008302Y008073D03*
X008293Y008073D03*
X008350Y008073D03*
X008359Y008073D03*
X008369Y008073D03*
X008378Y008073D03*
X008388Y008073D03*
X008398Y008073D03*
X008407Y008073D03*
X008417Y008073D03*
X008421Y008073D03*
X008426Y008073D03*
X008431Y008073D03*
X008436Y008073D03*
X008440Y008073D03*
X008445Y008073D03*
X008345Y007654D03*
X008340Y007654D03*
D36*
X008326Y008314D03*
X008331Y009800D03*
X008326Y009991D03*
X008383Y009986D03*
X008464Y011082D03*
X008507Y011558D03*
X007712Y013287D03*
X007464Y013316D03*
D37*
X007283Y013133D03*
X007278Y012999D03*
X007278Y012990D03*
X007192Y012999D03*
X007192Y013009D03*
X007197Y012951D03*
X007488Y013037D03*
X007488Y013047D03*
X007488Y013056D03*
X007826Y012761D03*
X008078Y012723D03*
X008116Y012694D03*
X008340Y012990D03*
X008307Y013028D03*
X008307Y013037D03*
X008307Y013056D03*
X008307Y013066D03*
X008340Y013104D03*
X008421Y013133D03*
X008426Y013094D03*
X008426Y012990D03*
X008050Y012118D03*
X008050Y012099D03*
X008050Y012080D03*
X008050Y012061D03*
X008050Y012042D03*
X008050Y012023D03*
X008050Y012004D03*
X008050Y011984D03*
X008050Y011965D03*
X008050Y011946D03*
X008050Y011927D03*
X008050Y011908D03*
X008050Y011889D03*
X008050Y011870D03*
X008050Y011851D03*
X008050Y011832D03*
X008050Y011813D03*
X008050Y011794D03*
X008050Y011775D03*
X008050Y011756D03*
X008050Y011737D03*
X008050Y011718D03*
X008050Y011699D03*
X008050Y011680D03*
X008050Y011661D03*
X008050Y011641D03*
X008050Y011622D03*
X008050Y011603D03*
X008050Y011318D03*
X008050Y011298D03*
X008050Y011279D03*
X008050Y011260D03*
X008050Y011241D03*
X008288Y011241D03*
X008288Y011222D03*
X008507Y011222D03*
X008507Y011203D03*
X008507Y011241D03*
X008507Y011375D03*
X008507Y011394D03*
X008288Y010346D03*
X008288Y010308D03*
X008050Y010117D03*
X008050Y010079D03*
X008050Y010041D03*
X007411Y010308D03*
X007411Y010384D03*
X007416Y010917D03*
X007411Y010975D03*
X007416Y011108D03*
X008050Y009317D03*
X008050Y009279D03*
X008288Y009121D03*
X008288Y009083D03*
X008469Y009469D03*
X008288Y008817D03*
X008474Y008016D03*
X008288Y007940D03*
D38*
X008440Y008300D03*
X008502Y008471D03*
X008474Y008490D03*
X008479Y008586D03*
X008288Y008543D03*
X008507Y009038D03*
X008459Y009805D03*
X008336Y009805D03*
X008288Y010034D03*
X008479Y010072D03*
X008459Y010224D03*
X008340Y010224D03*
X008321Y010510D03*
X008350Y010815D03*
X008326Y010982D03*
X008288Y011034D03*
X008455Y011091D03*
X008459Y011086D03*
X008507Y011020D03*
X008502Y011220D03*
X008498Y011225D03*
X008493Y011229D03*
X008488Y011234D03*
X008483Y011239D03*
X008479Y011244D03*
X008474Y011248D03*
X008469Y011253D03*
X008464Y011258D03*
X008459Y011263D03*
X008455Y011267D03*
X008450Y011272D03*
X008445Y011277D03*
X008440Y011282D03*
X008436Y011287D03*
X008431Y011291D03*
X008426Y011296D03*
X008421Y011301D03*
X008417Y011306D03*
X008412Y011310D03*
X008407Y011315D03*
X008402Y011320D03*
X008398Y011325D03*
X008393Y011325D03*
X008388Y011320D03*
X008378Y011310D03*
X008355Y011291D03*
X008345Y011282D03*
X008336Y011625D03*
X008340Y011630D03*
X008455Y011630D03*
X008479Y011892D03*
X008326Y011896D03*
X008288Y011853D03*
X008326Y012049D03*
X008321Y012054D03*
X008336Y012168D03*
X008121Y012773D03*
X008245Y012787D03*
X008169Y012892D03*
X008169Y012954D03*
X008102Y012954D03*
X008169Y013140D03*
X008169Y013202D03*
X008102Y013202D03*
X007926Y013316D03*
X008116Y013430D03*
X007511Y013373D03*
X007502Y013364D03*
X007497Y013359D03*
X007488Y013349D03*
X007478Y013335D03*
X007378Y013149D03*
X007445Y013106D03*
X007445Y012987D03*
X007378Y012944D03*
X007478Y012759D03*
X007492Y012739D03*
X007497Y012735D03*
X007502Y012730D03*
X007831Y012744D03*
X007540Y010796D03*
D39*
X007411Y011015D03*
X008498Y011777D03*
X008507Y009738D03*
X008469Y009429D03*
D40*
X008507Y009483D03*
X008469Y009098D03*
X008469Y008983D03*
X008336Y008979D03*
X008402Y008545D03*
X008502Y008559D03*
X008498Y008469D03*
X008421Y010512D03*
X008469Y010970D03*
X008326Y011084D03*
X008288Y011560D03*
X008331Y011618D03*
X008459Y011622D03*
X008407Y011865D03*
X008331Y012165D03*
X008116Y013328D03*
X007831Y013352D03*
X007588Y013290D03*
X007483Y013342D03*
X007473Y013328D03*
X007459Y013309D03*
D41*
X008507Y008276D03*
D42*
X008398Y008328D03*
X008340Y008333D03*
X008336Y008328D03*
X008340Y008485D03*
X008455Y008595D03*
X008459Y008066D03*
X008464Y008066D03*
X008507Y008023D03*
X008369Y007795D03*
X008331Y009433D03*
X008336Y009553D03*
X008340Y009553D03*
X008355Y009819D03*
X008359Y009819D03*
X008436Y009819D03*
X008440Y009819D03*
X008469Y010081D03*
X008440Y011101D03*
X008345Y011101D03*
X008326Y011520D03*
X008350Y011634D03*
X008469Y011901D03*
X008469Y012034D03*
X008479Y012034D03*
X008488Y012034D03*
X008498Y012034D03*
X008459Y012034D03*
X008450Y012034D03*
X008440Y012034D03*
X008431Y012034D03*
X008421Y012034D03*
X008412Y012034D03*
X008402Y012034D03*
X008393Y012034D03*
X008383Y012034D03*
D43*
X008402Y011856D03*
X008474Y011799D03*
X008116Y012766D03*
X007588Y012804D03*
X007473Y012766D03*
X007459Y012785D03*
X007450Y013099D03*
X008369Y010579D03*
X008469Y010350D03*
X008469Y010236D03*
X008336Y010231D03*
X008407Y010046D03*
X008402Y010036D03*
X008288Y009741D03*
X008459Y009545D03*
X007411Y010346D03*
X008326Y008245D03*
X008474Y008054D03*
X008464Y007945D03*
X008507Y007711D03*
D44*
X008502Y013044D03*
D45*
X008159Y012966D03*
X008226Y012794D03*
X008083Y012632D03*
X008078Y012632D03*
X008064Y012623D03*
X007921Y012699D03*
X007916Y012699D03*
X007869Y012699D03*
X007921Y012785D03*
X007716Y012804D03*
X007669Y012851D03*
X007631Y012851D03*
X007626Y013004D03*
X007678Y013004D03*
X007626Y013090D03*
X007631Y013242D03*
X007421Y013128D03*
X007435Y012975D03*
X007421Y012966D03*
X007554Y012680D03*
X007578Y012661D03*
X007592Y012651D03*
X007607Y012642D03*
X007626Y012632D03*
X007664Y012613D03*
X008159Y013214D03*
X008350Y012037D03*
X008355Y012037D03*
X008359Y012037D03*
X008364Y012037D03*
X008369Y012037D03*
X008374Y012037D03*
X008378Y012037D03*
X008388Y012037D03*
X008398Y012037D03*
X008407Y012037D03*
X008417Y012037D03*
X008426Y012037D03*
X008436Y012037D03*
X008445Y012037D03*
X008455Y012037D03*
X008464Y012037D03*
X008474Y012037D03*
X008483Y012037D03*
X008493Y012037D03*
X008502Y012037D03*
X008464Y011903D03*
X008459Y011903D03*
X008455Y011903D03*
X008450Y011903D03*
X008445Y011903D03*
X008440Y011903D03*
X008436Y011103D03*
X008355Y011103D03*
X008350Y011103D03*
X008340Y010970D03*
X008440Y010084D03*
X008445Y010084D03*
X008450Y010084D03*
X008455Y010084D03*
X008459Y010084D03*
X008464Y010084D03*
X008326Y009703D03*
X008350Y008483D03*
X008355Y008483D03*
X008359Y008483D03*
X008364Y008483D03*
X008369Y008483D03*
X008374Y008483D03*
X008402Y008483D03*
X008407Y008483D03*
X008412Y008483D03*
X008417Y008483D03*
X008421Y008483D03*
X008426Y008483D03*
X008431Y008483D03*
X008436Y008483D03*
X008440Y008483D03*
X008445Y008483D03*
X008450Y008483D03*
X008455Y008483D03*
X008459Y008483D03*
X008464Y008483D03*
X008393Y008331D03*
X008378Y008216D03*
X008374Y008216D03*
X008355Y008216D03*
X008374Y007797D03*
X008402Y007797D03*
X008407Y007797D03*
X008412Y007797D03*
X008417Y007797D03*
X008374Y007645D03*
X008369Y007645D03*
D46*
X008398Y008226D03*
X008331Y008493D03*
X008417Y008574D03*
X008293Y008721D03*
X008336Y009979D03*
X008331Y009984D03*
X008412Y010055D03*
X008450Y010217D03*
X008350Y010217D03*
X008288Y010551D03*
X008293Y010732D03*
X008336Y011094D03*
X008326Y011265D03*
X008350Y011284D03*
X008369Y011303D03*
X008502Y011780D03*
X008412Y011875D03*
X008336Y011799D03*
X008331Y012046D03*
X008116Y012661D03*
X007926Y012709D03*
X008102Y012890D03*
X008102Y013137D03*
X007683Y013080D03*
X007683Y013013D03*
X007683Y013252D03*
X007488Y012747D03*
X007511Y012718D03*
X007521Y012709D03*
D47*
X007521Y012523D03*
X007526Y012523D03*
X007535Y012513D03*
X007540Y012513D03*
X007554Y012504D03*
X007845Y012742D03*
X008088Y012923D03*
X008183Y012923D03*
X008340Y013047D03*
X008183Y013171D03*
X008088Y013171D03*
X007845Y013352D03*
X007697Y013047D03*
X007602Y013047D03*
X007392Y013171D03*
X007392Y012923D03*
X008150Y012504D03*
X008164Y012513D03*
X008169Y012513D03*
X008183Y012523D03*
X008197Y012532D03*
X008302Y012089D03*
X007931Y011518D03*
X007926Y011518D03*
X007545Y011518D03*
X007554Y011270D03*
X008502Y011022D03*
X008502Y009736D03*
X007921Y009050D03*
X007916Y009050D03*
X007907Y009055D03*
X007902Y009055D03*
X007573Y009055D03*
X007569Y009055D03*
X007559Y009050D03*
X007554Y009050D03*
X007559Y009550D03*
X008493Y008021D03*
X007926Y007530D03*
X007921Y007530D03*
X007916Y007526D03*
X007912Y007526D03*
X007564Y007526D03*
X007559Y007526D03*
X007554Y007530D03*
X007550Y007530D03*
D48*
X008293Y008543D03*
X008293Y009491D03*
X008502Y010548D03*
X007907Y013664D03*
X007893Y013664D03*
X007883Y013664D03*
X007878Y013664D03*
X007874Y013664D03*
X007869Y013664D03*
X007864Y013664D03*
X007859Y013664D03*
X007854Y013664D03*
X007850Y013664D03*
X007845Y013664D03*
X007840Y013664D03*
X007835Y013664D03*
X007831Y013664D03*
X007826Y013664D03*
X007821Y013664D03*
X007812Y013664D03*
X007802Y013664D03*
D49*
X007407Y013185D03*
X007407Y012909D03*
X007364Y012670D03*
X008340Y012670D03*
X007531Y011246D03*
X008502Y010312D03*
X008297Y008245D03*
D50*
X008321Y008278D03*
X008502Y009060D03*
X008312Y009745D03*
X008317Y009750D03*
X008483Y010551D03*
X008312Y011032D03*
X008312Y011565D03*
X008488Y011560D03*
X008317Y011851D03*
X007526Y011241D03*
X008336Y013428D03*
D51*
X008321Y013047D03*
X008498Y013047D03*
D52*
X008193Y013171D03*
X008078Y013171D03*
X008078Y012923D03*
X008193Y012923D03*
X007950Y012742D03*
X007883Y012427D03*
X007874Y012427D03*
X007859Y012427D03*
X007850Y012427D03*
X007835Y012427D03*
X007826Y012427D03*
X007816Y012427D03*
X008321Y012156D03*
X008293Y011851D03*
X008498Y011870D03*
X008293Y011032D03*
X007707Y013047D03*
D53*
X007688Y013290D03*
X007616Y013290D03*
X007421Y013485D03*
X007416Y013480D03*
X007407Y013471D03*
X007426Y013490D03*
X007435Y013499D03*
X008278Y013490D03*
X008283Y013485D03*
X008312Y012089D03*
X008498Y011556D03*
X008498Y011022D03*
X008302Y010541D03*
X008293Y010322D03*
X008498Y009736D03*
X008498Y009479D03*
X008293Y009069D03*
X008483Y008021D03*
X008498Y007707D03*
X007954Y007549D03*
X007540Y010589D03*
X007521Y011537D03*
X007954Y011537D03*
D54*
X007945Y011525D03*
X007550Y011515D03*
X007535Y011525D03*
X007550Y011268D03*
X008498Y010553D03*
X007559Y010077D03*
X007550Y009557D03*
X007540Y009043D03*
X007535Y009038D03*
X007935Y009043D03*
X007940Y009038D03*
X008297Y008543D03*
X008398Y008514D03*
X008193Y012530D03*
X008207Y012539D03*
X008212Y012544D03*
X008216Y012544D03*
X008221Y012549D03*
X008226Y012554D03*
X007940Y012744D03*
X007850Y012744D03*
X007697Y012806D03*
X007411Y012882D03*
X007473Y012559D03*
X007478Y012554D03*
X007483Y012549D03*
X007492Y012544D03*
X007497Y012539D03*
X007507Y012535D03*
X007511Y012530D03*
X007850Y013349D03*
X007940Y013349D03*
X008188Y013564D03*
X008202Y013554D03*
X008207Y013549D03*
X008212Y013549D03*
X008216Y013545D03*
X008221Y013540D03*
X008240Y013526D03*
X008293Y013211D03*
X007516Y013564D03*
X007511Y013559D03*
X007502Y013554D03*
X007497Y013549D03*
X007488Y013545D03*
X007483Y013540D03*
D55*
X008317Y011568D03*
X008317Y011034D03*
X008302Y010310D03*
X008498Y010310D03*
D56*
X008479Y010548D03*
X008317Y010034D03*
X008479Y009748D03*
X008483Y009743D03*
X008498Y009057D03*
X008302Y009057D03*
X008317Y007719D03*
X007526Y010572D03*
X008483Y011563D03*
X008321Y011849D03*
X008345Y012678D03*
X008350Y012682D03*
X008350Y013406D03*
X008345Y013416D03*
X008340Y013421D03*
X007364Y013421D03*
X007359Y013416D03*
X007354Y013406D03*
X007354Y012682D03*
X007359Y012678D03*
D57*
X007707Y013290D03*
X007793Y013661D03*
X007807Y013661D03*
X007816Y013661D03*
X007888Y013661D03*
X007897Y013661D03*
X007945Y013657D03*
X008469Y011608D03*
X008302Y010732D03*
X008293Y010546D03*
X008398Y010541D03*
X008474Y010341D03*
X008474Y010246D03*
X008474Y009088D03*
X008474Y008993D03*
X008302Y008721D03*
X008498Y008559D03*
X008474Y007954D03*
D58*
X008293Y008235D03*
X008498Y008273D03*
X008307Y011032D03*
X008302Y011560D03*
X008317Y013452D03*
X008312Y013456D03*
X008307Y013461D03*
X007397Y013461D03*
X007392Y013456D03*
X007388Y013452D03*
D59*
X007426Y013249D03*
X007388Y013163D03*
X007388Y012930D03*
X007426Y012844D03*
X007673Y012454D03*
X007688Y012449D03*
X007692Y012449D03*
X007702Y012444D03*
X007707Y012444D03*
X007712Y012444D03*
X007721Y012439D03*
X007726Y012439D03*
X007731Y012439D03*
X007735Y012439D03*
X007740Y012435D03*
X007745Y012439D03*
X007750Y012435D03*
X007754Y012435D03*
X007759Y012435D03*
X007764Y012435D03*
X007769Y012435D03*
X007773Y012430D03*
X007778Y012430D03*
X007783Y012430D03*
X007788Y012430D03*
X007793Y012430D03*
X007797Y012430D03*
X007802Y012430D03*
X007807Y012430D03*
X007812Y012430D03*
X007821Y012430D03*
X007840Y012425D03*
X007845Y012425D03*
X007854Y012425D03*
X007864Y012425D03*
X007869Y012430D03*
X007878Y012430D03*
X007888Y012430D03*
X007893Y012430D03*
X007897Y012430D03*
X007902Y012430D03*
X007907Y012430D03*
X007912Y012430D03*
X007916Y012430D03*
X007921Y012430D03*
X007926Y012430D03*
X007931Y012430D03*
X007935Y012435D03*
X007940Y012435D03*
X007945Y012435D03*
X007950Y012435D03*
X007954Y012435D03*
X007959Y012435D03*
X007964Y012439D03*
X007969Y012439D03*
X007974Y012439D03*
X007978Y012439D03*
X007993Y012444D03*
X007997Y012444D03*
X008012Y012449D03*
X008016Y012449D03*
X008031Y012454D03*
X008297Y012087D03*
X008278Y012844D03*
X008278Y013249D03*
X007950Y013349D03*
X008016Y013640D03*
X008021Y013640D03*
X008007Y013645D03*
X008002Y013645D03*
X007997Y013645D03*
X007988Y013649D03*
X007983Y013649D03*
X007978Y013649D03*
X007974Y013649D03*
X007969Y013654D03*
X007964Y013654D03*
X007959Y013654D03*
X007954Y013654D03*
X007950Y013654D03*
X007935Y013659D03*
X007931Y013659D03*
X007926Y013659D03*
X007921Y013659D03*
X007916Y013659D03*
X007912Y013659D03*
X007902Y013659D03*
X007797Y013659D03*
X007788Y013659D03*
X007783Y013659D03*
X007778Y013659D03*
X007773Y013659D03*
X007769Y013659D03*
X007764Y013659D03*
X007759Y013654D03*
X007754Y013654D03*
X007750Y013654D03*
X007745Y013654D03*
X007740Y013654D03*
X007735Y013654D03*
X007726Y013649D03*
X007721Y013649D03*
X007716Y013649D03*
X007702Y013645D03*
X007697Y013645D03*
X007683Y013640D03*
X007669Y013635D03*
X008035Y013635D03*
X008293Y010034D03*
X008498Y008023D03*
X008293Y007719D03*
D60*
X007430Y009812D03*
X007211Y013047D03*
X008493Y013047D03*
D61*
X008088Y013380D03*
X007945Y013352D03*
X007840Y013352D03*
X007578Y013599D03*
X007597Y013609D03*
X007611Y013614D03*
X007621Y013618D03*
X007626Y013618D03*
X007631Y013623D03*
X007635Y013623D03*
X007640Y013628D03*
X007645Y013628D03*
X007650Y013628D03*
X007654Y013633D03*
X007659Y013633D03*
X007664Y013633D03*
X007673Y013638D03*
X007678Y013638D03*
X007688Y013642D03*
X007692Y013642D03*
X007707Y013647D03*
X007712Y013647D03*
X007731Y013652D03*
X007940Y013657D03*
X007993Y013647D03*
X008012Y013642D03*
X008026Y013638D03*
X008031Y013638D03*
X008040Y013633D03*
X008045Y013633D03*
X008050Y013633D03*
X008055Y013628D03*
X008059Y013628D03*
X008064Y013628D03*
X008069Y013623D03*
X008074Y013623D03*
X008078Y013618D03*
X008083Y013618D03*
X008093Y013614D03*
X008097Y013614D03*
X008107Y013609D03*
X008116Y013604D03*
X008126Y013599D03*
X008493Y011865D03*
X008293Y011560D03*
X008040Y011275D03*
X008021Y011275D03*
X008002Y011275D03*
X007983Y011275D03*
X007964Y011275D03*
X007950Y011275D03*
X007935Y011275D03*
X007921Y011275D03*
X007907Y011275D03*
X007893Y011275D03*
X007878Y011275D03*
X007869Y011275D03*
X007854Y011275D03*
X007840Y011275D03*
X007831Y011275D03*
X007821Y011275D03*
X007812Y011275D03*
X007802Y011275D03*
X007793Y011275D03*
X007783Y011275D03*
X007773Y011275D03*
X007764Y011275D03*
X007754Y011275D03*
X007745Y011275D03*
X007735Y011275D03*
X007726Y011275D03*
X007716Y011275D03*
X007707Y011275D03*
X007697Y011275D03*
X007688Y011275D03*
X007678Y011275D03*
X007669Y011275D03*
X007659Y011275D03*
X007650Y011275D03*
X007640Y011275D03*
X007631Y011275D03*
X007621Y011275D03*
X007611Y011275D03*
X007602Y011275D03*
X007592Y011275D03*
X007583Y011275D03*
X007569Y011275D03*
X007645Y011489D03*
X007654Y011489D03*
X007683Y011484D03*
X007692Y011484D03*
X007697Y011484D03*
X007702Y011484D03*
X007707Y011484D03*
X007712Y011484D03*
X007716Y011484D03*
X007721Y011484D03*
X007731Y011484D03*
X007740Y011484D03*
X007750Y011484D03*
X007754Y011484D03*
X007759Y011484D03*
X007764Y011484D03*
X007769Y011484D03*
X007773Y011484D03*
X007778Y011484D03*
X007788Y011484D03*
X007816Y011489D03*
X007826Y011489D03*
X007531Y010798D03*
X007688Y009079D03*
X007697Y009079D03*
X007702Y009079D03*
X007707Y009079D03*
X007712Y009079D03*
X007716Y009079D03*
X007721Y009079D03*
X007726Y009079D03*
X007731Y009079D03*
X007740Y009079D03*
X007745Y009079D03*
X007750Y009079D03*
X007754Y009079D03*
X007759Y009079D03*
X007764Y009079D03*
X007769Y009079D03*
X007778Y009079D03*
X007793Y009079D03*
X008307Y008721D03*
X007807Y007502D03*
X007802Y007502D03*
X007797Y007502D03*
X007793Y007502D03*
X007783Y007502D03*
X007745Y007497D03*
X007735Y007497D03*
X007697Y007502D03*
X007683Y007502D03*
X007673Y007502D03*
X007664Y007502D03*
D62*
X008436Y008283D03*
X008321Y010994D03*
X008493Y011775D03*
X008255Y012799D03*
X008259Y012809D03*
X007592Y013047D03*
X007445Y012809D03*
X007450Y012799D03*
D63*
X007369Y012663D03*
X007373Y012659D03*
X007378Y012649D03*
X007388Y012639D03*
X007369Y013426D03*
X007373Y013435D03*
X007378Y013440D03*
X007383Y013445D03*
X008321Y013445D03*
X008326Y013440D03*
X008331Y013435D03*
X008336Y012663D03*
X008321Y012644D03*
X008317Y012639D03*
X008312Y011853D03*
X008307Y011563D03*
X008493Y011558D03*
X008493Y011020D03*
X007521Y010805D03*
X007531Y010577D03*
X008312Y010034D03*
X007531Y009576D03*
X008297Y009062D03*
X008312Y008543D03*
X008407Y008276D03*
X008412Y008276D03*
X008493Y007704D03*
D64*
X008307Y009491D03*
X008493Y010553D03*
X008307Y011853D03*
D65*
X008045Y010077D03*
X008040Y010077D03*
X008035Y010077D03*
X008031Y010077D03*
X008026Y010077D03*
X008021Y010077D03*
X008016Y010077D03*
X008012Y010077D03*
X008007Y010077D03*
X008002Y010077D03*
X007997Y010077D03*
X007993Y010077D03*
X007988Y010077D03*
X007983Y010077D03*
X007978Y010077D03*
X007974Y010077D03*
X007969Y010077D03*
X007964Y010077D03*
X007959Y010077D03*
X007954Y010077D03*
X007950Y010077D03*
X007945Y010077D03*
X007940Y010077D03*
X007935Y010077D03*
X007931Y010077D03*
X007926Y010077D03*
X007921Y010077D03*
X007916Y010077D03*
X007912Y010077D03*
X007907Y010077D03*
X007902Y010077D03*
X007897Y010077D03*
X007893Y010077D03*
X007888Y010077D03*
X007883Y010077D03*
X007878Y010077D03*
X007874Y010077D03*
X007869Y010077D03*
X007864Y010077D03*
X007859Y010077D03*
X007854Y010077D03*
X007850Y010077D03*
X007845Y010077D03*
X007840Y010077D03*
X007835Y010077D03*
X007831Y010077D03*
X007826Y010077D03*
X007821Y010077D03*
X007816Y010077D03*
X007812Y010077D03*
X007807Y010077D03*
X007802Y010077D03*
X007797Y010077D03*
X007793Y010077D03*
X007788Y010077D03*
X007783Y010077D03*
X007778Y010077D03*
X007773Y010077D03*
X007769Y010077D03*
X007764Y010077D03*
X007759Y010077D03*
X007754Y010077D03*
X007750Y010077D03*
X007745Y010077D03*
X007740Y010077D03*
X007735Y010077D03*
X007731Y010077D03*
X007726Y010077D03*
X007721Y010077D03*
X007716Y010077D03*
X007712Y010077D03*
X007707Y010077D03*
X007702Y010077D03*
X007697Y010077D03*
X007692Y010077D03*
X007688Y010077D03*
X007683Y010077D03*
X007678Y010077D03*
X007673Y010077D03*
X007669Y010077D03*
X007664Y010077D03*
X007659Y010077D03*
X007654Y010077D03*
X007650Y010077D03*
X007645Y010077D03*
X007640Y010077D03*
X007635Y010077D03*
X007631Y010077D03*
X007626Y010077D03*
X007621Y010077D03*
X007616Y010077D03*
X007611Y010077D03*
X007607Y010077D03*
X007602Y010077D03*
X007597Y010077D03*
X007592Y010077D03*
X007588Y010077D03*
X007583Y010077D03*
X007578Y010077D03*
X007573Y010077D03*
X007569Y010077D03*
X007564Y010077D03*
X007564Y009548D03*
X007569Y009548D03*
X007578Y009548D03*
X007588Y009548D03*
X007597Y009548D03*
X007607Y009548D03*
X007616Y009548D03*
X007626Y009548D03*
X007635Y009548D03*
X007645Y009548D03*
X007654Y009548D03*
X007664Y009548D03*
X007673Y009548D03*
X007683Y009548D03*
X007692Y009548D03*
X007702Y009548D03*
X007712Y009548D03*
X007721Y009548D03*
X007731Y009548D03*
X007740Y009548D03*
X007750Y009548D03*
X007759Y009548D03*
X007769Y009548D03*
X007778Y009548D03*
X007788Y009548D03*
X007797Y009548D03*
X007807Y009548D03*
X007816Y009548D03*
X007826Y009548D03*
X007835Y009548D03*
X007845Y009548D03*
X007854Y009548D03*
X007864Y009548D03*
X007874Y009548D03*
X007883Y009548D03*
X007893Y009548D03*
X007902Y009548D03*
X007912Y009548D03*
X007921Y009548D03*
X007931Y009548D03*
X007940Y009548D03*
X007950Y009548D03*
X007959Y009548D03*
X007969Y009548D03*
X007978Y009548D03*
X007988Y009548D03*
X007997Y009548D03*
X008007Y009548D03*
X008016Y009548D03*
X008026Y009548D03*
X008035Y009548D03*
X008045Y009548D03*
X007912Y009052D03*
X007564Y009052D03*
X008493Y008557D03*
X007907Y007523D03*
X007569Y007523D03*
X008493Y010048D03*
D66*
X008488Y009743D03*
X008493Y009738D03*
X008493Y009476D03*
X008297Y010315D03*
X007545Y010077D03*
X008312Y007718D03*
D67*
X007935Y007535D03*
X007902Y007521D03*
X007897Y007521D03*
X007883Y007516D03*
X007592Y007516D03*
X007578Y007521D03*
X007573Y007521D03*
X008493Y008273D03*
X007931Y009045D03*
X007926Y009045D03*
X007893Y009060D03*
X007888Y009060D03*
X007588Y009060D03*
X007583Y009060D03*
X007550Y009045D03*
X007545Y009045D03*
X008297Y010031D03*
X008297Y011032D03*
X007912Y011508D03*
X007907Y011508D03*
X007893Y011503D03*
X007583Y011503D03*
X007569Y011508D03*
X008297Y011851D03*
X007697Y013290D03*
X007602Y013290D03*
X007507Y013557D03*
X007521Y013566D03*
X007526Y013571D03*
X007531Y013571D03*
X007535Y013576D03*
X007540Y013580D03*
X007545Y013580D03*
X008136Y013595D03*
X008145Y013590D03*
X008155Y013585D03*
X008159Y013580D03*
X008164Y013580D03*
X008169Y013576D03*
X008178Y013571D03*
X008183Y013566D03*
X008193Y013561D03*
X008197Y013557D03*
D68*
X008488Y013047D03*
D69*
X008359Y013395D03*
X008093Y013399D03*
X007349Y013399D03*
X007345Y013395D03*
X008321Y011570D03*
X008488Y011017D03*
X008321Y009750D03*
D70*
X008312Y009491D03*
X008488Y010553D03*
D71*
X008488Y010303D03*
X008483Y011017D03*
X007521Y011232D03*
X007516Y010813D03*
X007521Y010560D03*
X007521Y009593D03*
X008483Y009479D03*
X008488Y009050D03*
X008307Y008254D03*
X008483Y007707D03*
X008102Y013390D03*
X008097Y013395D03*
X007340Y013385D03*
D72*
X007197Y013047D03*
X008488Y010007D03*
X007416Y009812D03*
X008488Y008521D03*
D73*
X008488Y008285D03*
D74*
X008421Y008273D03*
X008488Y008021D03*
X007950Y007545D03*
X007526Y007545D03*
X007526Y009031D03*
X007531Y009036D03*
X007945Y009036D03*
X007950Y009031D03*
X007545Y009560D03*
X007545Y011265D03*
X007526Y011532D03*
X008307Y012089D03*
X007935Y013352D03*
X008226Y013537D03*
X008231Y013533D03*
X008236Y013528D03*
X008250Y013518D03*
X008255Y013514D03*
X007492Y013547D03*
X007478Y013537D03*
X007473Y013533D03*
X007469Y013528D03*
X007464Y013523D03*
X007459Y013523D03*
X007450Y013514D03*
X007445Y013509D03*
D75*
X007221Y013044D03*
X008483Y013044D03*
D76*
X008479Y011022D03*
X008474Y011022D03*
X008483Y010298D03*
X008317Y010298D03*
D77*
X008483Y010010D03*
X008483Y008519D03*
X008393Y013335D03*
X007311Y013335D03*
D78*
X007321Y012737D03*
X007326Y012728D03*
X008378Y012728D03*
X008383Y012737D03*
X008383Y013356D03*
X008317Y009045D03*
X008483Y009045D03*
X008474Y007711D03*
D79*
X008479Y013047D03*
D80*
X008131Y013440D03*
X008131Y012654D03*
X008345Y011915D03*
X008340Y011911D03*
X008479Y011749D03*
X008336Y011506D03*
X008455Y010948D03*
X008336Y010710D03*
X008455Y010610D03*
X008336Y010491D03*
X008340Y010091D03*
X008336Y009691D03*
X008336Y008700D03*
X008345Y008605D03*
D81*
X007526Y009584D03*
X008479Y011565D03*
X008093Y012694D03*
X007459Y013047D03*
D82*
X008321Y010296D03*
X008479Y010296D03*
X008479Y008000D03*
D83*
X008479Y008440D03*
X008479Y009931D03*
D84*
X008345Y010813D03*
X008383Y011803D03*
X007483Y012751D03*
X007469Y012770D03*
X007588Y013047D03*
X007469Y013323D03*
X008074Y013171D03*
X008197Y013171D03*
X008197Y012923D03*
X008074Y012923D03*
X008340Y008802D03*
X008326Y008497D03*
X008479Y008307D03*
X008459Y007773D03*
D85*
X007454Y009812D03*
X007230Y013047D03*
X008474Y013047D03*
D86*
X007926Y012780D03*
X007683Y012837D03*
X007516Y012713D03*
X007507Y012723D03*
X007440Y012980D03*
X007440Y013113D03*
X008417Y011880D03*
X008474Y011899D03*
X008331Y011803D03*
X008345Y011632D03*
X008450Y011632D03*
X008374Y011308D03*
X008331Y011270D03*
X008312Y011251D03*
X008445Y011098D03*
X008326Y010717D03*
X008431Y010503D03*
X008436Y010498D03*
X008464Y010498D03*
X008469Y010503D03*
X008474Y010079D03*
X008445Y009817D03*
X008450Y009812D03*
X008350Y009817D03*
X008345Y009812D03*
X008450Y009555D03*
X008455Y009550D03*
X008326Y009441D03*
X007411Y009812D03*
X008331Y008326D03*
D87*
X008321Y008181D03*
X008350Y008609D03*
X008459Y009676D03*
X008350Y010096D03*
X008450Y010944D03*
X008459Y011496D03*
X008474Y011744D03*
X008350Y011915D03*
X008078Y012711D03*
X007369Y012968D03*
D88*
X008450Y010615D03*
X008474Y009924D03*
X008340Y008700D03*
X008474Y008433D03*
D89*
X008469Y013047D03*
D90*
X008464Y013044D03*
D91*
X007383Y012937D03*
X007383Y013156D03*
X008464Y011618D03*
X007535Y010798D03*
X008383Y010560D03*
X008412Y010522D03*
X008464Y009798D03*
D92*
X008340Y008602D03*
X008464Y011503D03*
D93*
X008326Y010774D03*
X008464Y010603D03*
X008336Y010088D03*
X008326Y008764D03*
X008331Y008702D03*
X008459Y007640D03*
X008216Y013295D03*
X008126Y013437D03*
X007988Y013499D03*
X007954Y013509D03*
X007950Y013509D03*
X007926Y013514D03*
X007921Y013514D03*
X007916Y013514D03*
X007897Y013518D03*
X007888Y013518D03*
X007883Y013518D03*
X007878Y013518D03*
X007874Y013518D03*
X007869Y013518D03*
X007864Y013518D03*
X007854Y013518D03*
X007845Y013518D03*
X007835Y013518D03*
X007831Y013518D03*
X007826Y013518D03*
X007821Y013518D03*
X007816Y013518D03*
X007812Y013518D03*
X007802Y013518D03*
X007783Y013514D03*
X007778Y013514D03*
X007773Y013514D03*
X007754Y013509D03*
X007731Y013504D03*
X007702Y013495D03*
X007907Y013399D03*
D94*
X008464Y009684D03*
D95*
X008459Y013047D03*
D96*
X007826Y013349D03*
X007583Y013292D03*
X007583Y013049D03*
X007583Y012806D03*
X007826Y012740D03*
X008459Y010953D03*
X008331Y010782D03*
X008331Y010496D03*
X008331Y009691D03*
X008331Y008771D03*
D97*
X008459Y010605D03*
X007550Y010796D03*
D98*
X008336Y011908D03*
X007974Y012589D03*
X007931Y012580D03*
X007926Y012580D03*
X007916Y012580D03*
X007907Y012694D03*
X007778Y012580D03*
X007773Y012580D03*
X007731Y012589D03*
X007650Y012751D03*
X007650Y012856D03*
X007645Y012856D03*
X007659Y012856D03*
X007816Y012932D03*
X007821Y012932D03*
X007826Y012932D03*
X007831Y012932D03*
X007835Y012932D03*
X007840Y012932D03*
X007845Y012932D03*
X007850Y012932D03*
X007854Y012932D03*
X007859Y012932D03*
X007864Y012932D03*
X007869Y012932D03*
X007874Y012932D03*
X007878Y012932D03*
X007883Y012932D03*
X007888Y012932D03*
X007888Y013161D03*
X007883Y013161D03*
X007874Y013161D03*
X007869Y013161D03*
X007864Y013161D03*
X007854Y013161D03*
X007850Y013161D03*
X007845Y013161D03*
X007835Y013161D03*
X007831Y013161D03*
X007826Y013161D03*
X007821Y013161D03*
X007816Y013161D03*
X007654Y013237D03*
X007650Y013237D03*
X007645Y013237D03*
X008202Y013171D03*
X008202Y012923D03*
X008159Y012799D03*
X008126Y012656D03*
X008459Y009412D03*
D99*
X008455Y013044D03*
X007249Y013044D03*
D100*
X008136Y013442D03*
X008340Y010708D03*
X008455Y009407D03*
X008450Y009403D03*
X008450Y007630D03*
D101*
X008455Y007635D03*
X008136Y012651D03*
X007369Y013128D03*
D102*
X007254Y013047D03*
X008450Y013047D03*
D103*
X008445Y013047D03*
D104*
X008440Y013047D03*
X007264Y013047D03*
D105*
X007269Y013047D03*
X008436Y013047D03*
X007430Y011889D03*
D106*
X007435Y011880D03*
X008040Y011880D03*
X008431Y013047D03*
X008040Y007892D03*
X007435Y007892D03*
D107*
X008426Y013237D03*
D108*
X008426Y012849D03*
X007278Y012849D03*
X007278Y013240D03*
D109*
X007283Y013261D03*
X007283Y012832D03*
X008421Y013261D03*
X007421Y010341D03*
X007421Y009812D03*
D110*
X008421Y012830D03*
D111*
X008417Y013275D03*
X007288Y013275D03*
D112*
X008417Y012813D03*
D113*
X008412Y013290D03*
X007292Y013290D03*
D114*
X008412Y012801D03*
X007507Y011191D03*
X007507Y010520D03*
X007507Y009634D03*
D115*
X007297Y013304D03*
X008407Y013304D03*
D116*
X008407Y012787D03*
D117*
X008378Y010567D03*
X008407Y010529D03*
D118*
X008378Y011034D03*
X007531Y010077D03*
X007511Y009614D03*
X007307Y013325D03*
X008398Y013325D03*
X008402Y013316D03*
D119*
X008402Y012775D03*
X007302Y012775D03*
X008378Y007721D03*
X008383Y007721D03*
X008388Y007721D03*
X008393Y007721D03*
X008398Y007721D03*
D120*
X007511Y010817D03*
X007307Y012766D03*
X008398Y012766D03*
D121*
X008398Y011825D03*
X007935Y011520D03*
X007540Y011520D03*
X008297Y010543D03*
X008398Y010005D03*
X007554Y009553D03*
X008297Y007718D03*
X007931Y007533D03*
X007545Y007533D03*
D122*
X008378Y009493D03*
X008383Y009493D03*
X008388Y009493D03*
X008393Y009493D03*
X008398Y009493D03*
X007511Y010536D03*
X007511Y011208D03*
X008383Y011036D03*
X008388Y011036D03*
X008398Y011036D03*
D123*
X008307Y010732D03*
X008393Y009998D03*
X008293Y009741D03*
X008040Y009545D03*
X008031Y009545D03*
X008021Y009545D03*
X008012Y009545D03*
X008002Y009545D03*
X007993Y009545D03*
X007983Y009545D03*
X007974Y009545D03*
X007964Y009545D03*
X007954Y009545D03*
X007945Y009545D03*
X007935Y009545D03*
X007926Y009545D03*
X007916Y009545D03*
X007907Y009545D03*
X007897Y009545D03*
X007888Y009545D03*
X007878Y009545D03*
X007869Y009545D03*
X007859Y009545D03*
X007850Y009545D03*
X007840Y009545D03*
X007831Y009545D03*
X007821Y009545D03*
X007812Y009545D03*
X007802Y009545D03*
X007793Y009545D03*
X007783Y009545D03*
X007773Y009545D03*
X007764Y009545D03*
X007754Y009545D03*
X007745Y009545D03*
X007735Y009545D03*
X007726Y009545D03*
X007716Y009545D03*
X007707Y009545D03*
X007697Y009545D03*
X007688Y009545D03*
X007678Y009545D03*
X007669Y009545D03*
X007659Y009545D03*
X007650Y009545D03*
X007640Y009545D03*
X007631Y009545D03*
X007621Y009545D03*
X007611Y009545D03*
X007602Y009545D03*
X007592Y009545D03*
X007583Y009545D03*
X007573Y009545D03*
X007573Y008169D03*
X007569Y008169D03*
X007564Y008169D03*
X007559Y008169D03*
X007554Y008169D03*
X007550Y008169D03*
X007545Y008169D03*
X007540Y008169D03*
X007535Y008169D03*
X007531Y008169D03*
X007526Y008169D03*
X007578Y008169D03*
X007583Y008169D03*
X007588Y008169D03*
X007592Y008169D03*
X007597Y008169D03*
X007602Y008169D03*
X007607Y008169D03*
X007611Y008169D03*
X007616Y008169D03*
X007621Y008169D03*
X007626Y008169D03*
X007631Y008169D03*
X007635Y008169D03*
X007640Y008169D03*
X007645Y008169D03*
X007650Y008169D03*
X007654Y008169D03*
X007659Y008169D03*
X007664Y008169D03*
X007669Y008169D03*
X007673Y008169D03*
X007678Y008169D03*
X007683Y008169D03*
X007688Y008169D03*
X007692Y008169D03*
X007697Y008169D03*
X007702Y008169D03*
X007707Y008169D03*
X007712Y008169D03*
X007716Y008169D03*
X007721Y008169D03*
X007726Y008169D03*
X007731Y008169D03*
X007735Y008169D03*
X007740Y008169D03*
X007745Y008169D03*
X007750Y008169D03*
X007754Y008169D03*
X007759Y008169D03*
X007764Y008169D03*
X007769Y008169D03*
X007773Y008169D03*
X007778Y008169D03*
X007783Y008169D03*
X007788Y008169D03*
X007793Y008169D03*
X007797Y008169D03*
X007802Y008169D03*
X007807Y008169D03*
X007812Y008169D03*
X007816Y008169D03*
X007821Y008169D03*
X007826Y008169D03*
X007831Y008169D03*
X007835Y008169D03*
X007840Y008169D03*
X007845Y008169D03*
X007850Y008169D03*
X007854Y008169D03*
X007859Y008169D03*
X007864Y008169D03*
X007869Y008169D03*
X007874Y008169D03*
X007878Y008169D03*
X007883Y008169D03*
X007888Y008169D03*
X007893Y008169D03*
X007897Y008169D03*
X007902Y008169D03*
X007907Y008169D03*
X007912Y008169D03*
X007916Y008169D03*
X007921Y008169D03*
X007926Y008169D03*
X007931Y008169D03*
X007935Y008169D03*
X007940Y008169D03*
X007945Y008169D03*
X007950Y008169D03*
X007954Y008169D03*
X007421Y008169D03*
X007416Y008169D03*
X007411Y008169D03*
X007407Y008169D03*
X007402Y008169D03*
X007397Y008169D03*
X007392Y008169D03*
X007388Y008169D03*
X007383Y008169D03*
X007378Y008169D03*
X007373Y008169D03*
X007369Y008169D03*
X007364Y008169D03*
X007359Y008169D03*
X007354Y008169D03*
X007349Y008169D03*
X007345Y008169D03*
X007340Y008169D03*
X007335Y008169D03*
X007330Y008169D03*
X007326Y008169D03*
X007321Y008169D03*
X007316Y008169D03*
X007311Y008169D03*
X007307Y008169D03*
X007302Y008169D03*
X007297Y008169D03*
X007292Y008169D03*
X007288Y008169D03*
X007283Y008169D03*
X007278Y008169D03*
X007273Y008169D03*
X007269Y008169D03*
X007264Y008169D03*
X007259Y008169D03*
X007254Y008169D03*
X007249Y008169D03*
X007245Y008169D03*
X007240Y008169D03*
X007235Y008169D03*
X007230Y008169D03*
X007226Y008169D03*
X007621Y011494D03*
X008393Y011818D03*
X008083Y012470D03*
X008078Y012470D03*
X008074Y012470D03*
X008059Y012461D03*
X008055Y012461D03*
X008050Y012461D03*
X008026Y012451D03*
X008021Y012451D03*
X007988Y012442D03*
X007983Y012442D03*
X008102Y012480D03*
X007716Y012442D03*
X007683Y012451D03*
X007678Y012451D03*
X007654Y012461D03*
X007650Y012461D03*
X007645Y012461D03*
X007631Y012470D03*
X007626Y012470D03*
X007621Y012470D03*
X007602Y012480D03*
X007583Y012489D03*
X007597Y012804D03*
X007702Y012804D03*
X007597Y013290D03*
D124*
X008393Y011034D03*
D125*
X008326Y010293D03*
X007516Y009603D03*
X007316Y012747D03*
X008388Y012747D03*
D126*
X008388Y010553D03*
D127*
X008364Y012704D03*
X008369Y012713D03*
X008307Y012942D03*
X008374Y013371D03*
X008369Y013380D03*
X007454Y013047D03*
X007335Y013380D03*
X007335Y012713D03*
X007340Y012704D03*
D128*
X007330Y012720D03*
X007330Y013368D03*
X008107Y013387D03*
X008307Y013154D03*
X008374Y012720D03*
X008112Y012711D03*
X008107Y012706D03*
X008312Y010300D03*
D129*
X008355Y012689D03*
X007349Y012689D03*
D130*
X008355Y011920D03*
X008340Y011501D03*
X008340Y010486D03*
X008355Y010100D03*
X008340Y009681D03*
D131*
X008345Y010096D03*
D132*
X008336Y008597D03*
X007902Y012575D03*
X007893Y012575D03*
X007888Y012575D03*
X007883Y012575D03*
X007878Y012575D03*
X007874Y012575D03*
X007869Y012575D03*
X007859Y012575D03*
X007850Y012575D03*
X007840Y012575D03*
X007831Y012575D03*
X007826Y012575D03*
X007821Y012575D03*
X007816Y012575D03*
X007807Y012575D03*
X007802Y012575D03*
X007754Y012585D03*
X007750Y012585D03*
X007950Y012585D03*
X007954Y012585D03*
X007988Y012594D03*
X007897Y012794D03*
X007893Y012794D03*
X007888Y012794D03*
X008136Y012871D03*
X008174Y012804D03*
X008178Y012804D03*
X008183Y012804D03*
X008188Y012804D03*
X008193Y012804D03*
X008197Y012804D03*
X008136Y012975D03*
X008136Y013118D03*
X008131Y013118D03*
X008136Y013223D03*
X008174Y013290D03*
X008178Y013290D03*
X008183Y013290D03*
X008188Y013290D03*
X008193Y013290D03*
X008197Y013290D03*
X007897Y013299D03*
X007893Y013299D03*
X007888Y013299D03*
X007650Y013099D03*
X007654Y012994D03*
X007645Y012994D03*
X007373Y012956D03*
D133*
X008331Y013047D03*
D134*
X008331Y012656D03*
X007464Y013047D03*
D135*
X008331Y011510D03*
X008331Y010710D03*
D136*
X008326Y013049D03*
D137*
X008326Y012651D03*
X008312Y012632D03*
X007535Y009569D03*
D138*
X007535Y009305D03*
X007531Y009305D03*
X007526Y009305D03*
X007521Y009305D03*
X007516Y009305D03*
X007511Y009305D03*
X007507Y009305D03*
X007502Y009305D03*
X007497Y009305D03*
X007492Y009305D03*
X007488Y009305D03*
X007483Y009305D03*
X007478Y009305D03*
X007473Y009305D03*
X007469Y009305D03*
X007464Y009305D03*
X007459Y009305D03*
X007454Y009305D03*
X007450Y009305D03*
X007445Y009305D03*
X007440Y009305D03*
X007435Y009305D03*
X007430Y009305D03*
X007426Y009305D03*
X007421Y009305D03*
X007416Y009305D03*
X007411Y009305D03*
X007407Y009305D03*
X007402Y009305D03*
X007397Y009305D03*
X007392Y009305D03*
X007388Y009305D03*
X007383Y009305D03*
X007378Y009305D03*
X007373Y009305D03*
X007369Y009305D03*
X007364Y009305D03*
X007359Y009305D03*
X007354Y009305D03*
X007349Y009305D03*
X007345Y009305D03*
X007340Y009305D03*
X007335Y009305D03*
X007330Y009305D03*
X007326Y009305D03*
X007321Y009305D03*
X007316Y009305D03*
X007311Y009305D03*
X007307Y009305D03*
X007302Y009305D03*
X007297Y009305D03*
X007292Y009305D03*
X007288Y009305D03*
X007283Y009305D03*
X007278Y009305D03*
X007273Y009305D03*
X007269Y009305D03*
X007264Y009305D03*
X007259Y009305D03*
X007254Y009305D03*
X007249Y009305D03*
X007245Y009305D03*
X007240Y009305D03*
X007235Y009305D03*
X007230Y009305D03*
X007226Y009305D03*
X007540Y009305D03*
X007545Y009305D03*
X007550Y009305D03*
X007554Y009305D03*
X007559Y009305D03*
X007564Y009305D03*
X007569Y009305D03*
X007573Y009305D03*
X007578Y009305D03*
X007583Y009305D03*
X007588Y009305D03*
X007592Y009305D03*
X007597Y009305D03*
X007602Y009305D03*
X007607Y009305D03*
X007611Y009305D03*
X007616Y009305D03*
X007621Y009305D03*
X007626Y009305D03*
X007631Y009305D03*
X007635Y009305D03*
X007640Y009305D03*
X007645Y009305D03*
X007650Y009305D03*
X007654Y009305D03*
X007659Y009305D03*
X007664Y009305D03*
X007669Y009305D03*
X007673Y009305D03*
X007678Y009305D03*
X007683Y009305D03*
X007688Y009305D03*
X007692Y009305D03*
X007697Y009305D03*
X007702Y009305D03*
X007707Y009305D03*
X007712Y009305D03*
X007716Y009305D03*
X007721Y009305D03*
X007726Y009305D03*
X007731Y009305D03*
X007735Y009305D03*
X007740Y009305D03*
X007745Y009305D03*
X007750Y009305D03*
X007754Y009305D03*
X007759Y009305D03*
X007764Y009305D03*
X007769Y009305D03*
X007773Y009305D03*
X007778Y009305D03*
X007783Y009305D03*
X007788Y009305D03*
X007793Y009305D03*
X007797Y009305D03*
X007802Y009305D03*
X007807Y009305D03*
X007812Y009305D03*
X007816Y009305D03*
X007821Y009305D03*
X007826Y009305D03*
X007831Y009305D03*
X007835Y009305D03*
X007840Y009305D03*
X007845Y009305D03*
X007850Y009305D03*
X007854Y009305D03*
X007859Y009305D03*
X007864Y009305D03*
X007869Y009305D03*
X007874Y009305D03*
X007878Y009305D03*
X007883Y009305D03*
X007888Y009305D03*
X007893Y009305D03*
X007897Y009305D03*
X007902Y009305D03*
X007907Y009305D03*
X007912Y009305D03*
X007916Y009305D03*
X007921Y009305D03*
X007926Y009305D03*
X007931Y009305D03*
X007935Y009305D03*
X007940Y009305D03*
X007945Y009305D03*
X007950Y009305D03*
X007954Y009305D03*
X007959Y009305D03*
X007964Y009305D03*
X007969Y009305D03*
X007974Y009305D03*
X007978Y009305D03*
X007983Y009305D03*
X007988Y009305D03*
X007993Y009305D03*
X007997Y009305D03*
X008002Y009305D03*
X008007Y009305D03*
X008012Y009305D03*
X008016Y009305D03*
X008021Y009305D03*
X008026Y009305D03*
X008031Y009305D03*
X008035Y009305D03*
X008040Y009305D03*
X008045Y009305D03*
X007845Y009071D03*
X007840Y009071D03*
X007835Y009071D03*
X007826Y009071D03*
X007854Y009067D03*
X007859Y009067D03*
X007864Y009067D03*
X007869Y009067D03*
X007645Y009071D03*
X007640Y009071D03*
X007635Y009071D03*
X007631Y009071D03*
X007621Y009067D03*
X007616Y009067D03*
X007611Y009067D03*
X007607Y009067D03*
X008312Y008724D03*
X008317Y008728D03*
X008321Y008728D03*
X007859Y007509D03*
X007854Y007509D03*
X007850Y007509D03*
X007845Y007509D03*
X007840Y007509D03*
X007835Y007504D03*
X007826Y007504D03*
X007821Y007504D03*
X007816Y007504D03*
X007812Y007504D03*
X007669Y007504D03*
X007659Y007504D03*
X007654Y007504D03*
X007650Y007504D03*
X007645Y007504D03*
X007640Y007504D03*
X007631Y007509D03*
X007626Y007509D03*
X007621Y007509D03*
X007616Y007509D03*
X007559Y010601D03*
D139*
X008317Y013047D03*
D140*
X008302Y013180D03*
X007402Y013180D03*
X007402Y012913D03*
X007383Y012647D03*
X008312Y010546D03*
X008317Y010546D03*
X008307Y009745D03*
X008302Y009741D03*
D141*
X008312Y013044D03*
D142*
X008112Y013383D03*
X007326Y013364D03*
X008312Y009048D03*
D143*
X008307Y007718D03*
X007535Y011253D03*
D144*
X008302Y011851D03*
X008269Y012589D03*
X008278Y012599D03*
X008288Y012609D03*
X008174Y012923D03*
X008097Y012923D03*
X007931Y012742D03*
X007859Y012742D03*
X007688Y013047D03*
X007616Y013047D03*
X007859Y013352D03*
X007931Y013352D03*
X008097Y013171D03*
X008174Y013171D03*
X007435Y012589D03*
X007426Y012599D03*
X007416Y012609D03*
X007407Y012618D03*
X007540Y009564D03*
X007521Y009026D03*
X007954Y009026D03*
D145*
X008302Y008543D03*
X008302Y007719D03*
X007521Y007552D03*
X008302Y009491D03*
X008297Y009738D03*
X008302Y010034D03*
X007554Y010077D03*
X008302Y011034D03*
X007950Y011530D03*
X008297Y011558D03*
X007540Y011258D03*
X007450Y012578D03*
X007445Y012582D03*
X007440Y012587D03*
X007611Y012806D03*
X007611Y013044D03*
X007611Y013287D03*
X007397Y013173D03*
X007430Y013497D03*
X007440Y013506D03*
X007454Y013516D03*
X008245Y013521D03*
X008259Y013511D03*
X008264Y013506D03*
X008269Y013502D03*
X008274Y013497D03*
X008297Y013197D03*
X008297Y012897D03*
X008259Y012582D03*
X008255Y012578D03*
X008250Y012573D03*
X007854Y012744D03*
D146*
X007602Y012804D03*
X007502Y012537D03*
X007516Y012528D03*
X007531Y012518D03*
X007545Y012508D03*
X007564Y012499D03*
X008140Y012499D03*
X008159Y012508D03*
X008174Y012518D03*
X008188Y012528D03*
X008202Y012537D03*
X008293Y012880D03*
X007411Y013214D03*
X007554Y011513D03*
X007559Y011513D03*
X007916Y011513D03*
X007921Y011513D03*
X007554Y010598D03*
X008297Y009488D03*
D147*
X008274Y012594D03*
X008283Y012604D03*
X008293Y012613D03*
X007688Y012804D03*
X007616Y012804D03*
X007397Y012918D03*
X007411Y012613D03*
X007421Y012604D03*
X007430Y012594D03*
D148*
X007592Y012485D03*
X007611Y012475D03*
X007616Y012475D03*
X007635Y012466D03*
X007640Y012466D03*
X007659Y012456D03*
X007664Y012456D03*
X007669Y012456D03*
X007697Y012447D03*
X007831Y012427D03*
X008002Y012447D03*
X008007Y012447D03*
X008035Y012456D03*
X008040Y012456D03*
X008045Y012456D03*
X008064Y012466D03*
X008069Y012466D03*
X008088Y012475D03*
X008093Y012475D03*
X008088Y012713D03*
X007945Y012742D03*
X007840Y012742D03*
X008083Y012923D03*
X008188Y012923D03*
X008283Y012856D03*
X008188Y013171D03*
X008083Y013171D03*
X008283Y013237D03*
X007597Y013047D03*
X007478Y013047D03*
X007421Y013237D03*
X007421Y012856D03*
X007569Y010603D03*
X007650Y009074D03*
X007654Y009074D03*
X007659Y009074D03*
X007669Y009074D03*
X007626Y009069D03*
X007812Y009074D03*
X007816Y009074D03*
X007821Y009074D03*
X007831Y009074D03*
X007850Y009069D03*
X007864Y007511D03*
X007831Y007506D03*
X007635Y007506D03*
X007611Y007511D03*
D149*
X007940Y011522D03*
X008231Y012556D03*
X008240Y012566D03*
X008264Y012585D03*
X007692Y012804D03*
X007607Y012804D03*
X007454Y012575D03*
X007464Y012566D03*
X007488Y012547D03*
X007607Y013290D03*
X007692Y013290D03*
D150*
X007692Y013047D03*
X007607Y013047D03*
X007473Y013047D03*
X007935Y012742D03*
X008093Y012923D03*
X008178Y012923D03*
X008178Y013171D03*
X008093Y013171D03*
X008245Y012570D03*
X008236Y012561D03*
X007469Y012561D03*
X007459Y012570D03*
X007531Y011527D03*
X007526Y010803D03*
X007545Y010593D03*
D151*
X007878Y013302D03*
X007883Y013302D03*
X007902Y013302D03*
X007907Y013302D03*
X007912Y013302D03*
X008159Y013292D03*
X008164Y013292D03*
X008169Y013292D03*
X008202Y013292D03*
X008207Y013292D03*
X008212Y013292D03*
X008231Y013302D03*
D152*
X008097Y012699D03*
D153*
X008045Y011884D03*
D154*
X008045Y008676D03*
X007430Y008676D03*
X008045Y007900D03*
D155*
X008040Y008686D03*
D156*
X008035Y011873D03*
D157*
X007440Y011875D03*
X007440Y008688D03*
X008035Y008688D03*
X008035Y007888D03*
X007440Y007888D03*
D158*
X007445Y008693D03*
X008031Y008693D03*
X008031Y011870D03*
X007445Y011870D03*
D159*
X007445Y007883D03*
X008031Y007883D03*
D160*
X008021Y007878D03*
X007454Y007878D03*
X008026Y008697D03*
X008026Y011865D03*
X007450Y011865D03*
D161*
X007450Y008695D03*
X007450Y007880D03*
X008026Y007880D03*
D162*
X008021Y011863D03*
X007454Y011863D03*
D163*
X007454Y008700D03*
X008021Y008700D03*
D164*
X008016Y007873D03*
X007464Y007873D03*
X007459Y007873D03*
X007459Y011861D03*
X008016Y011861D03*
D165*
X008016Y008702D03*
X007459Y008702D03*
D166*
X007464Y008705D03*
X008012Y008705D03*
X008012Y007871D03*
X007469Y007871D03*
X007464Y011858D03*
X008012Y011858D03*
D167*
X008007Y011856D03*
X007469Y011856D03*
X007469Y008707D03*
X008007Y008707D03*
X008007Y007869D03*
X008002Y007869D03*
X007473Y007869D03*
D168*
X007478Y007866D03*
X007997Y007866D03*
X008002Y011853D03*
X007473Y011853D03*
D169*
X007473Y008709D03*
X008002Y008709D03*
D170*
X007997Y008712D03*
X007993Y008712D03*
X007483Y008712D03*
X007478Y008712D03*
X007478Y011851D03*
X007483Y011851D03*
X007997Y011851D03*
D171*
X007993Y011849D03*
X007988Y011849D03*
X007488Y011849D03*
X007488Y008714D03*
X007988Y008714D03*
X007988Y007861D03*
X007983Y007861D03*
X007492Y007861D03*
X007488Y007861D03*
D172*
X007483Y007864D03*
X007993Y007864D03*
D173*
X007978Y007859D03*
X007502Y007859D03*
X007497Y007859D03*
X007497Y008717D03*
X007492Y008717D03*
X007978Y008717D03*
X007983Y008717D03*
X007983Y011846D03*
X007978Y011846D03*
X007497Y011846D03*
X007492Y011846D03*
D174*
X007502Y011844D03*
X007974Y011844D03*
D175*
X007974Y008719D03*
X007502Y008719D03*
D176*
X007507Y007857D03*
X007969Y007857D03*
X007974Y007857D03*
D177*
X007964Y007854D03*
X007959Y007854D03*
X007516Y007854D03*
X007511Y007854D03*
X007511Y011842D03*
X007507Y011842D03*
X007964Y011842D03*
X007969Y011842D03*
D178*
X007969Y008721D03*
X007964Y008721D03*
X007516Y008721D03*
X007511Y008721D03*
X007507Y008721D03*
D179*
X007959Y008724D03*
X007959Y011839D03*
X007516Y011839D03*
D180*
X007550Y010596D03*
X007531Y007542D03*
X007535Y007537D03*
X007540Y007537D03*
X007940Y007537D03*
X007945Y007542D03*
D181*
X007926Y013047D03*
X007921Y013047D03*
X007916Y013047D03*
X007912Y013047D03*
X007907Y013047D03*
X007902Y013047D03*
X007897Y013047D03*
X007812Y013047D03*
X007807Y013047D03*
X007802Y013047D03*
X007797Y013047D03*
X007793Y013047D03*
X007788Y013047D03*
X007783Y013047D03*
X007778Y013047D03*
D182*
X007854Y013349D03*
D183*
X007554Y010794D03*
D184*
X007535Y010077D03*
D185*
X007526Y010077D03*
D186*
X007521Y010077D03*
D187*
X007516Y010079D03*
D188*
X007511Y010074D03*
X007430Y010341D03*
X007430Y011013D03*
D189*
X007507Y010834D03*
D190*
X007507Y010077D03*
D191*
X007502Y011010D03*
D192*
X007502Y010074D03*
D193*
X007497Y011010D03*
D194*
X007497Y010077D03*
D195*
X007492Y011013D03*
D196*
X007492Y010077D03*
D197*
X007488Y011013D03*
D198*
X007488Y010077D03*
D199*
X007483Y011013D03*
D200*
X007483Y010074D03*
D201*
X007478Y011010D03*
X007245Y013044D03*
D202*
X007478Y010341D03*
D203*
X007478Y009810D03*
D204*
X007473Y011010D03*
D205*
X007473Y010341D03*
D206*
X007473Y009810D03*
D207*
X007469Y011013D03*
X007240Y013047D03*
D208*
X007469Y010341D03*
D209*
X007469Y009812D03*
D210*
X007464Y009810D03*
X007464Y011010D03*
D211*
X007464Y010341D03*
D212*
X007459Y011013D03*
D213*
X007459Y010341D03*
X007459Y009812D03*
D214*
X007454Y011010D03*
D215*
X007454Y010341D03*
D216*
X007450Y010341D03*
X007450Y011013D03*
D217*
X007450Y009810D03*
X007226Y013044D03*
D218*
X007445Y011010D03*
X007445Y009810D03*
D219*
X007445Y010341D03*
D220*
X007440Y009812D03*
X007440Y011013D03*
D221*
X007440Y010341D03*
D222*
X007435Y010341D03*
X007435Y011013D03*
D223*
X007435Y009812D03*
D224*
X007435Y008683D03*
D225*
X007430Y007902D03*
D226*
X007426Y010339D03*
X007426Y011010D03*
D227*
X007426Y009810D03*
D228*
X007421Y011013D03*
D229*
X007302Y013314D03*
D230*
X007297Y012790D03*
D231*
X007292Y012799D03*
D232*
X007288Y012816D03*
D233*
X007273Y013044D03*
D234*
X007259Y013044D03*
D235*
X007235Y013044D03*
D236*
X007216Y013044D03*
D237*
X007207Y013042D03*
D238*
X007202Y013047D03*
D239*
X007156Y015000D02*
X007156Y015460D01*
X006926Y015460D01*
X006849Y015384D01*
X006849Y015230D01*
X006926Y015153D01*
X007156Y015153D01*
X007002Y015153D02*
X006849Y015000D01*
X006695Y015077D02*
X006695Y015153D01*
X006619Y015230D01*
X006465Y015230D01*
X006388Y015153D01*
X006388Y015077D01*
X006465Y015000D01*
X006619Y015000D01*
X006695Y015077D01*
X006619Y015230D02*
X006695Y015307D01*
X006695Y015384D01*
X006619Y015460D01*
X006465Y015460D01*
X006388Y015384D01*
X006388Y015307D01*
X006465Y015230D01*
X007763Y015230D02*
X007763Y015077D01*
X007840Y015000D01*
X007994Y015000D01*
X008070Y015077D01*
X008070Y015230D02*
X007917Y015307D01*
X007840Y015307D01*
X007763Y015230D01*
X008070Y015230D02*
X008070Y015460D01*
X007763Y015460D01*
X008224Y015384D02*
X008224Y015230D01*
X008301Y015153D01*
X008531Y015153D01*
X008531Y015000D02*
X008531Y015460D01*
X008301Y015460D01*
X008224Y015384D01*
X008377Y015153D02*
X008224Y015000D01*
D240*
X019678Y013980D02*
X019678Y020130D01*
X019678Y013880D02*
X019678Y007730D01*
M02*
